M48
; DRILL file {KiCad 7.0.7} date Fri Nov  3 00:41:16 2023
; FORMAT={-:-/ absolute / metric / decimal}
; #@! TF.CreationDate,2023-11-03T00:41:16-04:00
; #@! TF.GenerationSoftware,Kicad,Pcbnew,7.0.7
; #@! TF.FileFunction,Plated,1,4,PTH
FMAT,2
METRIC
; #@! TA.AperFunction,Plated,PTH,ViaDrill
T1C0.300
; #@! TA.AperFunction,Plated,PTH,ViaDrill
T2C0.400
; #@! TA.AperFunction,Plated,PTH,ComponentDrill
T3C0.550
; #@! TA.AperFunction,Plated,PTH,ComponentDrill
T4C0.680
; #@! TA.AperFunction,Plated,PTH,ComponentDrill
T5C0.780
; #@! TA.AperFunction,Plated,PTH,ComponentDrill
T6C0.850
; #@! TA.AperFunction,Plated,PTH,ComponentDrill
T7C1.100
; #@! TA.AperFunction,Plated,PTH,ComponentDrill
T8C1.270
%
G90
G05
T1
X30.0Y-151.0
X30.25Y-142.75
X32.0Y-123.5
X32.0Y-125.0
X32.0Y-138.5
X32.0Y-140.25
X32.25Y-127.0
X32.5Y-131.0
X34.75Y-122.0
X34.75Y-137.0
X38.5Y-80.0
X38.5Y-89.0
X40.5Y-70.5
X40.75Y-96.25
X41.0Y-125.2
X41.0Y-129.25
X41.0Y-133.25
X41.0Y-147.25
X41.85Y-70.65
X42.0Y-140.5
X42.0Y-147.25
X42.25Y-78.0
X43.0Y-142.5
X43.12Y-66.0
X43.5Y-70.75
X44.39Y-65.0
X44.75Y-90.5
X45.66Y-71.0
X45.66Y-75.41
X45.75Y-141.75
X45.75Y-143.5
X46.175Y-54.7
X46.175Y-55.7
X46.25Y-104.25
X46.25Y-106.0
X46.93Y-65.07
X46.975Y-131.2
X47.0Y-115.5
X47.25Y-49.75
X47.25Y-70.5
X47.25Y-127.0
X47.25Y-145.0
X48.2Y-65.8
X48.25Y-42.0
X48.25Y-43.0
X48.25Y-44.5
X48.25Y-45.5
X48.25Y-47.0
X48.25Y-48.0
X48.5Y-70.5
X48.75Y-33.0
X48.75Y-34.25
X48.75Y-49.75
X48.75Y-135.25
X49.0Y-115.5
X49.25Y-147.0
X49.47Y-66.28
X49.47Y-75.47
X49.5Y-90.5
X49.5Y-92.25
X49.75Y-70.5
X50.0Y-33.0
X50.0Y-34.25
X50.5Y-118.525
X51.25Y-54.8
X51.25Y-55.8
X52.0Y-99.25
X55.75Y-46.25
X56.02Y-134.0
X56.25Y-61.5
X56.75Y-53.0
X56.75Y-60.0
X57.0Y-104.25
X57.25Y-46.25
X57.25Y-56.25
X57.25Y-57.25
X58.575Y-89.925
X58.75Y-46.25
X59.25Y-133.5
X59.75Y-148.5
X59.762Y-146.742
X60.2Y-31.8
X60.2Y-33.0
X60.25Y-131.0
X61.0Y-120.5
X61.0Y-140.0
X61.5Y-106.75
X62.25Y-72.75
X62.75Y-56.0
X63.0Y-120.5
X63.25Y-77.25
X63.599Y-63.7
X64.475Y-136.975
X64.5Y-64.75
X64.5Y-123.5
X64.8Y-154.0
X65.5Y-65.75
X66.5Y-74.75
X66.5Y-127.0
X66.75Y-87.5
X67.5Y-127.0
X67.5Y-130.5
X69.5Y-80.5
X69.75Y-76.5
X70.0Y-37.0
X70.0Y-38.0
X70.0Y-47.0
X70.0Y-48.0
X70.0Y-57.012
X70.0Y-58.012
X70.25Y-106.5
X70.5Y-80.5
X71.75Y-71.75
X72.025Y-110.025
X72.75Y-114.0
X73.0Y-71.75
X73.25Y-81.5
X74.0Y-77.25
X74.25Y-112.5
X75.0Y-125.5
X75.0Y-140.5
X75.75Y-40.0
X75.75Y-50.0
X75.75Y-60.0
X76.5Y-85.5
X77.0Y-125.5
X77.0Y-140.5
X77.308Y-31.8
X78.5Y-128.525
X78.75Y-143.5
X80.5Y-76.5
X81.0Y-72.75
X81.25Y-35.75
X81.865Y-116.365
X81.905Y-118.905
X81.925Y-113.825
X81.945Y-121.445
X82.745Y-122.245
X84.5Y-57.25
X84.5Y-63.0
X85.045Y-123.045
X86.405Y-123.845
X86.945Y-112.555
X87.0Y-128.75
X89.5Y-48.5
X92.2Y-123.0
T2
X23.5Y-94.25
X23.5Y-95.75
X24.75Y-94.25
X24.75Y-95.75
X26.0Y-94.25
X26.0Y-95.75
X27.25Y-94.25
X27.25Y-95.75
X34.0Y-24.75
X37.0Y-24.75
X38.75Y-71.5
X43.25Y-107.5
X44.0Y-40.25
X44.5Y-78.0
X51.0Y-78.5
X55.75Y-113.5
X55.75Y-115.0
X55.85Y-80.6
X57.25Y-34.0
X61.0Y-52.5
X61.0Y-77.25
X63.5Y-88.25
X68.0Y-89.0
X68.2Y-64.8
X68.5Y-91.5
X70.25Y-85.5
X71.25Y-88.25
X71.75Y-94.5
X73.75Y-94.5
X75.75Y-97.75
X78.2Y-81.8
X80.75Y-104.75
X85.5Y-76.5
X91.75Y-100.75
X91.75Y-102.25
T4
X77.5Y-37.48
X77.5Y-40.02
X77.5Y-47.48
X77.5Y-50.02
X77.5Y-57.48
X77.5Y-60.02
X78.77Y-38.75
X78.77Y-48.75
X78.77Y-58.75
T5
X36.805Y-115.94
X36.805Y-118.48
X36.805Y-121.02
X36.805Y-123.56
X36.805Y-130.94
X36.805Y-133.48
X36.805Y-136.02
X36.805Y-138.56
X38.215Y-94.28
X38.215Y-102.22
X40.715Y-80.28
X40.715Y-88.22
X40.755Y-94.28
X40.755Y-102.22
X43.255Y-80.28
X43.255Y-88.22
X43.295Y-94.28
X43.295Y-102.22
X44.745Y-115.94
X44.745Y-118.48
X44.745Y-121.02
X44.745Y-123.56
X44.745Y-130.94
X44.745Y-133.48
X44.745Y-136.02
X44.745Y-138.56
X45.795Y-80.28
X45.795Y-88.22
X45.835Y-94.28
X45.835Y-102.22
X48.335Y-80.28
X48.335Y-88.22
X50.805Y-120.94
X50.805Y-123.48
X50.805Y-126.02
X50.805Y-128.56
X50.805Y-135.94
X50.805Y-138.48
X50.805Y-141.02
X50.805Y-143.56
X58.745Y-120.94
X58.745Y-123.48
X58.745Y-126.02
X58.745Y-128.56
X58.745Y-135.94
X58.745Y-138.48
X58.745Y-141.02
X58.745Y-143.56
X61.555Y-95.19
X61.555Y-97.73
X61.555Y-100.27
X61.555Y-102.81
X61.555Y-108.44
X61.555Y-110.98
X61.555Y-113.52
X61.555Y-116.06
X64.805Y-125.94
X64.805Y-128.48
X64.805Y-131.02
X64.805Y-133.56
X64.805Y-140.94
X64.805Y-143.48
X64.805Y-146.02
X64.805Y-148.56
X69.495Y-95.19
X69.495Y-97.73
X69.495Y-100.27
X69.495Y-102.81
X69.495Y-108.44
X69.495Y-110.98
X69.495Y-113.52
X69.495Y-116.06
X72.745Y-125.94
X72.745Y-128.48
X72.745Y-131.02
X72.745Y-133.56
X72.745Y-140.94
X72.745Y-143.48
X72.745Y-146.02
X72.745Y-148.56
X78.055Y-99.69
X78.055Y-102.23
X78.055Y-104.77
X78.055Y-107.31
X85.995Y-99.69
X85.995Y-102.23
X85.995Y-104.77
X85.995Y-107.31
T7
X39.945Y-60.0
X45.485Y-52.195
X48.025Y-52.195
X49.75Y-96.92
X49.75Y-107.08
X50.105Y-60.0
X50.565Y-52.195
X53.445Y-36.25
X54.25Y-94.42
X54.25Y-104.58
X60.985Y-43.445
X63.525Y-43.445
X63.605Y-36.25
X66.065Y-43.445
X76.945Y-89.0
X77.17Y-95.5
X87.105Y-89.0
X87.33Y-95.5
T8
X27.025Y-121.0
X27.025Y-126.0
X27.025Y-131.0
X27.025Y-136.0
X27.025Y-141.0
X27.025Y-146.0
X27.025Y-151.0
X29.25Y-65.0
X29.25Y-70.0
X29.25Y-75.0
X29.25Y-80.0
X29.25Y-85.0
X29.25Y-90.0
X29.25Y-95.0
X47.308Y-26.25
X52.308Y-26.25
X57.308Y-26.25
X62.308Y-26.25
X67.308Y-26.25
X72.308Y-26.25
X77.308Y-26.25
X86.775Y-35.75
X86.775Y-40.75
X86.775Y-45.75
X86.775Y-50.75
X86.775Y-55.75
X86.775Y-60.75
X86.775Y-65.75
T3
X91.37Y-73.875G85X92.02Y-73.875
G05
X91.37Y-81.625G85X92.02Y-81.625
G05
T6
X87.62Y-74.025G85X88.17Y-74.025
G05
X87.62Y-81.475G85X88.17Y-81.475
G05
T0
M30
