G04 #@! TF.GenerationSoftware,KiCad,Pcbnew,7.0.8*
G04 #@! TF.CreationDate,2023-10-29T23:59:44-04:00*
G04 #@! TF.ProjectId,SeniorDesign,53656e69-6f72-4446-9573-69676e2e6b69,rev?*
G04 #@! TF.SameCoordinates,Original*
G04 #@! TF.FileFunction,Legend,Bot*
G04 #@! TF.FilePolarity,Positive*
%FSLAX46Y46*%
G04 Gerber Fmt 4.6, Leading zero omitted, Abs format (unit mm)*
G04 Created by KiCad (PCBNEW 7.0.8) date 2023-10-29 23:59:44*
%MOMM*%
%LPD*%
G01*
G04 APERTURE LIST*
G04 Aperture macros list*
%AMRoundRect*
0 Rectangle with rounded corners*
0 $1 Rounding radius*
0 $2 $3 $4 $5 $6 $7 $8 $9 X,Y pos of 4 corners*
0 Add a 4 corners polygon primitive as box body*
4,1,4,$2,$3,$4,$5,$6,$7,$8,$9,$2,$3,0*
0 Add four circle primitives for the rounded corners*
1,1,$1+$1,$2,$3*
1,1,$1+$1,$4,$5*
1,1,$1+$1,$6,$7*
1,1,$1+$1,$8,$9*
0 Add four rect primitives between the rounded corners*
20,1,$1+$1,$2,$3,$4,$5,0*
20,1,$1+$1,$4,$5,$6,$7,0*
20,1,$1+$1,$6,$7,$8,$9,0*
20,1,$1+$1,$8,$9,$2,$3,0*%
G04 Aperture macros list end*
%ADD10C,0.508000*%
%ADD11C,2.200000*%
%ADD12R,1.905000X2.000000*%
%ADD13O,1.905000X2.000000*%
%ADD14C,2.032000*%
%ADD15RoundRect,0.102000X-0.565000X0.565000X-0.565000X-0.565000X0.565000X-0.565000X0.565000X0.565000X0*%
%ADD16C,1.334000*%
%ADD17RoundRect,0.102000X-0.565000X-0.565000X0.565000X-0.565000X0.565000X0.565000X-0.565000X0.565000X0*%
%ADD18C,0.900000*%
%ADD19R,2.200000X2.200000*%
%ADD20O,2.200000X2.200000*%
%ADD21RoundRect,0.102000X0.540000X-0.540000X0.540000X0.540000X-0.540000X0.540000X-0.540000X-0.540000X0*%
%ADD22C,1.284000*%
%ADD23RoundRect,0.102000X0.565000X0.565000X-0.565000X0.565000X-0.565000X-0.565000X0.565000X-0.565000X0*%
%ADD24O,0.800000X0.800000*%
%ADD25O,1.800000X1.150000*%
%ADD26O,2.000000X1.450000*%
G04 APERTURE END LIST*
D10*
X27406000Y-117750101D02*
G75*
G03*
X27406000Y-117750101I-381000J0D01*
G01*
X44439500Y-26250000D02*
G75*
G03*
X44439500Y-26250000I-381000J0D01*
G01*
X87156000Y-68999900D02*
G75*
G03*
X87156000Y-68999900I-381000J0D01*
G01*
X27406000Y-61750101D02*
G75*
G03*
X27406000Y-61750101I-381000J0D01*
G01*
%LPC*%
D11*
X89000000Y-162750000D03*
D12*
X60985000Y-43445000D03*
D13*
X63525000Y-43445000D03*
X66065000Y-43445000D03*
D14*
X27025000Y-121000000D03*
X27025000Y-126000000D03*
X27025000Y-131000001D03*
X27025000Y-136000001D03*
X27025000Y-141000001D03*
X27025000Y-146000001D03*
X27025000Y-151000001D03*
D15*
X48335000Y-80280000D03*
D16*
X45795000Y-80280000D03*
X43255000Y-80280000D03*
X40715000Y-80280000D03*
X40715000Y-88220000D03*
X43255000Y-88220000D03*
X45795000Y-88220000D03*
X48335000Y-88220000D03*
D17*
X64805000Y-125940000D03*
D16*
X64805000Y-128480000D03*
X64805000Y-131020000D03*
X64805000Y-133560000D03*
X72745000Y-133560000D03*
X72745000Y-131020000D03*
X72745000Y-128480000D03*
X72745000Y-125940000D03*
D17*
X50805000Y-120940000D03*
D16*
X50805000Y-123480000D03*
X50805000Y-126020000D03*
X50805000Y-128560000D03*
X58745000Y-128560000D03*
X58745000Y-126020000D03*
X58745000Y-123480000D03*
X58745000Y-120940000D03*
D18*
X36250000Y-21145000D03*
X33250000Y-21145000D03*
D17*
X36805000Y-115940000D03*
D16*
X36805000Y-118480000D03*
X36805000Y-121020000D03*
X36805000Y-123560000D03*
X44745000Y-123560000D03*
X44745000Y-121020000D03*
X44745000Y-118480000D03*
X44745000Y-115940000D03*
D17*
X61555000Y-95190000D03*
D16*
X61555000Y-97730000D03*
X61555000Y-100270000D03*
X61555000Y-102810000D03*
X69495000Y-102810000D03*
X69495000Y-100270000D03*
X69495000Y-97730000D03*
X69495000Y-95190000D03*
D12*
X45485000Y-52195000D03*
D13*
X48025000Y-52195000D03*
X50565000Y-52195000D03*
D19*
X53445000Y-36250000D03*
D20*
X63605000Y-36250000D03*
D17*
X50805000Y-135940000D03*
D16*
X50805000Y-138480000D03*
X50805000Y-141020000D03*
X50805000Y-143560000D03*
X58745000Y-143560000D03*
X58745000Y-141020000D03*
X58745000Y-138480000D03*
X58745000Y-135940000D03*
D21*
X77500000Y-40020000D03*
D22*
X78770000Y-38750000D03*
X77500000Y-37480000D03*
D19*
X76945000Y-89000000D03*
D20*
X87105000Y-89000000D03*
D17*
X36805000Y-130940000D03*
D16*
X36805000Y-133480000D03*
X36805000Y-136020000D03*
X36805000Y-138560000D03*
X44745000Y-138560000D03*
X44745000Y-136020000D03*
X44745000Y-133480000D03*
X44745000Y-130940000D03*
D14*
X47308399Y-26250000D03*
X52308399Y-26250000D03*
X57308400Y-26250000D03*
X62308400Y-26250000D03*
X67308400Y-26250000D03*
X72308400Y-26250000D03*
X77308400Y-26250000D03*
D21*
X77500000Y-60020000D03*
D22*
X78770000Y-58750000D03*
X77500000Y-57480000D03*
D17*
X64805000Y-140940000D03*
D16*
X64805000Y-143480000D03*
X64805000Y-146020000D03*
X64805000Y-148560000D03*
X72745000Y-148560000D03*
X72745000Y-146020000D03*
X72745000Y-143480000D03*
X72745000Y-140940000D03*
D23*
X69495000Y-116060000D03*
D16*
X69495000Y-113520000D03*
X69495000Y-110980000D03*
X69495000Y-108440000D03*
X61555000Y-108440000D03*
X61555000Y-110980000D03*
X61555000Y-113520000D03*
X61555000Y-116060000D03*
D15*
X45835000Y-94280000D03*
D16*
X43295000Y-94280000D03*
X40755000Y-94280000D03*
X38215000Y-94280000D03*
X38215000Y-102220000D03*
X40755000Y-102220000D03*
X43295000Y-102220000D03*
X45835000Y-102220000D03*
D19*
X39945000Y-60000000D03*
D20*
X50105000Y-60000000D03*
D11*
X24750000Y-162750000D03*
D17*
X78055000Y-99690000D03*
D16*
X78055000Y-102230000D03*
X78055000Y-104770000D03*
X78055000Y-107310000D03*
X85995000Y-107310000D03*
X85995000Y-104770000D03*
X85995000Y-102230000D03*
X85995000Y-99690000D03*
D24*
X88945000Y-80250000D03*
X88945000Y-75250000D03*
D25*
X91695000Y-81625000D03*
D26*
X87895000Y-81475000D03*
X87895000Y-74025000D03*
D25*
X91695000Y-73875000D03*
D11*
X24750000Y-24000000D03*
D19*
X49750000Y-107080000D03*
D20*
X49750000Y-96920000D03*
D14*
X86775000Y-65750001D03*
X86775000Y-60750001D03*
X86775000Y-55750000D03*
X86775000Y-50750000D03*
X86775000Y-45750000D03*
X86775000Y-40750000D03*
X86775000Y-35750000D03*
D21*
X77500000Y-50020000D03*
D22*
X78770000Y-48750000D03*
X77500000Y-47480000D03*
D19*
X85355000Y-95500000D03*
D20*
X75195000Y-95500000D03*
D14*
X27025000Y-65000000D03*
X27025000Y-70000000D03*
X27025000Y-75000001D03*
X27025000Y-80000001D03*
X27025000Y-85000001D03*
X27025000Y-90000001D03*
X27025000Y-95000001D03*
D11*
X89000000Y-24000000D03*
D19*
X54250000Y-94420000D03*
D20*
X54250000Y-104580000D03*
D19*
X55250000Y-59170000D03*
D20*
X55250000Y-69330000D03*
%LPD*%
M02*
