G04 #@! TF.GenerationSoftware,KiCad,Pcbnew,7.0.7*
G04 #@! TF.CreationDate,2023-11-03T00:41:13-04:00*
G04 #@! TF.ProjectId,SeniorDesign,53656e69-6f72-4446-9573-69676e2e6b69,rev?*
G04 #@! TF.SameCoordinates,Original*
G04 #@! TF.FileFunction,Legend,Bot*
G04 #@! TF.FilePolarity,Positive*
%FSLAX46Y46*%
G04 Gerber Fmt 4.6, Leading zero omitted, Abs format (unit mm)*
G04 Created by KiCad (PCBNEW 7.0.7) date 2023-11-03 00:41:13*
%MOMM*%
%LPD*%
G01*
G04 APERTURE LIST*
G04 Aperture macros list*
%AMRoundRect*
0 Rectangle with rounded corners*
0 $1 Rounding radius*
0 $2 $3 $4 $5 $6 $7 $8 $9 X,Y pos of 4 corners*
0 Add a 4 corners polygon primitive as box body*
4,1,4,$2,$3,$4,$5,$6,$7,$8,$9,$2,$3,0*
0 Add four circle primitives for the rounded corners*
1,1,$1+$1,$2,$3*
1,1,$1+$1,$4,$5*
1,1,$1+$1,$6,$7*
1,1,$1+$1,$8,$9*
0 Add four rect primitives between the rounded corners*
20,1,$1+$1,$2,$3,$4,$5,0*
20,1,$1+$1,$4,$5,$6,$7,0*
20,1,$1+$1,$6,$7,$8,$9,0*
20,1,$1+$1,$8,$9,$2,$3,0*%
G04 Aperture macros list end*
%ADD10C,0.150000*%
%ADD11C,0.508000*%
%ADD12C,0.120000*%
%ADD13C,2.032000*%
%ADD14RoundRect,0.250000X-1.000000X-0.650000X1.000000X-0.650000X1.000000X0.650000X-1.000000X0.650000X0*%
%ADD15R,1.905000X2.000000*%
%ADD16O,1.905000X2.000000*%
%ADD17RoundRect,0.102000X-0.565000X0.565000X-0.565000X-0.565000X0.565000X-0.565000X0.565000X0.565000X0*%
%ADD18C,1.334000*%
%ADD19RoundRect,0.102000X-0.565000X-0.565000X0.565000X-0.565000X0.565000X0.565000X-0.565000X0.565000X0*%
%ADD20C,0.900000*%
%ADD21C,2.200000*%
%ADD22R,2.200000X2.200000*%
%ADD23O,2.200000X2.200000*%
%ADD24RoundRect,0.102000X0.540000X-0.540000X0.540000X0.540000X-0.540000X0.540000X-0.540000X-0.540000X0*%
%ADD25C,1.284000*%
%ADD26RoundRect,0.102000X0.565000X0.565000X-0.565000X0.565000X-0.565000X-0.565000X0.565000X-0.565000X0*%
%ADD27O,0.800000X0.800000*%
%ADD28O,1.800000X1.150000*%
%ADD29O,2.000000X1.450000*%
G04 APERTURE END LIST*
D10*
X25464285Y-92954819D02*
X25464285Y-91954819D01*
X25464285Y-91954819D02*
X25226190Y-91954819D01*
X25226190Y-91954819D02*
X25083333Y-92002438D01*
X25083333Y-92002438D02*
X24988095Y-92097676D01*
X24988095Y-92097676D02*
X24940476Y-92192914D01*
X24940476Y-92192914D02*
X24892857Y-92383390D01*
X24892857Y-92383390D02*
X24892857Y-92526247D01*
X24892857Y-92526247D02*
X24940476Y-92716723D01*
X24940476Y-92716723D02*
X24988095Y-92811961D01*
X24988095Y-92811961D02*
X25083333Y-92907200D01*
X25083333Y-92907200D02*
X25226190Y-92954819D01*
X25226190Y-92954819D02*
X25464285Y-92954819D01*
X23940476Y-92954819D02*
X24511904Y-92954819D01*
X24226190Y-92954819D02*
X24226190Y-91954819D01*
X24226190Y-91954819D02*
X24321428Y-92097676D01*
X24321428Y-92097676D02*
X24416666Y-92192914D01*
X24416666Y-92192914D02*
X24511904Y-92240533D01*
X23559523Y-92050057D02*
X23511904Y-92002438D01*
X23511904Y-92002438D02*
X23416666Y-91954819D01*
X23416666Y-91954819D02*
X23178571Y-91954819D01*
X23178571Y-91954819D02*
X23083333Y-92002438D01*
X23083333Y-92002438D02*
X23035714Y-92050057D01*
X23035714Y-92050057D02*
X22988095Y-92145295D01*
X22988095Y-92145295D02*
X22988095Y-92240533D01*
X22988095Y-92240533D02*
X23035714Y-92383390D01*
X23035714Y-92383390D02*
X23607142Y-92954819D01*
X23607142Y-92954819D02*
X22988095Y-92954819D01*
X25464285Y-87954819D02*
X25464285Y-86954819D01*
X25464285Y-86954819D02*
X25226190Y-86954819D01*
X25226190Y-86954819D02*
X25083333Y-87002438D01*
X25083333Y-87002438D02*
X24988095Y-87097676D01*
X24988095Y-87097676D02*
X24940476Y-87192914D01*
X24940476Y-87192914D02*
X24892857Y-87383390D01*
X24892857Y-87383390D02*
X24892857Y-87526247D01*
X24892857Y-87526247D02*
X24940476Y-87716723D01*
X24940476Y-87716723D02*
X24988095Y-87811961D01*
X24988095Y-87811961D02*
X25083333Y-87907200D01*
X25083333Y-87907200D02*
X25226190Y-87954819D01*
X25226190Y-87954819D02*
X25464285Y-87954819D01*
X23940476Y-87954819D02*
X24511904Y-87954819D01*
X24226190Y-87954819D02*
X24226190Y-86954819D01*
X24226190Y-86954819D02*
X24321428Y-87097676D01*
X24321428Y-87097676D02*
X24416666Y-87192914D01*
X24416666Y-87192914D02*
X24511904Y-87240533D01*
X22988095Y-87954819D02*
X23559523Y-87954819D01*
X23273809Y-87954819D02*
X23273809Y-86954819D01*
X23273809Y-86954819D02*
X23369047Y-87097676D01*
X23369047Y-87097676D02*
X23464285Y-87192914D01*
X23464285Y-87192914D02*
X23559523Y-87240533D01*
X25464285Y-82954819D02*
X25464285Y-81954819D01*
X25464285Y-81954819D02*
X25226190Y-81954819D01*
X25226190Y-81954819D02*
X25083333Y-82002438D01*
X25083333Y-82002438D02*
X24988095Y-82097676D01*
X24988095Y-82097676D02*
X24940476Y-82192914D01*
X24940476Y-82192914D02*
X24892857Y-82383390D01*
X24892857Y-82383390D02*
X24892857Y-82526247D01*
X24892857Y-82526247D02*
X24940476Y-82716723D01*
X24940476Y-82716723D02*
X24988095Y-82811961D01*
X24988095Y-82811961D02*
X25083333Y-82907200D01*
X25083333Y-82907200D02*
X25226190Y-82954819D01*
X25226190Y-82954819D02*
X25464285Y-82954819D01*
X23940476Y-82954819D02*
X24511904Y-82954819D01*
X24226190Y-82954819D02*
X24226190Y-81954819D01*
X24226190Y-81954819D02*
X24321428Y-82097676D01*
X24321428Y-82097676D02*
X24416666Y-82192914D01*
X24416666Y-82192914D02*
X24511904Y-82240533D01*
X23321428Y-81954819D02*
X23226190Y-81954819D01*
X23226190Y-81954819D02*
X23130952Y-82002438D01*
X23130952Y-82002438D02*
X23083333Y-82050057D01*
X23083333Y-82050057D02*
X23035714Y-82145295D01*
X23035714Y-82145295D02*
X22988095Y-82335771D01*
X22988095Y-82335771D02*
X22988095Y-82573866D01*
X22988095Y-82573866D02*
X23035714Y-82764342D01*
X23035714Y-82764342D02*
X23083333Y-82859580D01*
X23083333Y-82859580D02*
X23130952Y-82907200D01*
X23130952Y-82907200D02*
X23226190Y-82954819D01*
X23226190Y-82954819D02*
X23321428Y-82954819D01*
X23321428Y-82954819D02*
X23416666Y-82907200D01*
X23416666Y-82907200D02*
X23464285Y-82859580D01*
X23464285Y-82859580D02*
X23511904Y-82764342D01*
X23511904Y-82764342D02*
X23559523Y-82573866D01*
X23559523Y-82573866D02*
X23559523Y-82335771D01*
X23559523Y-82335771D02*
X23511904Y-82145295D01*
X23511904Y-82145295D02*
X23464285Y-82050057D01*
X23464285Y-82050057D02*
X23416666Y-82002438D01*
X23416666Y-82002438D02*
X23321428Y-81954819D01*
X24988094Y-68204819D02*
X24988094Y-67204819D01*
X24988094Y-67204819D02*
X24749999Y-67204819D01*
X24749999Y-67204819D02*
X24607142Y-67252438D01*
X24607142Y-67252438D02*
X24511904Y-67347676D01*
X24511904Y-67347676D02*
X24464285Y-67442914D01*
X24464285Y-67442914D02*
X24416666Y-67633390D01*
X24416666Y-67633390D02*
X24416666Y-67776247D01*
X24416666Y-67776247D02*
X24464285Y-67966723D01*
X24464285Y-67966723D02*
X24511904Y-68061961D01*
X24511904Y-68061961D02*
X24607142Y-68157200D01*
X24607142Y-68157200D02*
X24749999Y-68204819D01*
X24749999Y-68204819D02*
X24988094Y-68204819D01*
X23940475Y-68204819D02*
X23749999Y-68204819D01*
X23749999Y-68204819D02*
X23654761Y-68157200D01*
X23654761Y-68157200D02*
X23607142Y-68109580D01*
X23607142Y-68109580D02*
X23511904Y-67966723D01*
X23511904Y-67966723D02*
X23464285Y-67776247D01*
X23464285Y-67776247D02*
X23464285Y-67395295D01*
X23464285Y-67395295D02*
X23511904Y-67300057D01*
X23511904Y-67300057D02*
X23559523Y-67252438D01*
X23559523Y-67252438D02*
X23654761Y-67204819D01*
X23654761Y-67204819D02*
X23845237Y-67204819D01*
X23845237Y-67204819D02*
X23940475Y-67252438D01*
X23940475Y-67252438D02*
X23988094Y-67300057D01*
X23988094Y-67300057D02*
X24035713Y-67395295D01*
X24035713Y-67395295D02*
X24035713Y-67633390D01*
X24035713Y-67633390D02*
X23988094Y-67728628D01*
X23988094Y-67728628D02*
X23940475Y-67776247D01*
X23940475Y-67776247D02*
X23845237Y-67823866D01*
X23845237Y-67823866D02*
X23654761Y-67823866D01*
X23654761Y-67823866D02*
X23559523Y-67776247D01*
X23559523Y-67776247D02*
X23511904Y-67728628D01*
X23511904Y-67728628D02*
X23464285Y-67633390D01*
X24988094Y-72954819D02*
X24988094Y-71954819D01*
X24988094Y-71954819D02*
X24749999Y-71954819D01*
X24749999Y-71954819D02*
X24607142Y-72002438D01*
X24607142Y-72002438D02*
X24511904Y-72097676D01*
X24511904Y-72097676D02*
X24464285Y-72192914D01*
X24464285Y-72192914D02*
X24416666Y-72383390D01*
X24416666Y-72383390D02*
X24416666Y-72526247D01*
X24416666Y-72526247D02*
X24464285Y-72716723D01*
X24464285Y-72716723D02*
X24511904Y-72811961D01*
X24511904Y-72811961D02*
X24607142Y-72907200D01*
X24607142Y-72907200D02*
X24749999Y-72954819D01*
X24749999Y-72954819D02*
X24988094Y-72954819D01*
X23845237Y-72383390D02*
X23940475Y-72335771D01*
X23940475Y-72335771D02*
X23988094Y-72288152D01*
X23988094Y-72288152D02*
X24035713Y-72192914D01*
X24035713Y-72192914D02*
X24035713Y-72145295D01*
X24035713Y-72145295D02*
X23988094Y-72050057D01*
X23988094Y-72050057D02*
X23940475Y-72002438D01*
X23940475Y-72002438D02*
X23845237Y-71954819D01*
X23845237Y-71954819D02*
X23654761Y-71954819D01*
X23654761Y-71954819D02*
X23559523Y-72002438D01*
X23559523Y-72002438D02*
X23511904Y-72050057D01*
X23511904Y-72050057D02*
X23464285Y-72145295D01*
X23464285Y-72145295D02*
X23464285Y-72192914D01*
X23464285Y-72192914D02*
X23511904Y-72288152D01*
X23511904Y-72288152D02*
X23559523Y-72335771D01*
X23559523Y-72335771D02*
X23654761Y-72383390D01*
X23654761Y-72383390D02*
X23845237Y-72383390D01*
X23845237Y-72383390D02*
X23940475Y-72431009D01*
X23940475Y-72431009D02*
X23988094Y-72478628D01*
X23988094Y-72478628D02*
X24035713Y-72573866D01*
X24035713Y-72573866D02*
X24035713Y-72764342D01*
X24035713Y-72764342D02*
X23988094Y-72859580D01*
X23988094Y-72859580D02*
X23940475Y-72907200D01*
X23940475Y-72907200D02*
X23845237Y-72954819D01*
X23845237Y-72954819D02*
X23654761Y-72954819D01*
X23654761Y-72954819D02*
X23559523Y-72907200D01*
X23559523Y-72907200D02*
X23511904Y-72859580D01*
X23511904Y-72859580D02*
X23464285Y-72764342D01*
X23464285Y-72764342D02*
X23464285Y-72573866D01*
X23464285Y-72573866D02*
X23511904Y-72478628D01*
X23511904Y-72478628D02*
X23559523Y-72431009D01*
X23559523Y-72431009D02*
X23654761Y-72383390D01*
X24988094Y-78204819D02*
X24988094Y-77204819D01*
X24988094Y-77204819D02*
X24749999Y-77204819D01*
X24749999Y-77204819D02*
X24607142Y-77252438D01*
X24607142Y-77252438D02*
X24511904Y-77347676D01*
X24511904Y-77347676D02*
X24464285Y-77442914D01*
X24464285Y-77442914D02*
X24416666Y-77633390D01*
X24416666Y-77633390D02*
X24416666Y-77776247D01*
X24416666Y-77776247D02*
X24464285Y-77966723D01*
X24464285Y-77966723D02*
X24511904Y-78061961D01*
X24511904Y-78061961D02*
X24607142Y-78157200D01*
X24607142Y-78157200D02*
X24749999Y-78204819D01*
X24749999Y-78204819D02*
X24988094Y-78204819D01*
X24083332Y-77204819D02*
X23416666Y-77204819D01*
X23416666Y-77204819D02*
X23845237Y-78204819D01*
D11*
X87156000Y-68999900D02*
G75*
G03*
X87156000Y-68999900I-381000J0D01*
G01*
X27406000Y-117750101D02*
G75*
G03*
X27406000Y-117750101I-381000J0D01*
G01*
X29631000Y-61750101D02*
G75*
G03*
X29631000Y-61750101I-381000J0D01*
G01*
X44439500Y-26250000D02*
G75*
G03*
X44439500Y-26250000I-381000J0D01*
G01*
D12*
X20740000Y-88350000D02*
X26250000Y-88350000D01*
X20740000Y-91650000D02*
X20740000Y-88350000D01*
X20740000Y-91650000D02*
X26250000Y-91650000D01*
X20740000Y-83350000D02*
X26250000Y-83350000D01*
X20740000Y-86650000D02*
X20740000Y-83350000D01*
X20740000Y-86650000D02*
X26250000Y-86650000D01*
X20740000Y-78350000D02*
X26250000Y-78350000D01*
X20740000Y-81650000D02*
X20740000Y-78350000D01*
X20740000Y-81650000D02*
X26250000Y-81650000D01*
X20740000Y-66900000D02*
X26250000Y-66900000D01*
X20740000Y-66900000D02*
X20740000Y-63600000D01*
X20740000Y-63600000D02*
X26250000Y-63600000D01*
X20740000Y-68350000D02*
X26250000Y-68350000D01*
X20740000Y-71650000D02*
X20740000Y-68350000D01*
X20740000Y-71650000D02*
X26250000Y-71650000D01*
X20740000Y-73600000D02*
X26250000Y-73600000D01*
X20740000Y-76900000D02*
X20740000Y-73600000D01*
X20740000Y-76900000D02*
X26250000Y-76900000D01*
%LPC*%
D13*
X86775000Y-65750001D03*
X86775000Y-60750001D03*
X86775000Y-55750000D03*
X86775000Y-50750000D03*
X86775000Y-45750000D03*
X86775000Y-40750000D03*
X86775000Y-35750000D03*
X27025000Y-121000000D03*
X27025000Y-126000000D03*
X27025000Y-131000001D03*
X27025000Y-136000001D03*
X27025000Y-141000001D03*
X27025000Y-146000001D03*
X27025000Y-151000001D03*
X29250000Y-65000000D03*
X29250000Y-70000000D03*
X29250000Y-75000001D03*
X29250000Y-80000001D03*
X29250000Y-85000001D03*
X29250000Y-90000001D03*
X29250000Y-95000001D03*
X47308399Y-26250000D03*
X52308399Y-26250000D03*
X57308400Y-26250000D03*
X62308400Y-26250000D03*
X67308400Y-26250000D03*
X72308400Y-26250000D03*
X77308400Y-26250000D03*
D14*
X22250000Y-90000000D03*
X26250000Y-90000000D03*
X22250000Y-85000000D03*
X26250000Y-85000000D03*
X22250000Y-80000000D03*
X26250000Y-80000000D03*
X26250000Y-65250000D03*
X22250000Y-65250000D03*
X22250000Y-70000000D03*
X26250000Y-70000000D03*
X22250000Y-75250000D03*
X26250000Y-75250000D03*
D15*
X60985000Y-43445000D03*
D16*
X63525000Y-43445000D03*
X66065000Y-43445000D03*
D17*
X48335000Y-80280000D03*
D18*
X45795000Y-80280000D03*
X43255000Y-80280000D03*
X40715000Y-80280000D03*
X40715000Y-88220000D03*
X43255000Y-88220000D03*
X45795000Y-88220000D03*
X48335000Y-88220000D03*
D19*
X64805000Y-125940000D03*
D18*
X64805000Y-128480000D03*
X64805000Y-131020000D03*
X64805000Y-133560000D03*
X72745000Y-133560000D03*
X72745000Y-131020000D03*
X72745000Y-128480000D03*
X72745000Y-125940000D03*
D19*
X50805000Y-120940000D03*
D18*
X50805000Y-123480000D03*
X50805000Y-126020000D03*
X50805000Y-128560000D03*
X58745000Y-128560000D03*
X58745000Y-126020000D03*
X58745000Y-123480000D03*
X58745000Y-120940000D03*
D20*
X36250000Y-21145000D03*
X33250000Y-21145000D03*
D19*
X36805000Y-115940000D03*
D18*
X36805000Y-118480000D03*
X36805000Y-121020000D03*
X36805000Y-123560000D03*
X44745000Y-123560000D03*
X44745000Y-121020000D03*
X44745000Y-118480000D03*
X44745000Y-115940000D03*
D19*
X61555000Y-95190000D03*
D18*
X61555000Y-97730000D03*
X61555000Y-100270000D03*
X61555000Y-102810000D03*
X69495000Y-102810000D03*
X69495000Y-100270000D03*
X69495000Y-97730000D03*
X69495000Y-95190000D03*
D15*
X45485000Y-52195000D03*
D16*
X48025000Y-52195000D03*
X50565000Y-52195000D03*
D21*
X24500000Y-24000000D03*
D22*
X53445000Y-36250000D03*
D23*
X63605000Y-36250000D03*
D19*
X50805000Y-135940000D03*
D18*
X50805000Y-138480000D03*
X50805000Y-141020000D03*
X50805000Y-143560000D03*
X58745000Y-143560000D03*
X58745000Y-141020000D03*
X58745000Y-138480000D03*
X58745000Y-135940000D03*
D24*
X77500000Y-40020000D03*
D25*
X78770000Y-38750000D03*
X77500000Y-37480000D03*
D22*
X76945000Y-89000000D03*
D23*
X87105000Y-89000000D03*
D19*
X36805000Y-130940000D03*
D18*
X36805000Y-133480000D03*
X36805000Y-136020000D03*
X36805000Y-138560000D03*
X44745000Y-138560000D03*
X44745000Y-136020000D03*
X44745000Y-133480000D03*
X44745000Y-130940000D03*
D24*
X77500000Y-60020000D03*
D25*
X78770000Y-58750000D03*
X77500000Y-57480000D03*
D19*
X64805000Y-140940000D03*
D18*
X64805000Y-143480000D03*
X64805000Y-146020000D03*
X64805000Y-148560000D03*
X72745000Y-148560000D03*
X72745000Y-146020000D03*
X72745000Y-143480000D03*
X72745000Y-140940000D03*
D21*
X24500000Y-162750000D03*
D26*
X69495000Y-116060000D03*
D18*
X69495000Y-113520000D03*
X69495000Y-110980000D03*
X69495000Y-108440000D03*
X61555000Y-108440000D03*
X61555000Y-110980000D03*
X61555000Y-113520000D03*
X61555000Y-116060000D03*
D21*
X89000000Y-162750000D03*
D17*
X45835000Y-94280000D03*
D18*
X43295000Y-94280000D03*
X40755000Y-94280000D03*
X38215000Y-94280000D03*
X38215000Y-102220000D03*
X40755000Y-102220000D03*
X43295000Y-102220000D03*
X45835000Y-102220000D03*
D22*
X39945000Y-60000000D03*
D23*
X50105000Y-60000000D03*
D19*
X78055000Y-99690000D03*
D18*
X78055000Y-102230000D03*
X78055000Y-104770000D03*
X78055000Y-107310000D03*
X85995000Y-107310000D03*
X85995000Y-104770000D03*
X85995000Y-102230000D03*
X85995000Y-99690000D03*
D27*
X88945000Y-80250000D03*
X88945000Y-75250000D03*
D28*
X91695000Y-81625000D03*
D29*
X87895000Y-81475000D03*
X87895000Y-74025000D03*
D28*
X91695000Y-73875000D03*
D22*
X49750000Y-107080000D03*
D23*
X49750000Y-96920000D03*
D24*
X77500000Y-50020000D03*
D25*
X78770000Y-48750000D03*
X77500000Y-47480000D03*
D22*
X87330000Y-95500000D03*
D23*
X77170000Y-95500000D03*
D21*
X89000000Y-24000000D03*
D22*
X54250000Y-94420000D03*
D23*
X54250000Y-104580000D03*
%LPD*%
M02*
