%TF.GenerationSoftware,KiCad,Pcbnew,7.0.8*%
%TF.CreationDate,2023-10-29T23:59:53-04:00*%
%TF.ProjectId,SeniorDesign,53656e69-6f72-4446-9573-69676e2e6b69,rev?*%
%TF.SameCoordinates,Original*%
%TF.FileFunction,Drillmap*%
%TF.FilePolarity,Positive*%
%FSLAX45Y45*%
G04 Gerber Fmt 4.5, Leading zero omitted, Abs format (unit mm)*
G04 Created by KiCad (PCBNEW 7.0.8) date 2023-10-29 23:59:53*
%MOMM*%
%LPD*%
G01*
G04 APERTURE LIST*
%ADD10C,0.100000*%
%ADD11C,0.200000*%
%ADD12C,0.030000*%
%ADD13C,0.040000*%
%ADD14C,0.055000*%
%ADD15C,0.068000*%
%ADD16C,0.078000*%
%ADD17C,0.085000*%
%ADD18C,0.110000*%
%ADD19C,0.127000*%
G04 APERTURE END LIST*
D10*
X1975000Y-2400000D02*
X1975000Y-16275000D01*
X2475000Y-1900000D02*
G75*
G03*
X1975000Y-2400000I0J-500000D01*
G01*
X2475000Y-16775000D02*
X8900000Y-16775000D01*
X1975000Y-16275000D02*
G75*
G03*
X2475000Y-16775000I500000J0D01*
G01*
X9400000Y-2400000D02*
G75*
G03*
X8900000Y-1900000I-500000J0D01*
G01*
X8900000Y-16775000D02*
G75*
G03*
X9400000Y-16275000I0J500000D01*
G01*
X2475000Y-1900000D02*
X8900000Y-1900000D01*
X9400000Y-2400000D02*
X9400000Y-16275000D01*
D11*
D12*
X2985000Y-15085000D02*
X3015000Y-15115000D01*
X3015000Y-15085000D02*
X2985000Y-15115000D01*
X3010000Y-14260000D02*
X3040000Y-14290000D01*
X3040000Y-14260000D02*
X3010000Y-14290000D01*
X3185000Y-12335000D02*
X3215000Y-12365000D01*
X3215000Y-12335000D02*
X3185000Y-12365000D01*
X3185000Y-13835000D02*
X3215000Y-13865000D01*
X3215000Y-13835000D02*
X3185000Y-13865000D01*
X3210000Y-12685000D02*
X3240000Y-12715000D01*
X3240000Y-12685000D02*
X3210000Y-12715000D01*
X3235000Y-13085000D02*
X3265000Y-13115000D01*
X3265000Y-13085000D02*
X3235000Y-13115000D01*
X3460000Y-12185000D02*
X3490000Y-12215000D01*
X3490000Y-12185000D02*
X3460000Y-12215000D01*
X3460000Y-13685000D02*
X3490000Y-13715000D01*
X3490000Y-13685000D02*
X3460000Y-13715000D01*
X3835000Y-7985000D02*
X3865000Y-8015000D01*
X3865000Y-7985000D02*
X3835000Y-8015000D01*
X3835000Y-8885000D02*
X3865000Y-8915000D01*
X3865000Y-8885000D02*
X3835000Y-8915000D01*
X4035000Y-7035000D02*
X4065000Y-7065000D01*
X4065000Y-7035000D02*
X4035000Y-7065000D01*
X4060000Y-9610000D02*
X4090000Y-9640000D01*
X4090000Y-9610000D02*
X4060000Y-9640000D01*
X4085000Y-12460000D02*
X4115000Y-12490000D01*
X4115000Y-12460000D02*
X4085000Y-12490000D01*
X4085000Y-12810000D02*
X4115000Y-12840000D01*
X4115000Y-12810000D02*
X4085000Y-12840000D01*
X4085000Y-13310000D02*
X4115000Y-13340000D01*
X4115000Y-13310000D02*
X4085000Y-13340000D01*
X4085000Y-14710000D02*
X4115000Y-14740000D01*
X4115000Y-14710000D02*
X4085000Y-14740000D01*
X4170000Y-7050000D02*
X4200000Y-7080000D01*
X4200000Y-7050000D02*
X4170000Y-7080000D01*
X4185000Y-13885000D02*
X4215000Y-13915000D01*
X4215000Y-13885000D02*
X4185000Y-13915000D01*
X4185000Y-14710000D02*
X4215000Y-14740000D01*
X4215000Y-14710000D02*
X4185000Y-14740000D01*
X4210000Y-7785000D02*
X4240000Y-7815000D01*
X4240000Y-7785000D02*
X4210000Y-7815000D01*
X4297000Y-6585000D02*
X4327000Y-6615000D01*
X4327000Y-6585000D02*
X4297000Y-6615000D01*
X4335000Y-7060000D02*
X4365000Y-7090000D01*
X4365000Y-7060000D02*
X4335000Y-7090000D01*
X4424000Y-6485000D02*
X4454000Y-6515000D01*
X4454000Y-6485000D02*
X4424000Y-6515000D01*
X4460000Y-9035000D02*
X4490000Y-9065000D01*
X4490000Y-9035000D02*
X4460000Y-9065000D01*
X4551000Y-7085000D02*
X4581000Y-7115000D01*
X4581000Y-7085000D02*
X4551000Y-7115000D01*
X4551000Y-7526000D02*
X4581000Y-7556000D01*
X4581000Y-7526000D02*
X4551000Y-7556000D01*
X4560000Y-14335000D02*
X4590000Y-14365000D01*
X4590000Y-14335000D02*
X4560000Y-14365000D01*
X4610000Y-10435000D02*
X4640000Y-10465000D01*
X4640000Y-10435000D02*
X4610000Y-10465000D01*
X4678000Y-6492000D02*
X4708000Y-6522000D01*
X4708000Y-6492000D02*
X4678000Y-6522000D01*
X4685000Y-11535000D02*
X4715000Y-11565000D01*
X4715000Y-11535000D02*
X4685000Y-11565000D01*
X4685000Y-13010000D02*
X4715000Y-13040000D01*
X4715000Y-13010000D02*
X4685000Y-13040000D01*
X4710000Y-4960000D02*
X4740000Y-4990000D01*
X4740000Y-4960000D02*
X4710000Y-4990000D01*
X4710000Y-5460000D02*
X4740000Y-5490000D01*
X4740000Y-5460000D02*
X4710000Y-5490000D01*
X4710000Y-5560000D02*
X4740000Y-5590000D01*
X4740000Y-5560000D02*
X4710000Y-5590000D01*
X4710000Y-7035000D02*
X4740000Y-7065000D01*
X4740000Y-7035000D02*
X4710000Y-7065000D01*
X4710000Y-12685000D02*
X4740000Y-12715000D01*
X4740000Y-12685000D02*
X4710000Y-12715000D01*
X4710000Y-14485000D02*
X4740000Y-14515000D01*
X4740000Y-14485000D02*
X4710000Y-14515000D01*
X4805000Y-6565000D02*
X4835000Y-6595000D01*
X4835000Y-6565000D02*
X4805000Y-6595000D01*
X4810000Y-4185000D02*
X4840000Y-4215000D01*
X4840000Y-4185000D02*
X4810000Y-4215000D01*
X4810000Y-4285000D02*
X4840000Y-4315000D01*
X4840000Y-4285000D02*
X4810000Y-4315000D01*
X4810000Y-4435000D02*
X4840000Y-4465000D01*
X4840000Y-4435000D02*
X4810000Y-4465000D01*
X4810000Y-4535000D02*
X4840000Y-4565000D01*
X4840000Y-4535000D02*
X4810000Y-4565000D01*
X4810000Y-4685000D02*
X4840000Y-4715000D01*
X4840000Y-4685000D02*
X4810000Y-4715000D01*
X4810000Y-4785000D02*
X4840000Y-4815000D01*
X4840000Y-4785000D02*
X4810000Y-4815000D01*
X4832500Y-11837500D02*
X4862500Y-11867500D01*
X4862500Y-11837500D02*
X4832500Y-11867500D01*
X4835000Y-7035000D02*
X4865000Y-7065000D01*
X4865000Y-7035000D02*
X4835000Y-7065000D01*
X4835000Y-13335000D02*
X4865000Y-13365000D01*
X4865000Y-13335000D02*
X4835000Y-13365000D01*
X4860000Y-4960000D02*
X4890000Y-4990000D01*
X4890000Y-4960000D02*
X4860000Y-4990000D01*
X4910000Y-9110000D02*
X4940000Y-9140000D01*
X4940000Y-9110000D02*
X4910000Y-9140000D01*
X4910000Y-14685000D02*
X4940000Y-14715000D01*
X4940000Y-14685000D02*
X4910000Y-14715000D01*
X4932000Y-6613000D02*
X4962000Y-6643000D01*
X4962000Y-6613000D02*
X4932000Y-6643000D01*
X4932000Y-7532000D02*
X4962000Y-7562000D01*
X4962000Y-7532000D02*
X4932000Y-7562000D01*
X4960000Y-7035000D02*
X4990000Y-7065000D01*
X4990000Y-7035000D02*
X4960000Y-7065000D01*
X5110000Y-5610000D02*
X5140000Y-5640000D01*
X5140000Y-5610000D02*
X5110000Y-5640000D01*
X5110000Y-5735000D02*
X5140000Y-5765000D01*
X5140000Y-5735000D02*
X5110000Y-5765000D01*
X5185000Y-9910000D02*
X5215000Y-9940000D01*
X5215000Y-9910000D02*
X5185000Y-9940000D01*
X5385000Y-7110000D02*
X5415000Y-7140000D01*
X5415000Y-7110000D02*
X5385000Y-7140000D01*
X5460000Y-5235000D02*
X5490000Y-5265000D01*
X5490000Y-5235000D02*
X5460000Y-5265000D01*
X5510000Y-7110000D02*
X5540000Y-7140000D01*
X5540000Y-7110000D02*
X5510000Y-7140000D01*
X5560000Y-4610000D02*
X5590000Y-4640000D01*
X5590000Y-4610000D02*
X5560000Y-4640000D01*
X5560000Y-5235000D02*
X5590000Y-5265000D01*
X5590000Y-5235000D02*
X5560000Y-5265000D01*
X5585000Y-13860000D02*
X5615000Y-13890000D01*
X5615000Y-13860000D02*
X5585000Y-13890000D01*
X5635000Y-7110000D02*
X5665000Y-7140000D01*
X5665000Y-7110000D02*
X5635000Y-7140000D01*
X5685000Y-10410000D02*
X5715000Y-10440000D01*
X5715000Y-10410000D02*
X5685000Y-10440000D01*
X5710000Y-4610000D02*
X5740000Y-4640000D01*
X5740000Y-4610000D02*
X5710000Y-4640000D01*
X5710000Y-5235000D02*
X5740000Y-5265000D01*
X5740000Y-5235000D02*
X5710000Y-5265000D01*
X5810000Y-5235000D02*
X5840000Y-5265000D01*
X5840000Y-5235000D02*
X5810000Y-5265000D01*
X5842500Y-8977500D02*
X5872500Y-9007500D01*
X5872500Y-8977500D02*
X5842500Y-9007500D01*
X5860000Y-4610000D02*
X5890000Y-4640000D01*
X5890000Y-4610000D02*
X5860000Y-4640000D01*
X5860000Y-6355000D02*
X5890000Y-6385000D01*
X5890000Y-6355000D02*
X5860000Y-6385000D01*
X5860000Y-6460000D02*
X5890000Y-6490000D01*
X5890000Y-6460000D02*
X5860000Y-6490000D01*
X5860000Y-6560000D02*
X5890000Y-6590000D01*
X5890000Y-6560000D02*
X5860000Y-6590000D01*
X5960000Y-14835000D02*
X5990000Y-14865000D01*
X5990000Y-14835000D02*
X5960000Y-14865000D01*
X6010000Y-13085000D02*
X6040000Y-13115000D01*
X6040000Y-13085000D02*
X6010000Y-13115000D01*
X6082500Y-13510000D02*
X6112500Y-13540000D01*
X6112500Y-13510000D02*
X6082500Y-13540000D01*
X6085000Y-12035000D02*
X6115000Y-12065000D01*
X6115000Y-12035000D02*
X6085000Y-12065000D01*
X6135000Y-10660000D02*
X6165000Y-10690000D01*
X6165000Y-10660000D02*
X6135000Y-10690000D01*
X6210000Y-7260000D02*
X6240000Y-7290000D01*
X6240000Y-7260000D02*
X6210000Y-7290000D01*
X6232500Y-12337500D02*
X6262500Y-12367500D01*
X6262500Y-12337500D02*
X6232500Y-12367500D01*
X6235000Y-13837500D02*
X6265000Y-13867500D01*
X6265000Y-13837500D02*
X6235000Y-13867500D01*
X6310000Y-7710000D02*
X6340000Y-7740000D01*
X6340000Y-7710000D02*
X6310000Y-7740000D01*
X6485000Y-15259950D02*
X6515000Y-15289950D01*
X6515000Y-15259950D02*
X6485000Y-15289950D01*
X6635000Y-7460000D02*
X6665000Y-7490000D01*
X6665000Y-7460000D02*
X6635000Y-7490000D01*
X6635000Y-12685000D02*
X6665000Y-12715000D01*
X6665000Y-12685000D02*
X6635000Y-12715000D01*
X6635000Y-13035000D02*
X6665000Y-13065000D01*
X6665000Y-13035000D02*
X6635000Y-13065000D01*
X6660000Y-8735000D02*
X6690000Y-8765000D01*
X6690000Y-8735000D02*
X6660000Y-8765000D01*
X6735000Y-12685000D02*
X6765000Y-12715000D01*
X6765000Y-12685000D02*
X6735000Y-12715000D01*
X6735000Y-13035000D02*
X6765000Y-13065000D01*
X6765000Y-13035000D02*
X6735000Y-13065000D01*
X6910000Y-7960000D02*
X6940000Y-7990000D01*
X6940000Y-7960000D02*
X6910000Y-7990000D01*
X6960000Y-7635000D02*
X6990000Y-7665000D01*
X6990000Y-7635000D02*
X6960000Y-7665000D01*
X6985000Y-3685000D02*
X7015000Y-3715000D01*
X7015000Y-3685000D02*
X6985000Y-3715000D01*
X6985000Y-3785000D02*
X7015000Y-3815000D01*
X7015000Y-3785000D02*
X6985000Y-3815000D01*
X6985000Y-4685000D02*
X7015000Y-4715000D01*
X7015000Y-4685000D02*
X6985000Y-4715000D01*
X6985000Y-4785000D02*
X7015000Y-4815000D01*
X7015000Y-4785000D02*
X6985000Y-4815000D01*
X6985000Y-5686231D02*
X7015000Y-5716231D01*
X7015000Y-5686231D02*
X6985000Y-5716231D01*
X6985000Y-5786231D02*
X7015000Y-5816231D01*
X7015000Y-5786231D02*
X6985000Y-5816231D01*
X7035000Y-8060000D02*
X7065000Y-8090000D01*
X7065000Y-8060000D02*
X7035000Y-8090000D01*
X7160000Y-7160000D02*
X7190000Y-7190000D01*
X7190000Y-7160000D02*
X7160000Y-7190000D01*
X7260000Y-11385000D02*
X7290000Y-11415000D01*
X7290000Y-11385000D02*
X7260000Y-11415000D01*
X7285000Y-7160000D02*
X7315000Y-7190000D01*
X7315000Y-7160000D02*
X7285000Y-7190000D01*
X7310000Y-8135000D02*
X7340000Y-8165000D01*
X7340000Y-8135000D02*
X7310000Y-8165000D01*
X7385000Y-7710000D02*
X7415000Y-7740000D01*
X7415000Y-7710000D02*
X7385000Y-7740000D01*
X7410000Y-11235000D02*
X7440000Y-11265000D01*
X7440000Y-11235000D02*
X7410000Y-11265000D01*
X7485000Y-12535000D02*
X7515000Y-12565000D01*
X7515000Y-12535000D02*
X7485000Y-12565000D01*
X7485000Y-14035000D02*
X7515000Y-14065000D01*
X7515000Y-14035000D02*
X7485000Y-14065000D01*
X7560000Y-3985000D02*
X7590000Y-4015000D01*
X7590000Y-3985000D02*
X7560000Y-4015000D01*
X7560000Y-4985000D02*
X7590000Y-5015000D01*
X7590000Y-4985000D02*
X7560000Y-5015000D01*
X7560000Y-5985000D02*
X7590000Y-6015000D01*
X7590000Y-5985000D02*
X7560000Y-6015000D01*
X7632500Y-12837500D02*
X7662500Y-12867500D01*
X7662500Y-12837500D02*
X7632500Y-12867500D01*
X7635000Y-8535000D02*
X7665000Y-8565000D01*
X7665000Y-8535000D02*
X7635000Y-8565000D01*
X7657500Y-14337500D02*
X7687500Y-14367500D01*
X7687500Y-14337500D02*
X7657500Y-14367500D01*
X7715840Y-2835000D02*
X7745840Y-2865000D01*
X7745840Y-2835000D02*
X7715840Y-2865000D01*
X8035000Y-7635000D02*
X8065000Y-7665000D01*
X8065000Y-7635000D02*
X8035000Y-7665000D01*
X8085000Y-7260000D02*
X8115000Y-7290000D01*
X8115000Y-7260000D02*
X8085000Y-7290000D01*
X8171500Y-11621500D02*
X8201500Y-11651500D01*
X8201500Y-11621500D02*
X8171500Y-11651500D01*
X8175500Y-11875500D02*
X8205500Y-11905500D01*
X8205500Y-11875500D02*
X8175500Y-11905500D01*
X8177500Y-11367500D02*
X8207500Y-11397500D01*
X8207500Y-11367500D02*
X8177500Y-11397500D01*
X8179500Y-12129500D02*
X8209500Y-12159500D01*
X8209500Y-12129500D02*
X8179500Y-12159500D01*
X8259500Y-12209500D02*
X8289500Y-12239500D01*
X8289500Y-12209500D02*
X8259500Y-12239500D01*
X8385000Y-3560000D02*
X8415000Y-3590000D01*
X8415000Y-3560000D02*
X8385000Y-3590000D01*
X8435000Y-5710000D02*
X8465000Y-5740000D01*
X8465000Y-5710000D02*
X8435000Y-5740000D01*
X8435000Y-6285000D02*
X8465000Y-6315000D01*
X8465000Y-6285000D02*
X8435000Y-6315000D01*
X8489520Y-12289500D02*
X8519520Y-12319500D01*
X8519520Y-12289500D02*
X8489520Y-12319500D01*
X8625500Y-12369500D02*
X8655500Y-12399500D01*
X8655500Y-12369500D02*
X8625500Y-12399500D01*
X8679500Y-11240500D02*
X8709500Y-11270500D01*
X8709500Y-11240500D02*
X8679500Y-11270500D01*
X8685000Y-12860000D02*
X8715000Y-12890000D01*
X8715000Y-12860000D02*
X8685000Y-12890000D01*
X8935000Y-4835000D02*
X8965000Y-4865000D01*
X8965000Y-4835000D02*
X8935000Y-4865000D01*
X9024950Y-12260000D02*
X9054950Y-12290000D01*
X9054950Y-12260000D02*
X9024950Y-12290000D01*
D13*
X3420000Y-2475000D02*
G75*
G03*
X3420000Y-2475000I-20000J0D01*
G01*
X3720000Y-2475000D02*
G75*
G03*
X3720000Y-2475000I-20000J0D01*
G01*
X4342500Y-10597500D02*
G75*
G03*
X4342500Y-10597500I-20000J0D01*
G01*
X4420000Y-4025000D02*
G75*
G03*
X4420000Y-4025000I-20000J0D01*
G01*
X4470000Y-7800000D02*
G75*
G03*
X4470000Y-7800000I-20000J0D01*
G01*
X5120000Y-7850000D02*
G75*
G03*
X5120000Y-7850000I-20000J0D01*
G01*
X5605000Y-8060000D02*
G75*
G03*
X5605000Y-8060000I-20000J0D01*
G01*
X5745000Y-11500000D02*
G75*
G03*
X5745000Y-11500000I-20000J0D01*
G01*
X5747500Y-11347500D02*
G75*
G03*
X5747500Y-11347500I-20000J0D01*
G01*
X6045000Y-5750000D02*
G75*
G03*
X6045000Y-5750000I-20000J0D01*
G01*
X6120000Y-7725000D02*
G75*
G03*
X6120000Y-7725000I-20000J0D01*
G01*
X6370000Y-8825000D02*
G75*
G03*
X6370000Y-8825000I-20000J0D01*
G01*
X6820000Y-8900000D02*
G75*
G03*
X6820000Y-8900000I-20000J0D01*
G01*
X6845000Y-6475000D02*
G75*
G03*
X6845000Y-6475000I-20000J0D01*
G01*
X6870000Y-9150000D02*
G75*
G03*
X6870000Y-9150000I-20000J0D01*
G01*
X7045000Y-8550000D02*
G75*
G03*
X7045000Y-8550000I-20000J0D01*
G01*
X7145000Y-8825000D02*
G75*
G03*
X7145000Y-8825000I-20000J0D01*
G01*
X7195000Y-9450000D02*
G75*
G03*
X7195000Y-9450000I-20000J0D01*
G01*
X7370000Y-9825000D02*
G75*
G03*
X7370000Y-9825000I-20000J0D01*
G01*
X7395000Y-10625000D02*
G75*
G03*
X7395000Y-10625000I-20000J0D01*
G01*
X7595000Y-11375000D02*
G75*
G03*
X7595000Y-11375000I-20000J0D01*
G01*
X7840000Y-8180000D02*
G75*
G03*
X7840000Y-8180000I-20000J0D01*
G01*
X8095000Y-10475000D02*
G75*
G03*
X8095000Y-10475000I-20000J0D01*
G01*
X8570000Y-7650000D02*
G75*
G03*
X8570000Y-7650000I-20000J0D01*
G01*
X9020000Y-10075000D02*
G75*
G03*
X9020000Y-10075000I-20000J0D01*
G01*
X9020000Y-10225000D02*
G75*
G03*
X9020000Y-10225000I-20000J0D01*
G01*
D14*
X9169500Y-7360000D02*
X9169500Y-7415000D01*
X9142000Y-7387500D02*
X9197000Y-7387500D01*
D11*
X9137000Y-7415000D02*
X9202000Y-7415000D01*
X9202000Y-7415000D02*
G75*
G03*
X9202000Y-7360000I0J27500D01*
G01*
X9202000Y-7360000D02*
X9137000Y-7360000D01*
X9137000Y-7360000D02*
G75*
G03*
X9137000Y-7415000I0J-27500D01*
G01*
D14*
X9169500Y-8135000D02*
X9169500Y-8190000D01*
X9142000Y-8162500D02*
X9197000Y-8162500D01*
D11*
X9137000Y-8190000D02*
X9202000Y-8190000D01*
X9202000Y-8190000D02*
G75*
G03*
X9202000Y-8135000I0J27500D01*
G01*
X9202000Y-8135000D02*
X9137000Y-8135000D01*
X9137000Y-8135000D02*
G75*
G03*
X9137000Y-8190000I0J-27500D01*
G01*
D15*
X7774042Y-3772042D02*
X7774042Y-3723958D01*
X7725958Y-3723958D01*
X7725958Y-3772042D01*
X7774042Y-3772042D01*
X7774042Y-4026042D02*
X7774042Y-3977958D01*
X7725958Y-3977958D01*
X7725958Y-4026042D01*
X7774042Y-4026042D01*
X7774042Y-4772042D02*
X7774042Y-4723958D01*
X7725958Y-4723958D01*
X7725958Y-4772042D01*
X7774042Y-4772042D01*
X7774042Y-5026042D02*
X7774042Y-4977958D01*
X7725958Y-4977958D01*
X7725958Y-5026042D01*
X7774042Y-5026042D01*
X7774042Y-5772042D02*
X7774042Y-5723958D01*
X7725958Y-5723958D01*
X7725958Y-5772042D01*
X7774042Y-5772042D01*
X7774042Y-6026042D02*
X7774042Y-5977958D01*
X7725958Y-5977958D01*
X7725958Y-6026042D01*
X7774042Y-6026042D01*
X7901042Y-3899042D02*
X7901042Y-3850958D01*
X7852958Y-3850958D01*
X7852958Y-3899042D01*
X7901042Y-3899042D01*
X7901042Y-4899042D02*
X7901042Y-4850958D01*
X7852958Y-4850958D01*
X7852958Y-4899042D01*
X7901042Y-4899042D01*
X7901042Y-5899042D02*
X7901042Y-5850958D01*
X7852958Y-5850958D01*
X7852958Y-5899042D01*
X7901042Y-5899042D01*
D16*
X3680500Y-11633000D02*
X3719500Y-11594000D01*
X3680500Y-11555000D01*
X3641500Y-11594000D01*
X3680500Y-11633000D01*
X3680500Y-11887000D02*
X3719500Y-11848000D01*
X3680500Y-11809000D01*
X3641500Y-11848000D01*
X3680500Y-11887000D01*
X3680500Y-12141000D02*
X3719500Y-12102000D01*
X3680500Y-12063000D01*
X3641500Y-12102000D01*
X3680500Y-12141000D01*
X3680500Y-12395000D02*
X3719500Y-12356000D01*
X3680500Y-12317000D01*
X3641500Y-12356000D01*
X3680500Y-12395000D01*
X3680500Y-13133000D02*
X3719500Y-13094000D01*
X3680500Y-13055000D01*
X3641500Y-13094000D01*
X3680500Y-13133000D01*
X3680500Y-13387000D02*
X3719500Y-13348000D01*
X3680500Y-13309000D01*
X3641500Y-13348000D01*
X3680500Y-13387000D01*
X3680500Y-13641000D02*
X3719500Y-13602000D01*
X3680500Y-13563000D01*
X3641500Y-13602000D01*
X3680500Y-13641000D01*
X3680500Y-13895000D02*
X3719500Y-13856000D01*
X3680500Y-13817000D01*
X3641500Y-13856000D01*
X3680500Y-13895000D01*
X3821500Y-9467000D02*
X3860500Y-9428000D01*
X3821500Y-9389000D01*
X3782500Y-9428000D01*
X3821500Y-9467000D01*
X3821500Y-10261000D02*
X3860500Y-10222000D01*
X3821500Y-10183000D01*
X3782500Y-10222000D01*
X3821500Y-10261000D01*
X4071500Y-8067000D02*
X4110500Y-8028000D01*
X4071500Y-7989000D01*
X4032500Y-8028000D01*
X4071500Y-8067000D01*
X4071500Y-8861000D02*
X4110500Y-8822000D01*
X4071500Y-8783000D01*
X4032500Y-8822000D01*
X4071500Y-8861000D01*
X4075500Y-9467000D02*
X4114500Y-9428000D01*
X4075500Y-9389000D01*
X4036500Y-9428000D01*
X4075500Y-9467000D01*
X4075500Y-10261000D02*
X4114500Y-10222000D01*
X4075500Y-10183000D01*
X4036500Y-10222000D01*
X4075500Y-10261000D01*
X4325500Y-8067000D02*
X4364500Y-8028000D01*
X4325500Y-7989000D01*
X4286500Y-8028000D01*
X4325500Y-8067000D01*
X4325500Y-8861000D02*
X4364500Y-8822000D01*
X4325500Y-8783000D01*
X4286500Y-8822000D01*
X4325500Y-8861000D01*
X4329500Y-9467000D02*
X4368500Y-9428000D01*
X4329500Y-9389000D01*
X4290500Y-9428000D01*
X4329500Y-9467000D01*
X4329500Y-10261000D02*
X4368500Y-10222000D01*
X4329500Y-10183000D01*
X4290500Y-10222000D01*
X4329500Y-10261000D01*
X4474500Y-11633000D02*
X4513500Y-11594000D01*
X4474500Y-11555000D01*
X4435500Y-11594000D01*
X4474500Y-11633000D01*
X4474500Y-11887000D02*
X4513500Y-11848000D01*
X4474500Y-11809000D01*
X4435500Y-11848000D01*
X4474500Y-11887000D01*
X4474500Y-12141000D02*
X4513500Y-12102000D01*
X4474500Y-12063000D01*
X4435500Y-12102000D01*
X4474500Y-12141000D01*
X4474500Y-12395000D02*
X4513500Y-12356000D01*
X4474500Y-12317000D01*
X4435500Y-12356000D01*
X4474500Y-12395000D01*
X4474500Y-13133000D02*
X4513500Y-13094000D01*
X4474500Y-13055000D01*
X4435500Y-13094000D01*
X4474500Y-13133000D01*
X4474500Y-13387000D02*
X4513500Y-13348000D01*
X4474500Y-13309000D01*
X4435500Y-13348000D01*
X4474500Y-13387000D01*
X4474500Y-13641000D02*
X4513500Y-13602000D01*
X4474500Y-13563000D01*
X4435500Y-13602000D01*
X4474500Y-13641000D01*
X4474500Y-13895000D02*
X4513500Y-13856000D01*
X4474500Y-13817000D01*
X4435500Y-13856000D01*
X4474500Y-13895000D01*
X4579500Y-8067000D02*
X4618500Y-8028000D01*
X4579500Y-7989000D01*
X4540500Y-8028000D01*
X4579500Y-8067000D01*
X4579500Y-8861000D02*
X4618500Y-8822000D01*
X4579500Y-8783000D01*
X4540500Y-8822000D01*
X4579500Y-8861000D01*
X4583500Y-9467000D02*
X4622500Y-9428000D01*
X4583500Y-9389000D01*
X4544500Y-9428000D01*
X4583500Y-9467000D01*
X4583500Y-10261000D02*
X4622500Y-10222000D01*
X4583500Y-10183000D01*
X4544500Y-10222000D01*
X4583500Y-10261000D01*
X4833500Y-8067000D02*
X4872500Y-8028000D01*
X4833500Y-7989000D01*
X4794500Y-8028000D01*
X4833500Y-8067000D01*
X4833500Y-8861000D02*
X4872500Y-8822000D01*
X4833500Y-8783000D01*
X4794500Y-8822000D01*
X4833500Y-8861000D01*
X5080500Y-12133000D02*
X5119500Y-12094000D01*
X5080500Y-12055000D01*
X5041500Y-12094000D01*
X5080500Y-12133000D01*
X5080500Y-12387000D02*
X5119500Y-12348000D01*
X5080500Y-12309000D01*
X5041500Y-12348000D01*
X5080500Y-12387000D01*
X5080500Y-12641000D02*
X5119500Y-12602000D01*
X5080500Y-12563000D01*
X5041500Y-12602000D01*
X5080500Y-12641000D01*
X5080500Y-12895000D02*
X5119500Y-12856000D01*
X5080500Y-12817000D01*
X5041500Y-12856000D01*
X5080500Y-12895000D01*
X5080500Y-13633000D02*
X5119500Y-13594000D01*
X5080500Y-13555000D01*
X5041500Y-13594000D01*
X5080500Y-13633000D01*
X5080500Y-13887000D02*
X5119500Y-13848000D01*
X5080500Y-13809000D01*
X5041500Y-13848000D01*
X5080500Y-13887000D01*
X5080500Y-14141000D02*
X5119500Y-14102000D01*
X5080500Y-14063000D01*
X5041500Y-14102000D01*
X5080500Y-14141000D01*
X5080500Y-14395000D02*
X5119500Y-14356000D01*
X5080500Y-14317000D01*
X5041500Y-14356000D01*
X5080500Y-14395000D01*
X5874500Y-12133000D02*
X5913500Y-12094000D01*
X5874500Y-12055000D01*
X5835500Y-12094000D01*
X5874500Y-12133000D01*
X5874500Y-12387000D02*
X5913500Y-12348000D01*
X5874500Y-12309000D01*
X5835500Y-12348000D01*
X5874500Y-12387000D01*
X5874500Y-12641000D02*
X5913500Y-12602000D01*
X5874500Y-12563000D01*
X5835500Y-12602000D01*
X5874500Y-12641000D01*
X5874500Y-12895000D02*
X5913500Y-12856000D01*
X5874500Y-12817000D01*
X5835500Y-12856000D01*
X5874500Y-12895000D01*
X5874500Y-13633000D02*
X5913500Y-13594000D01*
X5874500Y-13555000D01*
X5835500Y-13594000D01*
X5874500Y-13633000D01*
X5874500Y-13887000D02*
X5913500Y-13848000D01*
X5874500Y-13809000D01*
X5835500Y-13848000D01*
X5874500Y-13887000D01*
X5874500Y-14141000D02*
X5913500Y-14102000D01*
X5874500Y-14063000D01*
X5835500Y-14102000D01*
X5874500Y-14141000D01*
X5874500Y-14395000D02*
X5913500Y-14356000D01*
X5874500Y-14317000D01*
X5835500Y-14356000D01*
X5874500Y-14395000D01*
X6155500Y-9558000D02*
X6194500Y-9519000D01*
X6155500Y-9480000D01*
X6116500Y-9519000D01*
X6155500Y-9558000D01*
X6155500Y-9812000D02*
X6194500Y-9773000D01*
X6155500Y-9734000D01*
X6116500Y-9773000D01*
X6155500Y-9812000D01*
X6155500Y-10066000D02*
X6194500Y-10027000D01*
X6155500Y-9988000D01*
X6116500Y-10027000D01*
X6155500Y-10066000D01*
X6155500Y-10320000D02*
X6194500Y-10281000D01*
X6155500Y-10242000D01*
X6116500Y-10281000D01*
X6155500Y-10320000D01*
X6155500Y-10883000D02*
X6194500Y-10844000D01*
X6155500Y-10805000D01*
X6116500Y-10844000D01*
X6155500Y-10883000D01*
X6155500Y-11137000D02*
X6194500Y-11098000D01*
X6155500Y-11059000D01*
X6116500Y-11098000D01*
X6155500Y-11137000D01*
X6155500Y-11391000D02*
X6194500Y-11352000D01*
X6155500Y-11313000D01*
X6116500Y-11352000D01*
X6155500Y-11391000D01*
X6155500Y-11645000D02*
X6194500Y-11606000D01*
X6155500Y-11567000D01*
X6116500Y-11606000D01*
X6155500Y-11645000D01*
X6480500Y-12633000D02*
X6519500Y-12594000D01*
X6480500Y-12555000D01*
X6441500Y-12594000D01*
X6480500Y-12633000D01*
X6480500Y-12887000D02*
X6519500Y-12848000D01*
X6480500Y-12809000D01*
X6441500Y-12848000D01*
X6480500Y-12887000D01*
X6480500Y-13141000D02*
X6519500Y-13102000D01*
X6480500Y-13063000D01*
X6441500Y-13102000D01*
X6480500Y-13141000D01*
X6480500Y-13395000D02*
X6519500Y-13356000D01*
X6480500Y-13317000D01*
X6441500Y-13356000D01*
X6480500Y-13395000D01*
X6480500Y-14133000D02*
X6519500Y-14094000D01*
X6480500Y-14055000D01*
X6441500Y-14094000D01*
X6480500Y-14133000D01*
X6480500Y-14387000D02*
X6519500Y-14348000D01*
X6480500Y-14309000D01*
X6441500Y-14348000D01*
X6480500Y-14387000D01*
X6480500Y-14641000D02*
X6519500Y-14602000D01*
X6480500Y-14563000D01*
X6441500Y-14602000D01*
X6480500Y-14641000D01*
X6480500Y-14895000D02*
X6519500Y-14856000D01*
X6480500Y-14817000D01*
X6441500Y-14856000D01*
X6480500Y-14895000D01*
X6949500Y-9558000D02*
X6988500Y-9519000D01*
X6949500Y-9480000D01*
X6910500Y-9519000D01*
X6949500Y-9558000D01*
X6949500Y-9812000D02*
X6988500Y-9773000D01*
X6949500Y-9734000D01*
X6910500Y-9773000D01*
X6949500Y-9812000D01*
X6949500Y-10066000D02*
X6988500Y-10027000D01*
X6949500Y-9988000D01*
X6910500Y-10027000D01*
X6949500Y-10066000D01*
X6949500Y-10320000D02*
X6988500Y-10281000D01*
X6949500Y-10242000D01*
X6910500Y-10281000D01*
X6949500Y-10320000D01*
X6949500Y-10883000D02*
X6988500Y-10844000D01*
X6949500Y-10805000D01*
X6910500Y-10844000D01*
X6949500Y-10883000D01*
X6949500Y-11137000D02*
X6988500Y-11098000D01*
X6949500Y-11059000D01*
X6910500Y-11098000D01*
X6949500Y-11137000D01*
X6949500Y-11391000D02*
X6988500Y-11352000D01*
X6949500Y-11313000D01*
X6910500Y-11352000D01*
X6949500Y-11391000D01*
X6949500Y-11645000D02*
X6988500Y-11606000D01*
X6949500Y-11567000D01*
X6910500Y-11606000D01*
X6949500Y-11645000D01*
X7274500Y-12633000D02*
X7313500Y-12594000D01*
X7274500Y-12555000D01*
X7235500Y-12594000D01*
X7274500Y-12633000D01*
X7274500Y-12887000D02*
X7313500Y-12848000D01*
X7274500Y-12809000D01*
X7235500Y-12848000D01*
X7274500Y-12887000D01*
X7274500Y-13141000D02*
X7313500Y-13102000D01*
X7274500Y-13063000D01*
X7235500Y-13102000D01*
X7274500Y-13141000D01*
X7274500Y-13395000D02*
X7313500Y-13356000D01*
X7274500Y-13317000D01*
X7235500Y-13356000D01*
X7274500Y-13395000D01*
X7274500Y-14133000D02*
X7313500Y-14094000D01*
X7274500Y-14055000D01*
X7235500Y-14094000D01*
X7274500Y-14133000D01*
X7274500Y-14387000D02*
X7313500Y-14348000D01*
X7274500Y-14309000D01*
X7235500Y-14348000D01*
X7274500Y-14387000D01*
X7274500Y-14641000D02*
X7313500Y-14602000D01*
X7274500Y-14563000D01*
X7235500Y-14602000D01*
X7274500Y-14641000D01*
X7274500Y-14895000D02*
X7313500Y-14856000D01*
X7274500Y-14817000D01*
X7235500Y-14856000D01*
X7274500Y-14895000D01*
X7805500Y-10008000D02*
X7844500Y-9969000D01*
X7805500Y-9930000D01*
X7766500Y-9969000D01*
X7805500Y-10008000D01*
X7805500Y-10262000D02*
X7844500Y-10223000D01*
X7805500Y-10184000D01*
X7766500Y-10223000D01*
X7805500Y-10262000D01*
X7805500Y-10516000D02*
X7844500Y-10477000D01*
X7805500Y-10438000D01*
X7766500Y-10477000D01*
X7805500Y-10516000D01*
X7805500Y-10770000D02*
X7844500Y-10731000D01*
X7805500Y-10692000D01*
X7766500Y-10731000D01*
X7805500Y-10770000D01*
X8599500Y-10008000D02*
X8638500Y-9969000D01*
X8599500Y-9930000D01*
X8560500Y-9969000D01*
X8599500Y-10008000D01*
X8599500Y-10262000D02*
X8638500Y-10223000D01*
X8599500Y-10184000D01*
X8560500Y-10223000D01*
X8599500Y-10262000D01*
X8599500Y-10516000D02*
X8638500Y-10477000D01*
X8599500Y-10438000D01*
X8560500Y-10477000D01*
X8599500Y-10516000D01*
X8599500Y-10770000D02*
X8638500Y-10731000D01*
X8599500Y-10692000D01*
X8560500Y-10731000D01*
X8599500Y-10770000D01*
D17*
X8747000Y-7360000D02*
X8832000Y-7445000D01*
X8832000Y-7360000D02*
X8747000Y-7445000D01*
X8832000Y-7402500D02*
G75*
G03*
X8832000Y-7402500I-42500J0D01*
G01*
D11*
X8762000Y-7445000D02*
X8817000Y-7445000D01*
X8817000Y-7445000D02*
G75*
G03*
X8817000Y-7360000I0J42500D01*
G01*
X8817000Y-7360000D02*
X8762000Y-7360000D01*
X8762000Y-7360000D02*
G75*
G03*
X8762000Y-7445000I0J-42500D01*
G01*
D17*
X8747000Y-8105000D02*
X8832000Y-8190000D01*
X8832000Y-8105000D02*
X8747000Y-8190000D01*
X8832000Y-8147500D02*
G75*
G03*
X8832000Y-8147500I-42500J0D01*
G01*
D11*
X8762000Y-8190000D02*
X8817000Y-8190000D01*
X8817000Y-8190000D02*
G75*
G03*
X8817000Y-8105000I0J42500D01*
G01*
X8817000Y-8105000D02*
X8762000Y-8105000D01*
X8762000Y-8105000D02*
G75*
G03*
X8762000Y-8190000I0J-42500D01*
G01*
D18*
X3939500Y-5945000D02*
X4049500Y-6055000D01*
X4049500Y-5945000D02*
X3939500Y-6055000D01*
X3994500Y-5945000D02*
X3994500Y-6055000D01*
X3939500Y-6000000D02*
X4049500Y-6000000D01*
X4493500Y-5164500D02*
X4603500Y-5274500D01*
X4603500Y-5164500D02*
X4493500Y-5274500D01*
X4548500Y-5164500D02*
X4548500Y-5274500D01*
X4493500Y-5219500D02*
X4603500Y-5219500D01*
X4747500Y-5164500D02*
X4857500Y-5274500D01*
X4857500Y-5164500D02*
X4747500Y-5274500D01*
X4802500Y-5164500D02*
X4802500Y-5274500D01*
X4747500Y-5219500D02*
X4857500Y-5219500D01*
X4920000Y-9637000D02*
X5030000Y-9747000D01*
X5030000Y-9637000D02*
X4920000Y-9747000D01*
X4975000Y-9637000D02*
X4975000Y-9747000D01*
X4920000Y-9692000D02*
X5030000Y-9692000D01*
X4920000Y-10653000D02*
X5030000Y-10763000D01*
X5030000Y-10653000D02*
X4920000Y-10763000D01*
X4975000Y-10653000D02*
X4975000Y-10763000D01*
X4920000Y-10708000D02*
X5030000Y-10708000D01*
X4955500Y-5945000D02*
X5065500Y-6055000D01*
X5065500Y-5945000D02*
X4955500Y-6055000D01*
X5010500Y-5945000D02*
X5010500Y-6055000D01*
X4955500Y-6000000D02*
X5065500Y-6000000D01*
X5001500Y-5164500D02*
X5111500Y-5274500D01*
X5111500Y-5164500D02*
X5001500Y-5274500D01*
X5056500Y-5164500D02*
X5056500Y-5274500D01*
X5001500Y-5219500D02*
X5111500Y-5219500D01*
X5289500Y-3570000D02*
X5399500Y-3680000D01*
X5399500Y-3570000D02*
X5289500Y-3680000D01*
X5344500Y-3570000D02*
X5344500Y-3680000D01*
X5289500Y-3625000D02*
X5399500Y-3625000D01*
X5370000Y-9387000D02*
X5480000Y-9497000D01*
X5480000Y-9387000D02*
X5370000Y-9497000D01*
X5425000Y-9387000D02*
X5425000Y-9497000D01*
X5370000Y-9442000D02*
X5480000Y-9442000D01*
X5370000Y-10403000D02*
X5480000Y-10513000D01*
X5480000Y-10403000D02*
X5370000Y-10513000D01*
X5425000Y-10403000D02*
X5425000Y-10513000D01*
X5370000Y-10458000D02*
X5480000Y-10458000D01*
X5470000Y-5862000D02*
X5580000Y-5972000D01*
X5580000Y-5862000D02*
X5470000Y-5972000D01*
X5525000Y-5862000D02*
X5525000Y-5972000D01*
X5470000Y-5917000D02*
X5580000Y-5917000D01*
X5470000Y-6878000D02*
X5580000Y-6988000D01*
X5580000Y-6878000D02*
X5470000Y-6988000D01*
X5525000Y-6878000D02*
X5525000Y-6988000D01*
X5470000Y-6933000D02*
X5580000Y-6933000D01*
X6043500Y-4289500D02*
X6153500Y-4399500D01*
X6153500Y-4289500D02*
X6043500Y-4399500D01*
X6098500Y-4289500D02*
X6098500Y-4399500D01*
X6043500Y-4344500D02*
X6153500Y-4344500D01*
X6297500Y-4289500D02*
X6407500Y-4399500D01*
X6407500Y-4289500D02*
X6297500Y-4399500D01*
X6352500Y-4289500D02*
X6352500Y-4399500D01*
X6297500Y-4344500D02*
X6407500Y-4344500D01*
X6305500Y-3570000D02*
X6415500Y-3680000D01*
X6415500Y-3570000D02*
X6305500Y-3680000D01*
X6360500Y-3570000D02*
X6360500Y-3680000D01*
X6305500Y-3625000D02*
X6415500Y-3625000D01*
X6551500Y-4289500D02*
X6661500Y-4399500D01*
X6661500Y-4289500D02*
X6551500Y-4399500D01*
X6606500Y-4289500D02*
X6606500Y-4399500D01*
X6551500Y-4344500D02*
X6661500Y-4344500D01*
X7464500Y-9495000D02*
X7574500Y-9605000D01*
X7574500Y-9495000D02*
X7464500Y-9605000D01*
X7519500Y-9495000D02*
X7519500Y-9605000D01*
X7464500Y-9550000D02*
X7574500Y-9550000D01*
X7639500Y-8845000D02*
X7749500Y-8955000D01*
X7749500Y-8845000D02*
X7639500Y-8955000D01*
X7694500Y-8845000D02*
X7694500Y-8955000D01*
X7639500Y-8900000D02*
X7749500Y-8900000D01*
X8480500Y-9495000D02*
X8590500Y-9605000D01*
X8590500Y-9495000D02*
X8480500Y-9605000D01*
X8535500Y-9495000D02*
X8535500Y-9605000D01*
X8480500Y-9550000D02*
X8590500Y-9550000D01*
X8655500Y-8845000D02*
X8765500Y-8955000D01*
X8765500Y-8845000D02*
X8655500Y-8955000D01*
X8710500Y-8845000D02*
X8710500Y-8955000D01*
X8655500Y-8900000D02*
X8765500Y-8900000D01*
D19*
X2639000Y-6436500D02*
X2766000Y-6563500D01*
X2766000Y-6436500D02*
X2639000Y-6563500D01*
X2747402Y-6544902D02*
X2747402Y-6455098D01*
X2657598Y-6455098D01*
X2657598Y-6544902D01*
X2747402Y-6544902D01*
X2639000Y-6936500D02*
X2766000Y-7063500D01*
X2766000Y-6936500D02*
X2639000Y-7063500D01*
X2747402Y-7044902D02*
X2747402Y-6955098D01*
X2657598Y-6955098D01*
X2657598Y-7044902D01*
X2747402Y-7044902D01*
X2639000Y-7436500D02*
X2766000Y-7563500D01*
X2766000Y-7436500D02*
X2639000Y-7563500D01*
X2747402Y-7544902D02*
X2747402Y-7455098D01*
X2657598Y-7455098D01*
X2657598Y-7544902D01*
X2747402Y-7544902D01*
X2639000Y-7936500D02*
X2766000Y-8063500D01*
X2766000Y-7936500D02*
X2639000Y-8063500D01*
X2747402Y-8044902D02*
X2747402Y-7955098D01*
X2657598Y-7955098D01*
X2657598Y-8044902D01*
X2747402Y-8044902D01*
X2639000Y-8436500D02*
X2766000Y-8563500D01*
X2766000Y-8436500D02*
X2639000Y-8563500D01*
X2747402Y-8544902D02*
X2747402Y-8455098D01*
X2657598Y-8455098D01*
X2657598Y-8544902D01*
X2747402Y-8544902D01*
X2639000Y-8936500D02*
X2766000Y-9063500D01*
X2766000Y-8936500D02*
X2639000Y-9063500D01*
X2747402Y-9044902D02*
X2747402Y-8955098D01*
X2657598Y-8955098D01*
X2657598Y-9044902D01*
X2747402Y-9044902D01*
X2639000Y-9436500D02*
X2766000Y-9563500D01*
X2766000Y-9436500D02*
X2639000Y-9563500D01*
X2747402Y-9544902D02*
X2747402Y-9455098D01*
X2657598Y-9455098D01*
X2657598Y-9544902D01*
X2747402Y-9544902D01*
X2639000Y-12036500D02*
X2766000Y-12163500D01*
X2766000Y-12036500D02*
X2639000Y-12163500D01*
X2747402Y-12144902D02*
X2747402Y-12055098D01*
X2657598Y-12055098D01*
X2657598Y-12144902D01*
X2747402Y-12144902D01*
X2639000Y-12536500D02*
X2766000Y-12663500D01*
X2766000Y-12536500D02*
X2639000Y-12663500D01*
X2747402Y-12644902D02*
X2747402Y-12555098D01*
X2657598Y-12555098D01*
X2657598Y-12644902D01*
X2747402Y-12644902D01*
X2639000Y-13036500D02*
X2766000Y-13163500D01*
X2766000Y-13036500D02*
X2639000Y-13163500D01*
X2747402Y-13144902D02*
X2747402Y-13055098D01*
X2657598Y-13055098D01*
X2657598Y-13144902D01*
X2747402Y-13144902D01*
X2639000Y-13536500D02*
X2766000Y-13663500D01*
X2766000Y-13536500D02*
X2639000Y-13663500D01*
X2747402Y-13644902D02*
X2747402Y-13555098D01*
X2657598Y-13555098D01*
X2657598Y-13644902D01*
X2747402Y-13644902D01*
X2639000Y-14036500D02*
X2766000Y-14163500D01*
X2766000Y-14036500D02*
X2639000Y-14163500D01*
X2747402Y-14144902D02*
X2747402Y-14055098D01*
X2657598Y-14055098D01*
X2657598Y-14144902D01*
X2747402Y-14144902D01*
X2639000Y-14536500D02*
X2766000Y-14663500D01*
X2766000Y-14536500D02*
X2639000Y-14663500D01*
X2747402Y-14644902D02*
X2747402Y-14555098D01*
X2657598Y-14555098D01*
X2657598Y-14644902D01*
X2747402Y-14644902D01*
X2639000Y-15036500D02*
X2766000Y-15163500D01*
X2766000Y-15036500D02*
X2639000Y-15163500D01*
X2747402Y-15144902D02*
X2747402Y-15055098D01*
X2657598Y-15055098D01*
X2657598Y-15144902D01*
X2747402Y-15144902D01*
X4667340Y-2561500D02*
X4794340Y-2688500D01*
X4794340Y-2561500D02*
X4667340Y-2688500D01*
X4775742Y-2669902D02*
X4775742Y-2580098D01*
X4685938Y-2580098D01*
X4685938Y-2669902D01*
X4775742Y-2669902D01*
X5167340Y-2561500D02*
X5294340Y-2688500D01*
X5294340Y-2561500D02*
X5167340Y-2688500D01*
X5275742Y-2669902D02*
X5275742Y-2580098D01*
X5185938Y-2580098D01*
X5185938Y-2669902D01*
X5275742Y-2669902D01*
X5667340Y-2561500D02*
X5794340Y-2688500D01*
X5794340Y-2561500D02*
X5667340Y-2688500D01*
X5775742Y-2669902D02*
X5775742Y-2580098D01*
X5685938Y-2580098D01*
X5685938Y-2669902D01*
X5775742Y-2669902D01*
X6167340Y-2561500D02*
X6294340Y-2688500D01*
X6294340Y-2561500D02*
X6167340Y-2688500D01*
X6275742Y-2669902D02*
X6275742Y-2580098D01*
X6185938Y-2580098D01*
X6185938Y-2669902D01*
X6275742Y-2669902D01*
X6667340Y-2561500D02*
X6794340Y-2688500D01*
X6794340Y-2561500D02*
X6667340Y-2688500D01*
X6775742Y-2669902D02*
X6775742Y-2580098D01*
X6685938Y-2580098D01*
X6685938Y-2669902D01*
X6775742Y-2669902D01*
X7167340Y-2561500D02*
X7294340Y-2688500D01*
X7294340Y-2561500D02*
X7167340Y-2688500D01*
X7275742Y-2669902D02*
X7275742Y-2580098D01*
X7185938Y-2580098D01*
X7185938Y-2669902D01*
X7275742Y-2669902D01*
X7667340Y-2561500D02*
X7794340Y-2688500D01*
X7794340Y-2561500D02*
X7667340Y-2688500D01*
X7775742Y-2669902D02*
X7775742Y-2580098D01*
X7685938Y-2580098D01*
X7685938Y-2669902D01*
X7775742Y-2669902D01*
X8614000Y-3511500D02*
X8741000Y-3638500D01*
X8741000Y-3511500D02*
X8614000Y-3638500D01*
X8722402Y-3619902D02*
X8722402Y-3530098D01*
X8632598Y-3530098D01*
X8632598Y-3619902D01*
X8722402Y-3619902D01*
X8614000Y-4011500D02*
X8741000Y-4138500D01*
X8741000Y-4011500D02*
X8614000Y-4138500D01*
X8722402Y-4119902D02*
X8722402Y-4030098D01*
X8632598Y-4030098D01*
X8632598Y-4119902D01*
X8722402Y-4119902D01*
X8614000Y-4511500D02*
X8741000Y-4638500D01*
X8741000Y-4511500D02*
X8614000Y-4638500D01*
X8722402Y-4619902D02*
X8722402Y-4530098D01*
X8632598Y-4530098D01*
X8632598Y-4619902D01*
X8722402Y-4619902D01*
X8614000Y-5011500D02*
X8741000Y-5138500D01*
X8741000Y-5011500D02*
X8614000Y-5138500D01*
X8722402Y-5119902D02*
X8722402Y-5030098D01*
X8632598Y-5030098D01*
X8632598Y-5119902D01*
X8722402Y-5119902D01*
X8614000Y-5511500D02*
X8741000Y-5638500D01*
X8741000Y-5511500D02*
X8614000Y-5638500D01*
X8722402Y-5619902D02*
X8722402Y-5530098D01*
X8632598Y-5530098D01*
X8632598Y-5619902D01*
X8722402Y-5619902D01*
X8614000Y-6011500D02*
X8741000Y-6138500D01*
X8741000Y-6011500D02*
X8614000Y-6138500D01*
X8722402Y-6119902D02*
X8722402Y-6030098D01*
X8632598Y-6030098D01*
X8632598Y-6119902D01*
X8722402Y-6119902D01*
X8614000Y-6511500D02*
X8741000Y-6638500D01*
X8741000Y-6511500D02*
X8614000Y-6638500D01*
X8722402Y-6619902D02*
X8722402Y-6530098D01*
X8632598Y-6530098D01*
X8632598Y-6619902D01*
X8722402Y-6619902D01*
D11*
X2230777Y-17091484D02*
X2230777Y-16891484D01*
X2230777Y-16891484D02*
X2278396Y-16891484D01*
X2278396Y-16891484D02*
X2306967Y-16901008D01*
X2306967Y-16901008D02*
X2326015Y-16920055D01*
X2326015Y-16920055D02*
X2335539Y-16939103D01*
X2335539Y-16939103D02*
X2345063Y-16977198D01*
X2345063Y-16977198D02*
X2345063Y-17005770D01*
X2345063Y-17005770D02*
X2335539Y-17043865D01*
X2335539Y-17043865D02*
X2326015Y-17062912D01*
X2326015Y-17062912D02*
X2306967Y-17081960D01*
X2306967Y-17081960D02*
X2278396Y-17091484D01*
X2278396Y-17091484D02*
X2230777Y-17091484D01*
X2430777Y-17091484D02*
X2430777Y-16958150D01*
X2430777Y-16996246D02*
X2440301Y-16977198D01*
X2440301Y-16977198D02*
X2449824Y-16967674D01*
X2449824Y-16967674D02*
X2468872Y-16958150D01*
X2468872Y-16958150D02*
X2487920Y-16958150D01*
X2554586Y-17091484D02*
X2554586Y-16958150D01*
X2554586Y-16891484D02*
X2545063Y-16901008D01*
X2545063Y-16901008D02*
X2554586Y-16910531D01*
X2554586Y-16910531D02*
X2564110Y-16901008D01*
X2564110Y-16901008D02*
X2554586Y-16891484D01*
X2554586Y-16891484D02*
X2554586Y-16910531D01*
X2678396Y-17091484D02*
X2659348Y-17081960D01*
X2659348Y-17081960D02*
X2649824Y-17062912D01*
X2649824Y-17062912D02*
X2649824Y-16891484D01*
X2783158Y-17091484D02*
X2764110Y-17081960D01*
X2764110Y-17081960D02*
X2754586Y-17062912D01*
X2754586Y-17062912D02*
X2754586Y-16891484D01*
X3011729Y-17091484D02*
X3011729Y-16891484D01*
X3011729Y-16891484D02*
X3078396Y-17034341D01*
X3078396Y-17034341D02*
X3145062Y-16891484D01*
X3145062Y-16891484D02*
X3145062Y-17091484D01*
X3326015Y-17091484D02*
X3326015Y-16986722D01*
X3326015Y-16986722D02*
X3316491Y-16967674D01*
X3316491Y-16967674D02*
X3297443Y-16958150D01*
X3297443Y-16958150D02*
X3259348Y-16958150D01*
X3259348Y-16958150D02*
X3240301Y-16967674D01*
X3326015Y-17081960D02*
X3306967Y-17091484D01*
X3306967Y-17091484D02*
X3259348Y-17091484D01*
X3259348Y-17091484D02*
X3240301Y-17081960D01*
X3240301Y-17081960D02*
X3230777Y-17062912D01*
X3230777Y-17062912D02*
X3230777Y-17043865D01*
X3230777Y-17043865D02*
X3240301Y-17024817D01*
X3240301Y-17024817D02*
X3259348Y-17015293D01*
X3259348Y-17015293D02*
X3306967Y-17015293D01*
X3306967Y-17015293D02*
X3326015Y-17005770D01*
X3421253Y-16958150D02*
X3421253Y-17158150D01*
X3421253Y-16967674D02*
X3440301Y-16958150D01*
X3440301Y-16958150D02*
X3478396Y-16958150D01*
X3478396Y-16958150D02*
X3497443Y-16967674D01*
X3497443Y-16967674D02*
X3506967Y-16977198D01*
X3506967Y-16977198D02*
X3516491Y-16996246D01*
X3516491Y-16996246D02*
X3516491Y-17053389D01*
X3516491Y-17053389D02*
X3506967Y-17072436D01*
X3506967Y-17072436D02*
X3497443Y-17081960D01*
X3497443Y-17081960D02*
X3478396Y-17091484D01*
X3478396Y-17091484D02*
X3440301Y-17091484D01*
X3440301Y-17091484D02*
X3421253Y-17081960D01*
X3602205Y-17072436D02*
X3611729Y-17081960D01*
X3611729Y-17081960D02*
X3602205Y-17091484D01*
X3602205Y-17091484D02*
X3592682Y-17081960D01*
X3592682Y-17081960D02*
X3602205Y-17072436D01*
X3602205Y-17072436D02*
X3602205Y-17091484D01*
X3602205Y-16967674D02*
X3611729Y-16977198D01*
X3611729Y-16977198D02*
X3602205Y-16986722D01*
X3602205Y-16986722D02*
X3592682Y-16977198D01*
X3592682Y-16977198D02*
X3602205Y-16967674D01*
X3602205Y-16967674D02*
X3602205Y-16986722D01*
D12*
X1940000Y-17405000D02*
X1970000Y-17435000D01*
X1970000Y-17405000D02*
X1940000Y-17435000D01*
D11*
X2268872Y-17311484D02*
X2287920Y-17311484D01*
X2287920Y-17311484D02*
X2306967Y-17321008D01*
X2306967Y-17321008D02*
X2316491Y-17330531D01*
X2316491Y-17330531D02*
X2326015Y-17349579D01*
X2326015Y-17349579D02*
X2335539Y-17387674D01*
X2335539Y-17387674D02*
X2335539Y-17435293D01*
X2335539Y-17435293D02*
X2326015Y-17473389D01*
X2326015Y-17473389D02*
X2316491Y-17492436D01*
X2316491Y-17492436D02*
X2306967Y-17501960D01*
X2306967Y-17501960D02*
X2287920Y-17511484D01*
X2287920Y-17511484D02*
X2268872Y-17511484D01*
X2268872Y-17511484D02*
X2249824Y-17501960D01*
X2249824Y-17501960D02*
X2240301Y-17492436D01*
X2240301Y-17492436D02*
X2230777Y-17473389D01*
X2230777Y-17473389D02*
X2221253Y-17435293D01*
X2221253Y-17435293D02*
X2221253Y-17387674D01*
X2221253Y-17387674D02*
X2230777Y-17349579D01*
X2230777Y-17349579D02*
X2240301Y-17330531D01*
X2240301Y-17330531D02*
X2249824Y-17321008D01*
X2249824Y-17321008D02*
X2268872Y-17311484D01*
X2421253Y-17492436D02*
X2430777Y-17501960D01*
X2430777Y-17501960D02*
X2421253Y-17511484D01*
X2421253Y-17511484D02*
X2411729Y-17501960D01*
X2411729Y-17501960D02*
X2421253Y-17492436D01*
X2421253Y-17492436D02*
X2421253Y-17511484D01*
X2497444Y-17311484D02*
X2621253Y-17311484D01*
X2621253Y-17311484D02*
X2554586Y-17387674D01*
X2554586Y-17387674D02*
X2583158Y-17387674D01*
X2583158Y-17387674D02*
X2602205Y-17397198D01*
X2602205Y-17397198D02*
X2611729Y-17406722D01*
X2611729Y-17406722D02*
X2621253Y-17425770D01*
X2621253Y-17425770D02*
X2621253Y-17473389D01*
X2621253Y-17473389D02*
X2611729Y-17492436D01*
X2611729Y-17492436D02*
X2602205Y-17501960D01*
X2602205Y-17501960D02*
X2583158Y-17511484D01*
X2583158Y-17511484D02*
X2526015Y-17511484D01*
X2526015Y-17511484D02*
X2506967Y-17501960D01*
X2506967Y-17501960D02*
X2497444Y-17492436D01*
X2745063Y-17311484D02*
X2764110Y-17311484D01*
X2764110Y-17311484D02*
X2783158Y-17321008D01*
X2783158Y-17321008D02*
X2792682Y-17330531D01*
X2792682Y-17330531D02*
X2802205Y-17349579D01*
X2802205Y-17349579D02*
X2811729Y-17387674D01*
X2811729Y-17387674D02*
X2811729Y-17435293D01*
X2811729Y-17435293D02*
X2802205Y-17473389D01*
X2802205Y-17473389D02*
X2792682Y-17492436D01*
X2792682Y-17492436D02*
X2783158Y-17501960D01*
X2783158Y-17501960D02*
X2764110Y-17511484D01*
X2764110Y-17511484D02*
X2745063Y-17511484D01*
X2745063Y-17511484D02*
X2726015Y-17501960D01*
X2726015Y-17501960D02*
X2716491Y-17492436D01*
X2716491Y-17492436D02*
X2706967Y-17473389D01*
X2706967Y-17473389D02*
X2697444Y-17435293D01*
X2697444Y-17435293D02*
X2697444Y-17387674D01*
X2697444Y-17387674D02*
X2706967Y-17349579D01*
X2706967Y-17349579D02*
X2716491Y-17330531D01*
X2716491Y-17330531D02*
X2726015Y-17321008D01*
X2726015Y-17321008D02*
X2745063Y-17311484D01*
X2935539Y-17311484D02*
X2954586Y-17311484D01*
X2954586Y-17311484D02*
X2973634Y-17321008D01*
X2973634Y-17321008D02*
X2983158Y-17330531D01*
X2983158Y-17330531D02*
X2992682Y-17349579D01*
X2992682Y-17349579D02*
X3002205Y-17387674D01*
X3002205Y-17387674D02*
X3002205Y-17435293D01*
X3002205Y-17435293D02*
X2992682Y-17473389D01*
X2992682Y-17473389D02*
X2983158Y-17492436D01*
X2983158Y-17492436D02*
X2973634Y-17501960D01*
X2973634Y-17501960D02*
X2954586Y-17511484D01*
X2954586Y-17511484D02*
X2935539Y-17511484D01*
X2935539Y-17511484D02*
X2916491Y-17501960D01*
X2916491Y-17501960D02*
X2906967Y-17492436D01*
X2906967Y-17492436D02*
X2897443Y-17473389D01*
X2897443Y-17473389D02*
X2887920Y-17435293D01*
X2887920Y-17435293D02*
X2887920Y-17387674D01*
X2887920Y-17387674D02*
X2897443Y-17349579D01*
X2897443Y-17349579D02*
X2906967Y-17330531D01*
X2906967Y-17330531D02*
X2916491Y-17321008D01*
X2916491Y-17321008D02*
X2935539Y-17311484D01*
X3087920Y-17511484D02*
X3087920Y-17378150D01*
X3087920Y-17397198D02*
X3097443Y-17387674D01*
X3097443Y-17387674D02*
X3116491Y-17378150D01*
X3116491Y-17378150D02*
X3145063Y-17378150D01*
X3145063Y-17378150D02*
X3164110Y-17387674D01*
X3164110Y-17387674D02*
X3173634Y-17406722D01*
X3173634Y-17406722D02*
X3173634Y-17511484D01*
X3173634Y-17406722D02*
X3183158Y-17387674D01*
X3183158Y-17387674D02*
X3202205Y-17378150D01*
X3202205Y-17378150D02*
X3230777Y-17378150D01*
X3230777Y-17378150D02*
X3249824Y-17387674D01*
X3249824Y-17387674D02*
X3259348Y-17406722D01*
X3259348Y-17406722D02*
X3259348Y-17511484D01*
X3354586Y-17511484D02*
X3354586Y-17378150D01*
X3354586Y-17397198D02*
X3364110Y-17387674D01*
X3364110Y-17387674D02*
X3383158Y-17378150D01*
X3383158Y-17378150D02*
X3411729Y-17378150D01*
X3411729Y-17378150D02*
X3430777Y-17387674D01*
X3430777Y-17387674D02*
X3440301Y-17406722D01*
X3440301Y-17406722D02*
X3440301Y-17511484D01*
X3440301Y-17406722D02*
X3449824Y-17387674D01*
X3449824Y-17387674D02*
X3468872Y-17378150D01*
X3468872Y-17378150D02*
X3497443Y-17378150D01*
X3497443Y-17378150D02*
X3516491Y-17387674D01*
X3516491Y-17387674D02*
X3526015Y-17406722D01*
X3526015Y-17406722D02*
X3526015Y-17511484D01*
X3916491Y-17301960D02*
X3745063Y-17559103D01*
X4173634Y-17311484D02*
X4192682Y-17311484D01*
X4192682Y-17311484D02*
X4211729Y-17321008D01*
X4211729Y-17321008D02*
X4221253Y-17330531D01*
X4221253Y-17330531D02*
X4230777Y-17349579D01*
X4230777Y-17349579D02*
X4240301Y-17387674D01*
X4240301Y-17387674D02*
X4240301Y-17435293D01*
X4240301Y-17435293D02*
X4230777Y-17473389D01*
X4230777Y-17473389D02*
X4221253Y-17492436D01*
X4221253Y-17492436D02*
X4211729Y-17501960D01*
X4211729Y-17501960D02*
X4192682Y-17511484D01*
X4192682Y-17511484D02*
X4173634Y-17511484D01*
X4173634Y-17511484D02*
X4154586Y-17501960D01*
X4154586Y-17501960D02*
X4145063Y-17492436D01*
X4145063Y-17492436D02*
X4135539Y-17473389D01*
X4135539Y-17473389D02*
X4126015Y-17435293D01*
X4126015Y-17435293D02*
X4126015Y-17387674D01*
X4126015Y-17387674D02*
X4135539Y-17349579D01*
X4135539Y-17349579D02*
X4145063Y-17330531D01*
X4145063Y-17330531D02*
X4154586Y-17321008D01*
X4154586Y-17321008D02*
X4173634Y-17311484D01*
X4326015Y-17492436D02*
X4335539Y-17501960D01*
X4335539Y-17501960D02*
X4326015Y-17511484D01*
X4326015Y-17511484D02*
X4316491Y-17501960D01*
X4316491Y-17501960D02*
X4326015Y-17492436D01*
X4326015Y-17492436D02*
X4326015Y-17511484D01*
X4459348Y-17311484D02*
X4478396Y-17311484D01*
X4478396Y-17311484D02*
X4497444Y-17321008D01*
X4497444Y-17321008D02*
X4506968Y-17330531D01*
X4506968Y-17330531D02*
X4516491Y-17349579D01*
X4516491Y-17349579D02*
X4526015Y-17387674D01*
X4526015Y-17387674D02*
X4526015Y-17435293D01*
X4526015Y-17435293D02*
X4516491Y-17473389D01*
X4516491Y-17473389D02*
X4506968Y-17492436D01*
X4506968Y-17492436D02*
X4497444Y-17501960D01*
X4497444Y-17501960D02*
X4478396Y-17511484D01*
X4478396Y-17511484D02*
X4459348Y-17511484D01*
X4459348Y-17511484D02*
X4440301Y-17501960D01*
X4440301Y-17501960D02*
X4430777Y-17492436D01*
X4430777Y-17492436D02*
X4421253Y-17473389D01*
X4421253Y-17473389D02*
X4411729Y-17435293D01*
X4411729Y-17435293D02*
X4411729Y-17387674D01*
X4411729Y-17387674D02*
X4421253Y-17349579D01*
X4421253Y-17349579D02*
X4430777Y-17330531D01*
X4430777Y-17330531D02*
X4440301Y-17321008D01*
X4440301Y-17321008D02*
X4459348Y-17311484D01*
X4716491Y-17511484D02*
X4602206Y-17511484D01*
X4659348Y-17511484D02*
X4659348Y-17311484D01*
X4659348Y-17311484D02*
X4640301Y-17340055D01*
X4640301Y-17340055D02*
X4621253Y-17359103D01*
X4621253Y-17359103D02*
X4602206Y-17368627D01*
X4906968Y-17511484D02*
X4792682Y-17511484D01*
X4849825Y-17511484D02*
X4849825Y-17311484D01*
X4849825Y-17311484D02*
X4830777Y-17340055D01*
X4830777Y-17340055D02*
X4811729Y-17359103D01*
X4811729Y-17359103D02*
X4792682Y-17368627D01*
X5021253Y-17397198D02*
X5002206Y-17387674D01*
X5002206Y-17387674D02*
X4992682Y-17378150D01*
X4992682Y-17378150D02*
X4983158Y-17359103D01*
X4983158Y-17359103D02*
X4983158Y-17349579D01*
X4983158Y-17349579D02*
X4992682Y-17330531D01*
X4992682Y-17330531D02*
X5002206Y-17321008D01*
X5002206Y-17321008D02*
X5021253Y-17311484D01*
X5021253Y-17311484D02*
X5059349Y-17311484D01*
X5059349Y-17311484D02*
X5078396Y-17321008D01*
X5078396Y-17321008D02*
X5087920Y-17330531D01*
X5087920Y-17330531D02*
X5097444Y-17349579D01*
X5097444Y-17349579D02*
X5097444Y-17359103D01*
X5097444Y-17359103D02*
X5087920Y-17378150D01*
X5087920Y-17378150D02*
X5078396Y-17387674D01*
X5078396Y-17387674D02*
X5059349Y-17397198D01*
X5059349Y-17397198D02*
X5021253Y-17397198D01*
X5021253Y-17397198D02*
X5002206Y-17406722D01*
X5002206Y-17406722D02*
X4992682Y-17416246D01*
X4992682Y-17416246D02*
X4983158Y-17435293D01*
X4983158Y-17435293D02*
X4983158Y-17473389D01*
X4983158Y-17473389D02*
X4992682Y-17492436D01*
X4992682Y-17492436D02*
X5002206Y-17501960D01*
X5002206Y-17501960D02*
X5021253Y-17511484D01*
X5021253Y-17511484D02*
X5059349Y-17511484D01*
X5059349Y-17511484D02*
X5078396Y-17501960D01*
X5078396Y-17501960D02*
X5087920Y-17492436D01*
X5087920Y-17492436D02*
X5097444Y-17473389D01*
X5097444Y-17473389D02*
X5097444Y-17435293D01*
X5097444Y-17435293D02*
X5087920Y-17416246D01*
X5087920Y-17416246D02*
X5078396Y-17406722D01*
X5078396Y-17406722D02*
X5059349Y-17397198D01*
X5173634Y-17311484D02*
X5173634Y-17349579D01*
X5249825Y-17311484D02*
X5249825Y-17349579D01*
X5545063Y-17587674D02*
X5535539Y-17578150D01*
X5535539Y-17578150D02*
X5516491Y-17549579D01*
X5516491Y-17549579D02*
X5506968Y-17530531D01*
X5506968Y-17530531D02*
X5497444Y-17501960D01*
X5497444Y-17501960D02*
X5487920Y-17454341D01*
X5487920Y-17454341D02*
X5487920Y-17416246D01*
X5487920Y-17416246D02*
X5497444Y-17368627D01*
X5497444Y-17368627D02*
X5506968Y-17340055D01*
X5506968Y-17340055D02*
X5516491Y-17321008D01*
X5516491Y-17321008D02*
X5535539Y-17292436D01*
X5535539Y-17292436D02*
X5545063Y-17282912D01*
X5726015Y-17511484D02*
X5611729Y-17511484D01*
X5668872Y-17511484D02*
X5668872Y-17311484D01*
X5668872Y-17311484D02*
X5649825Y-17340055D01*
X5649825Y-17340055D02*
X5630777Y-17359103D01*
X5630777Y-17359103D02*
X5611729Y-17368627D01*
X5802206Y-17330531D02*
X5811729Y-17321008D01*
X5811729Y-17321008D02*
X5830777Y-17311484D01*
X5830777Y-17311484D02*
X5878396Y-17311484D01*
X5878396Y-17311484D02*
X5897444Y-17321008D01*
X5897444Y-17321008D02*
X5906968Y-17330531D01*
X5906968Y-17330531D02*
X5916491Y-17349579D01*
X5916491Y-17349579D02*
X5916491Y-17368627D01*
X5916491Y-17368627D02*
X5906968Y-17397198D01*
X5906968Y-17397198D02*
X5792682Y-17511484D01*
X5792682Y-17511484D02*
X5916491Y-17511484D01*
X6030777Y-17397198D02*
X6011729Y-17387674D01*
X6011729Y-17387674D02*
X6002206Y-17378150D01*
X6002206Y-17378150D02*
X5992682Y-17359103D01*
X5992682Y-17359103D02*
X5992682Y-17349579D01*
X5992682Y-17349579D02*
X6002206Y-17330531D01*
X6002206Y-17330531D02*
X6011729Y-17321008D01*
X6011729Y-17321008D02*
X6030777Y-17311484D01*
X6030777Y-17311484D02*
X6068872Y-17311484D01*
X6068872Y-17311484D02*
X6087920Y-17321008D01*
X6087920Y-17321008D02*
X6097444Y-17330531D01*
X6097444Y-17330531D02*
X6106968Y-17349579D01*
X6106968Y-17349579D02*
X6106968Y-17359103D01*
X6106968Y-17359103D02*
X6097444Y-17378150D01*
X6097444Y-17378150D02*
X6087920Y-17387674D01*
X6087920Y-17387674D02*
X6068872Y-17397198D01*
X6068872Y-17397198D02*
X6030777Y-17397198D01*
X6030777Y-17397198D02*
X6011729Y-17406722D01*
X6011729Y-17406722D02*
X6002206Y-17416246D01*
X6002206Y-17416246D02*
X5992682Y-17435293D01*
X5992682Y-17435293D02*
X5992682Y-17473389D01*
X5992682Y-17473389D02*
X6002206Y-17492436D01*
X6002206Y-17492436D02*
X6011729Y-17501960D01*
X6011729Y-17501960D02*
X6030777Y-17511484D01*
X6030777Y-17511484D02*
X6068872Y-17511484D01*
X6068872Y-17511484D02*
X6087920Y-17501960D01*
X6087920Y-17501960D02*
X6097444Y-17492436D01*
X6097444Y-17492436D02*
X6106968Y-17473389D01*
X6106968Y-17473389D02*
X6106968Y-17435293D01*
X6106968Y-17435293D02*
X6097444Y-17416246D01*
X6097444Y-17416246D02*
X6087920Y-17406722D01*
X6087920Y-17406722D02*
X6068872Y-17397198D01*
X6345063Y-17511484D02*
X6345063Y-17311484D01*
X6430777Y-17511484D02*
X6430777Y-17406722D01*
X6430777Y-17406722D02*
X6421253Y-17387674D01*
X6421253Y-17387674D02*
X6402206Y-17378150D01*
X6402206Y-17378150D02*
X6373634Y-17378150D01*
X6373634Y-17378150D02*
X6354587Y-17387674D01*
X6354587Y-17387674D02*
X6345063Y-17397198D01*
X6554587Y-17511484D02*
X6535539Y-17501960D01*
X6535539Y-17501960D02*
X6526015Y-17492436D01*
X6526015Y-17492436D02*
X6516491Y-17473389D01*
X6516491Y-17473389D02*
X6516491Y-17416246D01*
X6516491Y-17416246D02*
X6526015Y-17397198D01*
X6526015Y-17397198D02*
X6535539Y-17387674D01*
X6535539Y-17387674D02*
X6554587Y-17378150D01*
X6554587Y-17378150D02*
X6583158Y-17378150D01*
X6583158Y-17378150D02*
X6602206Y-17387674D01*
X6602206Y-17387674D02*
X6611730Y-17397198D01*
X6611730Y-17397198D02*
X6621253Y-17416246D01*
X6621253Y-17416246D02*
X6621253Y-17473389D01*
X6621253Y-17473389D02*
X6611730Y-17492436D01*
X6611730Y-17492436D02*
X6602206Y-17501960D01*
X6602206Y-17501960D02*
X6583158Y-17511484D01*
X6583158Y-17511484D02*
X6554587Y-17511484D01*
X6735539Y-17511484D02*
X6716491Y-17501960D01*
X6716491Y-17501960D02*
X6706968Y-17482912D01*
X6706968Y-17482912D02*
X6706968Y-17311484D01*
X6887920Y-17501960D02*
X6868872Y-17511484D01*
X6868872Y-17511484D02*
X6830777Y-17511484D01*
X6830777Y-17511484D02*
X6811730Y-17501960D01*
X6811730Y-17501960D02*
X6802206Y-17482912D01*
X6802206Y-17482912D02*
X6802206Y-17406722D01*
X6802206Y-17406722D02*
X6811730Y-17387674D01*
X6811730Y-17387674D02*
X6830777Y-17378150D01*
X6830777Y-17378150D02*
X6868872Y-17378150D01*
X6868872Y-17378150D02*
X6887920Y-17387674D01*
X6887920Y-17387674D02*
X6897444Y-17406722D01*
X6897444Y-17406722D02*
X6897444Y-17425770D01*
X6897444Y-17425770D02*
X6802206Y-17444817D01*
X6973634Y-17501960D02*
X6992682Y-17511484D01*
X6992682Y-17511484D02*
X7030777Y-17511484D01*
X7030777Y-17511484D02*
X7049825Y-17501960D01*
X7049825Y-17501960D02*
X7059349Y-17482912D01*
X7059349Y-17482912D02*
X7059349Y-17473389D01*
X7059349Y-17473389D02*
X7049825Y-17454341D01*
X7049825Y-17454341D02*
X7030777Y-17444817D01*
X7030777Y-17444817D02*
X7002206Y-17444817D01*
X7002206Y-17444817D02*
X6983158Y-17435293D01*
X6983158Y-17435293D02*
X6973634Y-17416246D01*
X6973634Y-17416246D02*
X6973634Y-17406722D01*
X6973634Y-17406722D02*
X6983158Y-17387674D01*
X6983158Y-17387674D02*
X7002206Y-17378150D01*
X7002206Y-17378150D02*
X7030777Y-17378150D01*
X7030777Y-17378150D02*
X7049825Y-17387674D01*
X7126015Y-17587674D02*
X7135539Y-17578150D01*
X7135539Y-17578150D02*
X7154587Y-17549579D01*
X7154587Y-17549579D02*
X7164111Y-17530531D01*
X7164111Y-17530531D02*
X7173634Y-17501960D01*
X7173634Y-17501960D02*
X7183158Y-17454341D01*
X7183158Y-17454341D02*
X7183158Y-17416246D01*
X7183158Y-17416246D02*
X7173634Y-17368627D01*
X7173634Y-17368627D02*
X7164111Y-17340055D01*
X7164111Y-17340055D02*
X7154587Y-17321008D01*
X7154587Y-17321008D02*
X7135539Y-17292436D01*
X7135539Y-17292436D02*
X7126015Y-17282912D01*
D13*
X1970000Y-17684000D02*
G75*
G03*
X1970000Y-17684000I-20000J0D01*
G01*
D11*
X2268872Y-17575484D02*
X2287920Y-17575484D01*
X2287920Y-17575484D02*
X2306967Y-17585008D01*
X2306967Y-17585008D02*
X2316491Y-17594531D01*
X2316491Y-17594531D02*
X2326015Y-17613579D01*
X2326015Y-17613579D02*
X2335539Y-17651674D01*
X2335539Y-17651674D02*
X2335539Y-17699293D01*
X2335539Y-17699293D02*
X2326015Y-17737389D01*
X2326015Y-17737389D02*
X2316491Y-17756436D01*
X2316491Y-17756436D02*
X2306967Y-17765960D01*
X2306967Y-17765960D02*
X2287920Y-17775484D01*
X2287920Y-17775484D02*
X2268872Y-17775484D01*
X2268872Y-17775484D02*
X2249824Y-17765960D01*
X2249824Y-17765960D02*
X2240301Y-17756436D01*
X2240301Y-17756436D02*
X2230777Y-17737389D01*
X2230777Y-17737389D02*
X2221253Y-17699293D01*
X2221253Y-17699293D02*
X2221253Y-17651674D01*
X2221253Y-17651674D02*
X2230777Y-17613579D01*
X2230777Y-17613579D02*
X2240301Y-17594531D01*
X2240301Y-17594531D02*
X2249824Y-17585008D01*
X2249824Y-17585008D02*
X2268872Y-17575484D01*
X2421253Y-17756436D02*
X2430777Y-17765960D01*
X2430777Y-17765960D02*
X2421253Y-17775484D01*
X2421253Y-17775484D02*
X2411729Y-17765960D01*
X2411729Y-17765960D02*
X2421253Y-17756436D01*
X2421253Y-17756436D02*
X2421253Y-17775484D01*
X2602205Y-17642150D02*
X2602205Y-17775484D01*
X2554586Y-17565960D02*
X2506967Y-17708817D01*
X2506967Y-17708817D02*
X2630777Y-17708817D01*
X2745063Y-17575484D02*
X2764110Y-17575484D01*
X2764110Y-17575484D02*
X2783158Y-17585008D01*
X2783158Y-17585008D02*
X2792682Y-17594531D01*
X2792682Y-17594531D02*
X2802205Y-17613579D01*
X2802205Y-17613579D02*
X2811729Y-17651674D01*
X2811729Y-17651674D02*
X2811729Y-17699293D01*
X2811729Y-17699293D02*
X2802205Y-17737389D01*
X2802205Y-17737389D02*
X2792682Y-17756436D01*
X2792682Y-17756436D02*
X2783158Y-17765960D01*
X2783158Y-17765960D02*
X2764110Y-17775484D01*
X2764110Y-17775484D02*
X2745063Y-17775484D01*
X2745063Y-17775484D02*
X2726015Y-17765960D01*
X2726015Y-17765960D02*
X2716491Y-17756436D01*
X2716491Y-17756436D02*
X2706967Y-17737389D01*
X2706967Y-17737389D02*
X2697444Y-17699293D01*
X2697444Y-17699293D02*
X2697444Y-17651674D01*
X2697444Y-17651674D02*
X2706967Y-17613579D01*
X2706967Y-17613579D02*
X2716491Y-17594531D01*
X2716491Y-17594531D02*
X2726015Y-17585008D01*
X2726015Y-17585008D02*
X2745063Y-17575484D01*
X2935539Y-17575484D02*
X2954586Y-17575484D01*
X2954586Y-17575484D02*
X2973634Y-17585008D01*
X2973634Y-17585008D02*
X2983158Y-17594531D01*
X2983158Y-17594531D02*
X2992682Y-17613579D01*
X2992682Y-17613579D02*
X3002205Y-17651674D01*
X3002205Y-17651674D02*
X3002205Y-17699293D01*
X3002205Y-17699293D02*
X2992682Y-17737389D01*
X2992682Y-17737389D02*
X2983158Y-17756436D01*
X2983158Y-17756436D02*
X2973634Y-17765960D01*
X2973634Y-17765960D02*
X2954586Y-17775484D01*
X2954586Y-17775484D02*
X2935539Y-17775484D01*
X2935539Y-17775484D02*
X2916491Y-17765960D01*
X2916491Y-17765960D02*
X2906967Y-17756436D01*
X2906967Y-17756436D02*
X2897443Y-17737389D01*
X2897443Y-17737389D02*
X2887920Y-17699293D01*
X2887920Y-17699293D02*
X2887920Y-17651674D01*
X2887920Y-17651674D02*
X2897443Y-17613579D01*
X2897443Y-17613579D02*
X2906967Y-17594531D01*
X2906967Y-17594531D02*
X2916491Y-17585008D01*
X2916491Y-17585008D02*
X2935539Y-17575484D01*
X3087920Y-17775484D02*
X3087920Y-17642150D01*
X3087920Y-17661198D02*
X3097443Y-17651674D01*
X3097443Y-17651674D02*
X3116491Y-17642150D01*
X3116491Y-17642150D02*
X3145063Y-17642150D01*
X3145063Y-17642150D02*
X3164110Y-17651674D01*
X3164110Y-17651674D02*
X3173634Y-17670722D01*
X3173634Y-17670722D02*
X3173634Y-17775484D01*
X3173634Y-17670722D02*
X3183158Y-17651674D01*
X3183158Y-17651674D02*
X3202205Y-17642150D01*
X3202205Y-17642150D02*
X3230777Y-17642150D01*
X3230777Y-17642150D02*
X3249824Y-17651674D01*
X3249824Y-17651674D02*
X3259348Y-17670722D01*
X3259348Y-17670722D02*
X3259348Y-17775484D01*
X3354586Y-17775484D02*
X3354586Y-17642150D01*
X3354586Y-17661198D02*
X3364110Y-17651674D01*
X3364110Y-17651674D02*
X3383158Y-17642150D01*
X3383158Y-17642150D02*
X3411729Y-17642150D01*
X3411729Y-17642150D02*
X3430777Y-17651674D01*
X3430777Y-17651674D02*
X3440301Y-17670722D01*
X3440301Y-17670722D02*
X3440301Y-17775484D01*
X3440301Y-17670722D02*
X3449824Y-17651674D01*
X3449824Y-17651674D02*
X3468872Y-17642150D01*
X3468872Y-17642150D02*
X3497443Y-17642150D01*
X3497443Y-17642150D02*
X3516491Y-17651674D01*
X3516491Y-17651674D02*
X3526015Y-17670722D01*
X3526015Y-17670722D02*
X3526015Y-17775484D01*
X3916491Y-17565960D02*
X3745063Y-17823103D01*
X4173634Y-17575484D02*
X4192682Y-17575484D01*
X4192682Y-17575484D02*
X4211729Y-17585008D01*
X4211729Y-17585008D02*
X4221253Y-17594531D01*
X4221253Y-17594531D02*
X4230777Y-17613579D01*
X4230777Y-17613579D02*
X4240301Y-17651674D01*
X4240301Y-17651674D02*
X4240301Y-17699293D01*
X4240301Y-17699293D02*
X4230777Y-17737389D01*
X4230777Y-17737389D02*
X4221253Y-17756436D01*
X4221253Y-17756436D02*
X4211729Y-17765960D01*
X4211729Y-17765960D02*
X4192682Y-17775484D01*
X4192682Y-17775484D02*
X4173634Y-17775484D01*
X4173634Y-17775484D02*
X4154586Y-17765960D01*
X4154586Y-17765960D02*
X4145063Y-17756436D01*
X4145063Y-17756436D02*
X4135539Y-17737389D01*
X4135539Y-17737389D02*
X4126015Y-17699293D01*
X4126015Y-17699293D02*
X4126015Y-17651674D01*
X4126015Y-17651674D02*
X4135539Y-17613579D01*
X4135539Y-17613579D02*
X4145063Y-17594531D01*
X4145063Y-17594531D02*
X4154586Y-17585008D01*
X4154586Y-17585008D02*
X4173634Y-17575484D01*
X4326015Y-17756436D02*
X4335539Y-17765960D01*
X4335539Y-17765960D02*
X4326015Y-17775484D01*
X4326015Y-17775484D02*
X4316491Y-17765960D01*
X4316491Y-17765960D02*
X4326015Y-17756436D01*
X4326015Y-17756436D02*
X4326015Y-17775484D01*
X4459348Y-17575484D02*
X4478396Y-17575484D01*
X4478396Y-17575484D02*
X4497444Y-17585008D01*
X4497444Y-17585008D02*
X4506968Y-17594531D01*
X4506968Y-17594531D02*
X4516491Y-17613579D01*
X4516491Y-17613579D02*
X4526015Y-17651674D01*
X4526015Y-17651674D02*
X4526015Y-17699293D01*
X4526015Y-17699293D02*
X4516491Y-17737389D01*
X4516491Y-17737389D02*
X4506968Y-17756436D01*
X4506968Y-17756436D02*
X4497444Y-17765960D01*
X4497444Y-17765960D02*
X4478396Y-17775484D01*
X4478396Y-17775484D02*
X4459348Y-17775484D01*
X4459348Y-17775484D02*
X4440301Y-17765960D01*
X4440301Y-17765960D02*
X4430777Y-17756436D01*
X4430777Y-17756436D02*
X4421253Y-17737389D01*
X4421253Y-17737389D02*
X4411729Y-17699293D01*
X4411729Y-17699293D02*
X4411729Y-17651674D01*
X4411729Y-17651674D02*
X4421253Y-17613579D01*
X4421253Y-17613579D02*
X4430777Y-17594531D01*
X4430777Y-17594531D02*
X4440301Y-17585008D01*
X4440301Y-17585008D02*
X4459348Y-17575484D01*
X4716491Y-17775484D02*
X4602206Y-17775484D01*
X4659348Y-17775484D02*
X4659348Y-17575484D01*
X4659348Y-17575484D02*
X4640301Y-17604055D01*
X4640301Y-17604055D02*
X4621253Y-17623103D01*
X4621253Y-17623103D02*
X4602206Y-17632627D01*
X4897444Y-17575484D02*
X4802206Y-17575484D01*
X4802206Y-17575484D02*
X4792682Y-17670722D01*
X4792682Y-17670722D02*
X4802206Y-17661198D01*
X4802206Y-17661198D02*
X4821253Y-17651674D01*
X4821253Y-17651674D02*
X4868872Y-17651674D01*
X4868872Y-17651674D02*
X4887920Y-17661198D01*
X4887920Y-17661198D02*
X4897444Y-17670722D01*
X4897444Y-17670722D02*
X4906968Y-17689770D01*
X4906968Y-17689770D02*
X4906968Y-17737389D01*
X4906968Y-17737389D02*
X4897444Y-17756436D01*
X4897444Y-17756436D02*
X4887920Y-17765960D01*
X4887920Y-17765960D02*
X4868872Y-17775484D01*
X4868872Y-17775484D02*
X4821253Y-17775484D01*
X4821253Y-17775484D02*
X4802206Y-17765960D01*
X4802206Y-17765960D02*
X4792682Y-17756436D01*
X4973634Y-17575484D02*
X5106968Y-17575484D01*
X5106968Y-17575484D02*
X5021253Y-17775484D01*
X5173634Y-17575484D02*
X5173634Y-17613579D01*
X5249825Y-17575484D02*
X5249825Y-17613579D01*
X5545063Y-17851674D02*
X5535539Y-17842150D01*
X5535539Y-17842150D02*
X5516491Y-17813579D01*
X5516491Y-17813579D02*
X5506968Y-17794531D01*
X5506968Y-17794531D02*
X5497444Y-17765960D01*
X5497444Y-17765960D02*
X5487920Y-17718341D01*
X5487920Y-17718341D02*
X5487920Y-17680246D01*
X5487920Y-17680246D02*
X5497444Y-17632627D01*
X5497444Y-17632627D02*
X5506968Y-17604055D01*
X5506968Y-17604055D02*
X5516491Y-17585008D01*
X5516491Y-17585008D02*
X5535539Y-17556436D01*
X5535539Y-17556436D02*
X5545063Y-17546912D01*
X5611729Y-17594531D02*
X5621253Y-17585008D01*
X5621253Y-17585008D02*
X5640301Y-17575484D01*
X5640301Y-17575484D02*
X5687920Y-17575484D01*
X5687920Y-17575484D02*
X5706968Y-17585008D01*
X5706968Y-17585008D02*
X5716491Y-17594531D01*
X5716491Y-17594531D02*
X5726015Y-17613579D01*
X5726015Y-17613579D02*
X5726015Y-17632627D01*
X5726015Y-17632627D02*
X5716491Y-17661198D01*
X5716491Y-17661198D02*
X5602206Y-17775484D01*
X5602206Y-17775484D02*
X5726015Y-17775484D01*
X5897444Y-17575484D02*
X5859348Y-17575484D01*
X5859348Y-17575484D02*
X5840301Y-17585008D01*
X5840301Y-17585008D02*
X5830777Y-17594531D01*
X5830777Y-17594531D02*
X5811729Y-17623103D01*
X5811729Y-17623103D02*
X5802206Y-17661198D01*
X5802206Y-17661198D02*
X5802206Y-17737389D01*
X5802206Y-17737389D02*
X5811729Y-17756436D01*
X5811729Y-17756436D02*
X5821253Y-17765960D01*
X5821253Y-17765960D02*
X5840301Y-17775484D01*
X5840301Y-17775484D02*
X5878396Y-17775484D01*
X5878396Y-17775484D02*
X5897444Y-17765960D01*
X5897444Y-17765960D02*
X5906968Y-17756436D01*
X5906968Y-17756436D02*
X5916491Y-17737389D01*
X5916491Y-17737389D02*
X5916491Y-17689770D01*
X5916491Y-17689770D02*
X5906968Y-17670722D01*
X5906968Y-17670722D02*
X5897444Y-17661198D01*
X5897444Y-17661198D02*
X5878396Y-17651674D01*
X5878396Y-17651674D02*
X5840301Y-17651674D01*
X5840301Y-17651674D02*
X5821253Y-17661198D01*
X5821253Y-17661198D02*
X5811729Y-17670722D01*
X5811729Y-17670722D02*
X5802206Y-17689770D01*
X6154587Y-17775484D02*
X6154587Y-17575484D01*
X6240301Y-17775484D02*
X6240301Y-17670722D01*
X6240301Y-17670722D02*
X6230777Y-17651674D01*
X6230777Y-17651674D02*
X6211730Y-17642150D01*
X6211730Y-17642150D02*
X6183158Y-17642150D01*
X6183158Y-17642150D02*
X6164110Y-17651674D01*
X6164110Y-17651674D02*
X6154587Y-17661198D01*
X6364110Y-17775484D02*
X6345063Y-17765960D01*
X6345063Y-17765960D02*
X6335539Y-17756436D01*
X6335539Y-17756436D02*
X6326015Y-17737389D01*
X6326015Y-17737389D02*
X6326015Y-17680246D01*
X6326015Y-17680246D02*
X6335539Y-17661198D01*
X6335539Y-17661198D02*
X6345063Y-17651674D01*
X6345063Y-17651674D02*
X6364110Y-17642150D01*
X6364110Y-17642150D02*
X6392682Y-17642150D01*
X6392682Y-17642150D02*
X6411730Y-17651674D01*
X6411730Y-17651674D02*
X6421253Y-17661198D01*
X6421253Y-17661198D02*
X6430777Y-17680246D01*
X6430777Y-17680246D02*
X6430777Y-17737389D01*
X6430777Y-17737389D02*
X6421253Y-17756436D01*
X6421253Y-17756436D02*
X6411730Y-17765960D01*
X6411730Y-17765960D02*
X6392682Y-17775484D01*
X6392682Y-17775484D02*
X6364110Y-17775484D01*
X6545063Y-17775484D02*
X6526015Y-17765960D01*
X6526015Y-17765960D02*
X6516491Y-17746912D01*
X6516491Y-17746912D02*
X6516491Y-17575484D01*
X6697444Y-17765960D02*
X6678396Y-17775484D01*
X6678396Y-17775484D02*
X6640301Y-17775484D01*
X6640301Y-17775484D02*
X6621253Y-17765960D01*
X6621253Y-17765960D02*
X6611730Y-17746912D01*
X6611730Y-17746912D02*
X6611730Y-17670722D01*
X6611730Y-17670722D02*
X6621253Y-17651674D01*
X6621253Y-17651674D02*
X6640301Y-17642150D01*
X6640301Y-17642150D02*
X6678396Y-17642150D01*
X6678396Y-17642150D02*
X6697444Y-17651674D01*
X6697444Y-17651674D02*
X6706968Y-17670722D01*
X6706968Y-17670722D02*
X6706968Y-17689770D01*
X6706968Y-17689770D02*
X6611730Y-17708817D01*
X6783158Y-17765960D02*
X6802206Y-17775484D01*
X6802206Y-17775484D02*
X6840301Y-17775484D01*
X6840301Y-17775484D02*
X6859349Y-17765960D01*
X6859349Y-17765960D02*
X6868872Y-17746912D01*
X6868872Y-17746912D02*
X6868872Y-17737389D01*
X6868872Y-17737389D02*
X6859349Y-17718341D01*
X6859349Y-17718341D02*
X6840301Y-17708817D01*
X6840301Y-17708817D02*
X6811730Y-17708817D01*
X6811730Y-17708817D02*
X6792682Y-17699293D01*
X6792682Y-17699293D02*
X6783158Y-17680246D01*
X6783158Y-17680246D02*
X6783158Y-17670722D01*
X6783158Y-17670722D02*
X6792682Y-17651674D01*
X6792682Y-17651674D02*
X6811730Y-17642150D01*
X6811730Y-17642150D02*
X6840301Y-17642150D01*
X6840301Y-17642150D02*
X6859349Y-17651674D01*
X6935539Y-17851674D02*
X6945063Y-17842150D01*
X6945063Y-17842150D02*
X6964111Y-17813579D01*
X6964111Y-17813579D02*
X6973634Y-17794531D01*
X6973634Y-17794531D02*
X6983158Y-17765960D01*
X6983158Y-17765960D02*
X6992682Y-17718341D01*
X6992682Y-17718341D02*
X6992682Y-17680246D01*
X6992682Y-17680246D02*
X6983158Y-17632627D01*
X6983158Y-17632627D02*
X6973634Y-17604055D01*
X6973634Y-17604055D02*
X6964111Y-17585008D01*
X6964111Y-17585008D02*
X6945063Y-17556436D01*
X6945063Y-17556436D02*
X6935539Y-17546912D01*
D14*
X1942500Y-17920500D02*
X1942500Y-17975500D01*
X1915000Y-17948000D02*
X1970000Y-17948000D01*
D11*
X2268872Y-17839484D02*
X2287920Y-17839484D01*
X2287920Y-17839484D02*
X2306967Y-17849008D01*
X2306967Y-17849008D02*
X2316491Y-17858531D01*
X2316491Y-17858531D02*
X2326015Y-17877579D01*
X2326015Y-17877579D02*
X2335539Y-17915674D01*
X2335539Y-17915674D02*
X2335539Y-17963293D01*
X2335539Y-17963293D02*
X2326015Y-18001389D01*
X2326015Y-18001389D02*
X2316491Y-18020436D01*
X2316491Y-18020436D02*
X2306967Y-18029960D01*
X2306967Y-18029960D02*
X2287920Y-18039484D01*
X2287920Y-18039484D02*
X2268872Y-18039484D01*
X2268872Y-18039484D02*
X2249824Y-18029960D01*
X2249824Y-18029960D02*
X2240301Y-18020436D01*
X2240301Y-18020436D02*
X2230777Y-18001389D01*
X2230777Y-18001389D02*
X2221253Y-17963293D01*
X2221253Y-17963293D02*
X2221253Y-17915674D01*
X2221253Y-17915674D02*
X2230777Y-17877579D01*
X2230777Y-17877579D02*
X2240301Y-17858531D01*
X2240301Y-17858531D02*
X2249824Y-17849008D01*
X2249824Y-17849008D02*
X2268872Y-17839484D01*
X2421253Y-18020436D02*
X2430777Y-18029960D01*
X2430777Y-18029960D02*
X2421253Y-18039484D01*
X2421253Y-18039484D02*
X2411729Y-18029960D01*
X2411729Y-18029960D02*
X2421253Y-18020436D01*
X2421253Y-18020436D02*
X2421253Y-18039484D01*
X2611729Y-17839484D02*
X2516491Y-17839484D01*
X2516491Y-17839484D02*
X2506967Y-17934722D01*
X2506967Y-17934722D02*
X2516491Y-17925198D01*
X2516491Y-17925198D02*
X2535539Y-17915674D01*
X2535539Y-17915674D02*
X2583158Y-17915674D01*
X2583158Y-17915674D02*
X2602205Y-17925198D01*
X2602205Y-17925198D02*
X2611729Y-17934722D01*
X2611729Y-17934722D02*
X2621253Y-17953770D01*
X2621253Y-17953770D02*
X2621253Y-18001389D01*
X2621253Y-18001389D02*
X2611729Y-18020436D01*
X2611729Y-18020436D02*
X2602205Y-18029960D01*
X2602205Y-18029960D02*
X2583158Y-18039484D01*
X2583158Y-18039484D02*
X2535539Y-18039484D01*
X2535539Y-18039484D02*
X2516491Y-18029960D01*
X2516491Y-18029960D02*
X2506967Y-18020436D01*
X2802205Y-17839484D02*
X2706967Y-17839484D01*
X2706967Y-17839484D02*
X2697444Y-17934722D01*
X2697444Y-17934722D02*
X2706967Y-17925198D01*
X2706967Y-17925198D02*
X2726015Y-17915674D01*
X2726015Y-17915674D02*
X2773634Y-17915674D01*
X2773634Y-17915674D02*
X2792682Y-17925198D01*
X2792682Y-17925198D02*
X2802205Y-17934722D01*
X2802205Y-17934722D02*
X2811729Y-17953770D01*
X2811729Y-17953770D02*
X2811729Y-18001389D01*
X2811729Y-18001389D02*
X2802205Y-18020436D01*
X2802205Y-18020436D02*
X2792682Y-18029960D01*
X2792682Y-18029960D02*
X2773634Y-18039484D01*
X2773634Y-18039484D02*
X2726015Y-18039484D01*
X2726015Y-18039484D02*
X2706967Y-18029960D01*
X2706967Y-18029960D02*
X2697444Y-18020436D01*
X2935539Y-17839484D02*
X2954586Y-17839484D01*
X2954586Y-17839484D02*
X2973634Y-17849008D01*
X2973634Y-17849008D02*
X2983158Y-17858531D01*
X2983158Y-17858531D02*
X2992682Y-17877579D01*
X2992682Y-17877579D02*
X3002205Y-17915674D01*
X3002205Y-17915674D02*
X3002205Y-17963293D01*
X3002205Y-17963293D02*
X2992682Y-18001389D01*
X2992682Y-18001389D02*
X2983158Y-18020436D01*
X2983158Y-18020436D02*
X2973634Y-18029960D01*
X2973634Y-18029960D02*
X2954586Y-18039484D01*
X2954586Y-18039484D02*
X2935539Y-18039484D01*
X2935539Y-18039484D02*
X2916491Y-18029960D01*
X2916491Y-18029960D02*
X2906967Y-18020436D01*
X2906967Y-18020436D02*
X2897443Y-18001389D01*
X2897443Y-18001389D02*
X2887920Y-17963293D01*
X2887920Y-17963293D02*
X2887920Y-17915674D01*
X2887920Y-17915674D02*
X2897443Y-17877579D01*
X2897443Y-17877579D02*
X2906967Y-17858531D01*
X2906967Y-17858531D02*
X2916491Y-17849008D01*
X2916491Y-17849008D02*
X2935539Y-17839484D01*
X3087920Y-18039484D02*
X3087920Y-17906150D01*
X3087920Y-17925198D02*
X3097443Y-17915674D01*
X3097443Y-17915674D02*
X3116491Y-17906150D01*
X3116491Y-17906150D02*
X3145063Y-17906150D01*
X3145063Y-17906150D02*
X3164110Y-17915674D01*
X3164110Y-17915674D02*
X3173634Y-17934722D01*
X3173634Y-17934722D02*
X3173634Y-18039484D01*
X3173634Y-17934722D02*
X3183158Y-17915674D01*
X3183158Y-17915674D02*
X3202205Y-17906150D01*
X3202205Y-17906150D02*
X3230777Y-17906150D01*
X3230777Y-17906150D02*
X3249824Y-17915674D01*
X3249824Y-17915674D02*
X3259348Y-17934722D01*
X3259348Y-17934722D02*
X3259348Y-18039484D01*
X3354586Y-18039484D02*
X3354586Y-17906150D01*
X3354586Y-17925198D02*
X3364110Y-17915674D01*
X3364110Y-17915674D02*
X3383158Y-17906150D01*
X3383158Y-17906150D02*
X3411729Y-17906150D01*
X3411729Y-17906150D02*
X3430777Y-17915674D01*
X3430777Y-17915674D02*
X3440301Y-17934722D01*
X3440301Y-17934722D02*
X3440301Y-18039484D01*
X3440301Y-17934722D02*
X3449824Y-17915674D01*
X3449824Y-17915674D02*
X3468872Y-17906150D01*
X3468872Y-17906150D02*
X3497443Y-17906150D01*
X3497443Y-17906150D02*
X3516491Y-17915674D01*
X3516491Y-17915674D02*
X3526015Y-17934722D01*
X3526015Y-17934722D02*
X3526015Y-18039484D01*
X3916491Y-17829960D02*
X3745063Y-18087103D01*
X4173634Y-17839484D02*
X4192682Y-17839484D01*
X4192682Y-17839484D02*
X4211729Y-17849008D01*
X4211729Y-17849008D02*
X4221253Y-17858531D01*
X4221253Y-17858531D02*
X4230777Y-17877579D01*
X4230777Y-17877579D02*
X4240301Y-17915674D01*
X4240301Y-17915674D02*
X4240301Y-17963293D01*
X4240301Y-17963293D02*
X4230777Y-18001389D01*
X4230777Y-18001389D02*
X4221253Y-18020436D01*
X4221253Y-18020436D02*
X4211729Y-18029960D01*
X4211729Y-18029960D02*
X4192682Y-18039484D01*
X4192682Y-18039484D02*
X4173634Y-18039484D01*
X4173634Y-18039484D02*
X4154586Y-18029960D01*
X4154586Y-18029960D02*
X4145063Y-18020436D01*
X4145063Y-18020436D02*
X4135539Y-18001389D01*
X4135539Y-18001389D02*
X4126015Y-17963293D01*
X4126015Y-17963293D02*
X4126015Y-17915674D01*
X4126015Y-17915674D02*
X4135539Y-17877579D01*
X4135539Y-17877579D02*
X4145063Y-17858531D01*
X4145063Y-17858531D02*
X4154586Y-17849008D01*
X4154586Y-17849008D02*
X4173634Y-17839484D01*
X4326015Y-18020436D02*
X4335539Y-18029960D01*
X4335539Y-18029960D02*
X4326015Y-18039484D01*
X4326015Y-18039484D02*
X4316491Y-18029960D01*
X4316491Y-18029960D02*
X4326015Y-18020436D01*
X4326015Y-18020436D02*
X4326015Y-18039484D01*
X4459348Y-17839484D02*
X4478396Y-17839484D01*
X4478396Y-17839484D02*
X4497444Y-17849008D01*
X4497444Y-17849008D02*
X4506968Y-17858531D01*
X4506968Y-17858531D02*
X4516491Y-17877579D01*
X4516491Y-17877579D02*
X4526015Y-17915674D01*
X4526015Y-17915674D02*
X4526015Y-17963293D01*
X4526015Y-17963293D02*
X4516491Y-18001389D01*
X4516491Y-18001389D02*
X4506968Y-18020436D01*
X4506968Y-18020436D02*
X4497444Y-18029960D01*
X4497444Y-18029960D02*
X4478396Y-18039484D01*
X4478396Y-18039484D02*
X4459348Y-18039484D01*
X4459348Y-18039484D02*
X4440301Y-18029960D01*
X4440301Y-18029960D02*
X4430777Y-18020436D01*
X4430777Y-18020436D02*
X4421253Y-18001389D01*
X4421253Y-18001389D02*
X4411729Y-17963293D01*
X4411729Y-17963293D02*
X4411729Y-17915674D01*
X4411729Y-17915674D02*
X4421253Y-17877579D01*
X4421253Y-17877579D02*
X4430777Y-17858531D01*
X4430777Y-17858531D02*
X4440301Y-17849008D01*
X4440301Y-17849008D02*
X4459348Y-17839484D01*
X4602206Y-17858531D02*
X4611729Y-17849008D01*
X4611729Y-17849008D02*
X4630777Y-17839484D01*
X4630777Y-17839484D02*
X4678396Y-17839484D01*
X4678396Y-17839484D02*
X4697444Y-17849008D01*
X4697444Y-17849008D02*
X4706968Y-17858531D01*
X4706968Y-17858531D02*
X4716491Y-17877579D01*
X4716491Y-17877579D02*
X4716491Y-17896627D01*
X4716491Y-17896627D02*
X4706968Y-17925198D01*
X4706968Y-17925198D02*
X4592682Y-18039484D01*
X4592682Y-18039484D02*
X4716491Y-18039484D01*
X4906968Y-18039484D02*
X4792682Y-18039484D01*
X4849825Y-18039484D02*
X4849825Y-17839484D01*
X4849825Y-17839484D02*
X4830777Y-17868055D01*
X4830777Y-17868055D02*
X4811729Y-17887103D01*
X4811729Y-17887103D02*
X4792682Y-17896627D01*
X4973634Y-17839484D02*
X5106968Y-17839484D01*
X5106968Y-17839484D02*
X5021253Y-18039484D01*
X5173634Y-17839484D02*
X5173634Y-17877579D01*
X5249825Y-17839484D02*
X5249825Y-17877579D01*
X5545063Y-18115674D02*
X5535539Y-18106150D01*
X5535539Y-18106150D02*
X5516491Y-18077579D01*
X5516491Y-18077579D02*
X5506968Y-18058531D01*
X5506968Y-18058531D02*
X5497444Y-18029960D01*
X5497444Y-18029960D02*
X5487920Y-17982341D01*
X5487920Y-17982341D02*
X5487920Y-17944246D01*
X5487920Y-17944246D02*
X5497444Y-17896627D01*
X5497444Y-17896627D02*
X5506968Y-17868055D01*
X5506968Y-17868055D02*
X5516491Y-17849008D01*
X5516491Y-17849008D02*
X5535539Y-17820436D01*
X5535539Y-17820436D02*
X5545063Y-17810912D01*
X5659348Y-17839484D02*
X5678396Y-17839484D01*
X5678396Y-17839484D02*
X5697444Y-17849008D01*
X5697444Y-17849008D02*
X5706968Y-17858531D01*
X5706968Y-17858531D02*
X5716491Y-17877579D01*
X5716491Y-17877579D02*
X5726015Y-17915674D01*
X5726015Y-17915674D02*
X5726015Y-17963293D01*
X5726015Y-17963293D02*
X5716491Y-18001389D01*
X5716491Y-18001389D02*
X5706968Y-18020436D01*
X5706968Y-18020436D02*
X5697444Y-18029960D01*
X5697444Y-18029960D02*
X5678396Y-18039484D01*
X5678396Y-18039484D02*
X5659348Y-18039484D01*
X5659348Y-18039484D02*
X5640301Y-18029960D01*
X5640301Y-18029960D02*
X5630777Y-18020436D01*
X5630777Y-18020436D02*
X5621253Y-18001389D01*
X5621253Y-18001389D02*
X5611729Y-17963293D01*
X5611729Y-17963293D02*
X5611729Y-17915674D01*
X5611729Y-17915674D02*
X5621253Y-17877579D01*
X5621253Y-17877579D02*
X5630777Y-17858531D01*
X5630777Y-17858531D02*
X5640301Y-17849008D01*
X5640301Y-17849008D02*
X5659348Y-17839484D01*
X5964110Y-18039484D02*
X5964110Y-17839484D01*
X6049825Y-18039484D02*
X6049825Y-17934722D01*
X6049825Y-17934722D02*
X6040301Y-17915674D01*
X6040301Y-17915674D02*
X6021253Y-17906150D01*
X6021253Y-17906150D02*
X5992682Y-17906150D01*
X5992682Y-17906150D02*
X5973634Y-17915674D01*
X5973634Y-17915674D02*
X5964110Y-17925198D01*
X6173634Y-18039484D02*
X6154587Y-18029960D01*
X6154587Y-18029960D02*
X6145063Y-18020436D01*
X6145063Y-18020436D02*
X6135539Y-18001389D01*
X6135539Y-18001389D02*
X6135539Y-17944246D01*
X6135539Y-17944246D02*
X6145063Y-17925198D01*
X6145063Y-17925198D02*
X6154587Y-17915674D01*
X6154587Y-17915674D02*
X6173634Y-17906150D01*
X6173634Y-17906150D02*
X6202206Y-17906150D01*
X6202206Y-17906150D02*
X6221253Y-17915674D01*
X6221253Y-17915674D02*
X6230777Y-17925198D01*
X6230777Y-17925198D02*
X6240301Y-17944246D01*
X6240301Y-17944246D02*
X6240301Y-18001389D01*
X6240301Y-18001389D02*
X6230777Y-18020436D01*
X6230777Y-18020436D02*
X6221253Y-18029960D01*
X6221253Y-18029960D02*
X6202206Y-18039484D01*
X6202206Y-18039484D02*
X6173634Y-18039484D01*
X6354587Y-18039484D02*
X6335539Y-18029960D01*
X6335539Y-18029960D02*
X6326015Y-18010912D01*
X6326015Y-18010912D02*
X6326015Y-17839484D01*
X6506968Y-18029960D02*
X6487920Y-18039484D01*
X6487920Y-18039484D02*
X6449825Y-18039484D01*
X6449825Y-18039484D02*
X6430777Y-18029960D01*
X6430777Y-18029960D02*
X6421253Y-18010912D01*
X6421253Y-18010912D02*
X6421253Y-17934722D01*
X6421253Y-17934722D02*
X6430777Y-17915674D01*
X6430777Y-17915674D02*
X6449825Y-17906150D01*
X6449825Y-17906150D02*
X6487920Y-17906150D01*
X6487920Y-17906150D02*
X6506968Y-17915674D01*
X6506968Y-17915674D02*
X6516491Y-17934722D01*
X6516491Y-17934722D02*
X6516491Y-17953770D01*
X6516491Y-17953770D02*
X6421253Y-17972817D01*
X6592682Y-18029960D02*
X6611730Y-18039484D01*
X6611730Y-18039484D02*
X6649825Y-18039484D01*
X6649825Y-18039484D02*
X6668872Y-18029960D01*
X6668872Y-18029960D02*
X6678396Y-18010912D01*
X6678396Y-18010912D02*
X6678396Y-18001389D01*
X6678396Y-18001389D02*
X6668872Y-17982341D01*
X6668872Y-17982341D02*
X6649825Y-17972817D01*
X6649825Y-17972817D02*
X6621253Y-17972817D01*
X6621253Y-17972817D02*
X6602206Y-17963293D01*
X6602206Y-17963293D02*
X6592682Y-17944246D01*
X6592682Y-17944246D02*
X6592682Y-17934722D01*
X6592682Y-17934722D02*
X6602206Y-17915674D01*
X6602206Y-17915674D02*
X6621253Y-17906150D01*
X6621253Y-17906150D02*
X6649825Y-17906150D01*
X6649825Y-17906150D02*
X6668872Y-17915674D01*
X6916492Y-17963293D02*
X7068873Y-17963293D01*
X6992682Y-18039484D02*
X6992682Y-17887103D01*
X7306968Y-17858531D02*
X7316492Y-17849008D01*
X7316492Y-17849008D02*
X7335539Y-17839484D01*
X7335539Y-17839484D02*
X7383158Y-17839484D01*
X7383158Y-17839484D02*
X7402206Y-17849008D01*
X7402206Y-17849008D02*
X7411730Y-17858531D01*
X7411730Y-17858531D02*
X7421253Y-17877579D01*
X7421253Y-17877579D02*
X7421253Y-17896627D01*
X7421253Y-17896627D02*
X7411730Y-17925198D01*
X7411730Y-17925198D02*
X7297444Y-18039484D01*
X7297444Y-18039484D02*
X7421253Y-18039484D01*
X7649825Y-18029960D02*
X7668873Y-18039484D01*
X7668873Y-18039484D02*
X7706968Y-18039484D01*
X7706968Y-18039484D02*
X7726015Y-18029960D01*
X7726015Y-18029960D02*
X7735539Y-18010912D01*
X7735539Y-18010912D02*
X7735539Y-18001389D01*
X7735539Y-18001389D02*
X7726015Y-17982341D01*
X7726015Y-17982341D02*
X7706968Y-17972817D01*
X7706968Y-17972817D02*
X7678396Y-17972817D01*
X7678396Y-17972817D02*
X7659349Y-17963293D01*
X7659349Y-17963293D02*
X7649825Y-17944246D01*
X7649825Y-17944246D02*
X7649825Y-17934722D01*
X7649825Y-17934722D02*
X7659349Y-17915674D01*
X7659349Y-17915674D02*
X7678396Y-17906150D01*
X7678396Y-17906150D02*
X7706968Y-17906150D01*
X7706968Y-17906150D02*
X7726015Y-17915674D01*
X7849825Y-18039484D02*
X7830777Y-18029960D01*
X7830777Y-18029960D02*
X7821254Y-18010912D01*
X7821254Y-18010912D02*
X7821254Y-17839484D01*
X7954587Y-18039484D02*
X7935539Y-18029960D01*
X7935539Y-18029960D02*
X7926015Y-18020436D01*
X7926015Y-18020436D02*
X7916492Y-18001389D01*
X7916492Y-18001389D02*
X7916492Y-17944246D01*
X7916492Y-17944246D02*
X7926015Y-17925198D01*
X7926015Y-17925198D02*
X7935539Y-17915674D01*
X7935539Y-17915674D02*
X7954587Y-17906150D01*
X7954587Y-17906150D02*
X7983158Y-17906150D01*
X7983158Y-17906150D02*
X8002206Y-17915674D01*
X8002206Y-17915674D02*
X8011730Y-17925198D01*
X8011730Y-17925198D02*
X8021254Y-17944246D01*
X8021254Y-17944246D02*
X8021254Y-18001389D01*
X8021254Y-18001389D02*
X8011730Y-18020436D01*
X8011730Y-18020436D02*
X8002206Y-18029960D01*
X8002206Y-18029960D02*
X7983158Y-18039484D01*
X7983158Y-18039484D02*
X7954587Y-18039484D01*
X8078396Y-17906150D02*
X8154587Y-17906150D01*
X8106968Y-17839484D02*
X8106968Y-18010912D01*
X8106968Y-18010912D02*
X8116492Y-18029960D01*
X8116492Y-18029960D02*
X8135539Y-18039484D01*
X8135539Y-18039484D02*
X8154587Y-18039484D01*
X8211730Y-18029960D02*
X8230777Y-18039484D01*
X8230777Y-18039484D02*
X8268873Y-18039484D01*
X8268873Y-18039484D02*
X8287920Y-18029960D01*
X8287920Y-18029960D02*
X8297444Y-18010912D01*
X8297444Y-18010912D02*
X8297444Y-18001389D01*
X8297444Y-18001389D02*
X8287920Y-17982341D01*
X8287920Y-17982341D02*
X8268873Y-17972817D01*
X8268873Y-17972817D02*
X8240301Y-17972817D01*
X8240301Y-17972817D02*
X8221254Y-17963293D01*
X8221254Y-17963293D02*
X8211730Y-17944246D01*
X8211730Y-17944246D02*
X8211730Y-17934722D01*
X8211730Y-17934722D02*
X8221254Y-17915674D01*
X8221254Y-17915674D02*
X8240301Y-17906150D01*
X8240301Y-17906150D02*
X8268873Y-17906150D01*
X8268873Y-17906150D02*
X8287920Y-17915674D01*
X8364111Y-18115674D02*
X8373635Y-18106150D01*
X8373635Y-18106150D02*
X8392682Y-18077579D01*
X8392682Y-18077579D02*
X8402206Y-18058531D01*
X8402206Y-18058531D02*
X8411730Y-18029960D01*
X8411730Y-18029960D02*
X8421254Y-17982341D01*
X8421254Y-17982341D02*
X8421254Y-17944246D01*
X8421254Y-17944246D02*
X8411730Y-17896627D01*
X8411730Y-17896627D02*
X8402206Y-17868055D01*
X8402206Y-17868055D02*
X8392682Y-17849008D01*
X8392682Y-17849008D02*
X8373635Y-17820436D01*
X8373635Y-17820436D02*
X8364111Y-17810912D01*
D15*
X1960042Y-18236042D02*
X1960042Y-18187958D01*
X1911958Y-18187958D01*
X1911958Y-18236042D01*
X1960042Y-18236042D01*
D11*
X2268872Y-18103484D02*
X2287920Y-18103484D01*
X2287920Y-18103484D02*
X2306967Y-18113008D01*
X2306967Y-18113008D02*
X2316491Y-18122531D01*
X2316491Y-18122531D02*
X2326015Y-18141579D01*
X2326015Y-18141579D02*
X2335539Y-18179674D01*
X2335539Y-18179674D02*
X2335539Y-18227293D01*
X2335539Y-18227293D02*
X2326015Y-18265389D01*
X2326015Y-18265389D02*
X2316491Y-18284436D01*
X2316491Y-18284436D02*
X2306967Y-18293960D01*
X2306967Y-18293960D02*
X2287920Y-18303484D01*
X2287920Y-18303484D02*
X2268872Y-18303484D01*
X2268872Y-18303484D02*
X2249824Y-18293960D01*
X2249824Y-18293960D02*
X2240301Y-18284436D01*
X2240301Y-18284436D02*
X2230777Y-18265389D01*
X2230777Y-18265389D02*
X2221253Y-18227293D01*
X2221253Y-18227293D02*
X2221253Y-18179674D01*
X2221253Y-18179674D02*
X2230777Y-18141579D01*
X2230777Y-18141579D02*
X2240301Y-18122531D01*
X2240301Y-18122531D02*
X2249824Y-18113008D01*
X2249824Y-18113008D02*
X2268872Y-18103484D01*
X2421253Y-18284436D02*
X2430777Y-18293960D01*
X2430777Y-18293960D02*
X2421253Y-18303484D01*
X2421253Y-18303484D02*
X2411729Y-18293960D01*
X2411729Y-18293960D02*
X2421253Y-18284436D01*
X2421253Y-18284436D02*
X2421253Y-18303484D01*
X2602205Y-18103484D02*
X2564110Y-18103484D01*
X2564110Y-18103484D02*
X2545063Y-18113008D01*
X2545063Y-18113008D02*
X2535539Y-18122531D01*
X2535539Y-18122531D02*
X2516491Y-18151103D01*
X2516491Y-18151103D02*
X2506967Y-18189198D01*
X2506967Y-18189198D02*
X2506967Y-18265389D01*
X2506967Y-18265389D02*
X2516491Y-18284436D01*
X2516491Y-18284436D02*
X2526015Y-18293960D01*
X2526015Y-18293960D02*
X2545063Y-18303484D01*
X2545063Y-18303484D02*
X2583158Y-18303484D01*
X2583158Y-18303484D02*
X2602205Y-18293960D01*
X2602205Y-18293960D02*
X2611729Y-18284436D01*
X2611729Y-18284436D02*
X2621253Y-18265389D01*
X2621253Y-18265389D02*
X2621253Y-18217770D01*
X2621253Y-18217770D02*
X2611729Y-18198722D01*
X2611729Y-18198722D02*
X2602205Y-18189198D01*
X2602205Y-18189198D02*
X2583158Y-18179674D01*
X2583158Y-18179674D02*
X2545063Y-18179674D01*
X2545063Y-18179674D02*
X2526015Y-18189198D01*
X2526015Y-18189198D02*
X2516491Y-18198722D01*
X2516491Y-18198722D02*
X2506967Y-18217770D01*
X2735539Y-18189198D02*
X2716491Y-18179674D01*
X2716491Y-18179674D02*
X2706967Y-18170150D01*
X2706967Y-18170150D02*
X2697444Y-18151103D01*
X2697444Y-18151103D02*
X2697444Y-18141579D01*
X2697444Y-18141579D02*
X2706967Y-18122531D01*
X2706967Y-18122531D02*
X2716491Y-18113008D01*
X2716491Y-18113008D02*
X2735539Y-18103484D01*
X2735539Y-18103484D02*
X2773634Y-18103484D01*
X2773634Y-18103484D02*
X2792682Y-18113008D01*
X2792682Y-18113008D02*
X2802205Y-18122531D01*
X2802205Y-18122531D02*
X2811729Y-18141579D01*
X2811729Y-18141579D02*
X2811729Y-18151103D01*
X2811729Y-18151103D02*
X2802205Y-18170150D01*
X2802205Y-18170150D02*
X2792682Y-18179674D01*
X2792682Y-18179674D02*
X2773634Y-18189198D01*
X2773634Y-18189198D02*
X2735539Y-18189198D01*
X2735539Y-18189198D02*
X2716491Y-18198722D01*
X2716491Y-18198722D02*
X2706967Y-18208246D01*
X2706967Y-18208246D02*
X2697444Y-18227293D01*
X2697444Y-18227293D02*
X2697444Y-18265389D01*
X2697444Y-18265389D02*
X2706967Y-18284436D01*
X2706967Y-18284436D02*
X2716491Y-18293960D01*
X2716491Y-18293960D02*
X2735539Y-18303484D01*
X2735539Y-18303484D02*
X2773634Y-18303484D01*
X2773634Y-18303484D02*
X2792682Y-18293960D01*
X2792682Y-18293960D02*
X2802205Y-18284436D01*
X2802205Y-18284436D02*
X2811729Y-18265389D01*
X2811729Y-18265389D02*
X2811729Y-18227293D01*
X2811729Y-18227293D02*
X2802205Y-18208246D01*
X2802205Y-18208246D02*
X2792682Y-18198722D01*
X2792682Y-18198722D02*
X2773634Y-18189198D01*
X2935539Y-18103484D02*
X2954586Y-18103484D01*
X2954586Y-18103484D02*
X2973634Y-18113008D01*
X2973634Y-18113008D02*
X2983158Y-18122531D01*
X2983158Y-18122531D02*
X2992682Y-18141579D01*
X2992682Y-18141579D02*
X3002205Y-18179674D01*
X3002205Y-18179674D02*
X3002205Y-18227293D01*
X3002205Y-18227293D02*
X2992682Y-18265389D01*
X2992682Y-18265389D02*
X2983158Y-18284436D01*
X2983158Y-18284436D02*
X2973634Y-18293960D01*
X2973634Y-18293960D02*
X2954586Y-18303484D01*
X2954586Y-18303484D02*
X2935539Y-18303484D01*
X2935539Y-18303484D02*
X2916491Y-18293960D01*
X2916491Y-18293960D02*
X2906967Y-18284436D01*
X2906967Y-18284436D02*
X2897443Y-18265389D01*
X2897443Y-18265389D02*
X2887920Y-18227293D01*
X2887920Y-18227293D02*
X2887920Y-18179674D01*
X2887920Y-18179674D02*
X2897443Y-18141579D01*
X2897443Y-18141579D02*
X2906967Y-18122531D01*
X2906967Y-18122531D02*
X2916491Y-18113008D01*
X2916491Y-18113008D02*
X2935539Y-18103484D01*
X3087920Y-18303484D02*
X3087920Y-18170150D01*
X3087920Y-18189198D02*
X3097443Y-18179674D01*
X3097443Y-18179674D02*
X3116491Y-18170150D01*
X3116491Y-18170150D02*
X3145063Y-18170150D01*
X3145063Y-18170150D02*
X3164110Y-18179674D01*
X3164110Y-18179674D02*
X3173634Y-18198722D01*
X3173634Y-18198722D02*
X3173634Y-18303484D01*
X3173634Y-18198722D02*
X3183158Y-18179674D01*
X3183158Y-18179674D02*
X3202205Y-18170150D01*
X3202205Y-18170150D02*
X3230777Y-18170150D01*
X3230777Y-18170150D02*
X3249824Y-18179674D01*
X3249824Y-18179674D02*
X3259348Y-18198722D01*
X3259348Y-18198722D02*
X3259348Y-18303484D01*
X3354586Y-18303484D02*
X3354586Y-18170150D01*
X3354586Y-18189198D02*
X3364110Y-18179674D01*
X3364110Y-18179674D02*
X3383158Y-18170150D01*
X3383158Y-18170150D02*
X3411729Y-18170150D01*
X3411729Y-18170150D02*
X3430777Y-18179674D01*
X3430777Y-18179674D02*
X3440301Y-18198722D01*
X3440301Y-18198722D02*
X3440301Y-18303484D01*
X3440301Y-18198722D02*
X3449824Y-18179674D01*
X3449824Y-18179674D02*
X3468872Y-18170150D01*
X3468872Y-18170150D02*
X3497443Y-18170150D01*
X3497443Y-18170150D02*
X3516491Y-18179674D01*
X3516491Y-18179674D02*
X3526015Y-18198722D01*
X3526015Y-18198722D02*
X3526015Y-18303484D01*
X3916491Y-18093960D02*
X3745063Y-18351103D01*
X4173634Y-18103484D02*
X4192682Y-18103484D01*
X4192682Y-18103484D02*
X4211729Y-18113008D01*
X4211729Y-18113008D02*
X4221253Y-18122531D01*
X4221253Y-18122531D02*
X4230777Y-18141579D01*
X4230777Y-18141579D02*
X4240301Y-18179674D01*
X4240301Y-18179674D02*
X4240301Y-18227293D01*
X4240301Y-18227293D02*
X4230777Y-18265389D01*
X4230777Y-18265389D02*
X4221253Y-18284436D01*
X4221253Y-18284436D02*
X4211729Y-18293960D01*
X4211729Y-18293960D02*
X4192682Y-18303484D01*
X4192682Y-18303484D02*
X4173634Y-18303484D01*
X4173634Y-18303484D02*
X4154586Y-18293960D01*
X4154586Y-18293960D02*
X4145063Y-18284436D01*
X4145063Y-18284436D02*
X4135539Y-18265389D01*
X4135539Y-18265389D02*
X4126015Y-18227293D01*
X4126015Y-18227293D02*
X4126015Y-18179674D01*
X4126015Y-18179674D02*
X4135539Y-18141579D01*
X4135539Y-18141579D02*
X4145063Y-18122531D01*
X4145063Y-18122531D02*
X4154586Y-18113008D01*
X4154586Y-18113008D02*
X4173634Y-18103484D01*
X4326015Y-18284436D02*
X4335539Y-18293960D01*
X4335539Y-18293960D02*
X4326015Y-18303484D01*
X4326015Y-18303484D02*
X4316491Y-18293960D01*
X4316491Y-18293960D02*
X4326015Y-18284436D01*
X4326015Y-18284436D02*
X4326015Y-18303484D01*
X4459348Y-18103484D02*
X4478396Y-18103484D01*
X4478396Y-18103484D02*
X4497444Y-18113008D01*
X4497444Y-18113008D02*
X4506968Y-18122531D01*
X4506968Y-18122531D02*
X4516491Y-18141579D01*
X4516491Y-18141579D02*
X4526015Y-18179674D01*
X4526015Y-18179674D02*
X4526015Y-18227293D01*
X4526015Y-18227293D02*
X4516491Y-18265389D01*
X4516491Y-18265389D02*
X4506968Y-18284436D01*
X4506968Y-18284436D02*
X4497444Y-18293960D01*
X4497444Y-18293960D02*
X4478396Y-18303484D01*
X4478396Y-18303484D02*
X4459348Y-18303484D01*
X4459348Y-18303484D02*
X4440301Y-18293960D01*
X4440301Y-18293960D02*
X4430777Y-18284436D01*
X4430777Y-18284436D02*
X4421253Y-18265389D01*
X4421253Y-18265389D02*
X4411729Y-18227293D01*
X4411729Y-18227293D02*
X4411729Y-18179674D01*
X4411729Y-18179674D02*
X4421253Y-18141579D01*
X4421253Y-18141579D02*
X4430777Y-18122531D01*
X4430777Y-18122531D02*
X4440301Y-18113008D01*
X4440301Y-18113008D02*
X4459348Y-18103484D01*
X4602206Y-18122531D02*
X4611729Y-18113008D01*
X4611729Y-18113008D02*
X4630777Y-18103484D01*
X4630777Y-18103484D02*
X4678396Y-18103484D01*
X4678396Y-18103484D02*
X4697444Y-18113008D01*
X4697444Y-18113008D02*
X4706968Y-18122531D01*
X4706968Y-18122531D02*
X4716491Y-18141579D01*
X4716491Y-18141579D02*
X4716491Y-18160627D01*
X4716491Y-18160627D02*
X4706968Y-18189198D01*
X4706968Y-18189198D02*
X4592682Y-18303484D01*
X4592682Y-18303484D02*
X4716491Y-18303484D01*
X4887920Y-18103484D02*
X4849825Y-18103484D01*
X4849825Y-18103484D02*
X4830777Y-18113008D01*
X4830777Y-18113008D02*
X4821253Y-18122531D01*
X4821253Y-18122531D02*
X4802206Y-18151103D01*
X4802206Y-18151103D02*
X4792682Y-18189198D01*
X4792682Y-18189198D02*
X4792682Y-18265389D01*
X4792682Y-18265389D02*
X4802206Y-18284436D01*
X4802206Y-18284436D02*
X4811729Y-18293960D01*
X4811729Y-18293960D02*
X4830777Y-18303484D01*
X4830777Y-18303484D02*
X4868872Y-18303484D01*
X4868872Y-18303484D02*
X4887920Y-18293960D01*
X4887920Y-18293960D02*
X4897444Y-18284436D01*
X4897444Y-18284436D02*
X4906968Y-18265389D01*
X4906968Y-18265389D02*
X4906968Y-18217770D01*
X4906968Y-18217770D02*
X4897444Y-18198722D01*
X4897444Y-18198722D02*
X4887920Y-18189198D01*
X4887920Y-18189198D02*
X4868872Y-18179674D01*
X4868872Y-18179674D02*
X4830777Y-18179674D01*
X4830777Y-18179674D02*
X4811729Y-18189198D01*
X4811729Y-18189198D02*
X4802206Y-18198722D01*
X4802206Y-18198722D02*
X4792682Y-18217770D01*
X5021253Y-18189198D02*
X5002206Y-18179674D01*
X5002206Y-18179674D02*
X4992682Y-18170150D01*
X4992682Y-18170150D02*
X4983158Y-18151103D01*
X4983158Y-18151103D02*
X4983158Y-18141579D01*
X4983158Y-18141579D02*
X4992682Y-18122531D01*
X4992682Y-18122531D02*
X5002206Y-18113008D01*
X5002206Y-18113008D02*
X5021253Y-18103484D01*
X5021253Y-18103484D02*
X5059349Y-18103484D01*
X5059349Y-18103484D02*
X5078396Y-18113008D01*
X5078396Y-18113008D02*
X5087920Y-18122531D01*
X5087920Y-18122531D02*
X5097444Y-18141579D01*
X5097444Y-18141579D02*
X5097444Y-18151103D01*
X5097444Y-18151103D02*
X5087920Y-18170150D01*
X5087920Y-18170150D02*
X5078396Y-18179674D01*
X5078396Y-18179674D02*
X5059349Y-18189198D01*
X5059349Y-18189198D02*
X5021253Y-18189198D01*
X5021253Y-18189198D02*
X5002206Y-18198722D01*
X5002206Y-18198722D02*
X4992682Y-18208246D01*
X4992682Y-18208246D02*
X4983158Y-18227293D01*
X4983158Y-18227293D02*
X4983158Y-18265389D01*
X4983158Y-18265389D02*
X4992682Y-18284436D01*
X4992682Y-18284436D02*
X5002206Y-18293960D01*
X5002206Y-18293960D02*
X5021253Y-18303484D01*
X5021253Y-18303484D02*
X5059349Y-18303484D01*
X5059349Y-18303484D02*
X5078396Y-18293960D01*
X5078396Y-18293960D02*
X5087920Y-18284436D01*
X5087920Y-18284436D02*
X5097444Y-18265389D01*
X5097444Y-18265389D02*
X5097444Y-18227293D01*
X5097444Y-18227293D02*
X5087920Y-18208246D01*
X5087920Y-18208246D02*
X5078396Y-18198722D01*
X5078396Y-18198722D02*
X5059349Y-18189198D01*
X5173634Y-18103484D02*
X5173634Y-18141579D01*
X5249825Y-18103484D02*
X5249825Y-18141579D01*
X5545063Y-18379674D02*
X5535539Y-18370150D01*
X5535539Y-18370150D02*
X5516491Y-18341579D01*
X5516491Y-18341579D02*
X5506968Y-18322531D01*
X5506968Y-18322531D02*
X5497444Y-18293960D01*
X5497444Y-18293960D02*
X5487920Y-18246341D01*
X5487920Y-18246341D02*
X5487920Y-18208246D01*
X5487920Y-18208246D02*
X5497444Y-18160627D01*
X5497444Y-18160627D02*
X5506968Y-18132055D01*
X5506968Y-18132055D02*
X5516491Y-18113008D01*
X5516491Y-18113008D02*
X5535539Y-18084436D01*
X5535539Y-18084436D02*
X5545063Y-18074912D01*
X5630777Y-18303484D02*
X5668872Y-18303484D01*
X5668872Y-18303484D02*
X5687920Y-18293960D01*
X5687920Y-18293960D02*
X5697444Y-18284436D01*
X5697444Y-18284436D02*
X5716491Y-18255865D01*
X5716491Y-18255865D02*
X5726015Y-18217770D01*
X5726015Y-18217770D02*
X5726015Y-18141579D01*
X5726015Y-18141579D02*
X5716491Y-18122531D01*
X5716491Y-18122531D02*
X5706968Y-18113008D01*
X5706968Y-18113008D02*
X5687920Y-18103484D01*
X5687920Y-18103484D02*
X5649825Y-18103484D01*
X5649825Y-18103484D02*
X5630777Y-18113008D01*
X5630777Y-18113008D02*
X5621253Y-18122531D01*
X5621253Y-18122531D02*
X5611729Y-18141579D01*
X5611729Y-18141579D02*
X5611729Y-18189198D01*
X5611729Y-18189198D02*
X5621253Y-18208246D01*
X5621253Y-18208246D02*
X5630777Y-18217770D01*
X5630777Y-18217770D02*
X5649825Y-18227293D01*
X5649825Y-18227293D02*
X5687920Y-18227293D01*
X5687920Y-18227293D02*
X5706968Y-18217770D01*
X5706968Y-18217770D02*
X5716491Y-18208246D01*
X5716491Y-18208246D02*
X5726015Y-18189198D01*
X5964110Y-18303484D02*
X5964110Y-18103484D01*
X6049825Y-18303484D02*
X6049825Y-18198722D01*
X6049825Y-18198722D02*
X6040301Y-18179674D01*
X6040301Y-18179674D02*
X6021253Y-18170150D01*
X6021253Y-18170150D02*
X5992682Y-18170150D01*
X5992682Y-18170150D02*
X5973634Y-18179674D01*
X5973634Y-18179674D02*
X5964110Y-18189198D01*
X6173634Y-18303484D02*
X6154587Y-18293960D01*
X6154587Y-18293960D02*
X6145063Y-18284436D01*
X6145063Y-18284436D02*
X6135539Y-18265389D01*
X6135539Y-18265389D02*
X6135539Y-18208246D01*
X6135539Y-18208246D02*
X6145063Y-18189198D01*
X6145063Y-18189198D02*
X6154587Y-18179674D01*
X6154587Y-18179674D02*
X6173634Y-18170150D01*
X6173634Y-18170150D02*
X6202206Y-18170150D01*
X6202206Y-18170150D02*
X6221253Y-18179674D01*
X6221253Y-18179674D02*
X6230777Y-18189198D01*
X6230777Y-18189198D02*
X6240301Y-18208246D01*
X6240301Y-18208246D02*
X6240301Y-18265389D01*
X6240301Y-18265389D02*
X6230777Y-18284436D01*
X6230777Y-18284436D02*
X6221253Y-18293960D01*
X6221253Y-18293960D02*
X6202206Y-18303484D01*
X6202206Y-18303484D02*
X6173634Y-18303484D01*
X6354587Y-18303484D02*
X6335539Y-18293960D01*
X6335539Y-18293960D02*
X6326015Y-18274912D01*
X6326015Y-18274912D02*
X6326015Y-18103484D01*
X6506968Y-18293960D02*
X6487920Y-18303484D01*
X6487920Y-18303484D02*
X6449825Y-18303484D01*
X6449825Y-18303484D02*
X6430777Y-18293960D01*
X6430777Y-18293960D02*
X6421253Y-18274912D01*
X6421253Y-18274912D02*
X6421253Y-18198722D01*
X6421253Y-18198722D02*
X6430777Y-18179674D01*
X6430777Y-18179674D02*
X6449825Y-18170150D01*
X6449825Y-18170150D02*
X6487920Y-18170150D01*
X6487920Y-18170150D02*
X6506968Y-18179674D01*
X6506968Y-18179674D02*
X6516491Y-18198722D01*
X6516491Y-18198722D02*
X6516491Y-18217770D01*
X6516491Y-18217770D02*
X6421253Y-18236817D01*
X6592682Y-18293960D02*
X6611730Y-18303484D01*
X6611730Y-18303484D02*
X6649825Y-18303484D01*
X6649825Y-18303484D02*
X6668872Y-18293960D01*
X6668872Y-18293960D02*
X6678396Y-18274912D01*
X6678396Y-18274912D02*
X6678396Y-18265389D01*
X6678396Y-18265389D02*
X6668872Y-18246341D01*
X6668872Y-18246341D02*
X6649825Y-18236817D01*
X6649825Y-18236817D02*
X6621253Y-18236817D01*
X6621253Y-18236817D02*
X6602206Y-18227293D01*
X6602206Y-18227293D02*
X6592682Y-18208246D01*
X6592682Y-18208246D02*
X6592682Y-18198722D01*
X6592682Y-18198722D02*
X6602206Y-18179674D01*
X6602206Y-18179674D02*
X6621253Y-18170150D01*
X6621253Y-18170150D02*
X6649825Y-18170150D01*
X6649825Y-18170150D02*
X6668872Y-18179674D01*
X6745063Y-18379674D02*
X6754587Y-18370150D01*
X6754587Y-18370150D02*
X6773634Y-18341579D01*
X6773634Y-18341579D02*
X6783158Y-18322531D01*
X6783158Y-18322531D02*
X6792682Y-18293960D01*
X6792682Y-18293960D02*
X6802206Y-18246341D01*
X6802206Y-18246341D02*
X6802206Y-18208246D01*
X6802206Y-18208246D02*
X6792682Y-18160627D01*
X6792682Y-18160627D02*
X6783158Y-18132055D01*
X6783158Y-18132055D02*
X6773634Y-18113008D01*
X6773634Y-18113008D02*
X6754587Y-18084436D01*
X6754587Y-18084436D02*
X6745063Y-18074912D01*
D16*
X1931000Y-18515000D02*
X1970000Y-18476000D01*
X1931000Y-18437000D01*
X1892000Y-18476000D01*
X1931000Y-18515000D01*
D11*
X2268872Y-18367484D02*
X2287920Y-18367484D01*
X2287920Y-18367484D02*
X2306967Y-18377008D01*
X2306967Y-18377008D02*
X2316491Y-18386531D01*
X2316491Y-18386531D02*
X2326015Y-18405579D01*
X2326015Y-18405579D02*
X2335539Y-18443674D01*
X2335539Y-18443674D02*
X2335539Y-18491293D01*
X2335539Y-18491293D02*
X2326015Y-18529389D01*
X2326015Y-18529389D02*
X2316491Y-18548436D01*
X2316491Y-18548436D02*
X2306967Y-18557960D01*
X2306967Y-18557960D02*
X2287920Y-18567484D01*
X2287920Y-18567484D02*
X2268872Y-18567484D01*
X2268872Y-18567484D02*
X2249824Y-18557960D01*
X2249824Y-18557960D02*
X2240301Y-18548436D01*
X2240301Y-18548436D02*
X2230777Y-18529389D01*
X2230777Y-18529389D02*
X2221253Y-18491293D01*
X2221253Y-18491293D02*
X2221253Y-18443674D01*
X2221253Y-18443674D02*
X2230777Y-18405579D01*
X2230777Y-18405579D02*
X2240301Y-18386531D01*
X2240301Y-18386531D02*
X2249824Y-18377008D01*
X2249824Y-18377008D02*
X2268872Y-18367484D01*
X2421253Y-18548436D02*
X2430777Y-18557960D01*
X2430777Y-18557960D02*
X2421253Y-18567484D01*
X2421253Y-18567484D02*
X2411729Y-18557960D01*
X2411729Y-18557960D02*
X2421253Y-18548436D01*
X2421253Y-18548436D02*
X2421253Y-18567484D01*
X2497444Y-18367484D02*
X2630777Y-18367484D01*
X2630777Y-18367484D02*
X2545063Y-18567484D01*
X2735539Y-18453198D02*
X2716491Y-18443674D01*
X2716491Y-18443674D02*
X2706967Y-18434150D01*
X2706967Y-18434150D02*
X2697444Y-18415103D01*
X2697444Y-18415103D02*
X2697444Y-18405579D01*
X2697444Y-18405579D02*
X2706967Y-18386531D01*
X2706967Y-18386531D02*
X2716491Y-18377008D01*
X2716491Y-18377008D02*
X2735539Y-18367484D01*
X2735539Y-18367484D02*
X2773634Y-18367484D01*
X2773634Y-18367484D02*
X2792682Y-18377008D01*
X2792682Y-18377008D02*
X2802205Y-18386531D01*
X2802205Y-18386531D02*
X2811729Y-18405579D01*
X2811729Y-18405579D02*
X2811729Y-18415103D01*
X2811729Y-18415103D02*
X2802205Y-18434150D01*
X2802205Y-18434150D02*
X2792682Y-18443674D01*
X2792682Y-18443674D02*
X2773634Y-18453198D01*
X2773634Y-18453198D02*
X2735539Y-18453198D01*
X2735539Y-18453198D02*
X2716491Y-18462722D01*
X2716491Y-18462722D02*
X2706967Y-18472246D01*
X2706967Y-18472246D02*
X2697444Y-18491293D01*
X2697444Y-18491293D02*
X2697444Y-18529389D01*
X2697444Y-18529389D02*
X2706967Y-18548436D01*
X2706967Y-18548436D02*
X2716491Y-18557960D01*
X2716491Y-18557960D02*
X2735539Y-18567484D01*
X2735539Y-18567484D02*
X2773634Y-18567484D01*
X2773634Y-18567484D02*
X2792682Y-18557960D01*
X2792682Y-18557960D02*
X2802205Y-18548436D01*
X2802205Y-18548436D02*
X2811729Y-18529389D01*
X2811729Y-18529389D02*
X2811729Y-18491293D01*
X2811729Y-18491293D02*
X2802205Y-18472246D01*
X2802205Y-18472246D02*
X2792682Y-18462722D01*
X2792682Y-18462722D02*
X2773634Y-18453198D01*
X2935539Y-18367484D02*
X2954586Y-18367484D01*
X2954586Y-18367484D02*
X2973634Y-18377008D01*
X2973634Y-18377008D02*
X2983158Y-18386531D01*
X2983158Y-18386531D02*
X2992682Y-18405579D01*
X2992682Y-18405579D02*
X3002205Y-18443674D01*
X3002205Y-18443674D02*
X3002205Y-18491293D01*
X3002205Y-18491293D02*
X2992682Y-18529389D01*
X2992682Y-18529389D02*
X2983158Y-18548436D01*
X2983158Y-18548436D02*
X2973634Y-18557960D01*
X2973634Y-18557960D02*
X2954586Y-18567484D01*
X2954586Y-18567484D02*
X2935539Y-18567484D01*
X2935539Y-18567484D02*
X2916491Y-18557960D01*
X2916491Y-18557960D02*
X2906967Y-18548436D01*
X2906967Y-18548436D02*
X2897443Y-18529389D01*
X2897443Y-18529389D02*
X2887920Y-18491293D01*
X2887920Y-18491293D02*
X2887920Y-18443674D01*
X2887920Y-18443674D02*
X2897443Y-18405579D01*
X2897443Y-18405579D02*
X2906967Y-18386531D01*
X2906967Y-18386531D02*
X2916491Y-18377008D01*
X2916491Y-18377008D02*
X2935539Y-18367484D01*
X3087920Y-18567484D02*
X3087920Y-18434150D01*
X3087920Y-18453198D02*
X3097443Y-18443674D01*
X3097443Y-18443674D02*
X3116491Y-18434150D01*
X3116491Y-18434150D02*
X3145063Y-18434150D01*
X3145063Y-18434150D02*
X3164110Y-18443674D01*
X3164110Y-18443674D02*
X3173634Y-18462722D01*
X3173634Y-18462722D02*
X3173634Y-18567484D01*
X3173634Y-18462722D02*
X3183158Y-18443674D01*
X3183158Y-18443674D02*
X3202205Y-18434150D01*
X3202205Y-18434150D02*
X3230777Y-18434150D01*
X3230777Y-18434150D02*
X3249824Y-18443674D01*
X3249824Y-18443674D02*
X3259348Y-18462722D01*
X3259348Y-18462722D02*
X3259348Y-18567484D01*
X3354586Y-18567484D02*
X3354586Y-18434150D01*
X3354586Y-18453198D02*
X3364110Y-18443674D01*
X3364110Y-18443674D02*
X3383158Y-18434150D01*
X3383158Y-18434150D02*
X3411729Y-18434150D01*
X3411729Y-18434150D02*
X3430777Y-18443674D01*
X3430777Y-18443674D02*
X3440301Y-18462722D01*
X3440301Y-18462722D02*
X3440301Y-18567484D01*
X3440301Y-18462722D02*
X3449824Y-18443674D01*
X3449824Y-18443674D02*
X3468872Y-18434150D01*
X3468872Y-18434150D02*
X3497443Y-18434150D01*
X3497443Y-18434150D02*
X3516491Y-18443674D01*
X3516491Y-18443674D02*
X3526015Y-18462722D01*
X3526015Y-18462722D02*
X3526015Y-18567484D01*
X3916491Y-18357960D02*
X3745063Y-18615103D01*
X4173634Y-18367484D02*
X4192682Y-18367484D01*
X4192682Y-18367484D02*
X4211729Y-18377008D01*
X4211729Y-18377008D02*
X4221253Y-18386531D01*
X4221253Y-18386531D02*
X4230777Y-18405579D01*
X4230777Y-18405579D02*
X4240301Y-18443674D01*
X4240301Y-18443674D02*
X4240301Y-18491293D01*
X4240301Y-18491293D02*
X4230777Y-18529389D01*
X4230777Y-18529389D02*
X4221253Y-18548436D01*
X4221253Y-18548436D02*
X4211729Y-18557960D01*
X4211729Y-18557960D02*
X4192682Y-18567484D01*
X4192682Y-18567484D02*
X4173634Y-18567484D01*
X4173634Y-18567484D02*
X4154586Y-18557960D01*
X4154586Y-18557960D02*
X4145063Y-18548436D01*
X4145063Y-18548436D02*
X4135539Y-18529389D01*
X4135539Y-18529389D02*
X4126015Y-18491293D01*
X4126015Y-18491293D02*
X4126015Y-18443674D01*
X4126015Y-18443674D02*
X4135539Y-18405579D01*
X4135539Y-18405579D02*
X4145063Y-18386531D01*
X4145063Y-18386531D02*
X4154586Y-18377008D01*
X4154586Y-18377008D02*
X4173634Y-18367484D01*
X4326015Y-18548436D02*
X4335539Y-18557960D01*
X4335539Y-18557960D02*
X4326015Y-18567484D01*
X4326015Y-18567484D02*
X4316491Y-18557960D01*
X4316491Y-18557960D02*
X4326015Y-18548436D01*
X4326015Y-18548436D02*
X4326015Y-18567484D01*
X4459348Y-18367484D02*
X4478396Y-18367484D01*
X4478396Y-18367484D02*
X4497444Y-18377008D01*
X4497444Y-18377008D02*
X4506968Y-18386531D01*
X4506968Y-18386531D02*
X4516491Y-18405579D01*
X4516491Y-18405579D02*
X4526015Y-18443674D01*
X4526015Y-18443674D02*
X4526015Y-18491293D01*
X4526015Y-18491293D02*
X4516491Y-18529389D01*
X4516491Y-18529389D02*
X4506968Y-18548436D01*
X4506968Y-18548436D02*
X4497444Y-18557960D01*
X4497444Y-18557960D02*
X4478396Y-18567484D01*
X4478396Y-18567484D02*
X4459348Y-18567484D01*
X4459348Y-18567484D02*
X4440301Y-18557960D01*
X4440301Y-18557960D02*
X4430777Y-18548436D01*
X4430777Y-18548436D02*
X4421253Y-18529389D01*
X4421253Y-18529389D02*
X4411729Y-18491293D01*
X4411729Y-18491293D02*
X4411729Y-18443674D01*
X4411729Y-18443674D02*
X4421253Y-18405579D01*
X4421253Y-18405579D02*
X4430777Y-18386531D01*
X4430777Y-18386531D02*
X4440301Y-18377008D01*
X4440301Y-18377008D02*
X4459348Y-18367484D01*
X4592682Y-18367484D02*
X4716491Y-18367484D01*
X4716491Y-18367484D02*
X4649825Y-18443674D01*
X4649825Y-18443674D02*
X4678396Y-18443674D01*
X4678396Y-18443674D02*
X4697444Y-18453198D01*
X4697444Y-18453198D02*
X4706968Y-18462722D01*
X4706968Y-18462722D02*
X4716491Y-18481770D01*
X4716491Y-18481770D02*
X4716491Y-18529389D01*
X4716491Y-18529389D02*
X4706968Y-18548436D01*
X4706968Y-18548436D02*
X4697444Y-18557960D01*
X4697444Y-18557960D02*
X4678396Y-18567484D01*
X4678396Y-18567484D02*
X4621253Y-18567484D01*
X4621253Y-18567484D02*
X4602206Y-18557960D01*
X4602206Y-18557960D02*
X4592682Y-18548436D01*
X4840301Y-18367484D02*
X4859349Y-18367484D01*
X4859349Y-18367484D02*
X4878396Y-18377008D01*
X4878396Y-18377008D02*
X4887920Y-18386531D01*
X4887920Y-18386531D02*
X4897444Y-18405579D01*
X4897444Y-18405579D02*
X4906968Y-18443674D01*
X4906968Y-18443674D02*
X4906968Y-18491293D01*
X4906968Y-18491293D02*
X4897444Y-18529389D01*
X4897444Y-18529389D02*
X4887920Y-18548436D01*
X4887920Y-18548436D02*
X4878396Y-18557960D01*
X4878396Y-18557960D02*
X4859349Y-18567484D01*
X4859349Y-18567484D02*
X4840301Y-18567484D01*
X4840301Y-18567484D02*
X4821253Y-18557960D01*
X4821253Y-18557960D02*
X4811729Y-18548436D01*
X4811729Y-18548436D02*
X4802206Y-18529389D01*
X4802206Y-18529389D02*
X4792682Y-18491293D01*
X4792682Y-18491293D02*
X4792682Y-18443674D01*
X4792682Y-18443674D02*
X4802206Y-18405579D01*
X4802206Y-18405579D02*
X4811729Y-18386531D01*
X4811729Y-18386531D02*
X4821253Y-18377008D01*
X4821253Y-18377008D02*
X4840301Y-18367484D01*
X4973634Y-18367484D02*
X5106968Y-18367484D01*
X5106968Y-18367484D02*
X5021253Y-18567484D01*
X5173634Y-18367484D02*
X5173634Y-18405579D01*
X5249825Y-18367484D02*
X5249825Y-18405579D01*
X5545063Y-18643674D02*
X5535539Y-18634150D01*
X5535539Y-18634150D02*
X5516491Y-18605579D01*
X5516491Y-18605579D02*
X5506968Y-18586531D01*
X5506968Y-18586531D02*
X5497444Y-18557960D01*
X5497444Y-18557960D02*
X5487920Y-18510341D01*
X5487920Y-18510341D02*
X5487920Y-18472246D01*
X5487920Y-18472246D02*
X5497444Y-18424627D01*
X5497444Y-18424627D02*
X5506968Y-18396055D01*
X5506968Y-18396055D02*
X5516491Y-18377008D01*
X5516491Y-18377008D02*
X5535539Y-18348436D01*
X5535539Y-18348436D02*
X5545063Y-18338912D01*
X5649825Y-18453198D02*
X5630777Y-18443674D01*
X5630777Y-18443674D02*
X5621253Y-18434150D01*
X5621253Y-18434150D02*
X5611729Y-18415103D01*
X5611729Y-18415103D02*
X5611729Y-18405579D01*
X5611729Y-18405579D02*
X5621253Y-18386531D01*
X5621253Y-18386531D02*
X5630777Y-18377008D01*
X5630777Y-18377008D02*
X5649825Y-18367484D01*
X5649825Y-18367484D02*
X5687920Y-18367484D01*
X5687920Y-18367484D02*
X5706968Y-18377008D01*
X5706968Y-18377008D02*
X5716491Y-18386531D01*
X5716491Y-18386531D02*
X5726015Y-18405579D01*
X5726015Y-18405579D02*
X5726015Y-18415103D01*
X5726015Y-18415103D02*
X5716491Y-18434150D01*
X5716491Y-18434150D02*
X5706968Y-18443674D01*
X5706968Y-18443674D02*
X5687920Y-18453198D01*
X5687920Y-18453198D02*
X5649825Y-18453198D01*
X5649825Y-18453198D02*
X5630777Y-18462722D01*
X5630777Y-18462722D02*
X5621253Y-18472246D01*
X5621253Y-18472246D02*
X5611729Y-18491293D01*
X5611729Y-18491293D02*
X5611729Y-18529389D01*
X5611729Y-18529389D02*
X5621253Y-18548436D01*
X5621253Y-18548436D02*
X5630777Y-18557960D01*
X5630777Y-18557960D02*
X5649825Y-18567484D01*
X5649825Y-18567484D02*
X5687920Y-18567484D01*
X5687920Y-18567484D02*
X5706968Y-18557960D01*
X5706968Y-18557960D02*
X5716491Y-18548436D01*
X5716491Y-18548436D02*
X5726015Y-18529389D01*
X5726015Y-18529389D02*
X5726015Y-18491293D01*
X5726015Y-18491293D02*
X5716491Y-18472246D01*
X5716491Y-18472246D02*
X5706968Y-18462722D01*
X5706968Y-18462722D02*
X5687920Y-18453198D01*
X5840301Y-18453198D02*
X5821253Y-18443674D01*
X5821253Y-18443674D02*
X5811729Y-18434150D01*
X5811729Y-18434150D02*
X5802206Y-18415103D01*
X5802206Y-18415103D02*
X5802206Y-18405579D01*
X5802206Y-18405579D02*
X5811729Y-18386531D01*
X5811729Y-18386531D02*
X5821253Y-18377008D01*
X5821253Y-18377008D02*
X5840301Y-18367484D01*
X5840301Y-18367484D02*
X5878396Y-18367484D01*
X5878396Y-18367484D02*
X5897444Y-18377008D01*
X5897444Y-18377008D02*
X5906968Y-18386531D01*
X5906968Y-18386531D02*
X5916491Y-18405579D01*
X5916491Y-18405579D02*
X5916491Y-18415103D01*
X5916491Y-18415103D02*
X5906968Y-18434150D01*
X5906968Y-18434150D02*
X5897444Y-18443674D01*
X5897444Y-18443674D02*
X5878396Y-18453198D01*
X5878396Y-18453198D02*
X5840301Y-18453198D01*
X5840301Y-18453198D02*
X5821253Y-18462722D01*
X5821253Y-18462722D02*
X5811729Y-18472246D01*
X5811729Y-18472246D02*
X5802206Y-18491293D01*
X5802206Y-18491293D02*
X5802206Y-18529389D01*
X5802206Y-18529389D02*
X5811729Y-18548436D01*
X5811729Y-18548436D02*
X5821253Y-18557960D01*
X5821253Y-18557960D02*
X5840301Y-18567484D01*
X5840301Y-18567484D02*
X5878396Y-18567484D01*
X5878396Y-18567484D02*
X5897444Y-18557960D01*
X5897444Y-18557960D02*
X5906968Y-18548436D01*
X5906968Y-18548436D02*
X5916491Y-18529389D01*
X5916491Y-18529389D02*
X5916491Y-18491293D01*
X5916491Y-18491293D02*
X5906968Y-18472246D01*
X5906968Y-18472246D02*
X5897444Y-18462722D01*
X5897444Y-18462722D02*
X5878396Y-18453198D01*
X6154587Y-18567484D02*
X6154587Y-18367484D01*
X6240301Y-18567484D02*
X6240301Y-18462722D01*
X6240301Y-18462722D02*
X6230777Y-18443674D01*
X6230777Y-18443674D02*
X6211730Y-18434150D01*
X6211730Y-18434150D02*
X6183158Y-18434150D01*
X6183158Y-18434150D02*
X6164110Y-18443674D01*
X6164110Y-18443674D02*
X6154587Y-18453198D01*
X6364110Y-18567484D02*
X6345063Y-18557960D01*
X6345063Y-18557960D02*
X6335539Y-18548436D01*
X6335539Y-18548436D02*
X6326015Y-18529389D01*
X6326015Y-18529389D02*
X6326015Y-18472246D01*
X6326015Y-18472246D02*
X6335539Y-18453198D01*
X6335539Y-18453198D02*
X6345063Y-18443674D01*
X6345063Y-18443674D02*
X6364110Y-18434150D01*
X6364110Y-18434150D02*
X6392682Y-18434150D01*
X6392682Y-18434150D02*
X6411730Y-18443674D01*
X6411730Y-18443674D02*
X6421253Y-18453198D01*
X6421253Y-18453198D02*
X6430777Y-18472246D01*
X6430777Y-18472246D02*
X6430777Y-18529389D01*
X6430777Y-18529389D02*
X6421253Y-18548436D01*
X6421253Y-18548436D02*
X6411730Y-18557960D01*
X6411730Y-18557960D02*
X6392682Y-18567484D01*
X6392682Y-18567484D02*
X6364110Y-18567484D01*
X6545063Y-18567484D02*
X6526015Y-18557960D01*
X6526015Y-18557960D02*
X6516491Y-18538912D01*
X6516491Y-18538912D02*
X6516491Y-18367484D01*
X6697444Y-18557960D02*
X6678396Y-18567484D01*
X6678396Y-18567484D02*
X6640301Y-18567484D01*
X6640301Y-18567484D02*
X6621253Y-18557960D01*
X6621253Y-18557960D02*
X6611730Y-18538912D01*
X6611730Y-18538912D02*
X6611730Y-18462722D01*
X6611730Y-18462722D02*
X6621253Y-18443674D01*
X6621253Y-18443674D02*
X6640301Y-18434150D01*
X6640301Y-18434150D02*
X6678396Y-18434150D01*
X6678396Y-18434150D02*
X6697444Y-18443674D01*
X6697444Y-18443674D02*
X6706968Y-18462722D01*
X6706968Y-18462722D02*
X6706968Y-18481770D01*
X6706968Y-18481770D02*
X6611730Y-18500817D01*
X6783158Y-18557960D02*
X6802206Y-18567484D01*
X6802206Y-18567484D02*
X6840301Y-18567484D01*
X6840301Y-18567484D02*
X6859349Y-18557960D01*
X6859349Y-18557960D02*
X6868872Y-18538912D01*
X6868872Y-18538912D02*
X6868872Y-18529389D01*
X6868872Y-18529389D02*
X6859349Y-18510341D01*
X6859349Y-18510341D02*
X6840301Y-18500817D01*
X6840301Y-18500817D02*
X6811730Y-18500817D01*
X6811730Y-18500817D02*
X6792682Y-18491293D01*
X6792682Y-18491293D02*
X6783158Y-18472246D01*
X6783158Y-18472246D02*
X6783158Y-18462722D01*
X6783158Y-18462722D02*
X6792682Y-18443674D01*
X6792682Y-18443674D02*
X6811730Y-18434150D01*
X6811730Y-18434150D02*
X6840301Y-18434150D01*
X6840301Y-18434150D02*
X6859349Y-18443674D01*
X6935539Y-18643674D02*
X6945063Y-18634150D01*
X6945063Y-18634150D02*
X6964111Y-18605579D01*
X6964111Y-18605579D02*
X6973634Y-18586531D01*
X6973634Y-18586531D02*
X6983158Y-18557960D01*
X6983158Y-18557960D02*
X6992682Y-18510341D01*
X6992682Y-18510341D02*
X6992682Y-18472246D01*
X6992682Y-18472246D02*
X6983158Y-18424627D01*
X6983158Y-18424627D02*
X6973634Y-18396055D01*
X6973634Y-18396055D02*
X6964111Y-18377008D01*
X6964111Y-18377008D02*
X6945063Y-18348436D01*
X6945063Y-18348436D02*
X6935539Y-18338912D01*
D17*
X1885000Y-18697500D02*
X1970000Y-18782500D01*
X1970000Y-18697500D02*
X1885000Y-18782500D01*
X1970000Y-18740000D02*
G75*
G03*
X1970000Y-18740000I-42500J0D01*
G01*
D11*
X2268872Y-18631484D02*
X2287920Y-18631484D01*
X2287920Y-18631484D02*
X2306967Y-18641008D01*
X2306967Y-18641008D02*
X2316491Y-18650531D01*
X2316491Y-18650531D02*
X2326015Y-18669579D01*
X2326015Y-18669579D02*
X2335539Y-18707674D01*
X2335539Y-18707674D02*
X2335539Y-18755293D01*
X2335539Y-18755293D02*
X2326015Y-18793389D01*
X2326015Y-18793389D02*
X2316491Y-18812436D01*
X2316491Y-18812436D02*
X2306967Y-18821960D01*
X2306967Y-18821960D02*
X2287920Y-18831484D01*
X2287920Y-18831484D02*
X2268872Y-18831484D01*
X2268872Y-18831484D02*
X2249824Y-18821960D01*
X2249824Y-18821960D02*
X2240301Y-18812436D01*
X2240301Y-18812436D02*
X2230777Y-18793389D01*
X2230777Y-18793389D02*
X2221253Y-18755293D01*
X2221253Y-18755293D02*
X2221253Y-18707674D01*
X2221253Y-18707674D02*
X2230777Y-18669579D01*
X2230777Y-18669579D02*
X2240301Y-18650531D01*
X2240301Y-18650531D02*
X2249824Y-18641008D01*
X2249824Y-18641008D02*
X2268872Y-18631484D01*
X2421253Y-18812436D02*
X2430777Y-18821960D01*
X2430777Y-18821960D02*
X2421253Y-18831484D01*
X2421253Y-18831484D02*
X2411729Y-18821960D01*
X2411729Y-18821960D02*
X2421253Y-18812436D01*
X2421253Y-18812436D02*
X2421253Y-18831484D01*
X2545063Y-18717198D02*
X2526015Y-18707674D01*
X2526015Y-18707674D02*
X2516491Y-18698150D01*
X2516491Y-18698150D02*
X2506967Y-18679103D01*
X2506967Y-18679103D02*
X2506967Y-18669579D01*
X2506967Y-18669579D02*
X2516491Y-18650531D01*
X2516491Y-18650531D02*
X2526015Y-18641008D01*
X2526015Y-18641008D02*
X2545063Y-18631484D01*
X2545063Y-18631484D02*
X2583158Y-18631484D01*
X2583158Y-18631484D02*
X2602205Y-18641008D01*
X2602205Y-18641008D02*
X2611729Y-18650531D01*
X2611729Y-18650531D02*
X2621253Y-18669579D01*
X2621253Y-18669579D02*
X2621253Y-18679103D01*
X2621253Y-18679103D02*
X2611729Y-18698150D01*
X2611729Y-18698150D02*
X2602205Y-18707674D01*
X2602205Y-18707674D02*
X2583158Y-18717198D01*
X2583158Y-18717198D02*
X2545063Y-18717198D01*
X2545063Y-18717198D02*
X2526015Y-18726722D01*
X2526015Y-18726722D02*
X2516491Y-18736246D01*
X2516491Y-18736246D02*
X2506967Y-18755293D01*
X2506967Y-18755293D02*
X2506967Y-18793389D01*
X2506967Y-18793389D02*
X2516491Y-18812436D01*
X2516491Y-18812436D02*
X2526015Y-18821960D01*
X2526015Y-18821960D02*
X2545063Y-18831484D01*
X2545063Y-18831484D02*
X2583158Y-18831484D01*
X2583158Y-18831484D02*
X2602205Y-18821960D01*
X2602205Y-18821960D02*
X2611729Y-18812436D01*
X2611729Y-18812436D02*
X2621253Y-18793389D01*
X2621253Y-18793389D02*
X2621253Y-18755293D01*
X2621253Y-18755293D02*
X2611729Y-18736246D01*
X2611729Y-18736246D02*
X2602205Y-18726722D01*
X2602205Y-18726722D02*
X2583158Y-18717198D01*
X2802205Y-18631484D02*
X2706967Y-18631484D01*
X2706967Y-18631484D02*
X2697444Y-18726722D01*
X2697444Y-18726722D02*
X2706967Y-18717198D01*
X2706967Y-18717198D02*
X2726015Y-18707674D01*
X2726015Y-18707674D02*
X2773634Y-18707674D01*
X2773634Y-18707674D02*
X2792682Y-18717198D01*
X2792682Y-18717198D02*
X2802205Y-18726722D01*
X2802205Y-18726722D02*
X2811729Y-18745770D01*
X2811729Y-18745770D02*
X2811729Y-18793389D01*
X2811729Y-18793389D02*
X2802205Y-18812436D01*
X2802205Y-18812436D02*
X2792682Y-18821960D01*
X2792682Y-18821960D02*
X2773634Y-18831484D01*
X2773634Y-18831484D02*
X2726015Y-18831484D01*
X2726015Y-18831484D02*
X2706967Y-18821960D01*
X2706967Y-18821960D02*
X2697444Y-18812436D01*
X2935539Y-18631484D02*
X2954586Y-18631484D01*
X2954586Y-18631484D02*
X2973634Y-18641008D01*
X2973634Y-18641008D02*
X2983158Y-18650531D01*
X2983158Y-18650531D02*
X2992682Y-18669579D01*
X2992682Y-18669579D02*
X3002205Y-18707674D01*
X3002205Y-18707674D02*
X3002205Y-18755293D01*
X3002205Y-18755293D02*
X2992682Y-18793389D01*
X2992682Y-18793389D02*
X2983158Y-18812436D01*
X2983158Y-18812436D02*
X2973634Y-18821960D01*
X2973634Y-18821960D02*
X2954586Y-18831484D01*
X2954586Y-18831484D02*
X2935539Y-18831484D01*
X2935539Y-18831484D02*
X2916491Y-18821960D01*
X2916491Y-18821960D02*
X2906967Y-18812436D01*
X2906967Y-18812436D02*
X2897443Y-18793389D01*
X2897443Y-18793389D02*
X2887920Y-18755293D01*
X2887920Y-18755293D02*
X2887920Y-18707674D01*
X2887920Y-18707674D02*
X2897443Y-18669579D01*
X2897443Y-18669579D02*
X2906967Y-18650531D01*
X2906967Y-18650531D02*
X2916491Y-18641008D01*
X2916491Y-18641008D02*
X2935539Y-18631484D01*
X3087920Y-18831484D02*
X3087920Y-18698150D01*
X3087920Y-18717198D02*
X3097443Y-18707674D01*
X3097443Y-18707674D02*
X3116491Y-18698150D01*
X3116491Y-18698150D02*
X3145063Y-18698150D01*
X3145063Y-18698150D02*
X3164110Y-18707674D01*
X3164110Y-18707674D02*
X3173634Y-18726722D01*
X3173634Y-18726722D02*
X3173634Y-18831484D01*
X3173634Y-18726722D02*
X3183158Y-18707674D01*
X3183158Y-18707674D02*
X3202205Y-18698150D01*
X3202205Y-18698150D02*
X3230777Y-18698150D01*
X3230777Y-18698150D02*
X3249824Y-18707674D01*
X3249824Y-18707674D02*
X3259348Y-18726722D01*
X3259348Y-18726722D02*
X3259348Y-18831484D01*
X3354586Y-18831484D02*
X3354586Y-18698150D01*
X3354586Y-18717198D02*
X3364110Y-18707674D01*
X3364110Y-18707674D02*
X3383158Y-18698150D01*
X3383158Y-18698150D02*
X3411729Y-18698150D01*
X3411729Y-18698150D02*
X3430777Y-18707674D01*
X3430777Y-18707674D02*
X3440301Y-18726722D01*
X3440301Y-18726722D02*
X3440301Y-18831484D01*
X3440301Y-18726722D02*
X3449824Y-18707674D01*
X3449824Y-18707674D02*
X3468872Y-18698150D01*
X3468872Y-18698150D02*
X3497443Y-18698150D01*
X3497443Y-18698150D02*
X3516491Y-18707674D01*
X3516491Y-18707674D02*
X3526015Y-18726722D01*
X3526015Y-18726722D02*
X3526015Y-18831484D01*
X3916491Y-18621960D02*
X3745063Y-18879103D01*
X4173634Y-18631484D02*
X4192682Y-18631484D01*
X4192682Y-18631484D02*
X4211729Y-18641008D01*
X4211729Y-18641008D02*
X4221253Y-18650531D01*
X4221253Y-18650531D02*
X4230777Y-18669579D01*
X4230777Y-18669579D02*
X4240301Y-18707674D01*
X4240301Y-18707674D02*
X4240301Y-18755293D01*
X4240301Y-18755293D02*
X4230777Y-18793389D01*
X4230777Y-18793389D02*
X4221253Y-18812436D01*
X4221253Y-18812436D02*
X4211729Y-18821960D01*
X4211729Y-18821960D02*
X4192682Y-18831484D01*
X4192682Y-18831484D02*
X4173634Y-18831484D01*
X4173634Y-18831484D02*
X4154586Y-18821960D01*
X4154586Y-18821960D02*
X4145063Y-18812436D01*
X4145063Y-18812436D02*
X4135539Y-18793389D01*
X4135539Y-18793389D02*
X4126015Y-18755293D01*
X4126015Y-18755293D02*
X4126015Y-18707674D01*
X4126015Y-18707674D02*
X4135539Y-18669579D01*
X4135539Y-18669579D02*
X4145063Y-18650531D01*
X4145063Y-18650531D02*
X4154586Y-18641008D01*
X4154586Y-18641008D02*
X4173634Y-18631484D01*
X4326015Y-18812436D02*
X4335539Y-18821960D01*
X4335539Y-18821960D02*
X4326015Y-18831484D01*
X4326015Y-18831484D02*
X4316491Y-18821960D01*
X4316491Y-18821960D02*
X4326015Y-18812436D01*
X4326015Y-18812436D02*
X4326015Y-18831484D01*
X4459348Y-18631484D02*
X4478396Y-18631484D01*
X4478396Y-18631484D02*
X4497444Y-18641008D01*
X4497444Y-18641008D02*
X4506968Y-18650531D01*
X4506968Y-18650531D02*
X4516491Y-18669579D01*
X4516491Y-18669579D02*
X4526015Y-18707674D01*
X4526015Y-18707674D02*
X4526015Y-18755293D01*
X4526015Y-18755293D02*
X4516491Y-18793389D01*
X4516491Y-18793389D02*
X4506968Y-18812436D01*
X4506968Y-18812436D02*
X4497444Y-18821960D01*
X4497444Y-18821960D02*
X4478396Y-18831484D01*
X4478396Y-18831484D02*
X4459348Y-18831484D01*
X4459348Y-18831484D02*
X4440301Y-18821960D01*
X4440301Y-18821960D02*
X4430777Y-18812436D01*
X4430777Y-18812436D02*
X4421253Y-18793389D01*
X4421253Y-18793389D02*
X4411729Y-18755293D01*
X4411729Y-18755293D02*
X4411729Y-18707674D01*
X4411729Y-18707674D02*
X4421253Y-18669579D01*
X4421253Y-18669579D02*
X4430777Y-18650531D01*
X4430777Y-18650531D02*
X4440301Y-18641008D01*
X4440301Y-18641008D02*
X4459348Y-18631484D01*
X4592682Y-18631484D02*
X4716491Y-18631484D01*
X4716491Y-18631484D02*
X4649825Y-18707674D01*
X4649825Y-18707674D02*
X4678396Y-18707674D01*
X4678396Y-18707674D02*
X4697444Y-18717198D01*
X4697444Y-18717198D02*
X4706968Y-18726722D01*
X4706968Y-18726722D02*
X4716491Y-18745770D01*
X4716491Y-18745770D02*
X4716491Y-18793389D01*
X4716491Y-18793389D02*
X4706968Y-18812436D01*
X4706968Y-18812436D02*
X4697444Y-18821960D01*
X4697444Y-18821960D02*
X4678396Y-18831484D01*
X4678396Y-18831484D02*
X4621253Y-18831484D01*
X4621253Y-18831484D02*
X4602206Y-18821960D01*
X4602206Y-18821960D02*
X4592682Y-18812436D01*
X4783158Y-18631484D02*
X4906968Y-18631484D01*
X4906968Y-18631484D02*
X4840301Y-18707674D01*
X4840301Y-18707674D02*
X4868872Y-18707674D01*
X4868872Y-18707674D02*
X4887920Y-18717198D01*
X4887920Y-18717198D02*
X4897444Y-18726722D01*
X4897444Y-18726722D02*
X4906968Y-18745770D01*
X4906968Y-18745770D02*
X4906968Y-18793389D01*
X4906968Y-18793389D02*
X4897444Y-18812436D01*
X4897444Y-18812436D02*
X4887920Y-18821960D01*
X4887920Y-18821960D02*
X4868872Y-18831484D01*
X4868872Y-18831484D02*
X4811729Y-18831484D01*
X4811729Y-18831484D02*
X4792682Y-18821960D01*
X4792682Y-18821960D02*
X4783158Y-18812436D01*
X5087920Y-18631484D02*
X4992682Y-18631484D01*
X4992682Y-18631484D02*
X4983158Y-18726722D01*
X4983158Y-18726722D02*
X4992682Y-18717198D01*
X4992682Y-18717198D02*
X5011729Y-18707674D01*
X5011729Y-18707674D02*
X5059349Y-18707674D01*
X5059349Y-18707674D02*
X5078396Y-18717198D01*
X5078396Y-18717198D02*
X5087920Y-18726722D01*
X5087920Y-18726722D02*
X5097444Y-18745770D01*
X5097444Y-18745770D02*
X5097444Y-18793389D01*
X5097444Y-18793389D02*
X5087920Y-18812436D01*
X5087920Y-18812436D02*
X5078396Y-18821960D01*
X5078396Y-18821960D02*
X5059349Y-18831484D01*
X5059349Y-18831484D02*
X5011729Y-18831484D01*
X5011729Y-18831484D02*
X4992682Y-18821960D01*
X4992682Y-18821960D02*
X4983158Y-18812436D01*
X5173634Y-18631484D02*
X5173634Y-18669579D01*
X5249825Y-18631484D02*
X5249825Y-18669579D01*
X5545063Y-18907674D02*
X5535539Y-18898150D01*
X5535539Y-18898150D02*
X5516491Y-18869579D01*
X5516491Y-18869579D02*
X5506968Y-18850531D01*
X5506968Y-18850531D02*
X5497444Y-18821960D01*
X5497444Y-18821960D02*
X5487920Y-18774341D01*
X5487920Y-18774341D02*
X5487920Y-18736246D01*
X5487920Y-18736246D02*
X5497444Y-18688627D01*
X5497444Y-18688627D02*
X5506968Y-18660055D01*
X5506968Y-18660055D02*
X5516491Y-18641008D01*
X5516491Y-18641008D02*
X5535539Y-18612436D01*
X5535539Y-18612436D02*
X5545063Y-18602912D01*
X5659348Y-18631484D02*
X5678396Y-18631484D01*
X5678396Y-18631484D02*
X5697444Y-18641008D01*
X5697444Y-18641008D02*
X5706968Y-18650531D01*
X5706968Y-18650531D02*
X5716491Y-18669579D01*
X5716491Y-18669579D02*
X5726015Y-18707674D01*
X5726015Y-18707674D02*
X5726015Y-18755293D01*
X5726015Y-18755293D02*
X5716491Y-18793389D01*
X5716491Y-18793389D02*
X5706968Y-18812436D01*
X5706968Y-18812436D02*
X5697444Y-18821960D01*
X5697444Y-18821960D02*
X5678396Y-18831484D01*
X5678396Y-18831484D02*
X5659348Y-18831484D01*
X5659348Y-18831484D02*
X5640301Y-18821960D01*
X5640301Y-18821960D02*
X5630777Y-18812436D01*
X5630777Y-18812436D02*
X5621253Y-18793389D01*
X5621253Y-18793389D02*
X5611729Y-18755293D01*
X5611729Y-18755293D02*
X5611729Y-18707674D01*
X5611729Y-18707674D02*
X5621253Y-18669579D01*
X5621253Y-18669579D02*
X5630777Y-18650531D01*
X5630777Y-18650531D02*
X5640301Y-18641008D01*
X5640301Y-18641008D02*
X5659348Y-18631484D01*
X5964110Y-18831484D02*
X5964110Y-18631484D01*
X6049825Y-18831484D02*
X6049825Y-18726722D01*
X6049825Y-18726722D02*
X6040301Y-18707674D01*
X6040301Y-18707674D02*
X6021253Y-18698150D01*
X6021253Y-18698150D02*
X5992682Y-18698150D01*
X5992682Y-18698150D02*
X5973634Y-18707674D01*
X5973634Y-18707674D02*
X5964110Y-18717198D01*
X6173634Y-18831484D02*
X6154587Y-18821960D01*
X6154587Y-18821960D02*
X6145063Y-18812436D01*
X6145063Y-18812436D02*
X6135539Y-18793389D01*
X6135539Y-18793389D02*
X6135539Y-18736246D01*
X6135539Y-18736246D02*
X6145063Y-18717198D01*
X6145063Y-18717198D02*
X6154587Y-18707674D01*
X6154587Y-18707674D02*
X6173634Y-18698150D01*
X6173634Y-18698150D02*
X6202206Y-18698150D01*
X6202206Y-18698150D02*
X6221253Y-18707674D01*
X6221253Y-18707674D02*
X6230777Y-18717198D01*
X6230777Y-18717198D02*
X6240301Y-18736246D01*
X6240301Y-18736246D02*
X6240301Y-18793389D01*
X6240301Y-18793389D02*
X6230777Y-18812436D01*
X6230777Y-18812436D02*
X6221253Y-18821960D01*
X6221253Y-18821960D02*
X6202206Y-18831484D01*
X6202206Y-18831484D02*
X6173634Y-18831484D01*
X6354587Y-18831484D02*
X6335539Y-18821960D01*
X6335539Y-18821960D02*
X6326015Y-18802912D01*
X6326015Y-18802912D02*
X6326015Y-18631484D01*
X6506968Y-18821960D02*
X6487920Y-18831484D01*
X6487920Y-18831484D02*
X6449825Y-18831484D01*
X6449825Y-18831484D02*
X6430777Y-18821960D01*
X6430777Y-18821960D02*
X6421253Y-18802912D01*
X6421253Y-18802912D02*
X6421253Y-18726722D01*
X6421253Y-18726722D02*
X6430777Y-18707674D01*
X6430777Y-18707674D02*
X6449825Y-18698150D01*
X6449825Y-18698150D02*
X6487920Y-18698150D01*
X6487920Y-18698150D02*
X6506968Y-18707674D01*
X6506968Y-18707674D02*
X6516491Y-18726722D01*
X6516491Y-18726722D02*
X6516491Y-18745770D01*
X6516491Y-18745770D02*
X6421253Y-18764817D01*
X6592682Y-18821960D02*
X6611730Y-18831484D01*
X6611730Y-18831484D02*
X6649825Y-18831484D01*
X6649825Y-18831484D02*
X6668872Y-18821960D01*
X6668872Y-18821960D02*
X6678396Y-18802912D01*
X6678396Y-18802912D02*
X6678396Y-18793389D01*
X6678396Y-18793389D02*
X6668872Y-18774341D01*
X6668872Y-18774341D02*
X6649825Y-18764817D01*
X6649825Y-18764817D02*
X6621253Y-18764817D01*
X6621253Y-18764817D02*
X6602206Y-18755293D01*
X6602206Y-18755293D02*
X6592682Y-18736246D01*
X6592682Y-18736246D02*
X6592682Y-18726722D01*
X6592682Y-18726722D02*
X6602206Y-18707674D01*
X6602206Y-18707674D02*
X6621253Y-18698150D01*
X6621253Y-18698150D02*
X6649825Y-18698150D01*
X6649825Y-18698150D02*
X6668872Y-18707674D01*
X6916492Y-18755293D02*
X7068873Y-18755293D01*
X6992682Y-18831484D02*
X6992682Y-18679103D01*
X7306968Y-18650531D02*
X7316492Y-18641008D01*
X7316492Y-18641008D02*
X7335539Y-18631484D01*
X7335539Y-18631484D02*
X7383158Y-18631484D01*
X7383158Y-18631484D02*
X7402206Y-18641008D01*
X7402206Y-18641008D02*
X7411730Y-18650531D01*
X7411730Y-18650531D02*
X7421253Y-18669579D01*
X7421253Y-18669579D02*
X7421253Y-18688627D01*
X7421253Y-18688627D02*
X7411730Y-18717198D01*
X7411730Y-18717198D02*
X7297444Y-18831484D01*
X7297444Y-18831484D02*
X7421253Y-18831484D01*
X7649825Y-18821960D02*
X7668873Y-18831484D01*
X7668873Y-18831484D02*
X7706968Y-18831484D01*
X7706968Y-18831484D02*
X7726015Y-18821960D01*
X7726015Y-18821960D02*
X7735539Y-18802912D01*
X7735539Y-18802912D02*
X7735539Y-18793389D01*
X7735539Y-18793389D02*
X7726015Y-18774341D01*
X7726015Y-18774341D02*
X7706968Y-18764817D01*
X7706968Y-18764817D02*
X7678396Y-18764817D01*
X7678396Y-18764817D02*
X7659349Y-18755293D01*
X7659349Y-18755293D02*
X7649825Y-18736246D01*
X7649825Y-18736246D02*
X7649825Y-18726722D01*
X7649825Y-18726722D02*
X7659349Y-18707674D01*
X7659349Y-18707674D02*
X7678396Y-18698150D01*
X7678396Y-18698150D02*
X7706968Y-18698150D01*
X7706968Y-18698150D02*
X7726015Y-18707674D01*
X7849825Y-18831484D02*
X7830777Y-18821960D01*
X7830777Y-18821960D02*
X7821254Y-18802912D01*
X7821254Y-18802912D02*
X7821254Y-18631484D01*
X7954587Y-18831484D02*
X7935539Y-18821960D01*
X7935539Y-18821960D02*
X7926015Y-18812436D01*
X7926015Y-18812436D02*
X7916492Y-18793389D01*
X7916492Y-18793389D02*
X7916492Y-18736246D01*
X7916492Y-18736246D02*
X7926015Y-18717198D01*
X7926015Y-18717198D02*
X7935539Y-18707674D01*
X7935539Y-18707674D02*
X7954587Y-18698150D01*
X7954587Y-18698150D02*
X7983158Y-18698150D01*
X7983158Y-18698150D02*
X8002206Y-18707674D01*
X8002206Y-18707674D02*
X8011730Y-18717198D01*
X8011730Y-18717198D02*
X8021254Y-18736246D01*
X8021254Y-18736246D02*
X8021254Y-18793389D01*
X8021254Y-18793389D02*
X8011730Y-18812436D01*
X8011730Y-18812436D02*
X8002206Y-18821960D01*
X8002206Y-18821960D02*
X7983158Y-18831484D01*
X7983158Y-18831484D02*
X7954587Y-18831484D01*
X8078396Y-18698150D02*
X8154587Y-18698150D01*
X8106968Y-18631484D02*
X8106968Y-18802912D01*
X8106968Y-18802912D02*
X8116492Y-18821960D01*
X8116492Y-18821960D02*
X8135539Y-18831484D01*
X8135539Y-18831484D02*
X8154587Y-18831484D01*
X8211730Y-18821960D02*
X8230777Y-18831484D01*
X8230777Y-18831484D02*
X8268873Y-18831484D01*
X8268873Y-18831484D02*
X8287920Y-18821960D01*
X8287920Y-18821960D02*
X8297444Y-18802912D01*
X8297444Y-18802912D02*
X8297444Y-18793389D01*
X8297444Y-18793389D02*
X8287920Y-18774341D01*
X8287920Y-18774341D02*
X8268873Y-18764817D01*
X8268873Y-18764817D02*
X8240301Y-18764817D01*
X8240301Y-18764817D02*
X8221254Y-18755293D01*
X8221254Y-18755293D02*
X8211730Y-18736246D01*
X8211730Y-18736246D02*
X8211730Y-18726722D01*
X8211730Y-18726722D02*
X8221254Y-18707674D01*
X8221254Y-18707674D02*
X8240301Y-18698150D01*
X8240301Y-18698150D02*
X8268873Y-18698150D01*
X8268873Y-18698150D02*
X8287920Y-18707674D01*
X8364111Y-18907674D02*
X8373635Y-18898150D01*
X8373635Y-18898150D02*
X8392682Y-18869579D01*
X8392682Y-18869579D02*
X8402206Y-18850531D01*
X8402206Y-18850531D02*
X8411730Y-18821960D01*
X8411730Y-18821960D02*
X8421254Y-18774341D01*
X8421254Y-18774341D02*
X8421254Y-18736246D01*
X8421254Y-18736246D02*
X8411730Y-18688627D01*
X8411730Y-18688627D02*
X8402206Y-18660055D01*
X8402206Y-18660055D02*
X8392682Y-18641008D01*
X8392682Y-18641008D02*
X8373635Y-18612436D01*
X8373635Y-18612436D02*
X8364111Y-18602912D01*
D18*
X1860000Y-18949000D02*
X1970000Y-19059000D01*
X1970000Y-18949000D02*
X1860000Y-19059000D01*
X1915000Y-18949000D02*
X1915000Y-19059000D01*
X1860000Y-19004000D02*
X1970000Y-19004000D01*
D11*
X2335539Y-19095484D02*
X2221253Y-19095484D01*
X2278396Y-19095484D02*
X2278396Y-18895484D01*
X2278396Y-18895484D02*
X2259348Y-18924055D01*
X2259348Y-18924055D02*
X2240301Y-18943103D01*
X2240301Y-18943103D02*
X2221253Y-18952627D01*
X2421253Y-19076436D02*
X2430777Y-19085960D01*
X2430777Y-19085960D02*
X2421253Y-19095484D01*
X2421253Y-19095484D02*
X2411729Y-19085960D01*
X2411729Y-19085960D02*
X2421253Y-19076436D01*
X2421253Y-19076436D02*
X2421253Y-19095484D01*
X2621253Y-19095484D02*
X2506967Y-19095484D01*
X2564110Y-19095484D02*
X2564110Y-18895484D01*
X2564110Y-18895484D02*
X2545063Y-18924055D01*
X2545063Y-18924055D02*
X2526015Y-18943103D01*
X2526015Y-18943103D02*
X2506967Y-18952627D01*
X2745063Y-18895484D02*
X2764110Y-18895484D01*
X2764110Y-18895484D02*
X2783158Y-18905008D01*
X2783158Y-18905008D02*
X2792682Y-18914531D01*
X2792682Y-18914531D02*
X2802205Y-18933579D01*
X2802205Y-18933579D02*
X2811729Y-18971674D01*
X2811729Y-18971674D02*
X2811729Y-19019293D01*
X2811729Y-19019293D02*
X2802205Y-19057389D01*
X2802205Y-19057389D02*
X2792682Y-19076436D01*
X2792682Y-19076436D02*
X2783158Y-19085960D01*
X2783158Y-19085960D02*
X2764110Y-19095484D01*
X2764110Y-19095484D02*
X2745063Y-19095484D01*
X2745063Y-19095484D02*
X2726015Y-19085960D01*
X2726015Y-19085960D02*
X2716491Y-19076436D01*
X2716491Y-19076436D02*
X2706967Y-19057389D01*
X2706967Y-19057389D02*
X2697444Y-19019293D01*
X2697444Y-19019293D02*
X2697444Y-18971674D01*
X2697444Y-18971674D02*
X2706967Y-18933579D01*
X2706967Y-18933579D02*
X2716491Y-18914531D01*
X2716491Y-18914531D02*
X2726015Y-18905008D01*
X2726015Y-18905008D02*
X2745063Y-18895484D01*
X2935539Y-18895484D02*
X2954586Y-18895484D01*
X2954586Y-18895484D02*
X2973634Y-18905008D01*
X2973634Y-18905008D02*
X2983158Y-18914531D01*
X2983158Y-18914531D02*
X2992682Y-18933579D01*
X2992682Y-18933579D02*
X3002205Y-18971674D01*
X3002205Y-18971674D02*
X3002205Y-19019293D01*
X3002205Y-19019293D02*
X2992682Y-19057389D01*
X2992682Y-19057389D02*
X2983158Y-19076436D01*
X2983158Y-19076436D02*
X2973634Y-19085960D01*
X2973634Y-19085960D02*
X2954586Y-19095484D01*
X2954586Y-19095484D02*
X2935539Y-19095484D01*
X2935539Y-19095484D02*
X2916491Y-19085960D01*
X2916491Y-19085960D02*
X2906967Y-19076436D01*
X2906967Y-19076436D02*
X2897443Y-19057389D01*
X2897443Y-19057389D02*
X2887920Y-19019293D01*
X2887920Y-19019293D02*
X2887920Y-18971674D01*
X2887920Y-18971674D02*
X2897443Y-18933579D01*
X2897443Y-18933579D02*
X2906967Y-18914531D01*
X2906967Y-18914531D02*
X2916491Y-18905008D01*
X2916491Y-18905008D02*
X2935539Y-18895484D01*
X3087920Y-19095484D02*
X3087920Y-18962150D01*
X3087920Y-18981198D02*
X3097443Y-18971674D01*
X3097443Y-18971674D02*
X3116491Y-18962150D01*
X3116491Y-18962150D02*
X3145063Y-18962150D01*
X3145063Y-18962150D02*
X3164110Y-18971674D01*
X3164110Y-18971674D02*
X3173634Y-18990722D01*
X3173634Y-18990722D02*
X3173634Y-19095484D01*
X3173634Y-18990722D02*
X3183158Y-18971674D01*
X3183158Y-18971674D02*
X3202205Y-18962150D01*
X3202205Y-18962150D02*
X3230777Y-18962150D01*
X3230777Y-18962150D02*
X3249824Y-18971674D01*
X3249824Y-18971674D02*
X3259348Y-18990722D01*
X3259348Y-18990722D02*
X3259348Y-19095484D01*
X3354586Y-19095484D02*
X3354586Y-18962150D01*
X3354586Y-18981198D02*
X3364110Y-18971674D01*
X3364110Y-18971674D02*
X3383158Y-18962150D01*
X3383158Y-18962150D02*
X3411729Y-18962150D01*
X3411729Y-18962150D02*
X3430777Y-18971674D01*
X3430777Y-18971674D02*
X3440301Y-18990722D01*
X3440301Y-18990722D02*
X3440301Y-19095484D01*
X3440301Y-18990722D02*
X3449824Y-18971674D01*
X3449824Y-18971674D02*
X3468872Y-18962150D01*
X3468872Y-18962150D02*
X3497443Y-18962150D01*
X3497443Y-18962150D02*
X3516491Y-18971674D01*
X3516491Y-18971674D02*
X3526015Y-18990722D01*
X3526015Y-18990722D02*
X3526015Y-19095484D01*
X3916491Y-18885960D02*
X3745063Y-19143103D01*
X4173634Y-18895484D02*
X4192682Y-18895484D01*
X4192682Y-18895484D02*
X4211729Y-18905008D01*
X4211729Y-18905008D02*
X4221253Y-18914531D01*
X4221253Y-18914531D02*
X4230777Y-18933579D01*
X4230777Y-18933579D02*
X4240301Y-18971674D01*
X4240301Y-18971674D02*
X4240301Y-19019293D01*
X4240301Y-19019293D02*
X4230777Y-19057389D01*
X4230777Y-19057389D02*
X4221253Y-19076436D01*
X4221253Y-19076436D02*
X4211729Y-19085960D01*
X4211729Y-19085960D02*
X4192682Y-19095484D01*
X4192682Y-19095484D02*
X4173634Y-19095484D01*
X4173634Y-19095484D02*
X4154586Y-19085960D01*
X4154586Y-19085960D02*
X4145063Y-19076436D01*
X4145063Y-19076436D02*
X4135539Y-19057389D01*
X4135539Y-19057389D02*
X4126015Y-19019293D01*
X4126015Y-19019293D02*
X4126015Y-18971674D01*
X4126015Y-18971674D02*
X4135539Y-18933579D01*
X4135539Y-18933579D02*
X4145063Y-18914531D01*
X4145063Y-18914531D02*
X4154586Y-18905008D01*
X4154586Y-18905008D02*
X4173634Y-18895484D01*
X4326015Y-19076436D02*
X4335539Y-19085960D01*
X4335539Y-19085960D02*
X4326015Y-19095484D01*
X4326015Y-19095484D02*
X4316491Y-19085960D01*
X4316491Y-19085960D02*
X4326015Y-19076436D01*
X4326015Y-19076436D02*
X4326015Y-19095484D01*
X4459348Y-18895484D02*
X4478396Y-18895484D01*
X4478396Y-18895484D02*
X4497444Y-18905008D01*
X4497444Y-18905008D02*
X4506968Y-18914531D01*
X4506968Y-18914531D02*
X4516491Y-18933579D01*
X4516491Y-18933579D02*
X4526015Y-18971674D01*
X4526015Y-18971674D02*
X4526015Y-19019293D01*
X4526015Y-19019293D02*
X4516491Y-19057389D01*
X4516491Y-19057389D02*
X4506968Y-19076436D01*
X4506968Y-19076436D02*
X4497444Y-19085960D01*
X4497444Y-19085960D02*
X4478396Y-19095484D01*
X4478396Y-19095484D02*
X4459348Y-19095484D01*
X4459348Y-19095484D02*
X4440301Y-19085960D01*
X4440301Y-19085960D02*
X4430777Y-19076436D01*
X4430777Y-19076436D02*
X4421253Y-19057389D01*
X4421253Y-19057389D02*
X4411729Y-19019293D01*
X4411729Y-19019293D02*
X4411729Y-18971674D01*
X4411729Y-18971674D02*
X4421253Y-18933579D01*
X4421253Y-18933579D02*
X4430777Y-18914531D01*
X4430777Y-18914531D02*
X4440301Y-18905008D01*
X4440301Y-18905008D02*
X4459348Y-18895484D01*
X4697444Y-18962150D02*
X4697444Y-19095484D01*
X4649825Y-18885960D02*
X4602206Y-19028817D01*
X4602206Y-19028817D02*
X4726015Y-19028817D01*
X4783158Y-18895484D02*
X4906968Y-18895484D01*
X4906968Y-18895484D02*
X4840301Y-18971674D01*
X4840301Y-18971674D02*
X4868872Y-18971674D01*
X4868872Y-18971674D02*
X4887920Y-18981198D01*
X4887920Y-18981198D02*
X4897444Y-18990722D01*
X4897444Y-18990722D02*
X4906968Y-19009770D01*
X4906968Y-19009770D02*
X4906968Y-19057389D01*
X4906968Y-19057389D02*
X4897444Y-19076436D01*
X4897444Y-19076436D02*
X4887920Y-19085960D01*
X4887920Y-19085960D02*
X4868872Y-19095484D01*
X4868872Y-19095484D02*
X4811729Y-19095484D01*
X4811729Y-19095484D02*
X4792682Y-19085960D01*
X4792682Y-19085960D02*
X4783158Y-19076436D01*
X4973634Y-18895484D02*
X5097444Y-18895484D01*
X5097444Y-18895484D02*
X5030777Y-18971674D01*
X5030777Y-18971674D02*
X5059349Y-18971674D01*
X5059349Y-18971674D02*
X5078396Y-18981198D01*
X5078396Y-18981198D02*
X5087920Y-18990722D01*
X5087920Y-18990722D02*
X5097444Y-19009770D01*
X5097444Y-19009770D02*
X5097444Y-19057389D01*
X5097444Y-19057389D02*
X5087920Y-19076436D01*
X5087920Y-19076436D02*
X5078396Y-19085960D01*
X5078396Y-19085960D02*
X5059349Y-19095484D01*
X5059349Y-19095484D02*
X5002206Y-19095484D01*
X5002206Y-19095484D02*
X4983158Y-19085960D01*
X4983158Y-19085960D02*
X4973634Y-19076436D01*
X5173634Y-18895484D02*
X5173634Y-18933579D01*
X5249825Y-18895484D02*
X5249825Y-18933579D01*
X5545063Y-19171674D02*
X5535539Y-19162150D01*
X5535539Y-19162150D02*
X5516491Y-19133579D01*
X5516491Y-19133579D02*
X5506968Y-19114531D01*
X5506968Y-19114531D02*
X5497444Y-19085960D01*
X5497444Y-19085960D02*
X5487920Y-19038341D01*
X5487920Y-19038341D02*
X5487920Y-19000246D01*
X5487920Y-19000246D02*
X5497444Y-18952627D01*
X5497444Y-18952627D02*
X5506968Y-18924055D01*
X5506968Y-18924055D02*
X5516491Y-18905008D01*
X5516491Y-18905008D02*
X5535539Y-18876436D01*
X5535539Y-18876436D02*
X5545063Y-18866912D01*
X5611729Y-18914531D02*
X5621253Y-18905008D01*
X5621253Y-18905008D02*
X5640301Y-18895484D01*
X5640301Y-18895484D02*
X5687920Y-18895484D01*
X5687920Y-18895484D02*
X5706968Y-18905008D01*
X5706968Y-18905008D02*
X5716491Y-18914531D01*
X5716491Y-18914531D02*
X5726015Y-18933579D01*
X5726015Y-18933579D02*
X5726015Y-18952627D01*
X5726015Y-18952627D02*
X5716491Y-18981198D01*
X5716491Y-18981198D02*
X5602206Y-19095484D01*
X5602206Y-19095484D02*
X5726015Y-19095484D01*
X5849825Y-18895484D02*
X5868872Y-18895484D01*
X5868872Y-18895484D02*
X5887920Y-18905008D01*
X5887920Y-18905008D02*
X5897444Y-18914531D01*
X5897444Y-18914531D02*
X5906968Y-18933579D01*
X5906968Y-18933579D02*
X5916491Y-18971674D01*
X5916491Y-18971674D02*
X5916491Y-19019293D01*
X5916491Y-19019293D02*
X5906968Y-19057389D01*
X5906968Y-19057389D02*
X5897444Y-19076436D01*
X5897444Y-19076436D02*
X5887920Y-19085960D01*
X5887920Y-19085960D02*
X5868872Y-19095484D01*
X5868872Y-19095484D02*
X5849825Y-19095484D01*
X5849825Y-19095484D02*
X5830777Y-19085960D01*
X5830777Y-19085960D02*
X5821253Y-19076436D01*
X5821253Y-19076436D02*
X5811729Y-19057389D01*
X5811729Y-19057389D02*
X5802206Y-19019293D01*
X5802206Y-19019293D02*
X5802206Y-18971674D01*
X5802206Y-18971674D02*
X5811729Y-18933579D01*
X5811729Y-18933579D02*
X5821253Y-18914531D01*
X5821253Y-18914531D02*
X5830777Y-18905008D01*
X5830777Y-18905008D02*
X5849825Y-18895484D01*
X6154587Y-19095484D02*
X6154587Y-18895484D01*
X6240301Y-19095484D02*
X6240301Y-18990722D01*
X6240301Y-18990722D02*
X6230777Y-18971674D01*
X6230777Y-18971674D02*
X6211730Y-18962150D01*
X6211730Y-18962150D02*
X6183158Y-18962150D01*
X6183158Y-18962150D02*
X6164110Y-18971674D01*
X6164110Y-18971674D02*
X6154587Y-18981198D01*
X6364110Y-19095484D02*
X6345063Y-19085960D01*
X6345063Y-19085960D02*
X6335539Y-19076436D01*
X6335539Y-19076436D02*
X6326015Y-19057389D01*
X6326015Y-19057389D02*
X6326015Y-19000246D01*
X6326015Y-19000246D02*
X6335539Y-18981198D01*
X6335539Y-18981198D02*
X6345063Y-18971674D01*
X6345063Y-18971674D02*
X6364110Y-18962150D01*
X6364110Y-18962150D02*
X6392682Y-18962150D01*
X6392682Y-18962150D02*
X6411730Y-18971674D01*
X6411730Y-18971674D02*
X6421253Y-18981198D01*
X6421253Y-18981198D02*
X6430777Y-19000246D01*
X6430777Y-19000246D02*
X6430777Y-19057389D01*
X6430777Y-19057389D02*
X6421253Y-19076436D01*
X6421253Y-19076436D02*
X6411730Y-19085960D01*
X6411730Y-19085960D02*
X6392682Y-19095484D01*
X6392682Y-19095484D02*
X6364110Y-19095484D01*
X6545063Y-19095484D02*
X6526015Y-19085960D01*
X6526015Y-19085960D02*
X6516491Y-19066912D01*
X6516491Y-19066912D02*
X6516491Y-18895484D01*
X6697444Y-19085960D02*
X6678396Y-19095484D01*
X6678396Y-19095484D02*
X6640301Y-19095484D01*
X6640301Y-19095484D02*
X6621253Y-19085960D01*
X6621253Y-19085960D02*
X6611730Y-19066912D01*
X6611730Y-19066912D02*
X6611730Y-18990722D01*
X6611730Y-18990722D02*
X6621253Y-18971674D01*
X6621253Y-18971674D02*
X6640301Y-18962150D01*
X6640301Y-18962150D02*
X6678396Y-18962150D01*
X6678396Y-18962150D02*
X6697444Y-18971674D01*
X6697444Y-18971674D02*
X6706968Y-18990722D01*
X6706968Y-18990722D02*
X6706968Y-19009770D01*
X6706968Y-19009770D02*
X6611730Y-19028817D01*
X6783158Y-19085960D02*
X6802206Y-19095484D01*
X6802206Y-19095484D02*
X6840301Y-19095484D01*
X6840301Y-19095484D02*
X6859349Y-19085960D01*
X6859349Y-19085960D02*
X6868872Y-19066912D01*
X6868872Y-19066912D02*
X6868872Y-19057389D01*
X6868872Y-19057389D02*
X6859349Y-19038341D01*
X6859349Y-19038341D02*
X6840301Y-19028817D01*
X6840301Y-19028817D02*
X6811730Y-19028817D01*
X6811730Y-19028817D02*
X6792682Y-19019293D01*
X6792682Y-19019293D02*
X6783158Y-19000246D01*
X6783158Y-19000246D02*
X6783158Y-18990722D01*
X6783158Y-18990722D02*
X6792682Y-18971674D01*
X6792682Y-18971674D02*
X6811730Y-18962150D01*
X6811730Y-18962150D02*
X6840301Y-18962150D01*
X6840301Y-18962150D02*
X6859349Y-18971674D01*
X6935539Y-19171674D02*
X6945063Y-19162150D01*
X6945063Y-19162150D02*
X6964111Y-19133579D01*
X6964111Y-19133579D02*
X6973634Y-19114531D01*
X6973634Y-19114531D02*
X6983158Y-19085960D01*
X6983158Y-19085960D02*
X6992682Y-19038341D01*
X6992682Y-19038341D02*
X6992682Y-19000246D01*
X6992682Y-19000246D02*
X6983158Y-18952627D01*
X6983158Y-18952627D02*
X6973634Y-18924055D01*
X6973634Y-18924055D02*
X6964111Y-18905008D01*
X6964111Y-18905008D02*
X6945063Y-18876436D01*
X6945063Y-18876436D02*
X6935539Y-18866912D01*
D19*
X1843000Y-19204500D02*
X1970000Y-19331500D01*
X1970000Y-19204500D02*
X1843000Y-19331500D01*
X1951402Y-19312902D02*
X1951402Y-19223098D01*
X1861598Y-19223098D01*
X1861598Y-19312902D01*
X1951402Y-19312902D01*
D11*
X2335539Y-19359484D02*
X2221253Y-19359484D01*
X2278396Y-19359484D02*
X2278396Y-19159484D01*
X2278396Y-19159484D02*
X2259348Y-19188055D01*
X2259348Y-19188055D02*
X2240301Y-19207103D01*
X2240301Y-19207103D02*
X2221253Y-19216627D01*
X2421253Y-19340436D02*
X2430777Y-19349960D01*
X2430777Y-19349960D02*
X2421253Y-19359484D01*
X2421253Y-19359484D02*
X2411729Y-19349960D01*
X2411729Y-19349960D02*
X2421253Y-19340436D01*
X2421253Y-19340436D02*
X2421253Y-19359484D01*
X2506967Y-19178531D02*
X2516491Y-19169008D01*
X2516491Y-19169008D02*
X2535539Y-19159484D01*
X2535539Y-19159484D02*
X2583158Y-19159484D01*
X2583158Y-19159484D02*
X2602205Y-19169008D01*
X2602205Y-19169008D02*
X2611729Y-19178531D01*
X2611729Y-19178531D02*
X2621253Y-19197579D01*
X2621253Y-19197579D02*
X2621253Y-19216627D01*
X2621253Y-19216627D02*
X2611729Y-19245198D01*
X2611729Y-19245198D02*
X2497444Y-19359484D01*
X2497444Y-19359484D02*
X2621253Y-19359484D01*
X2687920Y-19159484D02*
X2821253Y-19159484D01*
X2821253Y-19159484D02*
X2735539Y-19359484D01*
X2935539Y-19159484D02*
X2954586Y-19159484D01*
X2954586Y-19159484D02*
X2973634Y-19169008D01*
X2973634Y-19169008D02*
X2983158Y-19178531D01*
X2983158Y-19178531D02*
X2992682Y-19197579D01*
X2992682Y-19197579D02*
X3002205Y-19235674D01*
X3002205Y-19235674D02*
X3002205Y-19283293D01*
X3002205Y-19283293D02*
X2992682Y-19321389D01*
X2992682Y-19321389D02*
X2983158Y-19340436D01*
X2983158Y-19340436D02*
X2973634Y-19349960D01*
X2973634Y-19349960D02*
X2954586Y-19359484D01*
X2954586Y-19359484D02*
X2935539Y-19359484D01*
X2935539Y-19359484D02*
X2916491Y-19349960D01*
X2916491Y-19349960D02*
X2906967Y-19340436D01*
X2906967Y-19340436D02*
X2897443Y-19321389D01*
X2897443Y-19321389D02*
X2887920Y-19283293D01*
X2887920Y-19283293D02*
X2887920Y-19235674D01*
X2887920Y-19235674D02*
X2897443Y-19197579D01*
X2897443Y-19197579D02*
X2906967Y-19178531D01*
X2906967Y-19178531D02*
X2916491Y-19169008D01*
X2916491Y-19169008D02*
X2935539Y-19159484D01*
X3087920Y-19359484D02*
X3087920Y-19226150D01*
X3087920Y-19245198D02*
X3097443Y-19235674D01*
X3097443Y-19235674D02*
X3116491Y-19226150D01*
X3116491Y-19226150D02*
X3145063Y-19226150D01*
X3145063Y-19226150D02*
X3164110Y-19235674D01*
X3164110Y-19235674D02*
X3173634Y-19254722D01*
X3173634Y-19254722D02*
X3173634Y-19359484D01*
X3173634Y-19254722D02*
X3183158Y-19235674D01*
X3183158Y-19235674D02*
X3202205Y-19226150D01*
X3202205Y-19226150D02*
X3230777Y-19226150D01*
X3230777Y-19226150D02*
X3249824Y-19235674D01*
X3249824Y-19235674D02*
X3259348Y-19254722D01*
X3259348Y-19254722D02*
X3259348Y-19359484D01*
X3354586Y-19359484D02*
X3354586Y-19226150D01*
X3354586Y-19245198D02*
X3364110Y-19235674D01*
X3364110Y-19235674D02*
X3383158Y-19226150D01*
X3383158Y-19226150D02*
X3411729Y-19226150D01*
X3411729Y-19226150D02*
X3430777Y-19235674D01*
X3430777Y-19235674D02*
X3440301Y-19254722D01*
X3440301Y-19254722D02*
X3440301Y-19359484D01*
X3440301Y-19254722D02*
X3449824Y-19235674D01*
X3449824Y-19235674D02*
X3468872Y-19226150D01*
X3468872Y-19226150D02*
X3497443Y-19226150D01*
X3497443Y-19226150D02*
X3516491Y-19235674D01*
X3516491Y-19235674D02*
X3526015Y-19254722D01*
X3526015Y-19254722D02*
X3526015Y-19359484D01*
X3916491Y-19149960D02*
X3745063Y-19407103D01*
X4173634Y-19159484D02*
X4192682Y-19159484D01*
X4192682Y-19159484D02*
X4211729Y-19169008D01*
X4211729Y-19169008D02*
X4221253Y-19178531D01*
X4221253Y-19178531D02*
X4230777Y-19197579D01*
X4230777Y-19197579D02*
X4240301Y-19235674D01*
X4240301Y-19235674D02*
X4240301Y-19283293D01*
X4240301Y-19283293D02*
X4230777Y-19321389D01*
X4230777Y-19321389D02*
X4221253Y-19340436D01*
X4221253Y-19340436D02*
X4211729Y-19349960D01*
X4211729Y-19349960D02*
X4192682Y-19359484D01*
X4192682Y-19359484D02*
X4173634Y-19359484D01*
X4173634Y-19359484D02*
X4154586Y-19349960D01*
X4154586Y-19349960D02*
X4145063Y-19340436D01*
X4145063Y-19340436D02*
X4135539Y-19321389D01*
X4135539Y-19321389D02*
X4126015Y-19283293D01*
X4126015Y-19283293D02*
X4126015Y-19235674D01*
X4126015Y-19235674D02*
X4135539Y-19197579D01*
X4135539Y-19197579D02*
X4145063Y-19178531D01*
X4145063Y-19178531D02*
X4154586Y-19169008D01*
X4154586Y-19169008D02*
X4173634Y-19159484D01*
X4326015Y-19340436D02*
X4335539Y-19349960D01*
X4335539Y-19349960D02*
X4326015Y-19359484D01*
X4326015Y-19359484D02*
X4316491Y-19349960D01*
X4316491Y-19349960D02*
X4326015Y-19340436D01*
X4326015Y-19340436D02*
X4326015Y-19359484D01*
X4459348Y-19159484D02*
X4478396Y-19159484D01*
X4478396Y-19159484D02*
X4497444Y-19169008D01*
X4497444Y-19169008D02*
X4506968Y-19178531D01*
X4506968Y-19178531D02*
X4516491Y-19197579D01*
X4516491Y-19197579D02*
X4526015Y-19235674D01*
X4526015Y-19235674D02*
X4526015Y-19283293D01*
X4526015Y-19283293D02*
X4516491Y-19321389D01*
X4516491Y-19321389D02*
X4506968Y-19340436D01*
X4506968Y-19340436D02*
X4497444Y-19349960D01*
X4497444Y-19349960D02*
X4478396Y-19359484D01*
X4478396Y-19359484D02*
X4459348Y-19359484D01*
X4459348Y-19359484D02*
X4440301Y-19349960D01*
X4440301Y-19349960D02*
X4430777Y-19340436D01*
X4430777Y-19340436D02*
X4421253Y-19321389D01*
X4421253Y-19321389D02*
X4411729Y-19283293D01*
X4411729Y-19283293D02*
X4411729Y-19235674D01*
X4411729Y-19235674D02*
X4421253Y-19197579D01*
X4421253Y-19197579D02*
X4430777Y-19178531D01*
X4430777Y-19178531D02*
X4440301Y-19169008D01*
X4440301Y-19169008D02*
X4459348Y-19159484D01*
X4706968Y-19159484D02*
X4611729Y-19159484D01*
X4611729Y-19159484D02*
X4602206Y-19254722D01*
X4602206Y-19254722D02*
X4611729Y-19245198D01*
X4611729Y-19245198D02*
X4630777Y-19235674D01*
X4630777Y-19235674D02*
X4678396Y-19235674D01*
X4678396Y-19235674D02*
X4697444Y-19245198D01*
X4697444Y-19245198D02*
X4706968Y-19254722D01*
X4706968Y-19254722D02*
X4716491Y-19273770D01*
X4716491Y-19273770D02*
X4716491Y-19321389D01*
X4716491Y-19321389D02*
X4706968Y-19340436D01*
X4706968Y-19340436D02*
X4697444Y-19349960D01*
X4697444Y-19349960D02*
X4678396Y-19359484D01*
X4678396Y-19359484D02*
X4630777Y-19359484D01*
X4630777Y-19359484D02*
X4611729Y-19349960D01*
X4611729Y-19349960D02*
X4602206Y-19340436D01*
X4840301Y-19159484D02*
X4859349Y-19159484D01*
X4859349Y-19159484D02*
X4878396Y-19169008D01*
X4878396Y-19169008D02*
X4887920Y-19178531D01*
X4887920Y-19178531D02*
X4897444Y-19197579D01*
X4897444Y-19197579D02*
X4906968Y-19235674D01*
X4906968Y-19235674D02*
X4906968Y-19283293D01*
X4906968Y-19283293D02*
X4897444Y-19321389D01*
X4897444Y-19321389D02*
X4887920Y-19340436D01*
X4887920Y-19340436D02*
X4878396Y-19349960D01*
X4878396Y-19349960D02*
X4859349Y-19359484D01*
X4859349Y-19359484D02*
X4840301Y-19359484D01*
X4840301Y-19359484D02*
X4821253Y-19349960D01*
X4821253Y-19349960D02*
X4811729Y-19340436D01*
X4811729Y-19340436D02*
X4802206Y-19321389D01*
X4802206Y-19321389D02*
X4792682Y-19283293D01*
X4792682Y-19283293D02*
X4792682Y-19235674D01*
X4792682Y-19235674D02*
X4802206Y-19197579D01*
X4802206Y-19197579D02*
X4811729Y-19178531D01*
X4811729Y-19178531D02*
X4821253Y-19169008D01*
X4821253Y-19169008D02*
X4840301Y-19159484D01*
X5030777Y-19159484D02*
X5049825Y-19159484D01*
X5049825Y-19159484D02*
X5068872Y-19169008D01*
X5068872Y-19169008D02*
X5078396Y-19178531D01*
X5078396Y-19178531D02*
X5087920Y-19197579D01*
X5087920Y-19197579D02*
X5097444Y-19235674D01*
X5097444Y-19235674D02*
X5097444Y-19283293D01*
X5097444Y-19283293D02*
X5087920Y-19321389D01*
X5087920Y-19321389D02*
X5078396Y-19340436D01*
X5078396Y-19340436D02*
X5068872Y-19349960D01*
X5068872Y-19349960D02*
X5049825Y-19359484D01*
X5049825Y-19359484D02*
X5030777Y-19359484D01*
X5030777Y-19359484D02*
X5011729Y-19349960D01*
X5011729Y-19349960D02*
X5002206Y-19340436D01*
X5002206Y-19340436D02*
X4992682Y-19321389D01*
X4992682Y-19321389D02*
X4983158Y-19283293D01*
X4983158Y-19283293D02*
X4983158Y-19235674D01*
X4983158Y-19235674D02*
X4992682Y-19197579D01*
X4992682Y-19197579D02*
X5002206Y-19178531D01*
X5002206Y-19178531D02*
X5011729Y-19169008D01*
X5011729Y-19169008D02*
X5030777Y-19159484D01*
X5173634Y-19159484D02*
X5173634Y-19197579D01*
X5249825Y-19159484D02*
X5249825Y-19197579D01*
X5545063Y-19435674D02*
X5535539Y-19426150D01*
X5535539Y-19426150D02*
X5516491Y-19397579D01*
X5516491Y-19397579D02*
X5506968Y-19378531D01*
X5506968Y-19378531D02*
X5497444Y-19349960D01*
X5497444Y-19349960D02*
X5487920Y-19302341D01*
X5487920Y-19302341D02*
X5487920Y-19264246D01*
X5487920Y-19264246D02*
X5497444Y-19216627D01*
X5497444Y-19216627D02*
X5506968Y-19188055D01*
X5506968Y-19188055D02*
X5516491Y-19169008D01*
X5516491Y-19169008D02*
X5535539Y-19140436D01*
X5535539Y-19140436D02*
X5545063Y-19130912D01*
X5611729Y-19178531D02*
X5621253Y-19169008D01*
X5621253Y-19169008D02*
X5640301Y-19159484D01*
X5640301Y-19159484D02*
X5687920Y-19159484D01*
X5687920Y-19159484D02*
X5706968Y-19169008D01*
X5706968Y-19169008D02*
X5716491Y-19178531D01*
X5716491Y-19178531D02*
X5726015Y-19197579D01*
X5726015Y-19197579D02*
X5726015Y-19216627D01*
X5726015Y-19216627D02*
X5716491Y-19245198D01*
X5716491Y-19245198D02*
X5602206Y-19359484D01*
X5602206Y-19359484D02*
X5726015Y-19359484D01*
X5840301Y-19245198D02*
X5821253Y-19235674D01*
X5821253Y-19235674D02*
X5811729Y-19226150D01*
X5811729Y-19226150D02*
X5802206Y-19207103D01*
X5802206Y-19207103D02*
X5802206Y-19197579D01*
X5802206Y-19197579D02*
X5811729Y-19178531D01*
X5811729Y-19178531D02*
X5821253Y-19169008D01*
X5821253Y-19169008D02*
X5840301Y-19159484D01*
X5840301Y-19159484D02*
X5878396Y-19159484D01*
X5878396Y-19159484D02*
X5897444Y-19169008D01*
X5897444Y-19169008D02*
X5906968Y-19178531D01*
X5906968Y-19178531D02*
X5916491Y-19197579D01*
X5916491Y-19197579D02*
X5916491Y-19207103D01*
X5916491Y-19207103D02*
X5906968Y-19226150D01*
X5906968Y-19226150D02*
X5897444Y-19235674D01*
X5897444Y-19235674D02*
X5878396Y-19245198D01*
X5878396Y-19245198D02*
X5840301Y-19245198D01*
X5840301Y-19245198D02*
X5821253Y-19254722D01*
X5821253Y-19254722D02*
X5811729Y-19264246D01*
X5811729Y-19264246D02*
X5802206Y-19283293D01*
X5802206Y-19283293D02*
X5802206Y-19321389D01*
X5802206Y-19321389D02*
X5811729Y-19340436D01*
X5811729Y-19340436D02*
X5821253Y-19349960D01*
X5821253Y-19349960D02*
X5840301Y-19359484D01*
X5840301Y-19359484D02*
X5878396Y-19359484D01*
X5878396Y-19359484D02*
X5897444Y-19349960D01*
X5897444Y-19349960D02*
X5906968Y-19340436D01*
X5906968Y-19340436D02*
X5916491Y-19321389D01*
X5916491Y-19321389D02*
X5916491Y-19283293D01*
X5916491Y-19283293D02*
X5906968Y-19264246D01*
X5906968Y-19264246D02*
X5897444Y-19254722D01*
X5897444Y-19254722D02*
X5878396Y-19245198D01*
X6154587Y-19359484D02*
X6154587Y-19159484D01*
X6240301Y-19359484D02*
X6240301Y-19254722D01*
X6240301Y-19254722D02*
X6230777Y-19235674D01*
X6230777Y-19235674D02*
X6211730Y-19226150D01*
X6211730Y-19226150D02*
X6183158Y-19226150D01*
X6183158Y-19226150D02*
X6164110Y-19235674D01*
X6164110Y-19235674D02*
X6154587Y-19245198D01*
X6364110Y-19359484D02*
X6345063Y-19349960D01*
X6345063Y-19349960D02*
X6335539Y-19340436D01*
X6335539Y-19340436D02*
X6326015Y-19321389D01*
X6326015Y-19321389D02*
X6326015Y-19264246D01*
X6326015Y-19264246D02*
X6335539Y-19245198D01*
X6335539Y-19245198D02*
X6345063Y-19235674D01*
X6345063Y-19235674D02*
X6364110Y-19226150D01*
X6364110Y-19226150D02*
X6392682Y-19226150D01*
X6392682Y-19226150D02*
X6411730Y-19235674D01*
X6411730Y-19235674D02*
X6421253Y-19245198D01*
X6421253Y-19245198D02*
X6430777Y-19264246D01*
X6430777Y-19264246D02*
X6430777Y-19321389D01*
X6430777Y-19321389D02*
X6421253Y-19340436D01*
X6421253Y-19340436D02*
X6411730Y-19349960D01*
X6411730Y-19349960D02*
X6392682Y-19359484D01*
X6392682Y-19359484D02*
X6364110Y-19359484D01*
X6545063Y-19359484D02*
X6526015Y-19349960D01*
X6526015Y-19349960D02*
X6516491Y-19330912D01*
X6516491Y-19330912D02*
X6516491Y-19159484D01*
X6697444Y-19349960D02*
X6678396Y-19359484D01*
X6678396Y-19359484D02*
X6640301Y-19359484D01*
X6640301Y-19359484D02*
X6621253Y-19349960D01*
X6621253Y-19349960D02*
X6611730Y-19330912D01*
X6611730Y-19330912D02*
X6611730Y-19254722D01*
X6611730Y-19254722D02*
X6621253Y-19235674D01*
X6621253Y-19235674D02*
X6640301Y-19226150D01*
X6640301Y-19226150D02*
X6678396Y-19226150D01*
X6678396Y-19226150D02*
X6697444Y-19235674D01*
X6697444Y-19235674D02*
X6706968Y-19254722D01*
X6706968Y-19254722D02*
X6706968Y-19273770D01*
X6706968Y-19273770D02*
X6611730Y-19292817D01*
X6783158Y-19349960D02*
X6802206Y-19359484D01*
X6802206Y-19359484D02*
X6840301Y-19359484D01*
X6840301Y-19359484D02*
X6859349Y-19349960D01*
X6859349Y-19349960D02*
X6868872Y-19330912D01*
X6868872Y-19330912D02*
X6868872Y-19321389D01*
X6868872Y-19321389D02*
X6859349Y-19302341D01*
X6859349Y-19302341D02*
X6840301Y-19292817D01*
X6840301Y-19292817D02*
X6811730Y-19292817D01*
X6811730Y-19292817D02*
X6792682Y-19283293D01*
X6792682Y-19283293D02*
X6783158Y-19264246D01*
X6783158Y-19264246D02*
X6783158Y-19254722D01*
X6783158Y-19254722D02*
X6792682Y-19235674D01*
X6792682Y-19235674D02*
X6811730Y-19226150D01*
X6811730Y-19226150D02*
X6840301Y-19226150D01*
X6840301Y-19226150D02*
X6859349Y-19235674D01*
X6935539Y-19435674D02*
X6945063Y-19426150D01*
X6945063Y-19426150D02*
X6964111Y-19397579D01*
X6964111Y-19397579D02*
X6973634Y-19378531D01*
X6973634Y-19378531D02*
X6983158Y-19349960D01*
X6983158Y-19349960D02*
X6992682Y-19302341D01*
X6992682Y-19302341D02*
X6992682Y-19264246D01*
X6992682Y-19264246D02*
X6983158Y-19216627D01*
X6983158Y-19216627D02*
X6973634Y-19188055D01*
X6973634Y-19188055D02*
X6964111Y-19169008D01*
X6964111Y-19169008D02*
X6945063Y-19140436D01*
X6945063Y-19140436D02*
X6935539Y-19130912D01*
M02*
