G04 #@! TF.GenerationSoftware,KiCad,Pcbnew,7.0.8*
G04 #@! TF.CreationDate,2023-10-29T23:59:43-04:00*
G04 #@! TF.ProjectId,SeniorDesign,53656e69-6f72-4446-9573-69676e2e6b69,rev?*
G04 #@! TF.SameCoordinates,Original*
G04 #@! TF.FileFunction,Copper,L1,Top*
G04 #@! TF.FilePolarity,Positive*
%FSLAX46Y46*%
G04 Gerber Fmt 4.6, Leading zero omitted, Abs format (unit mm)*
G04 Created by KiCad (PCBNEW 7.0.8) date 2023-10-29 23:59:43*
%MOMM*%
%LPD*%
G01*
G04 APERTURE LIST*
G04 Aperture macros list*
%AMRoundRect*
0 Rectangle with rounded corners*
0 $1 Rounding radius*
0 $2 $3 $4 $5 $6 $7 $8 $9 X,Y pos of 4 corners*
0 Add a 4 corners polygon primitive as box body*
4,1,4,$2,$3,$4,$5,$6,$7,$8,$9,$2,$3,0*
0 Add four circle primitives for the rounded corners*
1,1,$1+$1,$2,$3*
1,1,$1+$1,$4,$5*
1,1,$1+$1,$6,$7*
1,1,$1+$1,$8,$9*
0 Add four rect primitives between the rounded corners*
20,1,$1+$1,$2,$3,$4,$5,0*
20,1,$1+$1,$4,$5,$6,$7,0*
20,1,$1+$1,$6,$7,$8,$9,0*
20,1,$1+$1,$8,$9,$2,$3,0*%
G04 Aperture macros list end*
G04 #@! TA.AperFunction,SMDPad,CuDef*
%ADD10RoundRect,0.200000X0.275000X-0.200000X0.275000X0.200000X-0.275000X0.200000X-0.275000X-0.200000X0*%
G04 #@! TD*
G04 #@! TA.AperFunction,SMDPad,CuDef*
%ADD11RoundRect,0.225000X0.250000X-0.225000X0.250000X0.225000X-0.250000X0.225000X-0.250000X-0.225000X0*%
G04 #@! TD*
G04 #@! TA.AperFunction,SMDPad,CuDef*
%ADD12RoundRect,0.200000X-0.200000X-0.275000X0.200000X-0.275000X0.200000X0.275000X-0.200000X0.275000X0*%
G04 #@! TD*
G04 #@! TA.AperFunction,SMDPad,CuDef*
%ADD13RoundRect,0.225000X-0.225000X-0.250000X0.225000X-0.250000X0.225000X0.250000X-0.225000X0.250000X0*%
G04 #@! TD*
G04 #@! TA.AperFunction,ComponentPad*
%ADD14R,1.905000X2.000000*%
G04 #@! TD*
G04 #@! TA.AperFunction,ComponentPad*
%ADD15O,1.905000X2.000000*%
G04 #@! TD*
G04 #@! TA.AperFunction,SMDPad,CuDef*
%ADD16RoundRect,0.250000X0.550000X-1.050000X0.550000X1.050000X-0.550000X1.050000X-0.550000X-1.050000X0*%
G04 #@! TD*
G04 #@! TA.AperFunction,ComponentPad*
%ADD17C,2.032000*%
G04 #@! TD*
G04 #@! TA.AperFunction,ComponentPad*
%ADD18R,1.130000X1.130000*%
G04 #@! TD*
G04 #@! TA.AperFunction,ComponentPad*
%ADD19C,1.130000*%
G04 #@! TD*
G04 #@! TA.AperFunction,SMDPad,CuDef*
%ADD20R,0.558800X2.184400*%
G04 #@! TD*
G04 #@! TA.AperFunction,SMDPad,CuDef*
%ADD21RoundRect,0.250000X-1.050000X-0.550000X1.050000X-0.550000X1.050000X0.550000X-1.050000X0.550000X0*%
G04 #@! TD*
G04 #@! TA.AperFunction,SMDPad,CuDef*
%ADD22RoundRect,0.200000X0.200000X0.275000X-0.200000X0.275000X-0.200000X-0.275000X0.200000X-0.275000X0*%
G04 #@! TD*
G04 #@! TA.AperFunction,SMDPad,CuDef*
%ADD23RoundRect,0.225000X0.225000X0.250000X-0.225000X0.250000X-0.225000X-0.250000X0.225000X-0.250000X0*%
G04 #@! TD*
G04 #@! TA.AperFunction,SMDPad,CuDef*
%ADD24RoundRect,0.200000X-0.275000X0.200000X-0.275000X-0.200000X0.275000X-0.200000X0.275000X0.200000X0*%
G04 #@! TD*
G04 #@! TA.AperFunction,SMDPad,CuDef*
%ADD25R,1.000000X0.800000*%
G04 #@! TD*
G04 #@! TA.AperFunction,SMDPad,CuDef*
%ADD26R,0.700000X1.500000*%
G04 #@! TD*
G04 #@! TA.AperFunction,ComponentPad*
%ADD27R,2.200000X2.200000*%
G04 #@! TD*
G04 #@! TA.AperFunction,ComponentPad*
%ADD28O,2.200000X2.200000*%
G04 #@! TD*
G04 #@! TA.AperFunction,ComponentPad*
%ADD29R,1.080000X1.080000*%
G04 #@! TD*
G04 #@! TA.AperFunction,ComponentPad*
%ADD30C,1.080000*%
G04 #@! TD*
G04 #@! TA.AperFunction,SMDPad,CuDef*
%ADD31R,1.200000X1.400000*%
G04 #@! TD*
G04 #@! TA.AperFunction,SMDPad,CuDef*
%ADD32RoundRect,0.225000X-0.250000X0.225000X-0.250000X-0.225000X0.250000X-0.225000X0.250000X0.225000X0*%
G04 #@! TD*
G04 #@! TA.AperFunction,SMDPad,CuDef*
%ADD33R,2.184400X0.558800*%
G04 #@! TD*
G04 #@! TA.AperFunction,SMDPad,CuDef*
%ADD34R,1.300000X0.450000*%
G04 #@! TD*
G04 #@! TA.AperFunction,ComponentPad*
%ADD35O,1.800000X1.150000*%
G04 #@! TD*
G04 #@! TA.AperFunction,ComponentPad*
%ADD36O,2.000000X1.450000*%
G04 #@! TD*
G04 #@! TA.AperFunction,SMDPad,CuDef*
%ADD37RoundRect,0.218750X-0.256250X0.218750X-0.256250X-0.218750X0.256250X-0.218750X0.256250X0.218750X0*%
G04 #@! TD*
G04 #@! TA.AperFunction,SMDPad,CuDef*
%ADD38RoundRect,0.075000X-0.662500X-0.075000X0.662500X-0.075000X0.662500X0.075000X-0.662500X0.075000X0*%
G04 #@! TD*
G04 #@! TA.AperFunction,SMDPad,CuDef*
%ADD39RoundRect,0.075000X-0.075000X-0.662500X0.075000X-0.662500X0.075000X0.662500X-0.075000X0.662500X0*%
G04 #@! TD*
G04 #@! TA.AperFunction,ViaPad*
%ADD40C,0.700000*%
G04 #@! TD*
G04 #@! TA.AperFunction,ViaPad*
%ADD41C,0.800000*%
G04 #@! TD*
G04 #@! TA.AperFunction,Conductor*
%ADD42C,0.500000*%
G04 #@! TD*
G04 #@! TA.AperFunction,Conductor*
%ADD43C,0.300000*%
G04 #@! TD*
G04 APERTURE END LIST*
D10*
X59275000Y-111075000D03*
X59275000Y-109425000D03*
D11*
X61025000Y-138525000D03*
X61025000Y-136975000D03*
D12*
X64450000Y-105750000D03*
X66100000Y-105750000D03*
D13*
X46250000Y-90500000D03*
X47800000Y-90500000D03*
D11*
X64250000Y-81525000D03*
X64250000Y-79975000D03*
D14*
X60985000Y-43445000D03*
D15*
X63525000Y-43445000D03*
X66065000Y-43445000D03*
D16*
X53500000Y-44050000D03*
X53500000Y-40450000D03*
D17*
X27025000Y-121000000D03*
X27025000Y-126000000D03*
X27025000Y-131000001D03*
X27025000Y-136000001D03*
X27025000Y-141000001D03*
X27025000Y-146000001D03*
X27025000Y-151000001D03*
D18*
X48335000Y-80280000D03*
D19*
X45795000Y-80280000D03*
X43255000Y-80280000D03*
X40715000Y-80280000D03*
X40715000Y-88220000D03*
X43255000Y-88220000D03*
X45795000Y-88220000D03*
X48335000Y-88220000D03*
D20*
X40580000Y-73112200D03*
X41850000Y-73112200D03*
X43120000Y-73112200D03*
X44390000Y-73112200D03*
X45660000Y-73112200D03*
X46930000Y-73112200D03*
X48200000Y-73112200D03*
X49470000Y-73112200D03*
X49470000Y-68387800D03*
X48200000Y-68387800D03*
X46930000Y-68387800D03*
X45660000Y-68387800D03*
X44390000Y-68387800D03*
X43120000Y-68387800D03*
X41850000Y-68387800D03*
X40580000Y-68387800D03*
D18*
X64805000Y-125940000D03*
D19*
X64805000Y-128480000D03*
X64805000Y-131020000D03*
X64805000Y-133560000D03*
X72745000Y-133560000D03*
X72745000Y-131020000D03*
X72745000Y-128480000D03*
X72745000Y-125940000D03*
D21*
X61725000Y-49250000D03*
X65325000Y-49250000D03*
D11*
X75025000Y-128525000D03*
X75025000Y-126975000D03*
D18*
X50805000Y-120940000D03*
D19*
X50805000Y-123480000D03*
X50805000Y-126020000D03*
X50805000Y-128560000D03*
X58745000Y-128560000D03*
X58745000Y-126020000D03*
X58745000Y-123480000D03*
X58745000Y-120940000D03*
D13*
X57725000Y-76250000D03*
X59275000Y-76250000D03*
D10*
X72500000Y-69325000D03*
X72500000Y-67675000D03*
D22*
X72825000Y-37500000D03*
X71175000Y-37500000D03*
D11*
X47025000Y-133525000D03*
X47025000Y-131975000D03*
D22*
X72825000Y-47500000D03*
X71175000Y-47500000D03*
D13*
X45500000Y-42500000D03*
X47050000Y-42500000D03*
D23*
X74800000Y-85500000D03*
X73250000Y-85500000D03*
D24*
X43275000Y-90425000D03*
X43275000Y-92075000D03*
D25*
X38400000Y-22255000D03*
X38400000Y-20045000D03*
X31100000Y-22255000D03*
X31100000Y-20045000D03*
D26*
X37000000Y-22905000D03*
X34000000Y-22905000D03*
X32500000Y-22905000D03*
D18*
X36805000Y-115940000D03*
D19*
X36805000Y-118480000D03*
X36805000Y-121020000D03*
X36805000Y-123560000D03*
X44745000Y-123560000D03*
X44745000Y-121020000D03*
X44745000Y-118480000D03*
X44745000Y-115940000D03*
D11*
X71750000Y-96225000D03*
X71750000Y-97775000D03*
D18*
X61555000Y-95190000D03*
D19*
X61555000Y-97730000D03*
X61555000Y-100270000D03*
X61555000Y-102810000D03*
X69495000Y-102810000D03*
X69495000Y-100270000D03*
X69495000Y-97730000D03*
X69495000Y-95190000D03*
D14*
X45485000Y-52195000D03*
D15*
X48025000Y-52195000D03*
X50565000Y-52195000D03*
D27*
X53445000Y-36250000D03*
D28*
X63605000Y-36250000D03*
D18*
X50805000Y-135940000D03*
D19*
X50805000Y-138480000D03*
X50805000Y-141020000D03*
X50805000Y-143560000D03*
X58745000Y-143560000D03*
X58745000Y-141020000D03*
X58745000Y-138480000D03*
X58745000Y-135940000D03*
D29*
X77500000Y-40020000D03*
D30*
X78770000Y-38750000D03*
X77500000Y-37480000D03*
D27*
X76945000Y-89000000D03*
D28*
X87105000Y-89000000D03*
D22*
X43350000Y-76000000D03*
X41700000Y-76000000D03*
D10*
X76500000Y-69325000D03*
X76500000Y-67675000D03*
D18*
X36805000Y-130940000D03*
D19*
X36805000Y-133480000D03*
X36805000Y-136020000D03*
X36805000Y-138560000D03*
X44745000Y-138560000D03*
X44745000Y-136020000D03*
X44745000Y-133480000D03*
X44745000Y-130940000D03*
D12*
X55675000Y-91500000D03*
X57325000Y-91500000D03*
D31*
X57675000Y-78400000D03*
X57675000Y-80600000D03*
X59375000Y-80600000D03*
X59375000Y-78400000D03*
D24*
X55250000Y-53675000D03*
X55250000Y-55325000D03*
D17*
X47308399Y-26250000D03*
X52308399Y-26250000D03*
X57308400Y-26250000D03*
X62308400Y-26250000D03*
X67308400Y-26250000D03*
X72308400Y-26250000D03*
X77308400Y-26250000D03*
D29*
X77500000Y-60020000D03*
D30*
X78770000Y-58750000D03*
X77500000Y-57480000D03*
D10*
X74500000Y-69325000D03*
X74500000Y-67675000D03*
D32*
X59275000Y-113475000D03*
X59275000Y-115025000D03*
D11*
X88275000Y-102275000D03*
X88275000Y-100725000D03*
X65025000Y-76275000D03*
X65025000Y-74725000D03*
D18*
X64805000Y-140940000D03*
D19*
X64805000Y-143480000D03*
X64805000Y-146020000D03*
X64805000Y-148560000D03*
X72745000Y-148560000D03*
X72745000Y-146020000D03*
X72745000Y-143480000D03*
X72745000Y-140940000D03*
D11*
X75025000Y-143525000D03*
X75025000Y-141975000D03*
D13*
X33225000Y-123500000D03*
X34775000Y-123500000D03*
D22*
X72825000Y-57512314D03*
X71175000Y-57512314D03*
D23*
X40050000Y-92000000D03*
X38500000Y-92000000D03*
D32*
X59275000Y-101225000D03*
X59275000Y-102775000D03*
D18*
X69495000Y-116060000D03*
D19*
X69495000Y-113520000D03*
X69495000Y-110980000D03*
X69495000Y-108440000D03*
X61555000Y-108440000D03*
X61555000Y-110980000D03*
X61555000Y-113520000D03*
X61555000Y-116060000D03*
D32*
X78750000Y-74225000D03*
X78750000Y-75775000D03*
D13*
X45500000Y-47500000D03*
X47050000Y-47500000D03*
D12*
X68200000Y-66500000D03*
X69850000Y-66500000D03*
D11*
X47025000Y-118525000D03*
X47025000Y-116975000D03*
D33*
X79912800Y-112555000D03*
X79912800Y-113825000D03*
X79912800Y-115095000D03*
X79912800Y-116365000D03*
X79912800Y-117635000D03*
X79912800Y-118905000D03*
X79912800Y-120175000D03*
X79912800Y-121445000D03*
X84637200Y-121445000D03*
X84637200Y-120175000D03*
X84637200Y-118905000D03*
X84637200Y-117635000D03*
X84637200Y-116365000D03*
X84637200Y-115095000D03*
X84637200Y-113825000D03*
X84637200Y-112555000D03*
D22*
X81600000Y-79750000D03*
X79950000Y-79750000D03*
D23*
X50050000Y-55250000D03*
X48500000Y-55250000D03*
D13*
X46975000Y-128500000D03*
X48525000Y-128500000D03*
D18*
X45835000Y-94280000D03*
D19*
X43295000Y-94280000D03*
X40755000Y-94280000D03*
X38215000Y-94280000D03*
X38215000Y-102220000D03*
X40755000Y-102220000D03*
X43295000Y-102220000D03*
X45835000Y-102220000D03*
D10*
X57750000Y-55325000D03*
X57750000Y-53675000D03*
D27*
X39945000Y-60000000D03*
D28*
X50105000Y-60000000D03*
D13*
X39225000Y-78000000D03*
X40775000Y-78000000D03*
D18*
X78055000Y-99690000D03*
D19*
X78055000Y-102230000D03*
X78055000Y-104770000D03*
X78055000Y-107310000D03*
X85995000Y-107310000D03*
X85995000Y-104770000D03*
X85995000Y-102230000D03*
X85995000Y-99690000D03*
D34*
X87845000Y-79050000D03*
X87845000Y-78400000D03*
X87845000Y-77750000D03*
X87845000Y-77100000D03*
X87845000Y-76450000D03*
D35*
X91695000Y-81625000D03*
D36*
X87895000Y-81475000D03*
X87895000Y-74025000D03*
D35*
X91695000Y-73875000D03*
D37*
X66775000Y-84212500D03*
X66775000Y-85787500D03*
D12*
X49675000Y-94250000D03*
X51325000Y-94250000D03*
X70200000Y-91500000D03*
X71850000Y-91500000D03*
D10*
X60000000Y-91575000D03*
X60000000Y-89925000D03*
D27*
X49750000Y-107080000D03*
D28*
X49750000Y-96920000D03*
D17*
X86775000Y-65750001D03*
X86775000Y-60750001D03*
X86775000Y-55750000D03*
X86775000Y-50750000D03*
X86775000Y-45750000D03*
X86775000Y-40750000D03*
X86775000Y-35750000D03*
D23*
X59275000Y-82750000D03*
X57725000Y-82750000D03*
X65050000Y-84000000D03*
X63500000Y-84000000D03*
D24*
X83250000Y-75675000D03*
X83250000Y-77325000D03*
D13*
X68250000Y-69500000D03*
X69800000Y-69500000D03*
D12*
X72675000Y-89000000D03*
X74325000Y-89000000D03*
D13*
X68250000Y-72500000D03*
X69800000Y-72500000D03*
D38*
X67362500Y-76250000D03*
X67362500Y-76750000D03*
X67362500Y-77250000D03*
X67362500Y-77750000D03*
X67362500Y-78250000D03*
X67362500Y-78750000D03*
X67362500Y-79250000D03*
X67362500Y-79750000D03*
X67362500Y-80250000D03*
X67362500Y-80750000D03*
X67362500Y-81250000D03*
X67362500Y-81750000D03*
D39*
X68775000Y-83162500D03*
X69275000Y-83162500D03*
X69775000Y-83162500D03*
X70275000Y-83162500D03*
X70775000Y-83162500D03*
X71275000Y-83162500D03*
X71775000Y-83162500D03*
X72275000Y-83162500D03*
X72775000Y-83162500D03*
X73275000Y-83162500D03*
X73775000Y-83162500D03*
X74275000Y-83162500D03*
D38*
X75687500Y-81750000D03*
X75687500Y-81250000D03*
X75687500Y-80750000D03*
X75687500Y-80250000D03*
X75687500Y-79750000D03*
X75687500Y-79250000D03*
X75687500Y-78750000D03*
X75687500Y-78250000D03*
X75687500Y-77750000D03*
X75687500Y-77250000D03*
X75687500Y-76750000D03*
X75687500Y-76250000D03*
D39*
X74275000Y-74837500D03*
X73775000Y-74837500D03*
X73275000Y-74837500D03*
X72775000Y-74837500D03*
X72275000Y-74837500D03*
X71775000Y-74837500D03*
X71275000Y-74837500D03*
X70775000Y-74837500D03*
X70275000Y-74837500D03*
X69775000Y-74837500D03*
X69275000Y-74837500D03*
X68775000Y-74837500D03*
D29*
X77500000Y-50020000D03*
D30*
X78770000Y-48750000D03*
X77500000Y-47480000D03*
D27*
X85355000Y-95500000D03*
D28*
X75195000Y-95500000D03*
D13*
X47225000Y-143500000D03*
X48775000Y-143500000D03*
D32*
X71750000Y-106975000D03*
X71750000Y-108525000D03*
D11*
X61025000Y-123525000D03*
X61025000Y-121975000D03*
D13*
X60975000Y-133500000D03*
X62525000Y-133500000D03*
D24*
X75000000Y-100425000D03*
X75000000Y-102075000D03*
D12*
X75200000Y-92000000D03*
X76850000Y-92000000D03*
D23*
X66525000Y-89000000D03*
X64975000Y-89000000D03*
D22*
X79850000Y-83250000D03*
X78200000Y-83250000D03*
D17*
X27025000Y-65000000D03*
X27025000Y-70000000D03*
X27025000Y-75000001D03*
X27025000Y-80000001D03*
X27025000Y-85000001D03*
X27025000Y-90000001D03*
X27025000Y-95000001D03*
D13*
X61225000Y-148500000D03*
X62775000Y-148500000D03*
D23*
X65050000Y-86000000D03*
X63500000Y-86000000D03*
D13*
X45500000Y-45000000D03*
X47050000Y-45000000D03*
X33225000Y-138500000D03*
X34775000Y-138500000D03*
D27*
X54250000Y-94420000D03*
D28*
X54250000Y-104580000D03*
D32*
X75775000Y-105725000D03*
X75775000Y-107275000D03*
D27*
X55250000Y-59170000D03*
D28*
X55250000Y-69330000D03*
D10*
X77025000Y-115325000D03*
X77025000Y-113675000D03*
D13*
X43225000Y-104500000D03*
X44775000Y-104500000D03*
D40*
X49250000Y-91250000D03*
X70500000Y-80750000D03*
X74250000Y-112500000D03*
X72750000Y-114000000D03*
X66500000Y-127000000D03*
X66500000Y-130500000D03*
X67500000Y-127000000D03*
X67500000Y-130500000D03*
X90399500Y-122750000D03*
X87000000Y-128750000D03*
X65000000Y-152749500D03*
X56000000Y-138750000D03*
X41000000Y-147250000D03*
X41000000Y-133250000D03*
X41000000Y-128250000D03*
X41000000Y-124750000D03*
X32250000Y-127000000D03*
X42000000Y-147250000D03*
X42000000Y-139000000D03*
X49250000Y-147000000D03*
X47250000Y-145000000D03*
X30250000Y-142750000D03*
X86405000Y-123845000D03*
X85045196Y-123045000D03*
X82745000Y-122245000D03*
X49750000Y-70500000D03*
X48500000Y-70500000D03*
X47250000Y-70500000D03*
X61500000Y-106750000D03*
X57000000Y-104250000D03*
X52000000Y-99250000D03*
D41*
X51000000Y-78500000D03*
X44500000Y-78000000D03*
X75750000Y-113750000D03*
X43225000Y-105975000D03*
X90000000Y-102250000D03*
X73500000Y-98250000D03*
X57275000Y-113475000D03*
X60250000Y-57500000D03*
X44000000Y-40250000D03*
X61000000Y-77250000D03*
X55850000Y-80600000D03*
X57250000Y-115000000D03*
X80750000Y-104750000D03*
X73750000Y-106250000D03*
X71750000Y-94500000D03*
X70250000Y-85500000D03*
X71250000Y-88250000D03*
X68500000Y-91500000D03*
X90000000Y-100750000D03*
D40*
X62250000Y-72750000D03*
X63250000Y-77250000D03*
X81000000Y-72750000D03*
X76500000Y-85500000D03*
X66750000Y-87500000D03*
X60975000Y-135250000D03*
X48250000Y-48000000D03*
X47250000Y-49750000D03*
X46250000Y-104500000D03*
X30000000Y-151000000D03*
X59750000Y-148500000D03*
X49470000Y-75470000D03*
X69750000Y-76500000D03*
X58250000Y-52500000D03*
X75000000Y-125500000D03*
X61000000Y-120500000D03*
X48250000Y-43000000D03*
X55750000Y-46250000D03*
X81865000Y-116365000D03*
X57250000Y-46250000D03*
X47000000Y-130250000D03*
X38500000Y-80000000D03*
X40750000Y-96250000D03*
X69250000Y-79750000D03*
X47000000Y-115500000D03*
X75750000Y-50000000D03*
X45750000Y-143500000D03*
X48250000Y-44500000D03*
X48250000Y-47000000D03*
X81905000Y-118905000D03*
X32000000Y-138500000D03*
X57250000Y-52500000D03*
X75000000Y-140500000D03*
X75750000Y-40000000D03*
X75750000Y-60000000D03*
X74000000Y-77250000D03*
X56500000Y-71250000D03*
X81945000Y-121445000D03*
X66500000Y-74750000D03*
X48250000Y-45500000D03*
X55250000Y-71250000D03*
X73250000Y-81500000D03*
X45660000Y-71000000D03*
D41*
X63500000Y-88250000D03*
D40*
X58750000Y-46250000D03*
X48250000Y-42000000D03*
X84000000Y-35750000D03*
X47250000Y-54750000D03*
X32000000Y-123500000D03*
X54000000Y-71250000D03*
X48750000Y-49750000D03*
X77308400Y-28500000D03*
D41*
X85500000Y-76500000D03*
X37000000Y-24750000D03*
D40*
X81925000Y-113825000D03*
X58575000Y-89925000D03*
X47250000Y-55750000D03*
D41*
X78200000Y-81800000D03*
X68000000Y-89000000D03*
D40*
X38500000Y-89000000D03*
X34750000Y-122000000D03*
X47250000Y-127000000D03*
X34750000Y-137000000D03*
X42250000Y-78000000D03*
X60250000Y-131000000D03*
X70000000Y-47000000D03*
X62500000Y-138525000D03*
X51250000Y-57500000D03*
X54750000Y-52500000D03*
X70000000Y-38000000D03*
X48500000Y-133500000D03*
X44750000Y-90500000D03*
X48475000Y-118525000D03*
X70000000Y-37000000D03*
X70000000Y-48000000D03*
X86945000Y-112555000D03*
X62475000Y-123525000D03*
X76725000Y-143525000D03*
X40500000Y-70500000D03*
X70000000Y-58012314D03*
X51250000Y-56250000D03*
X55750000Y-52500000D03*
X76475000Y-128525000D03*
X70000000Y-57012314D03*
X44390000Y-65000000D03*
X43120000Y-66000000D03*
X41850000Y-70650000D03*
X43500000Y-70750000D03*
X45660000Y-75410000D03*
X32500000Y-131000000D03*
X73000000Y-71750000D03*
X84500000Y-63000000D03*
X71750000Y-71750000D03*
X84500000Y-57250000D03*
X89500000Y-48500000D03*
X80500000Y-76500000D03*
X58750000Y-63700000D03*
X46930000Y-65070000D03*
X58750000Y-64750000D03*
X48200000Y-65800000D03*
X58750000Y-65750000D03*
X49470000Y-66280000D03*
D41*
X34000000Y-24750000D03*
X68250000Y-64750000D03*
D42*
X45660000Y-71000000D02*
X46500000Y-71000000D01*
X46500000Y-71000000D02*
X46930000Y-71430000D01*
X46930000Y-71430000D02*
X46930000Y-73112200D01*
X44775746Y-71000000D02*
X44390000Y-71385746D01*
X44390000Y-71385746D02*
X44390000Y-73112200D01*
X45660000Y-71000000D02*
X44775746Y-71000000D01*
X41225000Y-76000000D02*
X39225000Y-78000000D01*
X41700000Y-76000000D02*
X41225000Y-76000000D01*
X91695000Y-77500000D02*
X91695000Y-81625000D01*
X91695000Y-73875000D02*
X91695000Y-77500000D01*
X91695000Y-81625000D02*
X88045000Y-81625000D01*
X88045000Y-81625000D02*
X87895000Y-81475000D01*
X91695000Y-73875000D02*
X88045000Y-73875000D01*
X88045000Y-73875000D02*
X87895000Y-74025000D01*
X50745000Y-143500000D02*
X50805000Y-143560000D01*
X48775000Y-143500000D02*
X50745000Y-143500000D01*
X48500000Y-90500000D02*
X49250000Y-91250000D01*
X47800000Y-90500000D02*
X48500000Y-90500000D01*
X53000000Y-65250000D02*
X51000000Y-67250000D01*
X53750000Y-54500000D02*
X53000000Y-55250000D01*
X53000000Y-55250000D02*
X53000000Y-65250000D01*
X51000000Y-67250000D02*
X51000000Y-75750000D01*
X53750000Y-51500000D02*
X53750000Y-54500000D01*
X54250000Y-51000000D02*
X53750000Y-51500000D01*
X63575000Y-51000000D02*
X54250000Y-51000000D01*
X65325000Y-49250000D02*
X63575000Y-51000000D01*
D43*
X70500000Y-79500000D02*
X70500000Y-80750000D01*
X69750000Y-78750000D02*
X70500000Y-79500000D01*
X69250000Y-78750000D02*
X69750000Y-78750000D01*
X69250000Y-78760050D02*
X69250000Y-78750000D01*
X68760050Y-79250000D02*
X69250000Y-78760050D01*
X67362500Y-79250000D02*
X68760050Y-79250000D01*
X67362500Y-79750000D02*
X69250000Y-79750000D01*
D42*
X74250000Y-112500000D02*
X79857800Y-112500000D01*
X79857800Y-112500000D02*
X79912800Y-112555000D01*
X77025000Y-115325000D02*
X75825000Y-115325000D01*
X75825000Y-115325000D02*
X71480000Y-110980000D01*
X71480000Y-110980000D02*
X69495000Y-110980000D01*
X77255000Y-115095000D02*
X77025000Y-115325000D01*
X79912800Y-115095000D02*
X77255000Y-115095000D01*
X75825000Y-113675000D02*
X75750000Y-113750000D01*
X77025000Y-113675000D02*
X75825000Y-113675000D01*
X77175000Y-113825000D02*
X77025000Y-113675000D01*
X79912800Y-113825000D02*
X77175000Y-113825000D01*
X72750000Y-117000000D02*
X72750000Y-114000000D01*
X71750000Y-118000000D02*
X72750000Y-117000000D01*
X66500000Y-123250000D02*
X71750000Y-118000000D01*
X66500000Y-127000000D02*
X66500000Y-123250000D01*
X66500000Y-136000000D02*
X66500000Y-130500000D01*
X61480000Y-141020000D02*
X66500000Y-136000000D01*
X58745000Y-141020000D02*
X61480000Y-141020000D01*
X73115000Y-117635000D02*
X79912800Y-117635000D01*
X67500000Y-123250000D02*
X73115000Y-117635000D01*
X67500000Y-127000000D02*
X67500000Y-123250000D01*
X67500000Y-143460000D02*
X67500000Y-130500000D01*
X67480000Y-143480000D02*
X67500000Y-143460000D01*
X86325000Y-113825000D02*
X84637200Y-113825000D01*
X90399500Y-117899500D02*
X86325000Y-113825000D01*
X90399500Y-122750000D02*
X90399500Y-117899500D01*
X72745000Y-131020000D02*
X84730000Y-131020000D01*
X84730000Y-131020000D02*
X87000000Y-128750000D01*
X89600000Y-118350000D02*
X86345000Y-115095000D01*
X89600000Y-147879899D02*
X89600000Y-118350000D01*
X84729899Y-152750000D02*
X89600000Y-147879899D01*
X65000500Y-152750000D02*
X84729899Y-152750000D01*
X65000000Y-152749500D02*
X65000500Y-152750000D01*
X86345000Y-115095000D02*
X84637200Y-115095000D01*
X56020000Y-138730000D02*
X56000000Y-138750000D01*
X56020000Y-126020000D02*
X56020000Y-138730000D01*
X39480000Y-133480000D02*
X42000000Y-136000000D01*
X36805000Y-133480000D02*
X39480000Y-133480000D01*
X42000000Y-136000000D02*
X42000000Y-136040000D01*
X42000000Y-136040000D02*
X42020000Y-136020000D01*
X42000000Y-139000000D02*
X42000000Y-136040000D01*
X41000000Y-128250000D02*
X41000000Y-133250000D01*
X41000000Y-124750000D02*
X41000000Y-120000000D01*
X86365000Y-116365000D02*
X84637200Y-116365000D01*
X84539950Y-151950000D02*
X88900000Y-147589950D01*
X88900000Y-118900000D02*
X86365000Y-116365000D01*
X41000000Y-147381371D02*
X45568629Y-151950000D01*
X45568629Y-151950000D02*
X84539950Y-151950000D01*
X41000000Y-147250000D02*
X41000000Y-147381371D01*
X88900000Y-147589950D02*
X88900000Y-118900000D01*
X86385000Y-117635000D02*
X84637200Y-117635000D01*
X88200000Y-147300000D02*
X88200000Y-119450000D01*
X88200000Y-119450000D02*
X86385000Y-117635000D01*
X84250000Y-151250000D02*
X88200000Y-147300000D01*
X46000000Y-151250000D02*
X84250000Y-151250000D01*
X42000000Y-147250000D02*
X46000000Y-151250000D01*
X41500000Y-120500000D02*
X42020000Y-121020000D01*
X39480000Y-118480000D02*
X41500000Y-120500000D01*
X32250000Y-127000000D02*
X47250000Y-127000000D01*
X62775000Y-149225000D02*
X62775000Y-148500000D01*
X62000000Y-150000000D02*
X62775000Y-149225000D01*
X49250000Y-147000000D02*
X52250000Y-150000000D01*
X52250000Y-150000000D02*
X62000000Y-150000000D01*
X32500000Y-145000000D02*
X47250000Y-145000000D01*
X30250000Y-142750000D02*
X32500000Y-145000000D01*
X86355000Y-118905000D02*
X84637200Y-118905000D01*
X87500000Y-120050000D02*
X86355000Y-118905000D01*
X86405000Y-123845000D02*
X87500000Y-122750000D01*
X87500000Y-122750000D02*
X87500000Y-120050000D01*
X86175000Y-120175000D02*
X84637200Y-120175000D01*
X86750000Y-120750000D02*
X86175000Y-120175000D01*
X85955000Y-123045000D02*
X86750000Y-122250000D01*
X86750000Y-122250000D02*
X86750000Y-120750000D01*
X85045196Y-123045000D02*
X85955000Y-123045000D01*
X83545000Y-121445000D02*
X82745000Y-122245000D01*
X84637200Y-121445000D02*
X83545000Y-121445000D01*
X49470000Y-70220000D02*
X49750000Y-70500000D01*
X49470000Y-68387800D02*
X49470000Y-70220000D01*
X48200000Y-70200000D02*
X48500000Y-70500000D01*
X48200000Y-68387800D02*
X48200000Y-70200000D01*
X46930000Y-70180000D02*
X47250000Y-70500000D01*
X46930000Y-68387800D02*
X46930000Y-70180000D01*
X74525000Y-108525000D02*
X75775000Y-107275000D01*
X71750000Y-108525000D02*
X74525000Y-108525000D01*
X63940000Y-108440000D02*
X69495000Y-108440000D01*
X62250000Y-106750000D02*
X63940000Y-108440000D01*
X61500000Y-106750000D02*
X62250000Y-106750000D01*
X55500000Y-102750000D02*
X57000000Y-104250000D01*
X59250000Y-102750000D02*
X59275000Y-102775000D01*
X52000000Y-99250000D02*
X55500000Y-102750000D01*
X55500000Y-102750000D02*
X59250000Y-102750000D01*
X58575000Y-89925000D02*
X60000000Y-89925000D01*
X51000000Y-75750000D02*
X51000000Y-78500000D01*
X48750000Y-78000000D02*
X50250000Y-76500000D01*
X44500000Y-78000000D02*
X48750000Y-78000000D01*
X48200000Y-75900000D02*
X48200000Y-73112200D01*
X48800000Y-76500000D02*
X48200000Y-75900000D01*
X50250000Y-76500000D02*
X48800000Y-76500000D01*
X51000000Y-75750000D02*
X50250000Y-76500000D01*
X82290796Y-120175000D02*
X79912800Y-120175000D01*
X83095000Y-119370796D02*
X82290796Y-120175000D01*
X81310000Y-107310000D02*
X83095000Y-109095000D01*
X83095000Y-109095000D02*
X83095000Y-119370796D01*
X78055000Y-107310000D02*
X81310000Y-107310000D01*
X43225000Y-105975000D02*
X43225000Y-104500000D01*
X89975000Y-102275000D02*
X90000000Y-102250000D01*
X88275000Y-102275000D02*
X89975000Y-102275000D01*
X73025000Y-97775000D02*
X73500000Y-98250000D01*
X71750000Y-97775000D02*
X73025000Y-97775000D01*
X57275000Y-113475000D02*
X59275000Y-113475000D01*
X60750000Y-105750000D02*
X64450000Y-105750000D01*
X59275000Y-107225000D02*
X60750000Y-105750000D01*
X59275000Y-109425000D02*
X59275000Y-107225000D01*
X64450000Y-100625000D02*
X61555000Y-97730000D01*
X64450000Y-105750000D02*
X64450000Y-100625000D01*
X77500000Y-95500000D02*
X75195000Y-95500000D01*
X79020000Y-102230000D02*
X80250000Y-101000000D01*
X80250000Y-101000000D02*
X80250000Y-98250000D01*
X80250000Y-98250000D02*
X77500000Y-95500000D01*
X78055000Y-102230000D02*
X79020000Y-102230000D01*
X77308400Y-28500000D02*
X77308400Y-26250000D01*
X58750000Y-59000000D02*
X57750000Y-59000000D01*
X60250000Y-57500000D02*
X58750000Y-59000000D01*
X57750000Y-59000000D02*
X57750000Y-66750000D01*
X57750000Y-55325000D02*
X57750000Y-59000000D01*
X32500000Y-36500000D02*
X36250000Y-40250000D01*
X32500000Y-26500000D02*
X32500000Y-36500000D01*
X36250000Y-40250000D02*
X44000000Y-40250000D01*
X32500000Y-22905000D02*
X32500000Y-26500000D01*
X59850000Y-78400000D02*
X59375000Y-78400000D01*
X61000000Y-77250000D02*
X59850000Y-78400000D01*
X55850000Y-80600000D02*
X57675000Y-80600000D01*
X60600000Y-101225000D02*
X61555000Y-100270000D01*
X59275000Y-101225000D02*
X60600000Y-101225000D01*
X59310000Y-102810000D02*
X59275000Y-102775000D01*
X61555000Y-102810000D02*
X59310000Y-102810000D01*
X69480000Y-100270000D02*
X69495000Y-100270000D01*
X66100000Y-103650000D02*
X69480000Y-100270000D01*
X66100000Y-105750000D02*
X66100000Y-103650000D01*
X74275000Y-105725000D02*
X75775000Y-105725000D01*
X73025000Y-106975000D02*
X71750000Y-106975000D01*
X73750000Y-106250000D02*
X73025000Y-106975000D01*
X73750000Y-106250000D02*
X74275000Y-105725000D01*
X69495000Y-108440000D02*
X71665000Y-108440000D01*
X71665000Y-108440000D02*
X71750000Y-108525000D01*
X66770000Y-113520000D02*
X69495000Y-113520000D01*
X64230000Y-110980000D02*
X66770000Y-113520000D01*
X61555000Y-110980000D02*
X64230000Y-110980000D01*
X57275000Y-115025000D02*
X57250000Y-115000000D01*
X59275000Y-115025000D02*
X57275000Y-115025000D01*
X59320000Y-113520000D02*
X59275000Y-113475000D01*
X61555000Y-113520000D02*
X59320000Y-113520000D01*
X61460000Y-111075000D02*
X61555000Y-110980000D01*
X59275000Y-111075000D02*
X61460000Y-111075000D01*
X80730000Y-104770000D02*
X78055000Y-104770000D01*
X80750000Y-104750000D02*
X80730000Y-104770000D01*
X69650000Y-100425000D02*
X69495000Y-100270000D01*
X75000000Y-100425000D02*
X69650000Y-100425000D01*
X75155000Y-102230000D02*
X75000000Y-102075000D01*
X78055000Y-102230000D02*
X75155000Y-102230000D01*
X78020000Y-107275000D02*
X78055000Y-107310000D01*
X75775000Y-107275000D02*
X78020000Y-107275000D01*
X85355000Y-95395000D02*
X85355000Y-95500000D01*
X87105000Y-93645000D02*
X85355000Y-95395000D01*
X87105000Y-89000000D02*
X87105000Y-93645000D01*
X84000000Y-102775000D02*
X84000000Y-96855000D01*
X85995000Y-104770000D02*
X84000000Y-102775000D01*
X84000000Y-96855000D02*
X85355000Y-95500000D01*
X71750000Y-96225000D02*
X71750000Y-94500000D01*
X70200000Y-91500000D02*
X68500000Y-91500000D01*
X71705000Y-97730000D02*
X71750000Y-97775000D01*
X69495000Y-97730000D02*
X71705000Y-97730000D01*
X71850000Y-89825000D02*
X72675000Y-89000000D01*
X71850000Y-91500000D02*
X71850000Y-89825000D01*
X75200000Y-95495000D02*
X75195000Y-95500000D01*
X75200000Y-92000000D02*
X75200000Y-95495000D01*
X76850000Y-92000000D02*
X76850000Y-89095000D01*
X76850000Y-89095000D02*
X76945000Y-89000000D01*
X74325000Y-89000000D02*
X76945000Y-89000000D01*
D43*
X70250000Y-85500000D02*
X70275000Y-85475000D01*
X70275000Y-85475000D02*
X70275000Y-83162500D01*
X72000000Y-89000000D02*
X71250000Y-88250000D01*
X72675000Y-89000000D02*
X72000000Y-89000000D01*
D42*
X89975000Y-100725000D02*
X90000000Y-100750000D01*
X88275000Y-100725000D02*
X89975000Y-100725000D01*
X86040000Y-102275000D02*
X85995000Y-102230000D01*
X88275000Y-102275000D02*
X86040000Y-102275000D01*
X81000000Y-72750000D02*
X79500000Y-72750000D01*
X83250000Y-73750000D02*
X83250000Y-75675000D01*
D43*
X76750000Y-76250000D02*
X77500000Y-75500000D01*
X74275000Y-83162500D02*
X74275000Y-84975000D01*
D42*
X79500000Y-72750000D02*
X78750000Y-73500000D01*
X66750000Y-85812500D02*
X66775000Y-85787500D01*
X67500000Y-68000000D02*
X68250000Y-68750000D01*
X65262500Y-85787500D02*
X65050000Y-86000000D01*
X68250000Y-68750000D02*
X68250000Y-69500000D01*
X55250000Y-55325000D02*
X55250000Y-59170000D01*
X76500000Y-85500000D02*
X74800000Y-85500000D01*
D43*
X68775000Y-73025000D02*
X68250000Y-72500000D01*
X67362500Y-76250000D02*
X65050000Y-76250000D01*
D42*
X66750000Y-87500000D02*
X66750000Y-85812500D01*
X62025000Y-76275000D02*
X63250000Y-76275000D01*
X68250000Y-72500000D02*
X68250000Y-69500000D01*
X59000000Y-68000000D02*
X61000000Y-68000000D01*
D43*
X77500000Y-75000000D02*
X78275000Y-74225000D01*
D42*
X81000000Y-72750000D02*
X86775000Y-66975000D01*
D43*
X74275000Y-84975000D02*
X74800000Y-85500000D01*
D42*
X81000000Y-72750000D02*
X82250000Y-72750000D01*
X61000000Y-68000000D02*
X67500000Y-68000000D01*
D43*
X75687500Y-76250000D02*
X76750000Y-76250000D01*
X65050000Y-76250000D02*
X65025000Y-76275000D01*
D42*
X63250000Y-76275000D02*
X63250000Y-77250000D01*
D43*
X68775000Y-74837500D02*
X68775000Y-73025000D01*
D42*
X78750000Y-73500000D02*
X78750000Y-74225000D01*
X61000000Y-75250000D02*
X62025000Y-76275000D01*
X57750000Y-66750000D02*
X59000000Y-68000000D01*
X61000000Y-68000000D02*
X61000000Y-72750000D01*
X63250000Y-76275000D02*
X65025000Y-76275000D01*
X82250000Y-72750000D02*
X83250000Y-73750000D01*
D43*
X77500000Y-75500000D02*
X77500000Y-75000000D01*
D42*
X86775000Y-66975000D02*
X86775000Y-65750001D01*
D43*
X78275000Y-74225000D02*
X78750000Y-74225000D01*
D42*
X61000000Y-72750000D02*
X61000000Y-75250000D01*
X66775000Y-85787500D02*
X65262500Y-85787500D01*
X61000000Y-72750000D02*
X62250000Y-72750000D01*
X57725000Y-80650000D02*
X57675000Y-80600000D01*
D43*
X69275000Y-73025000D02*
X69275000Y-74837500D01*
D42*
X61225000Y-148500000D02*
X59750000Y-148500000D01*
X63000000Y-83500000D02*
X63500000Y-84000000D01*
X58750000Y-44750000D02*
X60055000Y-43445000D01*
D43*
X77775000Y-76750000D02*
X78750000Y-75775000D01*
D42*
X75025000Y-140525000D02*
X75000000Y-140500000D01*
X77500000Y-60020000D02*
X75770000Y-60020000D01*
X47225000Y-143500000D02*
X45750000Y-143500000D01*
D43*
X69800000Y-72500000D02*
X69275000Y-73025000D01*
D42*
X64975000Y-89000000D02*
X64250000Y-89000000D01*
X46975000Y-130225000D02*
X47000000Y-130250000D01*
X48750000Y-49750000D02*
X48025000Y-50475000D01*
X39225000Y-79275000D02*
X38500000Y-80000000D01*
X75770000Y-50020000D02*
X75750000Y-50000000D01*
X59275000Y-78300000D02*
X59375000Y-78400000D01*
X41850000Y-73112200D02*
X41850000Y-75850000D01*
D43*
X69750000Y-76500000D02*
X69275000Y-76025000D01*
D42*
X40050000Y-93575000D02*
X40755000Y-94280000D01*
X75770000Y-60020000D02*
X75750000Y-60000000D01*
X48025000Y-50525000D02*
X47250000Y-49750000D01*
X81945000Y-121445000D02*
X79912800Y-121445000D01*
X63775000Y-79975000D02*
X63000000Y-80750000D01*
X64250000Y-79975000D02*
X63775000Y-79975000D01*
X60055000Y-43445000D02*
X60985000Y-43445000D01*
X78200000Y-81800000D02*
X78200000Y-83250000D01*
X75025000Y-125525000D02*
X75000000Y-125500000D01*
X75025000Y-141975000D02*
X75025000Y-140525000D01*
X61025000Y-121975000D02*
X61025000Y-120525000D01*
X81905000Y-118905000D02*
X79912800Y-118905000D01*
X63000000Y-80750000D02*
X63000000Y-83500000D01*
X49470000Y-75470000D02*
X49470000Y-73112200D01*
D43*
X65025000Y-74725000D02*
X66475000Y-74725000D01*
D42*
X60975000Y-135250000D02*
X61025000Y-135300000D01*
X40755000Y-96245000D02*
X40750000Y-96250000D01*
X61025000Y-135300000D02*
X61025000Y-136975000D01*
X57725000Y-82750000D02*
X57725000Y-80650000D01*
D43*
X75687500Y-76750000D02*
X74500000Y-76750000D01*
D42*
X44775000Y-104500000D02*
X46250000Y-104500000D01*
D43*
X69275000Y-76025000D02*
X69275000Y-74837500D01*
D42*
X47025000Y-115525000D02*
X47000000Y-115500000D01*
X75025000Y-126975000D02*
X75025000Y-125525000D01*
X58750000Y-46250000D02*
X58750000Y-44750000D01*
X47025000Y-116975000D02*
X47025000Y-115525000D01*
X63500000Y-86000000D02*
X63500000Y-88250000D01*
X41850000Y-75850000D02*
X41700000Y-76000000D01*
X27025000Y-151000001D02*
X30000000Y-151000000D01*
X40050000Y-92000000D02*
X40050000Y-93575000D01*
X77500000Y-50020000D02*
X75770000Y-50020000D01*
X60975000Y-135250000D02*
X60975000Y-133500000D01*
D43*
X66475000Y-74725000D02*
X66500000Y-74750000D01*
X75687500Y-76750000D02*
X77775000Y-76750000D01*
X64475000Y-79750000D02*
X64250000Y-79975000D01*
X73250000Y-81500000D02*
X73775000Y-82025000D01*
D42*
X47025000Y-130275000D02*
X47000000Y-130250000D01*
X37000000Y-22905000D02*
X37000000Y-24750000D01*
X81925000Y-113825000D02*
X79912800Y-113825000D01*
X47025000Y-131975000D02*
X47025000Y-130275000D01*
D43*
X87845000Y-76450000D02*
X85550000Y-76450000D01*
D42*
X69800000Y-72500000D02*
X69800000Y-69500000D01*
X61025000Y-120525000D02*
X61000000Y-120500000D01*
D43*
X73775000Y-84975000D02*
X73250000Y-85500000D01*
D42*
X48025000Y-52195000D02*
X48025000Y-50525000D01*
D43*
X67362500Y-79750000D02*
X64475000Y-79750000D01*
X74500000Y-76750000D02*
X74000000Y-77250000D01*
X73775000Y-82025000D02*
X73775000Y-83162500D01*
D42*
X40755000Y-94280000D02*
X40755000Y-96245000D01*
X46975000Y-128500000D02*
X46975000Y-130225000D01*
D43*
X73775000Y-83162500D02*
X73775000Y-84975000D01*
D42*
X81865000Y-116365000D02*
X79912800Y-116365000D01*
X33225000Y-123500000D02*
X32000000Y-123500000D01*
X75770000Y-40020000D02*
X75750000Y-40000000D01*
X39225000Y-78000000D02*
X39225000Y-79275000D01*
X33225000Y-138500000D02*
X32000000Y-138500000D01*
X64250000Y-89000000D02*
X63500000Y-88250000D01*
X77500000Y-40020000D02*
X75770000Y-40020000D01*
X48025000Y-50475000D02*
X48025000Y-50525000D01*
X86775000Y-35750000D02*
X84000000Y-35750000D01*
X59275000Y-76250000D02*
X59275000Y-78300000D01*
D43*
X65525000Y-80250000D02*
X64250000Y-81525000D01*
D42*
X64250000Y-83200000D02*
X65050000Y-84000000D01*
X64250000Y-81525000D02*
X64250000Y-83200000D01*
X66775000Y-84212500D02*
X65262500Y-84212500D01*
D43*
X67362500Y-80250000D02*
X65525000Y-80250000D01*
D42*
X65262500Y-84212500D02*
X65050000Y-84000000D01*
D43*
X66525000Y-89000000D02*
X68000000Y-89000000D01*
D42*
X59275000Y-82750000D02*
X59275000Y-80700000D01*
D43*
X62650000Y-78750000D02*
X60800000Y-80600000D01*
X67362500Y-78750000D02*
X62650000Y-78750000D01*
D42*
X59275000Y-80700000D02*
X59375000Y-80600000D01*
D43*
X60800000Y-80600000D02*
X59375000Y-80600000D01*
D42*
X57725000Y-78350000D02*
X57675000Y-78400000D01*
D43*
X58625000Y-79450000D02*
X57675000Y-78500000D01*
D42*
X57725000Y-76250000D02*
X57725000Y-78350000D01*
D43*
X67362500Y-78250000D02*
X61500000Y-78250000D01*
X57675000Y-78500000D02*
X57675000Y-78400000D01*
X60300000Y-79450000D02*
X58625000Y-79450000D01*
X61500000Y-78250000D02*
X60300000Y-79450000D01*
D42*
X48525000Y-128500000D02*
X50745000Y-128500000D01*
X34775000Y-123500000D02*
X36745000Y-123500000D01*
X64745000Y-133500000D02*
X64805000Y-133560000D01*
X40775000Y-78000000D02*
X40775000Y-80220000D01*
X38500000Y-92000000D02*
X38500000Y-93995000D01*
X36745000Y-123500000D02*
X36805000Y-123560000D01*
X34750000Y-123475000D02*
X34775000Y-123500000D01*
X66065000Y-43445000D02*
X66065000Y-48510000D01*
X40775000Y-80220000D02*
X40715000Y-80280000D01*
X48000000Y-145000000D02*
X48775000Y-144225000D01*
X38500000Y-89000000D02*
X38500000Y-92000000D01*
X64745000Y-148500000D02*
X64805000Y-148560000D01*
X62525000Y-133500000D02*
X64745000Y-133500000D01*
X60250000Y-131000000D02*
X61250000Y-131000000D01*
X62775000Y-148500000D02*
X64745000Y-148500000D01*
X50745000Y-128500000D02*
X50805000Y-128560000D01*
X62525000Y-132275000D02*
X62525000Y-133500000D01*
X42250000Y-78000000D02*
X40775000Y-78000000D01*
X47250000Y-127000000D02*
X47975000Y-127000000D01*
X47975000Y-127000000D02*
X48525000Y-127550000D01*
X38500000Y-93995000D02*
X38215000Y-94280000D01*
X34750000Y-137000000D02*
X34750000Y-138475000D01*
X36745000Y-138500000D02*
X36805000Y-138560000D01*
X47250000Y-145000000D02*
X48000000Y-145000000D01*
X34775000Y-138500000D02*
X36745000Y-138500000D01*
X34750000Y-138475000D02*
X34775000Y-138500000D01*
X66065000Y-48510000D02*
X65325000Y-49250000D01*
X34750000Y-122000000D02*
X34750000Y-123475000D01*
X48775000Y-144225000D02*
X48775000Y-143500000D01*
X48525000Y-127550000D02*
X48525000Y-128500000D01*
X61250000Y-131000000D02*
X62525000Y-132275000D01*
X72790000Y-143525000D02*
X72745000Y-143480000D01*
X48475000Y-133525000D02*
X48500000Y-133500000D01*
X62475000Y-123525000D02*
X61025000Y-123525000D01*
X75025000Y-143525000D02*
X72790000Y-143525000D01*
X61025000Y-123525000D02*
X58790000Y-123525000D01*
X75025000Y-128525000D02*
X72790000Y-128525000D01*
X48475000Y-118525000D02*
X47025000Y-118525000D01*
X61025000Y-138525000D02*
X58790000Y-138525000D01*
X72790000Y-128525000D02*
X72745000Y-128480000D01*
X44790000Y-118525000D02*
X44745000Y-118480000D01*
X50565000Y-54735000D02*
X50050000Y-55250000D01*
X44790000Y-133525000D02*
X44745000Y-133480000D01*
X46250000Y-88675000D02*
X45795000Y-88220000D01*
X58790000Y-123525000D02*
X58745000Y-123480000D01*
X58790000Y-138525000D02*
X58745000Y-138480000D01*
X40580000Y-68387800D02*
X40580000Y-70420000D01*
X76475000Y-128525000D02*
X75025000Y-128525000D01*
X50565000Y-52195000D02*
X50565000Y-54735000D01*
X46250000Y-90500000D02*
X46250000Y-88675000D01*
X76725000Y-143525000D02*
X75025000Y-143525000D01*
X43295000Y-102220000D02*
X43295000Y-104430000D01*
X86945000Y-112555000D02*
X84637200Y-112555000D01*
X62500000Y-138525000D02*
X61025000Y-138525000D01*
X43295000Y-104430000D02*
X43225000Y-104500000D01*
X40580000Y-70420000D02*
X40500000Y-70500000D01*
X46250000Y-90500000D02*
X44750000Y-90500000D01*
X47025000Y-133525000D02*
X44790000Y-133525000D01*
X47025000Y-133525000D02*
X48475000Y-133525000D01*
X47025000Y-118525000D02*
X44790000Y-118525000D01*
X45500000Y-47500000D02*
X45500000Y-52180000D01*
X39945000Y-54055000D02*
X39945000Y-60000000D01*
X45500000Y-52180000D02*
X45485000Y-52195000D01*
X45485000Y-52195000D02*
X41805000Y-52195000D01*
X45500000Y-45000000D02*
X45500000Y-47500000D01*
X45500000Y-28058400D02*
X47308399Y-26250000D01*
X45500000Y-42500000D02*
X45500000Y-28058400D01*
X45500000Y-42500000D02*
X45500000Y-45000000D01*
X41805000Y-52195000D02*
X39945000Y-54055000D01*
X53500000Y-40450000D02*
X53500000Y-36305000D01*
X53445000Y-27386601D02*
X52308399Y-26250000D01*
X53445000Y-36250000D02*
X53445000Y-27386601D01*
X53500000Y-36305000D02*
X53445000Y-36250000D01*
X63605000Y-36250000D02*
X63605000Y-43365000D01*
X63605000Y-43365000D02*
X63525000Y-43445000D01*
X40755000Y-102220000D02*
X40755000Y-103459594D01*
X49750000Y-107080000D02*
X51750000Y-107080000D01*
X42580000Y-107080000D02*
X49750000Y-107080000D01*
X40750000Y-103464594D02*
X40750000Y-105250000D01*
X40750000Y-105250000D02*
X42580000Y-107080000D01*
X51750000Y-107080000D02*
X54250000Y-104580000D01*
X40755000Y-103459594D02*
X40750000Y-103464594D01*
X49750000Y-96920000D02*
X49750000Y-94325000D01*
X43275000Y-94260000D02*
X43295000Y-94280000D01*
X48325000Y-92075000D02*
X43275000Y-92075000D01*
X49675000Y-94250000D02*
X49675000Y-93425000D01*
X43275000Y-92075000D02*
X43275000Y-94260000D01*
X49750000Y-94325000D02*
X49675000Y-94250000D01*
X49675000Y-93425000D02*
X48325000Y-92075000D01*
X54080000Y-94250000D02*
X54250000Y-94420000D01*
X54250000Y-94420000D02*
X54250000Y-92925000D01*
X51325000Y-94250000D02*
X54080000Y-94250000D01*
X54250000Y-92925000D02*
X55675000Y-91500000D01*
D43*
X87845000Y-79050000D02*
X82300000Y-79050000D01*
X82300000Y-79050000D02*
X81600000Y-79750000D01*
X86895000Y-78400000D02*
X87845000Y-78400000D01*
X75687500Y-78250000D02*
X86745000Y-78250000D01*
X86745000Y-78250000D02*
X86895000Y-78400000D01*
X83250000Y-77325000D02*
X83175000Y-77250000D01*
X83675000Y-77750000D02*
X87845000Y-77750000D01*
X82825000Y-77750000D02*
X83250000Y-77325000D01*
X83250000Y-77325000D02*
X83675000Y-77750000D01*
X75687500Y-77750000D02*
X82825000Y-77750000D01*
D42*
X44390000Y-65000000D02*
X44390000Y-68387800D01*
X43120000Y-66000000D02*
X43120000Y-68387800D01*
X41850000Y-70650000D02*
X41850000Y-68387800D01*
X43500000Y-70750000D02*
X44200000Y-70050000D01*
X45660000Y-69590000D02*
X45660000Y-68387800D01*
X45200000Y-70050000D02*
X45660000Y-69590000D01*
X44200000Y-70050000D02*
X45200000Y-70050000D01*
X40580000Y-75170000D02*
X30749999Y-85000001D01*
X40580000Y-73112200D02*
X40580000Y-75170000D01*
X30749999Y-85000001D02*
X27025000Y-85000001D01*
X45660000Y-75410000D02*
X45660000Y-73112200D01*
X27025000Y-121000000D02*
X36785000Y-121000000D01*
X36785000Y-121000000D02*
X36805000Y-121020000D01*
X50785000Y-126000000D02*
X50805000Y-126020000D01*
X27025000Y-126000000D02*
X50785000Y-126000000D01*
X27025000Y-131000001D02*
X32500000Y-131000000D01*
X36785001Y-136000001D02*
X36805000Y-136020000D01*
X27025000Y-136000001D02*
X36785001Y-136000001D01*
X27025000Y-141000001D02*
X50785001Y-141000001D01*
X50785001Y-141000001D02*
X50805000Y-141020000D01*
X27025000Y-146000001D02*
X64785001Y-146000001D01*
X64785001Y-146000001D02*
X64805000Y-146020000D01*
D43*
X71775000Y-72975000D02*
X73000000Y-71750000D01*
X86749999Y-60750001D02*
X86775000Y-60750001D01*
X71775000Y-74837500D02*
X71775000Y-72975000D01*
X84500000Y-63000000D02*
X86749999Y-60750001D01*
X71275000Y-74837500D02*
X71275000Y-72225000D01*
X86000000Y-55750000D02*
X86775000Y-55750000D01*
X84500000Y-57250000D02*
X86000000Y-55750000D01*
X71275000Y-72225000D02*
X71750000Y-71750000D01*
X79750000Y-77250000D02*
X80500000Y-76500000D01*
X75687500Y-77250000D02*
X79750000Y-77250000D01*
X89500000Y-48500000D02*
X89500000Y-47250000D01*
X89500000Y-47250000D02*
X88000000Y-45750000D01*
X88000000Y-45750000D02*
X86775000Y-45750000D01*
X82750000Y-65500000D02*
X82750000Y-53500000D01*
X74275000Y-74837500D02*
X74275000Y-73975000D01*
X85500000Y-50750000D02*
X86775000Y-50750000D01*
X74275000Y-73975000D02*
X82750000Y-65500000D01*
X82750000Y-53500000D02*
X85500000Y-50750000D01*
D42*
X58750000Y-63700000D02*
X62300000Y-63700000D01*
X67750000Y-43250000D02*
X72825000Y-38175000D01*
X77500000Y-37480000D02*
X72845000Y-37480000D01*
X72825000Y-38175000D02*
X72825000Y-37500000D01*
X62300000Y-63700000D02*
X67750000Y-58250000D01*
X46930000Y-65070000D02*
X46930000Y-68387800D01*
X72845000Y-37480000D02*
X72825000Y-37500000D01*
X67750000Y-58250000D02*
X67750000Y-43250000D01*
X81750000Y-40000000D02*
X80500000Y-38750000D01*
X76575000Y-67675000D02*
X81750000Y-62500000D01*
X80500000Y-38750000D02*
X78770000Y-38750000D01*
X81750000Y-62500000D02*
X81750000Y-40000000D01*
X76500000Y-67675000D02*
X76575000Y-67675000D01*
X58750000Y-64750000D02*
X62750000Y-64750000D01*
X62750000Y-64750000D02*
X68750000Y-58750000D01*
X77500000Y-47480000D02*
X72845000Y-47480000D01*
X68750000Y-58750000D02*
X68750000Y-52250000D01*
X68750000Y-52250000D02*
X72825000Y-48175000D01*
X72845000Y-47480000D02*
X72825000Y-47500000D01*
X48200000Y-65800000D02*
X48200000Y-68387800D01*
X72825000Y-48175000D02*
X72825000Y-47500000D01*
X80750000Y-49500000D02*
X80000000Y-48750000D01*
X76000000Y-64000000D02*
X78250000Y-64000000D01*
X74500000Y-65500000D02*
X76000000Y-64000000D01*
X80000000Y-48750000D02*
X78770000Y-48750000D01*
X78250000Y-64000000D02*
X80750000Y-61500000D01*
X80750000Y-61500000D02*
X80750000Y-49500000D01*
X74500000Y-67675000D02*
X74500000Y-65500000D01*
X77500000Y-57480000D02*
X72857314Y-57480000D01*
X69750000Y-59250000D02*
X71750000Y-59250000D01*
X49470000Y-66280000D02*
X49470000Y-68387800D01*
X72825000Y-58175000D02*
X72825000Y-57512314D01*
X71750000Y-59250000D02*
X72825000Y-58175000D01*
X63250000Y-65750000D02*
X69750000Y-59250000D01*
X58750000Y-65750000D02*
X63250000Y-65750000D01*
X72857314Y-57480000D02*
X72825000Y-57512314D01*
X72500000Y-64250000D02*
X74500000Y-62250000D01*
X78770000Y-61480000D02*
X78770000Y-58750000D01*
X74500000Y-62250000D02*
X78000000Y-62250000D01*
X72500000Y-67675000D02*
X72500000Y-64250000D01*
X78000000Y-62250000D02*
X78770000Y-61480000D01*
X68200000Y-64800000D02*
X68250000Y-64750000D01*
X68200000Y-66500000D02*
X68200000Y-64800000D01*
X34000000Y-24750000D02*
X34000000Y-22905000D01*
D43*
X70775000Y-74837500D02*
X70775000Y-67425000D01*
X70775000Y-67425000D02*
X69850000Y-66500000D01*
D42*
X43350000Y-80185000D02*
X43255000Y-80280000D01*
X43120000Y-73112200D02*
X43120000Y-75770000D01*
X43120000Y-75770000D02*
X43350000Y-76000000D01*
X43350000Y-76000000D02*
X43350000Y-80185000D01*
D43*
X79850000Y-79850000D02*
X79950000Y-79750000D01*
X79850000Y-83250000D02*
X79850000Y-79850000D01*
X79450000Y-79250000D02*
X79950000Y-79750000D01*
X75687500Y-79250000D02*
X79450000Y-79250000D01*
D42*
X43255000Y-90405000D02*
X43275000Y-90425000D01*
X43255000Y-85495000D02*
X45795000Y-82955000D01*
X43255000Y-88220000D02*
X43255000Y-85495000D01*
X43255000Y-88220000D02*
X43255000Y-90405000D01*
X45795000Y-82955000D02*
X45795000Y-80280000D01*
X57325000Y-91500000D02*
X59925000Y-91500000D01*
D43*
X66485661Y-91575000D02*
X71775000Y-86285661D01*
X71775000Y-86285661D02*
X71775000Y-83162500D01*
X60000000Y-91575000D02*
X66485661Y-91575000D01*
D42*
X59925000Y-91500000D02*
X60000000Y-91575000D01*
D43*
X73275000Y-74837500D02*
X73275000Y-73975000D01*
X76500000Y-70750000D02*
X76500000Y-69325000D01*
X73275000Y-73975000D02*
X76500000Y-70750000D01*
X74500000Y-72042894D02*
X74500000Y-69325000D01*
X72775000Y-73767894D02*
X74500000Y-72042894D01*
X72775000Y-74837500D02*
X72775000Y-73767894D01*
X72275000Y-73560788D02*
X74000000Y-71835788D01*
X72275000Y-74837500D02*
X72275000Y-73560788D01*
X74000000Y-71835788D02*
X74000000Y-70825000D01*
X74000000Y-70825000D02*
X72500000Y-69325000D01*
D42*
X42020000Y-121020000D02*
X44745000Y-121020000D01*
X36805000Y-118480000D02*
X39480000Y-118480000D01*
X50805000Y-123480000D02*
X53480000Y-123480000D01*
X56020000Y-126020000D02*
X58745000Y-126020000D01*
X53480000Y-123480000D02*
X56020000Y-126020000D01*
X64805000Y-128480000D02*
X67480000Y-128480000D01*
X70020000Y-131020000D02*
X72745000Y-131020000D01*
X67480000Y-128480000D02*
X70020000Y-131020000D01*
X42020000Y-136020000D02*
X44745000Y-136020000D01*
X53480000Y-138480000D02*
X56020000Y-141020000D01*
X56020000Y-141020000D02*
X58745000Y-141020000D01*
X50805000Y-138480000D02*
X53480000Y-138480000D01*
X67480000Y-143480000D02*
X70020000Y-146020000D01*
X64805000Y-143480000D02*
X67480000Y-143480000D01*
X70020000Y-146020000D02*
X72745000Y-146020000D01*
G04 #@! TA.AperFunction,Conductor*
G36*
X71193039Y-36519685D02*
G01*
X71238794Y-36572489D01*
X71250000Y-36624000D01*
X71250000Y-38376000D01*
X71230315Y-38443039D01*
X71177511Y-38488794D01*
X71126000Y-38500000D01*
X69624000Y-38500000D01*
X69556961Y-38480315D01*
X69511206Y-38427511D01*
X69500000Y-38376000D01*
X69500000Y-36624000D01*
X69519685Y-36556961D01*
X69572489Y-36511206D01*
X69624000Y-36500000D01*
X71126000Y-36500000D01*
X71193039Y-36519685D01*
G37*
G04 #@! TD.AperFunction*
G04 #@! TA.AperFunction,Conductor*
G36*
X67142539Y-48019685D02*
G01*
X67188294Y-48072489D01*
X67199500Y-48124000D01*
X67199500Y-51376000D01*
X67179815Y-51443039D01*
X67127011Y-51488794D01*
X67075500Y-51500000D01*
X63624000Y-51500000D01*
X63556961Y-51480315D01*
X63511206Y-51427511D01*
X63500000Y-51376000D01*
X63500000Y-48124000D01*
X63519685Y-48056961D01*
X63572489Y-48011206D01*
X63624000Y-48000000D01*
X67075500Y-48000000D01*
X67142539Y-48019685D01*
G37*
G04 #@! TD.AperFunction*
G04 #@! TA.AperFunction,Conductor*
G36*
X48443039Y-54269685D02*
G01*
X48488794Y-54322489D01*
X48500000Y-54374000D01*
X48500000Y-56126000D01*
X48480315Y-56193039D01*
X48427511Y-56238794D01*
X48376000Y-56250000D01*
X46874000Y-56250000D01*
X46806961Y-56230315D01*
X46761206Y-56177511D01*
X46750000Y-56126000D01*
X46750000Y-54374000D01*
X46769685Y-54306961D01*
X46822489Y-54261206D01*
X46874000Y-54250000D01*
X48376000Y-54250000D01*
X48443039Y-54269685D01*
G37*
G04 #@! TD.AperFunction*
G04 #@! TA.AperFunction,Conductor*
G36*
X71193039Y-56531999D02*
G01*
X71238794Y-56584803D01*
X71250000Y-56636314D01*
X71250000Y-58388314D01*
X71230315Y-58455353D01*
X71177511Y-58501108D01*
X71126000Y-58512314D01*
X69624000Y-58512314D01*
X69556961Y-58492629D01*
X69511206Y-58439825D01*
X69500000Y-58388314D01*
X69500000Y-56636314D01*
X69519685Y-56569275D01*
X69572489Y-56523520D01*
X69624000Y-56512314D01*
X71126000Y-56512314D01*
X71193039Y-56531999D01*
G37*
G04 #@! TD.AperFunction*
G04 #@! TA.AperFunction,Conductor*
G36*
X58693039Y-52019685D02*
G01*
X58738794Y-52072489D01*
X58750000Y-52124000D01*
X58750000Y-53626000D01*
X58730315Y-53693039D01*
X58677511Y-53738794D01*
X58626000Y-53750000D01*
X56874000Y-53750000D01*
X56806961Y-53730315D01*
X56761206Y-53677511D01*
X56750000Y-53626000D01*
X56750000Y-52124000D01*
X56769685Y-52056961D01*
X56822489Y-52011206D01*
X56874000Y-52000000D01*
X58626000Y-52000000D01*
X58693039Y-52019685D01*
G37*
G04 #@! TD.AperFunction*
G04 #@! TA.AperFunction,Conductor*
G36*
X52443039Y-54519685D02*
G01*
X52488794Y-54572489D01*
X52500000Y-54624000D01*
X52500000Y-54980583D01*
X52491765Y-55020216D01*
X52492616Y-55020455D01*
X52478385Y-55071237D01*
X52476362Y-55077253D01*
X52460123Y-55118438D01*
X52458288Y-55136284D01*
X52454342Y-55157048D01*
X52449501Y-55174328D01*
X52449500Y-55174337D01*
X52449500Y-55218594D01*
X52449175Y-55224939D01*
X52444648Y-55268970D01*
X52444648Y-55268975D01*
X52447697Y-55286656D01*
X52449500Y-55307724D01*
X52449500Y-61626000D01*
X52429815Y-61693039D01*
X52377011Y-61738794D01*
X52325500Y-61750000D01*
X47874000Y-61750000D01*
X47806961Y-61730315D01*
X47761206Y-61677511D01*
X47750000Y-61626000D01*
X47750000Y-58374000D01*
X47769685Y-58306961D01*
X47822489Y-58261206D01*
X47874000Y-58250000D01*
X50000000Y-58250000D01*
X50000000Y-54624000D01*
X50019685Y-54556961D01*
X50072489Y-54511206D01*
X50124000Y-54500000D01*
X52376000Y-54500000D01*
X52443039Y-54519685D01*
G37*
G04 #@! TD.AperFunction*
G04 #@! TA.AperFunction,Conductor*
G36*
X49693039Y-49019685D02*
G01*
X49738794Y-49072489D01*
X49750000Y-49124000D01*
X49750000Y-50376000D01*
X49730315Y-50443039D01*
X49677511Y-50488794D01*
X49626000Y-50500000D01*
X46374000Y-50500000D01*
X46306961Y-50480315D01*
X46261206Y-50427511D01*
X46250000Y-50376000D01*
X46250000Y-49124000D01*
X46269685Y-49056961D01*
X46322489Y-49011206D01*
X46374000Y-49000000D01*
X49626000Y-49000000D01*
X49693039Y-49019685D01*
G37*
G04 #@! TD.AperFunction*
G04 #@! TA.AperFunction,Conductor*
G36*
X56943039Y-67769685D02*
G01*
X56988794Y-67822489D01*
X57000000Y-67874000D01*
X57000000Y-71626000D01*
X56980315Y-71693039D01*
X56927511Y-71738794D01*
X56876000Y-71750000D01*
X53624000Y-71750000D01*
X53556961Y-71730315D01*
X53511206Y-71677511D01*
X53500000Y-71626000D01*
X53500000Y-67874000D01*
X53519685Y-67806961D01*
X53572489Y-67761206D01*
X53624000Y-67750000D01*
X56876000Y-67750000D01*
X56943039Y-67769685D01*
G37*
G04 #@! TD.AperFunction*
G04 #@! TA.AperFunction,Conductor*
G36*
X54693039Y-43769685D02*
G01*
X54738794Y-43822489D01*
X54750000Y-43874000D01*
X54750000Y-45250000D01*
X61876000Y-45250000D01*
X61943039Y-45269685D01*
X61988794Y-45322489D01*
X62000000Y-45374000D01*
X62000000Y-50325500D01*
X61980315Y-50392539D01*
X61927511Y-50438294D01*
X61876000Y-50449500D01*
X59874000Y-50449500D01*
X59806961Y-50429815D01*
X59761206Y-50377011D01*
X59750000Y-50325500D01*
X59750000Y-47250000D01*
X52374000Y-47250000D01*
X52306961Y-47230315D01*
X52261206Y-47177511D01*
X52250000Y-47126000D01*
X52250000Y-43874000D01*
X52269685Y-43806961D01*
X52322489Y-43761206D01*
X52374000Y-43750000D01*
X54626000Y-43750000D01*
X54693039Y-43769685D01*
G37*
G04 #@! TD.AperFunction*
G04 #@! TA.AperFunction,Conductor*
G36*
X71193039Y-46519685D02*
G01*
X71238794Y-46572489D01*
X71250000Y-46624000D01*
X71250000Y-48376000D01*
X71230315Y-48443039D01*
X71177511Y-48488794D01*
X71126000Y-48500000D01*
X69624000Y-48500000D01*
X69556961Y-48480315D01*
X69511206Y-48427511D01*
X69500000Y-48376000D01*
X69500000Y-46624000D01*
X69519685Y-46556961D01*
X69572489Y-46511206D01*
X69624000Y-46500000D01*
X71126000Y-46500000D01*
X71193039Y-46519685D01*
G37*
G04 #@! TD.AperFunction*
G04 #@! TA.AperFunction,Conductor*
G36*
X56193039Y-52019685D02*
G01*
X56238794Y-52072489D01*
X56250000Y-52124000D01*
X56250000Y-53626000D01*
X56230315Y-53693039D01*
X56177511Y-53738794D01*
X56126000Y-53750000D01*
X54424500Y-53750000D01*
X54357461Y-53730315D01*
X54311706Y-53677511D01*
X54300500Y-53626000D01*
X54300500Y-52124000D01*
X54320185Y-52056961D01*
X54372989Y-52011206D01*
X54424500Y-52000000D01*
X56126000Y-52000000D01*
X56193039Y-52019685D01*
G37*
G04 #@! TD.AperFunction*
G04 #@! TA.AperFunction,Conductor*
G36*
X48693039Y-41519685D02*
G01*
X48738794Y-41572489D01*
X48750000Y-41624000D01*
X48750000Y-48376000D01*
X48730315Y-48443039D01*
X48677511Y-48488794D01*
X48626000Y-48500000D01*
X47124000Y-48500000D01*
X47056961Y-48480315D01*
X47011206Y-48427511D01*
X47000000Y-48376000D01*
X47000000Y-41624000D01*
X47019685Y-41556961D01*
X47072489Y-41511206D01*
X47124000Y-41500000D01*
X48626000Y-41500000D01*
X48693039Y-41519685D01*
G37*
G04 #@! TD.AperFunction*
G04 #@! TA.AperFunction,Conductor*
G36*
X58693039Y-55269685D02*
G01*
X58738794Y-55322489D01*
X58750000Y-55374000D01*
X58750000Y-56126000D01*
X58730315Y-56193039D01*
X58677511Y-56238794D01*
X58626000Y-56250000D01*
X54374000Y-56250000D01*
X54306961Y-56230315D01*
X54261206Y-56177511D01*
X54250000Y-56126000D01*
X54250000Y-55374000D01*
X54269685Y-55306961D01*
X54322489Y-55261206D01*
X54374000Y-55250000D01*
X58626000Y-55250000D01*
X58693039Y-55269685D01*
G37*
G04 #@! TD.AperFunction*
M02*
