G04 #@! TF.GenerationSoftware,KiCad,Pcbnew,7.0.7*
G04 #@! TF.CreationDate,2023-11-03T00:41:13-04:00*
G04 #@! TF.ProjectId,SeniorDesign,53656e69-6f72-4446-9573-69676e2e6b69,rev?*
G04 #@! TF.SameCoordinates,Original*
G04 #@! TF.FileFunction,Copper,L1,Top*
G04 #@! TF.FilePolarity,Positive*
%FSLAX46Y46*%
G04 Gerber Fmt 4.6, Leading zero omitted, Abs format (unit mm)*
G04 Created by KiCad (PCBNEW 7.0.7) date 2023-11-03 00:41:13*
%MOMM*%
%LPD*%
G01*
G04 APERTURE LIST*
G04 Aperture macros list*
%AMRoundRect*
0 Rectangle with rounded corners*
0 $1 Rounding radius*
0 $2 $3 $4 $5 $6 $7 $8 $9 X,Y pos of 4 corners*
0 Add a 4 corners polygon primitive as box body*
4,1,4,$2,$3,$4,$5,$6,$7,$8,$9,$2,$3,0*
0 Add four circle primitives for the rounded corners*
1,1,$1+$1,$2,$3*
1,1,$1+$1,$4,$5*
1,1,$1+$1,$6,$7*
1,1,$1+$1,$8,$9*
0 Add four rect primitives between the rounded corners*
20,1,$1+$1,$2,$3,$4,$5,0*
20,1,$1+$1,$4,$5,$6,$7,0*
20,1,$1+$1,$6,$7,$8,$9,0*
20,1,$1+$1,$8,$9,$2,$3,0*%
G04 Aperture macros list end*
G04 #@! TA.AperFunction,ComponentPad*
%ADD10C,2.032000*%
G04 #@! TD*
G04 #@! TA.AperFunction,SMDPad,CuDef*
%ADD11RoundRect,0.200000X0.275000X-0.200000X0.275000X0.200000X-0.275000X0.200000X-0.275000X-0.200000X0*%
G04 #@! TD*
G04 #@! TA.AperFunction,SMDPad,CuDef*
%ADD12RoundRect,0.200000X-0.200000X-0.275000X0.200000X-0.275000X0.200000X0.275000X-0.200000X0.275000X0*%
G04 #@! TD*
G04 #@! TA.AperFunction,SMDPad,CuDef*
%ADD13RoundRect,0.225000X0.250000X-0.225000X0.250000X0.225000X-0.250000X0.225000X-0.250000X-0.225000X0*%
G04 #@! TD*
G04 #@! TA.AperFunction,SMDPad,CuDef*
%ADD14RoundRect,0.225000X-0.225000X-0.250000X0.225000X-0.250000X0.225000X0.250000X-0.225000X0.250000X0*%
G04 #@! TD*
G04 #@! TA.AperFunction,ComponentPad*
%ADD15R,1.905000X2.000000*%
G04 #@! TD*
G04 #@! TA.AperFunction,ComponentPad*
%ADD16O,1.905000X2.000000*%
G04 #@! TD*
G04 #@! TA.AperFunction,SMDPad,CuDef*
%ADD17RoundRect,0.225000X0.225000X0.250000X-0.225000X0.250000X-0.225000X-0.250000X0.225000X-0.250000X0*%
G04 #@! TD*
G04 #@! TA.AperFunction,SMDPad,CuDef*
%ADD18RoundRect,0.250000X0.550000X-1.050000X0.550000X1.050000X-0.550000X1.050000X-0.550000X-1.050000X0*%
G04 #@! TD*
G04 #@! TA.AperFunction,SMDPad,CuDef*
%ADD19RoundRect,0.200000X0.200000X0.275000X-0.200000X0.275000X-0.200000X-0.275000X0.200000X-0.275000X0*%
G04 #@! TD*
G04 #@! TA.AperFunction,ComponentPad*
%ADD20R,1.130000X1.130000*%
G04 #@! TD*
G04 #@! TA.AperFunction,ComponentPad*
%ADD21C,1.130000*%
G04 #@! TD*
G04 #@! TA.AperFunction,SMDPad,CuDef*
%ADD22R,0.558800X2.184400*%
G04 #@! TD*
G04 #@! TA.AperFunction,SMDPad,CuDef*
%ADD23RoundRect,0.250000X-1.050000X-0.550000X1.050000X-0.550000X1.050000X0.550000X-1.050000X0.550000X0*%
G04 #@! TD*
G04 #@! TA.AperFunction,SMDPad,CuDef*
%ADD24RoundRect,0.225000X-0.250000X0.225000X-0.250000X-0.225000X0.250000X-0.225000X0.250000X0.225000X0*%
G04 #@! TD*
G04 #@! TA.AperFunction,SMDPad,CuDef*
%ADD25RoundRect,0.200000X-0.275000X0.200000X-0.275000X-0.200000X0.275000X-0.200000X0.275000X0.200000X0*%
G04 #@! TD*
G04 #@! TA.AperFunction,SMDPad,CuDef*
%ADD26R,1.000000X0.800000*%
G04 #@! TD*
G04 #@! TA.AperFunction,SMDPad,CuDef*
%ADD27R,0.700000X1.500000*%
G04 #@! TD*
G04 #@! TA.AperFunction,ComponentPad*
%ADD28R,2.200000X2.200000*%
G04 #@! TD*
G04 #@! TA.AperFunction,ComponentPad*
%ADD29O,2.200000X2.200000*%
G04 #@! TD*
G04 #@! TA.AperFunction,ComponentPad*
%ADD30R,1.080000X1.080000*%
G04 #@! TD*
G04 #@! TA.AperFunction,ComponentPad*
%ADD31C,1.080000*%
G04 #@! TD*
G04 #@! TA.AperFunction,SMDPad,CuDef*
%ADD32R,1.200000X1.400000*%
G04 #@! TD*
G04 #@! TA.AperFunction,SMDPad,CuDef*
%ADD33R,2.184400X0.558800*%
G04 #@! TD*
G04 #@! TA.AperFunction,SMDPad,CuDef*
%ADD34R,1.300000X0.450000*%
G04 #@! TD*
G04 #@! TA.AperFunction,ComponentPad*
%ADD35O,1.800000X1.150000*%
G04 #@! TD*
G04 #@! TA.AperFunction,ComponentPad*
%ADD36O,2.000000X1.450000*%
G04 #@! TD*
G04 #@! TA.AperFunction,SMDPad,CuDef*
%ADD37RoundRect,0.218750X-0.256250X0.218750X-0.256250X-0.218750X0.256250X-0.218750X0.256250X0.218750X0*%
G04 #@! TD*
G04 #@! TA.AperFunction,SMDPad,CuDef*
%ADD38R,0.558800X0.533400*%
G04 #@! TD*
G04 #@! TA.AperFunction,SMDPad,CuDef*
%ADD39R,0.279400X0.533400*%
G04 #@! TD*
G04 #@! TA.AperFunction,SMDPad,CuDef*
%ADD40R,2.844800X0.939800*%
G04 #@! TD*
G04 #@! TA.AperFunction,SMDPad,CuDef*
%ADD41RoundRect,0.075000X-0.662500X-0.075000X0.662500X-0.075000X0.662500X0.075000X-0.662500X0.075000X0*%
G04 #@! TD*
G04 #@! TA.AperFunction,SMDPad,CuDef*
%ADD42RoundRect,0.075000X-0.075000X-0.662500X0.075000X-0.662500X0.075000X0.662500X-0.075000X0.662500X0*%
G04 #@! TD*
G04 #@! TA.AperFunction,ViaPad*
%ADD43C,0.800000*%
G04 #@! TD*
G04 #@! TA.AperFunction,ViaPad*
%ADD44C,0.700000*%
G04 #@! TD*
G04 #@! TA.AperFunction,Conductor*
%ADD45C,0.500000*%
G04 #@! TD*
G04 #@! TA.AperFunction,Conductor*
%ADD46C,0.300000*%
G04 #@! TD*
G04 APERTURE END LIST*
D10*
X86775000Y-65750001D03*
X86775000Y-60750001D03*
X86775000Y-55750000D03*
X86775000Y-50750000D03*
X86775000Y-45750000D03*
X86775000Y-40750000D03*
X86775000Y-35750000D03*
X27025000Y-121000000D03*
X27025000Y-126000000D03*
X27025000Y-131000001D03*
X27025000Y-136000001D03*
X27025000Y-141000001D03*
X27025000Y-146000001D03*
X27025000Y-151000001D03*
X29250000Y-65000000D03*
X29250000Y-70000000D03*
X29250000Y-75000001D03*
X29250000Y-80000001D03*
X29250000Y-85000001D03*
X29250000Y-90000001D03*
X29250000Y-95000001D03*
X47308399Y-26250000D03*
X52308399Y-26250000D03*
X57308400Y-26250000D03*
X62308400Y-26250000D03*
X67308400Y-26250000D03*
X72308400Y-26250000D03*
X77308400Y-26250000D03*
D11*
X59275000Y-111075000D03*
X59275000Y-109425000D03*
D12*
X64450000Y-105750000D03*
X66100000Y-105750000D03*
D13*
X75000000Y-143525000D03*
X75000000Y-141975000D03*
D14*
X46250000Y-90500000D03*
X47800000Y-90500000D03*
D13*
X64250000Y-81525000D03*
X64250000Y-79975000D03*
X48750000Y-134025000D03*
X48750000Y-132475000D03*
D15*
X60985000Y-43445000D03*
D16*
X63525000Y-43445000D03*
X66065000Y-43445000D03*
D11*
X55500000Y-60075000D03*
X55500000Y-58425000D03*
D17*
X53275000Y-33000000D03*
X51725000Y-33000000D03*
D18*
X53500000Y-44050000D03*
X53500000Y-40450000D03*
D19*
X59575000Y-60000000D03*
X57925000Y-60000000D03*
D11*
X62500000Y-62325000D03*
X62500000Y-60675000D03*
D14*
X33225000Y-140250000D03*
X34775000Y-140250000D03*
X43225000Y-104250000D03*
X44775000Y-104250000D03*
D13*
X63000000Y-123525000D03*
X63000000Y-121975000D03*
X75000000Y-128525000D03*
X75000000Y-126975000D03*
D20*
X48335000Y-80280000D03*
D21*
X45795000Y-80280000D03*
X43255000Y-80280000D03*
X40715000Y-80280000D03*
X40715000Y-88220000D03*
X43255000Y-88220000D03*
X45795000Y-88220000D03*
X48335000Y-88220000D03*
D22*
X40580000Y-68387800D03*
X41850000Y-68387800D03*
X43120000Y-68387800D03*
X44390000Y-68387800D03*
X45660000Y-68387800D03*
X46930000Y-68387800D03*
X48200000Y-68387800D03*
X49470000Y-68387800D03*
X49470000Y-73112200D03*
X48200000Y-73112200D03*
X46930000Y-73112200D03*
X45660000Y-73112200D03*
X44390000Y-73112200D03*
X43120000Y-73112200D03*
X41850000Y-73112200D03*
X40580000Y-73112200D03*
D20*
X64805000Y-125940000D03*
D21*
X64805000Y-128480000D03*
X64805000Y-131020000D03*
X64805000Y-133560000D03*
X72745000Y-133560000D03*
X72745000Y-131020000D03*
X72745000Y-128480000D03*
X72745000Y-125940000D03*
D23*
X65325000Y-49250000D03*
X61725000Y-49250000D03*
D20*
X50805000Y-120940000D03*
D21*
X50805000Y-123480000D03*
X50805000Y-126020000D03*
X50805000Y-128560000D03*
X58745000Y-128560000D03*
X58745000Y-126020000D03*
X58745000Y-123480000D03*
X58745000Y-120940000D03*
D14*
X57725000Y-76250000D03*
X59275000Y-76250000D03*
X61225000Y-146750000D03*
X62775000Y-146750000D03*
D11*
X72500000Y-69325000D03*
X72500000Y-67675000D03*
D19*
X72825000Y-37500000D03*
X71175000Y-37500000D03*
D14*
X46975000Y-128500000D03*
X48525000Y-128500000D03*
D24*
X59500000Y-101225000D03*
X59500000Y-102775000D03*
D13*
X61000000Y-138525000D03*
X61000000Y-136975000D03*
D19*
X72825000Y-47500000D03*
X71175000Y-47500000D03*
D14*
X45500000Y-42500000D03*
X47050000Y-42500000D03*
D17*
X74800000Y-85500000D03*
X73250000Y-85500000D03*
D25*
X43275000Y-90425000D03*
X43275000Y-92075000D03*
D26*
X38400000Y-22255000D03*
X38400000Y-20045000D03*
X31100000Y-22255000D03*
X31100000Y-20045000D03*
D27*
X37000000Y-22905000D03*
X34000000Y-22905000D03*
X32500000Y-22905000D03*
D13*
X62750000Y-59050000D03*
X62750000Y-57500000D03*
D17*
X40025000Y-90500000D03*
X38475000Y-90500000D03*
D20*
X36805000Y-115940000D03*
D21*
X36805000Y-118480000D03*
X36805000Y-121020000D03*
X36805000Y-123560000D03*
X44745000Y-123560000D03*
X44745000Y-121020000D03*
X44745000Y-118480000D03*
X44745000Y-115940000D03*
D17*
X58525000Y-54750000D03*
X56975000Y-54750000D03*
D14*
X61225000Y-54500000D03*
X62775000Y-54500000D03*
D20*
X61555000Y-95190000D03*
D21*
X61555000Y-97730000D03*
X61555000Y-100270000D03*
X61555000Y-102810000D03*
X69495000Y-102810000D03*
X69495000Y-100270000D03*
X69495000Y-97730000D03*
X69495000Y-95190000D03*
D15*
X45485000Y-52195000D03*
D16*
X48025000Y-52195000D03*
X50565000Y-52195000D03*
D17*
X47025000Y-34250000D03*
X45475000Y-34250000D03*
D28*
X53445000Y-36250000D03*
D29*
X63605000Y-36250000D03*
D20*
X50805000Y-135940000D03*
D21*
X50805000Y-138480000D03*
X50805000Y-141020000D03*
X50805000Y-143560000D03*
X58745000Y-143560000D03*
X58745000Y-141020000D03*
X58745000Y-138480000D03*
X58745000Y-135940000D03*
D30*
X77500000Y-40020000D03*
D31*
X78770000Y-38750000D03*
X77500000Y-37480000D03*
D28*
X76945000Y-89000000D03*
D29*
X87105000Y-89000000D03*
D19*
X43350000Y-76000000D03*
X41700000Y-76000000D03*
D11*
X76500000Y-69325000D03*
X76500000Y-67675000D03*
D24*
X71750000Y-106975000D03*
X71750000Y-108525000D03*
D20*
X36805000Y-130940000D03*
D21*
X36805000Y-133480000D03*
X36805000Y-136020000D03*
X36805000Y-138560000D03*
X44745000Y-138560000D03*
X44745000Y-136020000D03*
X44745000Y-133480000D03*
X44745000Y-130940000D03*
D12*
X55675000Y-91500000D03*
X57325000Y-91500000D03*
D32*
X57675000Y-78400000D03*
X57675000Y-80600000D03*
X59375000Y-80600000D03*
X59375000Y-78400000D03*
D13*
X77000000Y-128525000D03*
X77000000Y-126975000D03*
D30*
X77500000Y-60020000D03*
D31*
X78770000Y-58750000D03*
X77500000Y-57480000D03*
D11*
X74500000Y-69325000D03*
X74500000Y-67675000D03*
D13*
X65025000Y-76275000D03*
X65025000Y-74725000D03*
D20*
X64805000Y-140940000D03*
D21*
X64805000Y-143480000D03*
X64805000Y-146020000D03*
X64805000Y-148560000D03*
X72745000Y-148560000D03*
X72745000Y-146020000D03*
X72745000Y-143480000D03*
X72745000Y-140940000D03*
D24*
X74250000Y-105225000D03*
X74250000Y-106775000D03*
D14*
X46225000Y-92250000D03*
X47775000Y-92250000D03*
D19*
X72825000Y-57512314D03*
X71175000Y-57512314D03*
D17*
X40025000Y-92250000D03*
X38475000Y-92250000D03*
D20*
X69495000Y-116060000D03*
D21*
X69495000Y-113520000D03*
X69495000Y-110980000D03*
X69495000Y-108440000D03*
X61555000Y-108440000D03*
X61555000Y-110980000D03*
X61555000Y-113520000D03*
X61555000Y-116060000D03*
D12*
X55425000Y-51000000D03*
X57075000Y-51000000D03*
D13*
X90000000Y-102275000D03*
X90000000Y-100725000D03*
D24*
X78750000Y-74225000D03*
X78750000Y-75775000D03*
D14*
X57225000Y-32400000D03*
X58775000Y-32400000D03*
X45500000Y-47500000D03*
X47050000Y-47500000D03*
X47225000Y-143500000D03*
X48775000Y-143500000D03*
D12*
X68200000Y-66500000D03*
X69850000Y-66500000D03*
D14*
X33225000Y-125000000D03*
X34775000Y-125000000D03*
X38475000Y-76250000D03*
X40025000Y-76250000D03*
D33*
X79912800Y-112555000D03*
X79912800Y-113825000D03*
X79912800Y-115095000D03*
X79912800Y-116365000D03*
X79912800Y-117635000D03*
X79912800Y-118905000D03*
X79912800Y-120175000D03*
X79912800Y-121445000D03*
X84637200Y-121445000D03*
X84637200Y-120175000D03*
X84637200Y-118905000D03*
X84637200Y-117635000D03*
X84637200Y-116365000D03*
X84637200Y-115095000D03*
X84637200Y-113825000D03*
X84637200Y-112555000D03*
D13*
X49000000Y-118525000D03*
X49000000Y-116975000D03*
D19*
X81600000Y-79750000D03*
X79950000Y-79750000D03*
D17*
X48975000Y-55200000D03*
X47425000Y-55200000D03*
D14*
X60975000Y-133500000D03*
X62525000Y-133500000D03*
D20*
X45835000Y-94280000D03*
D21*
X43295000Y-94280000D03*
X40755000Y-94280000D03*
X38215000Y-94280000D03*
X38215000Y-102220000D03*
X40755000Y-102220000D03*
X43295000Y-102220000D03*
X45835000Y-102220000D03*
D28*
X39945000Y-60000000D03*
D29*
X50105000Y-60000000D03*
D14*
X43225000Y-106000000D03*
X44775000Y-106000000D03*
X39225000Y-78000000D03*
X40775000Y-78000000D03*
D13*
X73750000Y-97775000D03*
X73750000Y-96225000D03*
D20*
X78055000Y-99690000D03*
D21*
X78055000Y-102230000D03*
X78055000Y-104770000D03*
X78055000Y-107310000D03*
X85995000Y-107310000D03*
X85995000Y-104770000D03*
X85995000Y-102230000D03*
X85995000Y-99690000D03*
D34*
X87845000Y-79050000D03*
X87845000Y-78400000D03*
X87845000Y-77750000D03*
X87845000Y-77100000D03*
X87845000Y-76450000D03*
D35*
X91695000Y-81625000D03*
D36*
X87895000Y-81475000D03*
X87895000Y-74025000D03*
D35*
X91695000Y-73875000D03*
D37*
X66775000Y-84212500D03*
X66775000Y-85787500D03*
D12*
X49675000Y-94250000D03*
X51325000Y-94250000D03*
X70200000Y-91500000D03*
X71850000Y-91500000D03*
D11*
X60000000Y-91575000D03*
X60000000Y-89925000D03*
D13*
X47000000Y-118525000D03*
X47000000Y-116975000D03*
X88000000Y-102275000D03*
X88000000Y-100725000D03*
D28*
X49750000Y-107080000D03*
D29*
X49750000Y-96920000D03*
D38*
X61137627Y-56141800D03*
D39*
X60500252Y-56141800D03*
X60000126Y-56141800D03*
X59500000Y-56141800D03*
D38*
X58862625Y-56141800D03*
X58862625Y-58250000D03*
D39*
X59500000Y-58250000D03*
X60000126Y-58250000D03*
X60500252Y-58250000D03*
D38*
X61137627Y-58250000D03*
D40*
X60000126Y-57195900D03*
D13*
X62750000Y-138525000D03*
X62750000Y-136975000D03*
D17*
X59275000Y-82750000D03*
X57725000Y-82750000D03*
X65050000Y-84000000D03*
X63500000Y-84000000D03*
D24*
X57250000Y-113475000D03*
X57250000Y-115025000D03*
D25*
X83250000Y-75675000D03*
X83250000Y-77325000D03*
D14*
X68250000Y-69500000D03*
X69800000Y-69500000D03*
D12*
X72675000Y-89000000D03*
X74325000Y-89000000D03*
D24*
X59250000Y-113475000D03*
X59250000Y-115025000D03*
D13*
X77000000Y-143525000D03*
X77000000Y-141975000D03*
X47000000Y-134050000D03*
X47000000Y-132500000D03*
D14*
X68250000Y-72500000D03*
X69800000Y-72500000D03*
X47225000Y-141750000D03*
X48775000Y-141750000D03*
D41*
X67362500Y-76250000D03*
X67362500Y-76750000D03*
X67362500Y-77250000D03*
X67362500Y-77750000D03*
X67362500Y-78250000D03*
X67362500Y-78750000D03*
X67362500Y-79250000D03*
X67362500Y-79750000D03*
X67362500Y-80250000D03*
X67362500Y-80750000D03*
X67362500Y-81250000D03*
X67362500Y-81750000D03*
D42*
X68775000Y-83162500D03*
X69275000Y-83162500D03*
X69775000Y-83162500D03*
X70275000Y-83162500D03*
X70775000Y-83162500D03*
X71275000Y-83162500D03*
X71775000Y-83162500D03*
X72275000Y-83162500D03*
X72775000Y-83162500D03*
X73275000Y-83162500D03*
X73775000Y-83162500D03*
X74275000Y-83162500D03*
D41*
X75687500Y-81750000D03*
X75687500Y-81250000D03*
X75687500Y-80750000D03*
X75687500Y-80250000D03*
X75687500Y-79750000D03*
X75687500Y-79250000D03*
X75687500Y-78750000D03*
X75687500Y-78250000D03*
X75687500Y-77750000D03*
X75687500Y-77250000D03*
X75687500Y-76750000D03*
X75687500Y-76250000D03*
D42*
X74275000Y-74837500D03*
X73775000Y-74837500D03*
X73275000Y-74837500D03*
X72775000Y-74837500D03*
X72275000Y-74837500D03*
X71775000Y-74837500D03*
X71275000Y-74837500D03*
X70775000Y-74837500D03*
X70275000Y-74837500D03*
X69775000Y-74837500D03*
X69275000Y-74837500D03*
X68775000Y-74837500D03*
D14*
X33225000Y-123500000D03*
X34775000Y-123500000D03*
D30*
X77500000Y-50020000D03*
D31*
X78770000Y-48750000D03*
X77500000Y-47480000D03*
D28*
X87330000Y-95500000D03*
D29*
X77170000Y-95500000D03*
D13*
X61000000Y-123525000D03*
X61000000Y-121975000D03*
D14*
X61225000Y-148500000D03*
X62775000Y-148500000D03*
D24*
X76000000Y-105725000D03*
X76000000Y-107275000D03*
X57500000Y-101225000D03*
X57500000Y-102775000D03*
D14*
X60975000Y-135000000D03*
X62525000Y-135000000D03*
D13*
X73500000Y-110025000D03*
X73500000Y-108475000D03*
D14*
X33225000Y-138500000D03*
X34775000Y-138500000D03*
D19*
X59575000Y-53000000D03*
X57925000Y-53000000D03*
D25*
X75000000Y-100425000D03*
X75000000Y-102075000D03*
D12*
X75200000Y-92000000D03*
X76850000Y-92000000D03*
D17*
X66525000Y-89000000D03*
X64975000Y-89000000D03*
D19*
X79850000Y-83250000D03*
X78200000Y-83250000D03*
D17*
X65050000Y-86000000D03*
X63500000Y-86000000D03*
D14*
X45500000Y-45000000D03*
X47050000Y-45000000D03*
D28*
X54250000Y-94420000D03*
D29*
X54250000Y-104580000D03*
D11*
X77025000Y-115325000D03*
X77025000Y-113675000D03*
D12*
X48975000Y-57200000D03*
X50625000Y-57200000D03*
D13*
X71750000Y-97775000D03*
X71750000Y-96225000D03*
D14*
X46975000Y-130000000D03*
X48525000Y-130000000D03*
D43*
X27250000Y-95750000D03*
X26000000Y-95750000D03*
X24750000Y-95750000D03*
X23500000Y-95750000D03*
X23500000Y-94250000D03*
X24750000Y-94250000D03*
X26000000Y-94250000D03*
X27250000Y-94250000D03*
X44000000Y-40250000D03*
D44*
X62250000Y-72750000D03*
X63250000Y-77250000D03*
X81000000Y-72750000D03*
X76500000Y-85500000D03*
X66750000Y-87500000D03*
X56250000Y-61500000D03*
X59250000Y-133500000D03*
X48250000Y-48000000D03*
X47250000Y-49750000D03*
X46250000Y-104250000D03*
X30000000Y-151000000D03*
X59750000Y-148500000D03*
X49470000Y-75470000D03*
X69750000Y-76500000D03*
X75000000Y-125500000D03*
D43*
X55750000Y-115000000D03*
D44*
X61000000Y-120500000D03*
X48250000Y-43000000D03*
X55750000Y-46250000D03*
X46250000Y-106000000D03*
X72025000Y-110025000D03*
X48750000Y-33000000D03*
X81865000Y-116365000D03*
D43*
X71750000Y-94500000D03*
D44*
X57250000Y-46250000D03*
X56750000Y-60000000D03*
X46975000Y-131200000D03*
X38500000Y-80000000D03*
X49000000Y-115500000D03*
X40750000Y-96250000D03*
X63000000Y-120500000D03*
X60200000Y-31800000D03*
X62750000Y-56000000D03*
X69500000Y-80500000D03*
X47000000Y-115500000D03*
X59762112Y-146742240D03*
X57250000Y-57250000D03*
X45750000Y-141750000D03*
X75750000Y-50000000D03*
X45750000Y-143500000D03*
X32000000Y-140250000D03*
X48250000Y-44500000D03*
X48250000Y-47000000D03*
X77000000Y-125500000D03*
D43*
X73750000Y-94500000D03*
X38750000Y-71500000D03*
D44*
X81905000Y-118905000D03*
D43*
X91750000Y-100750000D03*
D44*
X32000000Y-138500000D03*
X75000000Y-140500000D03*
X75750000Y-40000000D03*
X75750000Y-60000000D03*
D43*
X68500000Y-91500000D03*
D44*
X32000000Y-125000000D03*
X50000000Y-33000000D03*
D43*
X55850000Y-80600000D03*
D44*
X70250000Y-106500000D03*
X74000000Y-77250000D03*
X49500000Y-92250000D03*
X81945000Y-121445000D03*
X66500000Y-74750000D03*
X48250000Y-45500000D03*
X60200000Y-33000000D03*
D43*
X61000000Y-77250000D03*
D44*
X73250000Y-81500000D03*
X45660000Y-71000000D03*
X56750000Y-53000000D03*
X77000000Y-140500000D03*
D43*
X63500000Y-88250000D03*
D44*
X58750000Y-46250000D03*
X48250000Y-42000000D03*
X81250000Y-35750000D03*
X46175000Y-54700000D03*
X32000000Y-123500000D03*
X57250000Y-56250000D03*
X48750000Y-49750000D03*
X77308400Y-31800000D03*
D43*
X85500000Y-76500000D03*
X37000000Y-24750000D03*
D44*
X48750000Y-34250000D03*
X81925000Y-113825000D03*
X49500000Y-90500000D03*
D43*
X80750000Y-104750000D03*
D44*
X64475000Y-136975000D03*
X58575000Y-89925000D03*
X46175000Y-55700000D03*
X50000000Y-34250000D03*
D43*
X78200000Y-81800000D03*
D44*
X70500000Y-80500000D03*
D43*
X68000000Y-89000000D03*
D44*
X30250000Y-142750000D03*
X57000000Y-104250000D03*
X52000000Y-99250000D03*
X38500000Y-89000000D03*
X61500000Y-106750000D03*
X32250000Y-127000000D03*
X47250000Y-145000000D03*
X34750000Y-122000000D03*
X47250000Y-127000000D03*
X34750000Y-137000000D03*
X42250000Y-78000000D03*
D43*
X51000000Y-78500000D03*
D44*
X60250000Y-131000000D03*
D43*
X44500000Y-78000000D03*
D44*
X49250000Y-147000000D03*
X70000000Y-47000000D03*
X61000000Y-140000000D03*
X51250000Y-55800000D03*
X70000000Y-38000000D03*
X48750000Y-135250000D03*
X44750000Y-90500000D03*
X50500000Y-118525000D03*
X70000000Y-37000000D03*
X70000000Y-48000000D03*
X86945000Y-112555000D03*
X64500000Y-123500000D03*
D43*
X43250000Y-107500000D03*
X91750000Y-102250000D03*
D44*
X78750000Y-143500000D03*
X40500000Y-70500000D03*
X70000000Y-58012314D03*
X51250000Y-54800000D03*
X78500000Y-128525000D03*
X70000000Y-57012314D03*
D43*
X55750000Y-113500000D03*
X75750000Y-97750000D03*
D44*
X44390000Y-65000000D03*
X43120000Y-66000000D03*
X41850000Y-70650000D03*
X43500000Y-70750000D03*
X45660000Y-75410000D03*
X32500000Y-131000000D03*
X43000000Y-142500000D03*
X73000000Y-71750000D03*
X84500000Y-63000000D03*
X71750000Y-71750000D03*
X84500000Y-57250000D03*
X89500000Y-48500000D03*
X80500000Y-76500000D03*
X86405000Y-123845000D03*
X47250000Y-70500000D03*
X63599500Y-63700000D03*
X46930000Y-65070000D03*
X64500000Y-64750000D03*
X48500000Y-70500000D03*
X48200000Y-65800000D03*
X85045196Y-123045000D03*
X82745000Y-122245000D03*
X65500000Y-65750000D03*
X49470000Y-66280000D03*
X49750000Y-70500000D03*
D43*
X34000000Y-24750000D03*
X68200000Y-64800000D03*
X70250000Y-85500000D03*
X71250000Y-88250000D03*
D44*
X41000000Y-129250000D03*
X41000000Y-133250000D03*
X41000000Y-125200500D03*
X41000000Y-147250000D03*
X56020000Y-134000000D03*
X64800000Y-154000000D03*
X87000000Y-128750000D03*
X92200000Y-123000000D03*
X42000000Y-147250000D03*
X42000000Y-140500000D03*
X72750000Y-114000000D03*
X74250000Y-112500000D03*
X66500000Y-127000000D03*
X67500000Y-127000000D03*
X67500000Y-130500000D03*
D43*
X57250000Y-34000000D03*
X61000000Y-52500000D03*
D45*
X29250000Y-82750000D02*
X29250000Y-85000001D01*
X37000000Y-75000000D02*
X29250000Y-82750000D01*
X40250000Y-75000000D02*
X37000000Y-75000000D01*
X40580000Y-74670000D02*
X40250000Y-75000000D01*
X40580000Y-73112200D02*
X40580000Y-74670000D01*
X41850000Y-74650000D02*
X41700000Y-74800000D01*
X41850000Y-73112200D02*
X41850000Y-74650000D01*
X41700000Y-74800000D02*
X41700000Y-76000000D01*
X43350000Y-74750000D02*
X43350000Y-76000000D01*
X43120000Y-74520000D02*
X43350000Y-74750000D01*
X43120000Y-73112200D02*
X43120000Y-74520000D01*
X77925000Y-113675000D02*
X77025000Y-113675000D01*
X78075000Y-113825000D02*
X77925000Y-113675000D01*
X79912800Y-113825000D02*
X78075000Y-113825000D01*
X78000000Y-115325000D02*
X77025000Y-115325000D01*
X78230000Y-115095000D02*
X78000000Y-115325000D01*
X79912800Y-115095000D02*
X78230000Y-115095000D01*
X58950000Y-145800000D02*
X59250000Y-145500000D01*
X27025000Y-146000001D02*
X27225001Y-145800000D01*
X27225001Y-145800000D02*
X58950000Y-145800000D01*
X59250000Y-145500000D02*
X64285000Y-145500000D01*
X64285000Y-145500000D02*
X64805000Y-146020000D01*
X86885000Y-117635000D02*
X84637200Y-117635000D01*
X88200000Y-118950000D02*
X86885000Y-117635000D01*
X88200000Y-147300000D02*
X88200000Y-118950000D01*
X46000000Y-151250000D02*
X84250000Y-151250000D01*
X84250000Y-151250000D02*
X88200000Y-147300000D01*
X42000000Y-147250000D02*
X46000000Y-151250000D01*
X67750000Y-43750000D02*
X72825000Y-38675000D01*
X72825000Y-38675000D02*
X72825000Y-37500000D01*
X67750000Y-59500000D02*
X67750000Y-43750000D01*
X63599500Y-63650500D02*
X67750000Y-59500000D01*
X63599500Y-63700000D02*
X63599500Y-63650500D01*
X72825000Y-48175000D02*
X72825000Y-47500000D01*
X68750000Y-60500000D02*
X68750000Y-52250000D01*
X64500000Y-64750000D02*
X68750000Y-60500000D01*
X68750000Y-52250000D02*
X72825000Y-48175000D01*
X72825000Y-58425000D02*
X72825000Y-57512314D01*
X65500000Y-65750000D02*
X72825000Y-58425000D01*
X68200000Y-64800000D02*
X68200000Y-66500000D01*
D46*
X73750000Y-70575000D02*
X72500000Y-69325000D01*
X73750000Y-72085788D02*
X73750000Y-70575000D01*
X72275000Y-74837500D02*
X72275000Y-73560788D01*
X72275000Y-73560788D02*
X73750000Y-72085788D01*
X78775000Y-74225000D02*
X78750000Y-74225000D01*
X76750000Y-76250000D02*
X78775000Y-74225000D01*
X75687500Y-76250000D02*
X76750000Y-76250000D01*
D45*
X61250000Y-60750000D02*
X62425000Y-60750000D01*
X62425000Y-60750000D02*
X62500000Y-60675000D01*
X60500000Y-61500000D02*
X61250000Y-60750000D01*
X56250000Y-61500000D02*
X60500000Y-61500000D01*
X62000000Y-72750000D02*
X62250000Y-72750000D01*
X61250000Y-63575000D02*
X61250000Y-72000000D01*
X62500000Y-62325000D02*
X61250000Y-63575000D01*
X61250000Y-72000000D02*
X62000000Y-72750000D01*
X81250000Y-35750000D02*
X86775000Y-35750000D01*
X32500000Y-22905000D02*
X32500000Y-26500000D01*
X81000000Y-72750000D02*
X79500000Y-72750000D01*
X83250000Y-73750000D02*
X83250000Y-75675000D01*
D46*
X74275000Y-83162500D02*
X74275000Y-84975000D01*
D45*
X79500000Y-72750000D02*
X78750000Y-73500000D01*
X66750000Y-85812500D02*
X66775000Y-85787500D01*
X55500000Y-60750000D02*
X55500000Y-60075000D01*
X61250000Y-66250000D02*
X63000000Y-68000000D01*
X65262500Y-85787500D02*
X65050000Y-86000000D01*
X67500000Y-68000000D02*
X68250000Y-68750000D01*
X76500000Y-85500000D02*
X74800000Y-85500000D01*
D46*
X68775000Y-73025000D02*
X68250000Y-72500000D01*
X67362500Y-76250000D02*
X65050000Y-76250000D01*
D45*
X66750000Y-87500000D02*
X66750000Y-85812500D01*
X63000000Y-68000000D02*
X67500000Y-68000000D01*
X32500000Y-26500000D02*
X32500000Y-36500000D01*
X68250000Y-72500000D02*
X68250000Y-69500000D01*
X81000000Y-72750000D02*
X86775000Y-66975000D01*
X32500000Y-36500000D02*
X36250000Y-40250000D01*
D46*
X74275000Y-84975000D02*
X74800000Y-85500000D01*
D45*
X62250000Y-72750000D02*
X62250000Y-75275000D01*
X81000000Y-72750000D02*
X82250000Y-72750000D01*
D46*
X65050000Y-76250000D02*
X65025000Y-76275000D01*
D45*
X63250000Y-76275000D02*
X63250000Y-77250000D01*
D46*
X68775000Y-74837500D02*
X68775000Y-73025000D01*
D45*
X78750000Y-73500000D02*
X78750000Y-74225000D01*
X68250000Y-68750000D02*
X68250000Y-69500000D01*
X36250000Y-40250000D02*
X44000000Y-40250000D01*
X63250000Y-76275000D02*
X65025000Y-76275000D01*
X82250000Y-72750000D02*
X83250000Y-73750000D01*
X62250000Y-75275000D02*
X63250000Y-76275000D01*
X86775000Y-66975000D02*
X86775000Y-65750001D01*
X66775000Y-85787500D02*
X65262500Y-85787500D01*
X56250000Y-61500000D02*
X55500000Y-60750000D01*
X71750000Y-106975000D02*
X70725000Y-106975000D01*
X57725000Y-80650000D02*
X57675000Y-80600000D01*
D46*
X69275000Y-73025000D02*
X69275000Y-74837500D01*
D45*
X49000000Y-115500000D02*
X49000000Y-116975000D01*
X55775000Y-115025000D02*
X59275000Y-115025000D01*
X61225000Y-148500000D02*
X59750000Y-148500000D01*
X63000000Y-83500000D02*
X63500000Y-84000000D01*
X58575000Y-89925000D02*
X60000000Y-89925000D01*
X58750000Y-44750000D02*
X60055000Y-43445000D01*
D46*
X77775000Y-76750000D02*
X78750000Y-75775000D01*
D45*
X75025000Y-140525000D02*
X75000000Y-140500000D01*
X77500000Y-60020000D02*
X75770000Y-60020000D01*
X45660000Y-71000000D02*
X46500000Y-71000000D01*
X47225000Y-143500000D02*
X45750000Y-143500000D01*
X32000000Y-140250000D02*
X33225000Y-140250000D01*
X59850000Y-78400000D02*
X59375000Y-78400000D01*
D46*
X69800000Y-72500000D02*
X69275000Y-73025000D01*
D45*
X61217240Y-146742240D02*
X61225000Y-146750000D01*
X64975000Y-89000000D02*
X64250000Y-89000000D01*
X48750000Y-49750000D02*
X48025000Y-50475000D01*
X39225000Y-79275000D02*
X38500000Y-80000000D01*
X75770000Y-50020000D02*
X75750000Y-50000000D01*
X41850000Y-73112200D02*
X41850000Y-71850000D01*
X91750000Y-100750000D02*
X91725000Y-100725000D01*
X61000000Y-136975000D02*
X62750000Y-136975000D01*
X59275000Y-78300000D02*
X59375000Y-78400000D01*
X76000000Y-105725000D02*
X77100000Y-105725000D01*
X49500000Y-92250000D02*
X47775000Y-92250000D01*
X60600000Y-101225000D02*
X61555000Y-100270000D01*
X46975000Y-131200000D02*
X46975000Y-132475000D01*
D46*
X69750000Y-76500000D02*
X69275000Y-76025000D01*
D45*
X40050000Y-93575000D02*
X40755000Y-94280000D01*
X75770000Y-60020000D02*
X75750000Y-60000000D01*
X48025000Y-50525000D02*
X47250000Y-49750000D01*
X81945000Y-121445000D02*
X79912800Y-121445000D01*
X75500000Y-105225000D02*
X76000000Y-105725000D01*
X46975000Y-132475000D02*
X47000000Y-132500000D01*
X33225000Y-125000000D02*
X32000000Y-125000000D01*
X63775000Y-79975000D02*
X63000000Y-80750000D01*
X48750000Y-132475000D02*
X47025000Y-132475000D01*
X64250000Y-79975000D02*
X63775000Y-79975000D01*
D46*
X68750000Y-79750000D02*
X69500000Y-80500000D01*
D45*
X60055000Y-43445000D02*
X60985000Y-43445000D01*
X91725000Y-100725000D02*
X88275000Y-100725000D01*
X46500000Y-71000000D02*
X46930000Y-71430000D01*
X71750000Y-96225000D02*
X71750000Y-94500000D01*
X78200000Y-81800000D02*
X78200000Y-83250000D01*
X77000000Y-140500000D02*
X77000000Y-141975000D01*
X75025000Y-125525000D02*
X75000000Y-125500000D01*
X75025000Y-141975000D02*
X75025000Y-140525000D01*
X61025000Y-121975000D02*
X61025000Y-120525000D01*
X81905000Y-118905000D02*
X79912800Y-118905000D01*
X63000000Y-80750000D02*
X63000000Y-83500000D01*
X80750000Y-104750000D02*
X80730000Y-104770000D01*
X49470000Y-75470000D02*
X49470000Y-73112200D01*
D46*
X65025000Y-74725000D02*
X66475000Y-74725000D01*
X67362500Y-79750000D02*
X68750000Y-79750000D01*
D45*
X74250000Y-105225000D02*
X75500000Y-105225000D01*
X46250000Y-104250000D02*
X44775000Y-104250000D01*
X59762112Y-146742240D02*
X61217240Y-146742240D01*
X60975000Y-133500000D02*
X60975000Y-135000000D01*
X40755000Y-96245000D02*
X40750000Y-96250000D01*
X57725000Y-82750000D02*
X57725000Y-80650000D01*
D46*
X75687500Y-76750000D02*
X74500000Y-76750000D01*
D45*
X38475000Y-77250000D02*
X39225000Y-78000000D01*
X46930000Y-71430000D02*
X46930000Y-73112200D01*
X55750000Y-115000000D02*
X55775000Y-115025000D01*
X44775000Y-106000000D02*
X46250000Y-106000000D01*
D46*
X69275000Y-76025000D02*
X69275000Y-74837500D01*
D45*
X47025000Y-115525000D02*
X47000000Y-115500000D01*
X72025000Y-110025000D02*
X73500000Y-110025000D01*
X75025000Y-126975000D02*
X75025000Y-125525000D01*
X47025000Y-132475000D02*
X47000000Y-132500000D01*
X58750000Y-46250000D02*
X58750000Y-44750000D01*
X41850000Y-71850000D02*
X41500000Y-71500000D01*
X47025000Y-116975000D02*
X47025000Y-115525000D01*
X80730000Y-104770000D02*
X78055000Y-104770000D01*
X63500000Y-86000000D02*
X63500000Y-88250000D01*
X38475000Y-76250000D02*
X38475000Y-77250000D01*
X59250000Y-133500000D02*
X60975000Y-133500000D01*
X45660000Y-71000000D02*
X44775746Y-71000000D01*
X27025000Y-151000001D02*
X30000000Y-151000000D01*
X40050000Y-92000000D02*
X40050000Y-93575000D01*
X46975000Y-131200000D02*
X46975000Y-128500000D01*
X77500000Y-50020000D02*
X75770000Y-50020000D01*
D46*
X66475000Y-74725000D02*
X66500000Y-74750000D01*
D45*
X44390000Y-73112200D02*
X44390000Y-71385746D01*
D46*
X75687500Y-76750000D02*
X77775000Y-76750000D01*
D45*
X70725000Y-106975000D02*
X70250000Y-106500000D01*
D46*
X64475000Y-79750000D02*
X64250000Y-79975000D01*
X73250000Y-81500000D02*
X73775000Y-82025000D01*
D45*
X77100000Y-105725000D02*
X78055000Y-104770000D01*
X49500000Y-90500000D02*
X47800000Y-90500000D01*
X37000000Y-22905000D02*
X37000000Y-24750000D01*
X81925000Y-113825000D02*
X79912800Y-113825000D01*
X73750000Y-94500000D02*
X73750000Y-96225000D01*
D46*
X87845000Y-76450000D02*
X85550000Y-76450000D01*
D45*
X69800000Y-72500000D02*
X69800000Y-69500000D01*
X59275000Y-101225000D02*
X60600000Y-101225000D01*
X44775746Y-71000000D02*
X44390000Y-71385746D01*
X61025000Y-120525000D02*
X61000000Y-120500000D01*
D46*
X73775000Y-84975000D02*
X73250000Y-85500000D01*
D45*
X48025000Y-52195000D02*
X48025000Y-50525000D01*
D46*
X67362500Y-79750000D02*
X64475000Y-79750000D01*
X74500000Y-76750000D02*
X74000000Y-77250000D01*
X73775000Y-82025000D02*
X73775000Y-83162500D01*
D45*
X40025000Y-90500000D02*
X40025000Y-92250000D01*
X40755000Y-94280000D02*
X40755000Y-96245000D01*
X77000000Y-125500000D02*
X77000000Y-126975000D01*
X45750000Y-141750000D02*
X47225000Y-141750000D01*
D46*
X73775000Y-83162500D02*
X73775000Y-84975000D01*
D45*
X63000000Y-120500000D02*
X63000000Y-121975000D01*
X81865000Y-116365000D02*
X79912800Y-116365000D01*
X33225000Y-123500000D02*
X32000000Y-123500000D01*
X70200000Y-91500000D02*
X68500000Y-91500000D01*
X41500000Y-71500000D02*
X38750000Y-71500000D01*
X75770000Y-40020000D02*
X75750000Y-40000000D01*
X64475000Y-136975000D02*
X62750000Y-136975000D01*
X39225000Y-78000000D02*
X39225000Y-79275000D01*
X57500000Y-101225000D02*
X59500000Y-101225000D01*
X33225000Y-138500000D02*
X32000000Y-138500000D01*
X64250000Y-89000000D02*
X63500000Y-88250000D01*
X55850000Y-80600000D02*
X57675000Y-80600000D01*
X77308400Y-31800000D02*
X77308400Y-26250000D01*
X77500000Y-40020000D02*
X75770000Y-40020000D01*
X48025000Y-50475000D02*
X48025000Y-50525000D01*
X61000000Y-77250000D02*
X59850000Y-78400000D01*
X59275000Y-76250000D02*
X59275000Y-78300000D01*
D46*
X65525000Y-80250000D02*
X64250000Y-81525000D01*
D45*
X64250000Y-83200000D02*
X65050000Y-84000000D01*
X64250000Y-81525000D02*
X64250000Y-83200000D01*
X66775000Y-84212500D02*
X65262500Y-84212500D01*
D46*
X67362500Y-80250000D02*
X65525000Y-80250000D01*
D45*
X65262500Y-84212500D02*
X65050000Y-84000000D01*
D46*
X70500000Y-80500000D02*
X69250000Y-79250000D01*
X66525000Y-89000000D02*
X68000000Y-89000000D01*
X69250000Y-79250000D02*
X67362500Y-79250000D01*
D45*
X59275000Y-82750000D02*
X59275000Y-80700000D01*
D46*
X62650000Y-78750000D02*
X60800000Y-80600000D01*
X67362500Y-78750000D02*
X62650000Y-78750000D01*
D45*
X59275000Y-80700000D02*
X59375000Y-80600000D01*
D46*
X60800000Y-80600000D02*
X59375000Y-80600000D01*
D45*
X57725000Y-78350000D02*
X57675000Y-78400000D01*
D46*
X58625000Y-79450000D02*
X57675000Y-78500000D01*
D45*
X57725000Y-76250000D02*
X57725000Y-78350000D01*
D46*
X67362500Y-78250000D02*
X61500000Y-78250000D01*
X57675000Y-78500000D02*
X57675000Y-78400000D01*
X60300000Y-79450000D02*
X58625000Y-79450000D01*
X61500000Y-78250000D02*
X60300000Y-79450000D01*
D45*
X48525000Y-128500000D02*
X50745000Y-128500000D01*
X73000000Y-107975000D02*
X73000000Y-106000000D01*
X62775000Y-149225000D02*
X62775000Y-148500000D01*
X34775000Y-123500000D02*
X36745000Y-123500000D01*
X52250000Y-150000000D02*
X62000000Y-150000000D01*
X51000000Y-75750000D02*
X51000000Y-78500000D01*
X51000000Y-67250000D02*
X51000000Y-75750000D01*
X64745000Y-133500000D02*
X64805000Y-133560000D01*
X69495000Y-108440000D02*
X71665000Y-108440000D01*
X40775000Y-78000000D02*
X40775000Y-80220000D01*
X38500000Y-92000000D02*
X38500000Y-93995000D01*
X36745000Y-123500000D02*
X36805000Y-123560000D01*
X48750000Y-78000000D02*
X50250000Y-76500000D01*
X52000000Y-99250000D02*
X55500000Y-102750000D01*
X34750000Y-123475000D02*
X34775000Y-123500000D01*
X55500000Y-102750000D02*
X55560000Y-102810000D01*
X73775000Y-106775000D02*
X74250000Y-106775000D01*
X66065000Y-43445000D02*
X66065000Y-48510000D01*
X40775000Y-80220000D02*
X40715000Y-80280000D01*
X48525000Y-130000000D02*
X48525000Y-128500000D01*
X48000000Y-145000000D02*
X48775000Y-144225000D01*
X34775000Y-140250000D02*
X34775000Y-138500000D01*
X55425000Y-51000000D02*
X54250000Y-51000000D01*
X73450000Y-108525000D02*
X73500000Y-108475000D01*
X38500000Y-89000000D02*
X38500000Y-92000000D01*
X53750000Y-54000000D02*
X53000000Y-54750000D01*
X74275000Y-106775000D02*
X74775000Y-107275000D01*
X30250000Y-142750000D02*
X32500000Y-145000000D01*
X40025000Y-77250000D02*
X40775000Y-78000000D01*
X64745000Y-148500000D02*
X64805000Y-148560000D01*
X62525000Y-133500000D02*
X64745000Y-133500000D01*
X62525000Y-135000000D02*
X62525000Y-133500000D01*
X60250000Y-131000000D02*
X61250000Y-131000000D01*
X48200000Y-75900000D02*
X48200000Y-73112200D01*
X74250000Y-106775000D02*
X74275000Y-106775000D01*
X54250000Y-51000000D02*
X53750000Y-51500000D01*
X65325000Y-49250000D02*
X63575000Y-51000000D01*
X83095000Y-109095000D02*
X83095000Y-119370796D01*
X62775000Y-148500000D02*
X64745000Y-148500000D01*
X50745000Y-128500000D02*
X50805000Y-128560000D01*
X32250000Y-127000000D02*
X47250000Y-127000000D01*
X67250000Y-106750000D02*
X68500000Y-105500000D01*
X62775000Y-148500000D02*
X62775000Y-146750000D01*
X62525000Y-132275000D02*
X62525000Y-133500000D01*
X42250000Y-78000000D02*
X40775000Y-78000000D01*
X47250000Y-127000000D02*
X47975000Y-127000000D01*
X47975000Y-127000000D02*
X48525000Y-127550000D01*
X53750000Y-51500000D02*
X53750000Y-54000000D01*
X55500000Y-102750000D02*
X57000000Y-104250000D01*
X53000000Y-65250000D02*
X51000000Y-67250000D01*
X82290796Y-120175000D02*
X79912800Y-120175000D01*
X38500000Y-93995000D02*
X38215000Y-94280000D01*
X71750000Y-108525000D02*
X73450000Y-108525000D01*
X34750000Y-137000000D02*
X34750000Y-138475000D01*
X36745000Y-138500000D02*
X36805000Y-138560000D01*
X74250000Y-106750000D02*
X74250000Y-106775000D01*
X73000000Y-106000000D02*
X72500000Y-105500000D01*
X47250000Y-145000000D02*
X48000000Y-145000000D01*
X50250000Y-76500000D02*
X48800000Y-76500000D01*
X55560000Y-102810000D02*
X61555000Y-102810000D01*
X32500000Y-145000000D02*
X47250000Y-145000000D01*
X48800000Y-76500000D02*
X48200000Y-75900000D01*
X34775000Y-138500000D02*
X36745000Y-138500000D01*
X50745000Y-143500000D02*
X50805000Y-143560000D01*
X83095000Y-119370796D02*
X82290796Y-120175000D01*
X72500000Y-105500000D02*
X73775000Y-106775000D01*
X63575000Y-51000000D02*
X57075000Y-51000000D01*
X34750000Y-138475000D02*
X34775000Y-138500000D01*
X51000000Y-75750000D02*
X50250000Y-76500000D01*
X53000000Y-54750000D02*
X53000000Y-65250000D01*
X40025000Y-76250000D02*
X40025000Y-77250000D01*
X61500000Y-106750000D02*
X67250000Y-106750000D01*
X48775000Y-143500000D02*
X50745000Y-143500000D01*
X66065000Y-48510000D02*
X65325000Y-49250000D01*
X75775000Y-107275000D02*
X78020000Y-107275000D01*
X34750000Y-122000000D02*
X34750000Y-123475000D01*
X74775000Y-107275000D02*
X76000000Y-107275000D01*
X48775000Y-144225000D02*
X48775000Y-143500000D01*
X34775000Y-125000000D02*
X34775000Y-123500000D01*
X48775000Y-141750000D02*
X48775000Y-143500000D01*
X81310000Y-107310000D02*
X83095000Y-109095000D01*
X71665000Y-108440000D02*
X71750000Y-108525000D01*
X62000000Y-150000000D02*
X62775000Y-149225000D01*
X78055000Y-107310000D02*
X81310000Y-107310000D01*
X44500000Y-78000000D02*
X48750000Y-78000000D01*
X68500000Y-105500000D02*
X72500000Y-105500000D01*
X49250000Y-147000000D02*
X52250000Y-150000000D01*
X48525000Y-127550000D02*
X48525000Y-128500000D01*
X78020000Y-107275000D02*
X78055000Y-107310000D01*
X61250000Y-131000000D02*
X62525000Y-132275000D01*
X73500000Y-108475000D02*
X73000000Y-107975000D01*
X46250000Y-92225000D02*
X46225000Y-92250000D01*
X59300000Y-113500000D02*
X59320000Y-113520000D01*
X78500000Y-128525000D02*
X72790000Y-128525000D01*
X48975000Y-54025000D02*
X48975000Y-55200000D01*
X50565000Y-52195000D02*
X50565000Y-52435000D01*
X50500000Y-118525000D02*
X44790000Y-118525000D01*
X48750000Y-134050000D02*
X45315000Y-134050000D01*
X75730000Y-97730000D02*
X69495000Y-97730000D01*
X46250000Y-88675000D02*
X45795000Y-88220000D01*
X44790000Y-118525000D02*
X44745000Y-118480000D01*
X75750000Y-97750000D02*
X75730000Y-97730000D01*
X40580000Y-68387800D02*
X40580000Y-70420000D01*
X72790000Y-128525000D02*
X72745000Y-128480000D01*
X58790000Y-123525000D02*
X58745000Y-123480000D01*
X46250000Y-90500000D02*
X46250000Y-92225000D01*
X46250000Y-90500000D02*
X46250000Y-88675000D01*
X62750000Y-138525000D02*
X61000000Y-138525000D01*
X43250000Y-107500000D02*
X43295000Y-107455000D01*
X49000000Y-58895000D02*
X49000000Y-57225000D01*
X50565000Y-52435000D02*
X48975000Y-54025000D01*
X58790000Y-138525000D02*
X58745000Y-138480000D01*
X78725000Y-143525000D02*
X72790000Y-143525000D01*
X64500000Y-123500000D02*
X64475000Y-123525000D01*
X48975000Y-55200000D02*
X48975000Y-57200000D01*
X59320000Y-113520000D02*
X61555000Y-113520000D01*
X50105000Y-60000000D02*
X49000000Y-58895000D01*
X78750000Y-143500000D02*
X78725000Y-143525000D01*
X86945000Y-112555000D02*
X84637200Y-112555000D01*
X48750000Y-135250000D02*
X48750000Y-134050000D01*
X91725000Y-102275000D02*
X86040000Y-102275000D01*
X72790000Y-143525000D02*
X72745000Y-143480000D01*
X61000000Y-138525000D02*
X58790000Y-138525000D01*
X49000000Y-57225000D02*
X48975000Y-57200000D01*
X61000000Y-140000000D02*
X61000000Y-138525000D01*
X45315000Y-134050000D02*
X44745000Y-133480000D01*
X91750000Y-102250000D02*
X91725000Y-102275000D01*
X40580000Y-70420000D02*
X40500000Y-70500000D01*
X55750000Y-113500000D02*
X59300000Y-113500000D01*
X46250000Y-90500000D02*
X44750000Y-90500000D01*
X86040000Y-102275000D02*
X85995000Y-102230000D01*
X43295000Y-107455000D02*
X43295000Y-102220000D01*
X64475000Y-123525000D02*
X58790000Y-123525000D01*
X45500000Y-34275000D02*
X45475000Y-34250000D01*
X45500000Y-34225000D02*
X45475000Y-34250000D01*
X45500000Y-47500000D02*
X45500000Y-52180000D01*
X39945000Y-54055000D02*
X39945000Y-60000000D01*
X45500000Y-28058400D02*
X45500000Y-34225000D01*
X45500000Y-52180000D02*
X45485000Y-52195000D01*
X45485000Y-52195000D02*
X41805000Y-52195000D01*
X45500000Y-42500000D02*
X45500000Y-34275000D01*
X45500000Y-45000000D02*
X45500000Y-47500000D01*
X45500000Y-28058400D02*
X47308399Y-26250000D01*
X45500000Y-42500000D02*
X45500000Y-45000000D01*
X41805000Y-52195000D02*
X39945000Y-54055000D01*
X53275000Y-36080000D02*
X53445000Y-36250000D01*
X53275000Y-27275000D02*
X52308399Y-26308399D01*
X53500000Y-40450000D02*
X53500000Y-36305000D01*
X52308399Y-26308399D02*
X52308399Y-26250000D01*
X53275000Y-33000000D02*
X53275000Y-27275000D01*
X53275000Y-33000000D02*
X53275000Y-36080000D01*
X53500000Y-36305000D02*
X53445000Y-36250000D01*
X63605000Y-36250000D02*
X63605000Y-43365000D01*
X63605000Y-43365000D02*
X63525000Y-43445000D01*
X54080000Y-94250000D02*
X54250000Y-94420000D01*
X54250000Y-94420000D02*
X54250000Y-92925000D01*
X51325000Y-94250000D02*
X54080000Y-94250000D01*
X54250000Y-92925000D02*
X55675000Y-91500000D01*
X76850000Y-89095000D02*
X76945000Y-89000000D01*
X76850000Y-92000000D02*
X76850000Y-89095000D01*
X74325000Y-89000000D02*
X76945000Y-89000000D01*
D46*
X87845000Y-79050000D02*
X82300000Y-79050000D01*
X82300000Y-79050000D02*
X81600000Y-79750000D01*
X86895000Y-78400000D02*
X87845000Y-78400000D01*
X75687500Y-78250000D02*
X86745000Y-78250000D01*
X86745000Y-78250000D02*
X86895000Y-78400000D01*
X83250000Y-77325000D02*
X83175000Y-77250000D01*
X83675000Y-77750000D02*
X87845000Y-77750000D01*
X82825000Y-77750000D02*
X83250000Y-77325000D01*
X83250000Y-77325000D02*
X83675000Y-77750000D01*
X75687500Y-77750000D02*
X82825000Y-77750000D01*
D45*
X91695000Y-81625000D02*
X88045000Y-81625000D01*
X91695000Y-77500000D02*
X91695000Y-81625000D01*
X91695000Y-73875000D02*
X88045000Y-73875000D01*
X88045000Y-81625000D02*
X87895000Y-81475000D01*
X88045000Y-73875000D02*
X87895000Y-74025000D01*
X91695000Y-73875000D02*
X91695000Y-77500000D01*
X44390000Y-65000000D02*
X44390000Y-68387800D01*
X43120000Y-66000000D02*
X43120000Y-68387800D01*
X41850000Y-70650000D02*
X41850000Y-68387800D01*
X43500000Y-70750000D02*
X44200000Y-70050000D01*
X45660000Y-69590000D02*
X45660000Y-68387800D01*
X45200000Y-70050000D02*
X45660000Y-69590000D01*
X44200000Y-70050000D02*
X45200000Y-70050000D01*
X45660000Y-75410000D02*
X45660000Y-73112200D01*
X27025000Y-121000000D02*
X36785000Y-121000000D01*
X36785000Y-121000000D02*
X36805000Y-121020000D01*
X50785000Y-126000000D02*
X50805000Y-126020000D01*
X27025000Y-126000000D02*
X50785000Y-126000000D01*
X27025000Y-131000001D02*
X32500000Y-131000000D01*
X36785001Y-136000001D02*
X36805000Y-136020000D01*
X27025000Y-136000001D02*
X36785001Y-136000001D01*
X32000000Y-142500000D02*
X43000000Y-142500000D01*
X31999999Y-142500000D02*
X32000000Y-142500000D01*
X27025000Y-141000001D02*
X30500000Y-141000001D01*
X30500000Y-141000001D02*
X31999999Y-142500000D01*
D46*
X71775000Y-72975000D02*
X73000000Y-71750000D01*
X86749999Y-60750001D02*
X86775000Y-60750001D01*
X71775000Y-74837500D02*
X71775000Y-72975000D01*
X84500000Y-63000000D02*
X86749999Y-60750001D01*
X71275000Y-74837500D02*
X71275000Y-72225000D01*
X86000000Y-55750000D02*
X86775000Y-55750000D01*
X84500000Y-57250000D02*
X86000000Y-55750000D01*
X71275000Y-72225000D02*
X71750000Y-71750000D01*
X79750000Y-77250000D02*
X80500000Y-76500000D01*
X75687500Y-77250000D02*
X79750000Y-77250000D01*
X89500000Y-48500000D02*
X89500000Y-47250000D01*
X89500000Y-47250000D02*
X88000000Y-45750000D01*
X88000000Y-45750000D02*
X86775000Y-45750000D01*
X82750000Y-65500000D02*
X82750000Y-53500000D01*
X74275000Y-74837500D02*
X74275000Y-73975000D01*
X85500000Y-50750000D02*
X86775000Y-50750000D01*
X74275000Y-73975000D02*
X82750000Y-65500000D01*
X82750000Y-53500000D02*
X85500000Y-50750000D01*
D45*
X46930000Y-68387800D02*
X46930000Y-70180000D01*
X77500000Y-37480000D02*
X72845000Y-37480000D01*
X86405000Y-123845000D02*
X87500000Y-122750000D01*
X46930000Y-70180000D02*
X47250000Y-70500000D01*
X87500000Y-122750000D02*
X87500000Y-120050000D01*
X46930000Y-65070000D02*
X46930000Y-68387800D01*
X72845000Y-37480000D02*
X72825000Y-37500000D01*
X86355000Y-118905000D02*
X84637200Y-118905000D01*
X87500000Y-120050000D02*
X86355000Y-118905000D01*
X81750000Y-40000000D02*
X80500000Y-38750000D01*
X76575000Y-67675000D02*
X81750000Y-62500000D01*
X80500000Y-38750000D02*
X78770000Y-38750000D01*
X81750000Y-62500000D02*
X81750000Y-40000000D01*
X76500000Y-67675000D02*
X76575000Y-67675000D01*
X86175000Y-120175000D02*
X84637200Y-120175000D01*
X86750000Y-122250000D02*
X86750000Y-120750000D01*
X77500000Y-47480000D02*
X72845000Y-47480000D01*
X48200000Y-70200000D02*
X48500000Y-70500000D01*
X72845000Y-47480000D02*
X72825000Y-47500000D01*
X48200000Y-68387800D02*
X48200000Y-70200000D01*
X85955000Y-123045000D02*
X86750000Y-122250000D01*
X86750000Y-120750000D02*
X86175000Y-120175000D01*
X85045196Y-123045000D02*
X85955000Y-123045000D01*
X48200000Y-65800000D02*
X48200000Y-68387800D01*
X80750000Y-49500000D02*
X80000000Y-48750000D01*
X76000000Y-64000000D02*
X78250000Y-64000000D01*
X74500000Y-65500000D02*
X76000000Y-64000000D01*
X80000000Y-48750000D02*
X78770000Y-48750000D01*
X78250000Y-64000000D02*
X80750000Y-61500000D01*
X80750000Y-61500000D02*
X80750000Y-49500000D01*
X74500000Y-67675000D02*
X74500000Y-65500000D01*
X49470000Y-70220000D02*
X49750000Y-70500000D01*
X77500000Y-57480000D02*
X72857314Y-57480000D01*
X84637200Y-121445000D02*
X83545000Y-121445000D01*
X49470000Y-66280000D02*
X49470000Y-68387800D01*
X49470000Y-68387800D02*
X49470000Y-70220000D01*
X83545000Y-121445000D02*
X82745000Y-122245000D01*
X72857314Y-57480000D02*
X72825000Y-57512314D01*
X72500000Y-64250000D02*
X74500000Y-62250000D01*
X78770000Y-61480000D02*
X78770000Y-58750000D01*
X74500000Y-62250000D02*
X78000000Y-62250000D01*
X72500000Y-67675000D02*
X72500000Y-64250000D01*
X78000000Y-62250000D02*
X78770000Y-61480000D01*
X34000000Y-24750000D02*
X34000000Y-22905000D01*
D46*
X70775000Y-74837500D02*
X70775000Y-67425000D01*
X70775000Y-67425000D02*
X69850000Y-66500000D01*
X79850000Y-79850000D02*
X79950000Y-79750000D01*
X79850000Y-83250000D02*
X79850000Y-79850000D01*
X79450000Y-79250000D02*
X79950000Y-79750000D01*
X75687500Y-79250000D02*
X79450000Y-79250000D01*
D45*
X75825000Y-115325000D02*
X71480000Y-110980000D01*
X77025000Y-115325000D02*
X75825000Y-115325000D01*
X71480000Y-110980000D02*
X69495000Y-110980000D01*
X59275000Y-111075000D02*
X61460000Y-111075000D01*
X64230000Y-110980000D02*
X66770000Y-113520000D01*
X66770000Y-113520000D02*
X69495000Y-113520000D01*
X61555000Y-110980000D02*
X64230000Y-110980000D01*
X61460000Y-111075000D02*
X61555000Y-110980000D01*
X69480000Y-100270000D02*
X69495000Y-100270000D01*
X66100000Y-105750000D02*
X66100000Y-103650000D01*
X66100000Y-103650000D02*
X69480000Y-100270000D01*
X75000000Y-100425000D02*
X69650000Y-100425000D01*
X69650000Y-100425000D02*
X69495000Y-100270000D01*
X71850000Y-89825000D02*
X72675000Y-89000000D01*
D46*
X70250000Y-85500000D02*
X70275000Y-85475000D01*
X72675000Y-89000000D02*
X72000000Y-89000000D01*
D45*
X71850000Y-91500000D02*
X71850000Y-89825000D01*
D46*
X70275000Y-85475000D02*
X70275000Y-83162500D01*
X72000000Y-89000000D02*
X71250000Y-88250000D01*
D45*
X43255000Y-90405000D02*
X43275000Y-90425000D01*
X43255000Y-85495000D02*
X45795000Y-82955000D01*
X43255000Y-88220000D02*
X43255000Y-85495000D01*
X43255000Y-88220000D02*
X43255000Y-90405000D01*
X45795000Y-82955000D02*
X45795000Y-80280000D01*
X57325000Y-91500000D02*
X59925000Y-91500000D01*
D46*
X66485661Y-91575000D02*
X71775000Y-86285661D01*
X71775000Y-86285661D02*
X71775000Y-83162500D01*
X60000000Y-91575000D02*
X66485661Y-91575000D01*
D45*
X59925000Y-91500000D02*
X60000000Y-91575000D01*
D46*
X73275000Y-74837500D02*
X73275000Y-73975000D01*
X76500000Y-70750000D02*
X76500000Y-69325000D01*
X73275000Y-73975000D02*
X76500000Y-70750000D01*
X74500000Y-72042894D02*
X74500000Y-69325000D01*
X72775000Y-73767894D02*
X74500000Y-72042894D01*
X72775000Y-74837500D02*
X72775000Y-73767894D01*
D45*
X39480000Y-118480000D02*
X41500000Y-120500000D01*
X45400000Y-152600000D02*
X84800000Y-152600000D01*
X41000000Y-148200000D02*
X45400000Y-152600000D01*
X84800000Y-152600000D02*
X89600000Y-147800000D01*
X89600000Y-147800000D02*
X89600000Y-117600000D01*
X89600000Y-117600000D02*
X88365000Y-116365000D01*
X42020000Y-121020000D02*
X44745000Y-121020000D01*
X36805000Y-118480000D02*
X39480000Y-118480000D01*
X41000000Y-147250000D02*
X41000000Y-148200000D01*
X41500000Y-120500000D02*
X42020000Y-121020000D01*
X41000000Y-125200500D02*
X41000000Y-120000000D01*
X88365000Y-116365000D02*
X84637200Y-116365000D01*
X41000000Y-129250000D02*
X41000000Y-133250000D01*
X91000000Y-117200000D02*
X88895000Y-115095000D01*
X50805000Y-123480000D02*
X53480000Y-123480000D01*
X85300000Y-154000000D02*
X91000000Y-148300000D01*
X64800000Y-154000000D02*
X85300000Y-154000000D01*
X88895000Y-115095000D02*
X84637200Y-115095000D01*
X56020000Y-126020000D02*
X58745000Y-126020000D01*
X91000000Y-148300000D02*
X91000000Y-117200000D01*
X56020000Y-134000000D02*
X56020000Y-126020000D01*
X53480000Y-123480000D02*
X56020000Y-126020000D01*
X64805000Y-128480000D02*
X67480000Y-128480000D01*
X89425000Y-113825000D02*
X84637200Y-113825000D01*
X70020000Y-131020000D02*
X72745000Y-131020000D01*
X67480000Y-128480000D02*
X70020000Y-131020000D01*
X84730000Y-131020000D02*
X87000000Y-128750000D01*
X92200000Y-123000000D02*
X92200000Y-116600000D01*
X72745000Y-131020000D02*
X84730000Y-131020000D01*
X92200000Y-116600000D02*
X89425000Y-113825000D01*
X42000000Y-136040000D02*
X42020000Y-136020000D01*
X42020000Y-136020000D02*
X44745000Y-136020000D01*
X39480000Y-133480000D02*
X42000000Y-136000000D01*
X42000000Y-136000000D02*
X42000000Y-136040000D01*
X36805000Y-133480000D02*
X39480000Y-133480000D01*
X42000000Y-140500000D02*
X42000000Y-136040000D01*
X66500000Y-123250000D02*
X71750000Y-118000000D01*
X53480000Y-138480000D02*
X56020000Y-141020000D01*
X74250000Y-112500000D02*
X79857800Y-112500000D01*
X79857800Y-112500000D02*
X79912800Y-112555000D01*
X72750000Y-117000000D02*
X72750000Y-114000000D01*
X56020000Y-141020000D02*
X58745000Y-141020000D01*
X50805000Y-138480000D02*
X53480000Y-138480000D01*
X66500000Y-127000000D02*
X66500000Y-123250000D01*
X71750000Y-118000000D02*
X72750000Y-117000000D01*
X67480000Y-143480000D02*
X70020000Y-146020000D01*
X67500000Y-127000000D02*
X67500000Y-123250000D01*
X67480000Y-143480000D02*
X67500000Y-143460000D01*
X64805000Y-143480000D02*
X67480000Y-143480000D01*
X67500000Y-123250000D02*
X73115000Y-117635000D01*
X67500000Y-143460000D02*
X67500000Y-130500000D01*
X70020000Y-146020000D02*
X72745000Y-146020000D01*
X73115000Y-117635000D02*
X79912800Y-117635000D01*
D46*
X58862625Y-55087625D02*
X58525000Y-54750000D01*
X58862625Y-56141800D02*
X58862625Y-55087625D01*
D45*
X49750000Y-107080000D02*
X51750000Y-107080000D01*
X40755000Y-102220000D02*
X40755000Y-103459594D01*
X40755000Y-103459594D02*
X40750000Y-103464594D01*
X40750000Y-107500000D02*
X42500000Y-109250000D01*
X40750000Y-103464594D02*
X40750000Y-107500000D01*
X51750000Y-107080000D02*
X54250000Y-104580000D01*
X47580000Y-109250000D02*
X49750000Y-107080000D01*
X42500000Y-109250000D02*
X47580000Y-109250000D01*
X49750000Y-96920000D02*
X49750000Y-94325000D01*
X45935000Y-96920000D02*
X49750000Y-96920000D01*
X43275000Y-94260000D02*
X43295000Y-94280000D01*
X43275000Y-92075000D02*
X43275000Y-94260000D01*
X43295000Y-94280000D02*
X45935000Y-96920000D01*
X49750000Y-94325000D02*
X49675000Y-94250000D01*
X84000000Y-102775000D02*
X85995000Y-104770000D01*
X84000000Y-99250000D02*
X84000000Y-102775000D01*
X87250000Y-89145000D02*
X87250000Y-96000000D01*
X87105000Y-89000000D02*
X87250000Y-89145000D01*
X87250000Y-96000000D02*
X84000000Y-99250000D01*
X75155000Y-102230000D02*
X75000000Y-102075000D01*
X78055000Y-102230000D02*
X75155000Y-102230000D01*
X75200000Y-92000000D02*
X75200000Y-93450000D01*
X79500000Y-101750000D02*
X79020000Y-102230000D01*
X79020000Y-102230000D02*
X78055000Y-102230000D01*
X75200000Y-93450000D02*
X79500000Y-97750000D01*
X79500000Y-97750000D02*
X79500000Y-101750000D01*
X43350000Y-80185000D02*
X43255000Y-80280000D01*
X43350000Y-76000000D02*
X43350000Y-80185000D01*
D46*
X59500000Y-59925000D02*
X59575000Y-60000000D01*
X59500000Y-58250000D02*
X59500000Y-59925000D01*
X55500000Y-58425000D02*
X55675000Y-58250000D01*
X55675000Y-58250000D02*
X58862625Y-58250000D01*
D45*
X64450000Y-100625000D02*
X61555000Y-97730000D01*
X59275000Y-109425000D02*
X59275000Y-107225000D01*
X60750000Y-105750000D02*
X64450000Y-105750000D01*
X59275000Y-107225000D02*
X60750000Y-105750000D01*
X64450000Y-105750000D02*
X64450000Y-100625000D01*
D46*
X59500000Y-56141800D02*
X59500000Y-53075000D01*
X59500000Y-53075000D02*
X59575000Y-53000000D01*
D45*
X57308400Y-32316600D02*
X57308400Y-26250000D01*
X57225000Y-32400000D02*
X57225000Y-33975000D01*
X57225000Y-32400000D02*
X57308400Y-32316600D01*
X57225000Y-33975000D02*
X57250000Y-34000000D01*
X57250000Y-34000000D02*
X57308400Y-33941600D01*
G04 #@! TA.AperFunction,Conductor*
G36*
X71943039Y-36519685D02*
G01*
X71988794Y-36572489D01*
X72000000Y-36624000D01*
X72000000Y-38376000D01*
X71980315Y-38443039D01*
X71927511Y-38488794D01*
X71876000Y-38500000D01*
X69624000Y-38500000D01*
X69556961Y-38480315D01*
X69511206Y-38427511D01*
X69500000Y-38376000D01*
X69500000Y-36624000D01*
X69519685Y-36556961D01*
X69572489Y-36511206D01*
X69624000Y-36500000D01*
X71876000Y-36500000D01*
X71943039Y-36519685D01*
G37*
G04 #@! TD.AperFunction*
G04 #@! TA.AperFunction,Conductor*
G36*
X67142539Y-48019685D02*
G01*
X67188294Y-48072489D01*
X67199500Y-48124000D01*
X67199500Y-50376000D01*
X67179815Y-50443039D01*
X67127011Y-50488794D01*
X67075500Y-50500000D01*
X63624000Y-50500000D01*
X63556961Y-50480315D01*
X63511206Y-50427511D01*
X63500000Y-50376000D01*
X63500000Y-48124000D01*
X63519685Y-48056961D01*
X63572489Y-48011206D01*
X63624000Y-48000000D01*
X67075500Y-48000000D01*
X67142539Y-48019685D01*
G37*
G04 #@! TD.AperFunction*
G04 #@! TA.AperFunction,Conductor*
G36*
X48118039Y-54219685D02*
G01*
X48163794Y-54272489D01*
X48175000Y-54324000D01*
X48175000Y-56049208D01*
X48155315Y-56116247D01*
X48113600Y-56156246D01*
X48067789Y-56183038D01*
X48005189Y-56200000D01*
X45799000Y-56200000D01*
X45731961Y-56180315D01*
X45686206Y-56127511D01*
X45675000Y-56076000D01*
X45675000Y-54324000D01*
X45694685Y-54256961D01*
X45747489Y-54211206D01*
X45799000Y-54200000D01*
X48051000Y-54200000D01*
X48118039Y-54219685D01*
G37*
G04 #@! TD.AperFunction*
G04 #@! TA.AperFunction,Conductor*
G36*
X71943039Y-56531999D02*
G01*
X71988794Y-56584803D01*
X72000000Y-56636314D01*
X72000000Y-58388314D01*
X71980315Y-58455353D01*
X71927511Y-58501108D01*
X71876000Y-58512314D01*
X69624000Y-58512314D01*
X69556961Y-58492629D01*
X69511206Y-58439825D01*
X69500000Y-58388314D01*
X69500000Y-56636314D01*
X69519685Y-56569275D01*
X69572489Y-56523520D01*
X69624000Y-56512314D01*
X71876000Y-56512314D01*
X71943039Y-56531999D01*
G37*
G04 #@! TD.AperFunction*
G04 #@! TA.AperFunction,Conductor*
G36*
X52443039Y-54119685D02*
G01*
X52488794Y-54172489D01*
X52500000Y-54224000D01*
X52500000Y-54480583D01*
X52491765Y-54520216D01*
X52492616Y-54520455D01*
X52478385Y-54571237D01*
X52476362Y-54577253D01*
X52460123Y-54618438D01*
X52458288Y-54636284D01*
X52454342Y-54657048D01*
X52449501Y-54674328D01*
X52449500Y-54674337D01*
X52449500Y-54718594D01*
X52449175Y-54724939D01*
X52444648Y-54768970D01*
X52444648Y-54768975D01*
X52447697Y-54786656D01*
X52449500Y-54807724D01*
X52449500Y-57876000D01*
X52429815Y-57943039D01*
X52377011Y-57988794D01*
X52325500Y-58000000D01*
X50124000Y-58000000D01*
X50056961Y-57980315D01*
X50011206Y-57927511D01*
X50000000Y-57876000D01*
X50000000Y-54224000D01*
X50019685Y-54156961D01*
X50072489Y-54111206D01*
X50124000Y-54100000D01*
X52376000Y-54100000D01*
X52443039Y-54119685D01*
G37*
G04 #@! TD.AperFunction*
G04 #@! TA.AperFunction,Conductor*
G36*
X61693039Y-51719685D02*
G01*
X61738794Y-51772489D01*
X61750000Y-51824000D01*
X61750000Y-56351804D01*
X61730315Y-56418843D01*
X61677511Y-56464598D01*
X61608353Y-56474542D01*
X61575913Y-56465238D01*
X61492518Y-56428415D01*
X61467394Y-56425500D01*
X61467391Y-56425500D01*
X60064199Y-56425500D01*
X59997160Y-56405815D01*
X59951405Y-56353011D01*
X59940199Y-56301500D01*
X59940199Y-56261786D01*
X59945709Y-56225232D01*
X59950500Y-56209701D01*
X59950500Y-53874000D01*
X59970185Y-53806961D01*
X60022989Y-53761206D01*
X60074500Y-53750000D01*
X60250000Y-53750000D01*
X60250000Y-53456041D01*
X60257818Y-53412707D01*
X60269091Y-53382483D01*
X60275500Y-53322873D01*
X60275499Y-52677128D01*
X60269091Y-52617517D01*
X60257818Y-52587292D01*
X60250000Y-52543959D01*
X60250000Y-51824000D01*
X60269685Y-51756961D01*
X60322489Y-51711206D01*
X60374000Y-51700000D01*
X61626000Y-51700000D01*
X61693039Y-51719685D01*
G37*
G04 #@! TD.AperFunction*
G04 #@! TA.AperFunction,Conductor*
G36*
X57693039Y-50269685D02*
G01*
X57738794Y-50322489D01*
X57750000Y-50374000D01*
X57750000Y-51626000D01*
X57730315Y-51693039D01*
X57677511Y-51738794D01*
X57626000Y-51750000D01*
X56624000Y-51750000D01*
X56556961Y-51730315D01*
X56511206Y-51677511D01*
X56500000Y-51626000D01*
X56500000Y-50374000D01*
X56519685Y-50306961D01*
X56572489Y-50261206D01*
X56624000Y-50250000D01*
X57626000Y-50250000D01*
X57693039Y-50269685D01*
G37*
G04 #@! TD.AperFunction*
G04 #@! TA.AperFunction,Conductor*
G36*
X49693039Y-49019685D02*
G01*
X49738794Y-49072489D01*
X49750000Y-49124000D01*
X49750000Y-50376000D01*
X49730315Y-50443039D01*
X49677511Y-50488794D01*
X49626000Y-50500000D01*
X46374000Y-50500000D01*
X46306961Y-50480315D01*
X46261206Y-50427511D01*
X46250000Y-50376000D01*
X46250000Y-49124000D01*
X46269685Y-49056961D01*
X46322489Y-49011206D01*
X46374000Y-49000000D01*
X49626000Y-49000000D01*
X49693039Y-49019685D01*
G37*
G04 #@! TD.AperFunction*
G04 #@! TA.AperFunction,Conductor*
G36*
X60943039Y-31219685D02*
G01*
X60988794Y-31272489D01*
X61000000Y-31324000D01*
X61000000Y-33476000D01*
X60980315Y-33543039D01*
X60927511Y-33588794D01*
X60876000Y-33600000D01*
X58124000Y-33600000D01*
X58056961Y-33580315D01*
X58011206Y-33527511D01*
X58000000Y-33476000D01*
X58000000Y-31324000D01*
X58019685Y-31256961D01*
X58072489Y-31211206D01*
X58124000Y-31200000D01*
X60876000Y-31200000D01*
X60943039Y-31219685D01*
G37*
G04 #@! TD.AperFunction*
G04 #@! TA.AperFunction,Conductor*
G36*
X52443039Y-32019685D02*
G01*
X52488794Y-32072489D01*
X52500000Y-32124000D01*
X52500000Y-33876000D01*
X52480315Y-33943039D01*
X52427511Y-33988794D01*
X52376000Y-34000000D01*
X50750000Y-34000000D01*
X50750000Y-35126000D01*
X50730315Y-35193039D01*
X50677511Y-35238794D01*
X50626000Y-35250000D01*
X46374000Y-35250000D01*
X46306961Y-35230315D01*
X46261206Y-35177511D01*
X46250000Y-35126000D01*
X46250000Y-32124000D01*
X46269685Y-32056961D01*
X46322489Y-32011206D01*
X46374000Y-32000000D01*
X52376000Y-32000000D01*
X52443039Y-32019685D01*
G37*
G04 #@! TD.AperFunction*
G04 #@! TA.AperFunction,Conductor*
G36*
X61693039Y-58019685D02*
G01*
X61738794Y-58072489D01*
X61750000Y-58124000D01*
X61750000Y-58500000D01*
X63626000Y-58500000D01*
X63693039Y-58519685D01*
X63738794Y-58572489D01*
X63750000Y-58624000D01*
X63750000Y-61376000D01*
X63730315Y-61443039D01*
X63677511Y-61488794D01*
X63626000Y-61500000D01*
X60624000Y-61500000D01*
X60556961Y-61480315D01*
X60511206Y-61427511D01*
X60500000Y-61376000D01*
X60500000Y-58750000D01*
X60466623Y-58716623D01*
X60433138Y-58655300D01*
X60437354Y-58596342D01*
X60434962Y-58595692D01*
X60437408Y-58586696D01*
X60437411Y-58586691D01*
X60440326Y-58561565D01*
X60440325Y-58123998D01*
X60460009Y-58056961D01*
X60512813Y-58011206D01*
X60564325Y-58000000D01*
X61626000Y-58000000D01*
X61693039Y-58019685D01*
G37*
G04 #@! TD.AperFunction*
G04 #@! TA.AperFunction,Conductor*
G36*
X54693039Y-42269685D02*
G01*
X54738794Y-42322489D01*
X54750000Y-42374000D01*
X54749999Y-45250000D01*
X54750000Y-45250000D01*
X58000000Y-45250000D01*
X61876000Y-45250000D01*
X61943039Y-45269685D01*
X61988794Y-45322489D01*
X62000000Y-45374000D01*
X62000000Y-48000000D01*
X63070500Y-48000000D01*
X63137539Y-48019685D01*
X63183294Y-48072489D01*
X63194500Y-48124000D01*
X63194500Y-50325500D01*
X63174815Y-50392539D01*
X63122011Y-50438294D01*
X63070500Y-50449500D01*
X59874000Y-50449500D01*
X59806961Y-50429815D01*
X59761206Y-50377011D01*
X59750000Y-50325500D01*
X59750000Y-47250000D01*
X52374000Y-47250000D01*
X52306961Y-47230315D01*
X52261206Y-47177511D01*
X52250000Y-47126000D01*
X52250000Y-42374000D01*
X52269685Y-42306961D01*
X52322489Y-42261206D01*
X52374000Y-42250000D01*
X54626000Y-42250000D01*
X54693039Y-42269685D01*
G37*
G04 #@! TD.AperFunction*
G04 #@! TA.AperFunction,Conductor*
G36*
X71943039Y-46519685D02*
G01*
X71988794Y-46572489D01*
X72000000Y-46624000D01*
X72000000Y-48170113D01*
X71980315Y-48237152D01*
X71963681Y-48257794D01*
X71757795Y-48463681D01*
X71696472Y-48497166D01*
X71670114Y-48500000D01*
X69624000Y-48500000D01*
X69556961Y-48480315D01*
X69511206Y-48427511D01*
X69500000Y-48376000D01*
X69500000Y-46624000D01*
X69519685Y-46556961D01*
X69572489Y-46511206D01*
X69624000Y-46500000D01*
X71876000Y-46500000D01*
X71943039Y-46519685D01*
G37*
G04 #@! TD.AperFunction*
G04 #@! TA.AperFunction,Conductor*
G36*
X55943039Y-50269685D02*
G01*
X55988794Y-50322489D01*
X56000000Y-50374000D01*
X56000000Y-51626000D01*
X55980315Y-51693039D01*
X55927511Y-51738794D01*
X55876000Y-51750000D01*
X54874000Y-51750000D01*
X54806961Y-51730315D01*
X54761206Y-51677511D01*
X54750000Y-51626000D01*
X54750000Y-50374000D01*
X54769685Y-50306961D01*
X54822489Y-50261206D01*
X54874000Y-50250000D01*
X55876000Y-50250000D01*
X55943039Y-50269685D01*
G37*
G04 #@! TD.AperFunction*
G04 #@! TA.AperFunction,Conductor*
G36*
X56451277Y-52013467D02*
G01*
X56470889Y-52023439D01*
X56470891Y-52023439D01*
X56470892Y-52023440D01*
X56518138Y-52037313D01*
X56537928Y-52043124D01*
X56624000Y-52055500D01*
X56624003Y-52055500D01*
X57625990Y-52055500D01*
X57626000Y-52055500D01*
X57690941Y-52048518D01*
X57742450Y-52037312D01*
X57742450Y-52037313D01*
X57770846Y-52029168D01*
X57780658Y-52026354D01*
X57792061Y-52019685D01*
X57796718Y-52016962D01*
X57859318Y-52000000D01*
X58626000Y-52000000D01*
X58693039Y-52019685D01*
X58738794Y-52072489D01*
X58750000Y-52124000D01*
X58750000Y-53850500D01*
X58730315Y-53917539D01*
X58677511Y-53963294D01*
X58626000Y-53974500D01*
X58258855Y-53974500D01*
X58174413Y-53984640D01*
X58174406Y-53984642D01*
X58163688Y-53988869D01*
X58157386Y-53991354D01*
X58111896Y-54000000D01*
X57750000Y-54000000D01*
X57750000Y-55500000D01*
X57876000Y-55500000D01*
X57943039Y-55519685D01*
X57988794Y-55572489D01*
X58000000Y-55624000D01*
X58000000Y-56750000D01*
X61443486Y-56750000D01*
X61481739Y-56756048D01*
X61481674Y-56756027D01*
X61524128Y-56768203D01*
X61528144Y-56769241D01*
X61539661Y-56772219D01*
X61651833Y-56776932D01*
X61720991Y-56766988D01*
X61754988Y-56758538D01*
X61774612Y-56753661D01*
X61804521Y-56750000D01*
X62000000Y-56750000D01*
X62000000Y-56580726D01*
X62013469Y-56524522D01*
X62023439Y-56504915D01*
X62043124Y-56437876D01*
X62055500Y-56351804D01*
X62055500Y-53624000D01*
X62075185Y-53556961D01*
X62127989Y-53511206D01*
X62179500Y-53500000D01*
X63626000Y-53500000D01*
X63693039Y-53519685D01*
X63738794Y-53572489D01*
X63750000Y-53624000D01*
X63750000Y-58070500D01*
X63730315Y-58137539D01*
X63677511Y-58183294D01*
X63626000Y-58194500D01*
X62174462Y-58194500D01*
X62107423Y-58174815D01*
X62061668Y-58122011D01*
X62051173Y-58083761D01*
X62048518Y-58059059D01*
X62037312Y-58007549D01*
X62037313Y-58007550D01*
X62026355Y-57969345D01*
X62026354Y-57969344D01*
X62026354Y-57969342D01*
X62025293Y-57967528D01*
X62016962Y-57953282D01*
X62000000Y-57890682D01*
X62000000Y-57750000D01*
X61854922Y-57750000D01*
X61798722Y-57736532D01*
X61779111Y-57726561D01*
X61779110Y-57726560D01*
X61779107Y-57726559D01*
X61712078Y-57706877D01*
X61712072Y-57706876D01*
X61626000Y-57694500D01*
X61625997Y-57694500D01*
X61533072Y-57694500D01*
X61496399Y-57686763D01*
X61496019Y-57688164D01*
X61487018Y-57685715D01*
X61461892Y-57682800D01*
X60813370Y-57682800D01*
X60813344Y-57682802D01*
X60788238Y-57685713D01*
X60781641Y-57687509D01*
X60716535Y-57687508D01*
X60709947Y-57685715D01*
X60684817Y-57682800D01*
X60315695Y-57682800D01*
X60315671Y-57682802D01*
X60290561Y-57685714D01*
X60282732Y-57687844D01*
X60217635Y-57687842D01*
X60209818Y-57685715D01*
X60184691Y-57682800D01*
X59815569Y-57682800D01*
X59815545Y-57682802D01*
X59790435Y-57685714D01*
X59782606Y-57687844D01*
X59717509Y-57687842D01*
X59709692Y-57685715D01*
X59684565Y-57682800D01*
X59315443Y-57682800D01*
X59315419Y-57682802D01*
X59290309Y-57685714D01*
X59283709Y-57687510D01*
X59218607Y-57687508D01*
X59212019Y-57685715D01*
X59186890Y-57682800D01*
X58538368Y-57682800D01*
X58538342Y-57682802D01*
X58513237Y-57685713D01*
X58513233Y-57685715D01*
X58399949Y-57735735D01*
X58398914Y-57733391D01*
X58348107Y-57749946D01*
X58344463Y-57750000D01*
X56374000Y-57750000D01*
X56306961Y-57730315D01*
X56261206Y-57677511D01*
X56250000Y-57626000D01*
X56250000Y-52124000D01*
X56269685Y-52056961D01*
X56322489Y-52011206D01*
X56374000Y-52000000D01*
X56395078Y-52000000D01*
X56451277Y-52013467D01*
G37*
G04 #@! TD.AperFunction*
G04 #@! TA.AperFunction,Conductor*
G36*
X58693039Y-59269685D02*
G01*
X58738794Y-59322489D01*
X58750000Y-59374000D01*
X58750000Y-60626000D01*
X58730315Y-60693039D01*
X58677511Y-60738794D01*
X58626000Y-60750000D01*
X56374000Y-60750000D01*
X56306961Y-60730315D01*
X56261206Y-60677511D01*
X56250000Y-60626000D01*
X56250000Y-60456041D01*
X56257818Y-60412707D01*
X56269091Y-60382483D01*
X56275500Y-60322873D01*
X56275499Y-59827128D01*
X56269091Y-59767517D01*
X56257818Y-59737292D01*
X56250000Y-59693959D01*
X56250000Y-59374000D01*
X56269685Y-59306961D01*
X56322489Y-59261206D01*
X56374000Y-59250000D01*
X58626000Y-59250000D01*
X58693039Y-59269685D01*
G37*
G04 #@! TD.AperFunction*
G04 #@! TA.AperFunction,Conductor*
G36*
X63193039Y-61769685D02*
G01*
X63238794Y-61822489D01*
X63250000Y-61874000D01*
X63250000Y-62876000D01*
X63230315Y-62943039D01*
X63177511Y-62988794D01*
X63126000Y-63000000D01*
X61874000Y-63000000D01*
X61806961Y-62980315D01*
X61761206Y-62927511D01*
X61750000Y-62876000D01*
X61750000Y-61874000D01*
X61769685Y-61806961D01*
X61822489Y-61761206D01*
X61874000Y-61750000D01*
X63126000Y-61750000D01*
X63193039Y-61769685D01*
G37*
G04 #@! TD.AperFunction*
G04 #@! TA.AperFunction,Conductor*
G36*
X48693039Y-41519685D02*
G01*
X48738794Y-41572489D01*
X48750000Y-41624000D01*
X48750000Y-48376000D01*
X48730315Y-48443039D01*
X48677511Y-48488794D01*
X48626000Y-48500000D01*
X46374000Y-48500000D01*
X46306961Y-48480315D01*
X46261206Y-48427511D01*
X46250000Y-48376000D01*
X46250000Y-47799014D01*
X46250443Y-47791615D01*
X46250500Y-47791144D01*
X46250500Y-47208856D01*
X46250499Y-47208846D01*
X46250440Y-47208350D01*
X46250000Y-47200972D01*
X46250000Y-45299014D01*
X46250443Y-45291615D01*
X46250500Y-45291144D01*
X46250500Y-44708856D01*
X46250499Y-44708846D01*
X46250440Y-44708350D01*
X46250000Y-44700972D01*
X46250000Y-42799014D01*
X46250443Y-42791615D01*
X46250500Y-42791144D01*
X46250500Y-42208856D01*
X46250499Y-42208846D01*
X46250440Y-42208350D01*
X46250000Y-42200972D01*
X46250000Y-41624000D01*
X46269685Y-41556961D01*
X46322489Y-41511206D01*
X46374000Y-41500000D01*
X48626000Y-41500000D01*
X48693039Y-41519685D01*
G37*
G04 #@! TD.AperFunction*
G04 #@! TA.AperFunction,Conductor*
G36*
X49543039Y-56419685D02*
G01*
X49588794Y-56472489D01*
X49600000Y-56524000D01*
X49600000Y-57876000D01*
X49580315Y-57943039D01*
X49527511Y-57988794D01*
X49476000Y-58000000D01*
X48324000Y-58000000D01*
X48256961Y-57980315D01*
X48211206Y-57927511D01*
X48200000Y-57876000D01*
X48200000Y-56524000D01*
X48219685Y-56456961D01*
X48272489Y-56411206D01*
X48324000Y-56400000D01*
X49476000Y-56400000D01*
X49543039Y-56419685D01*
G37*
G04 #@! TD.AperFunction*
M02*
