G04 #@! TF.GenerationSoftware,KiCad,Pcbnew,7.0.8*
G04 #@! TF.CreationDate,2023-10-29T23:59:44-04:00*
G04 #@! TF.ProjectId,SeniorDesign,53656e69-6f72-4446-9573-69676e2e6b69,rev?*
G04 #@! TF.SameCoordinates,Original*
G04 #@! TF.FileFunction,Copper,L4,Bot*
G04 #@! TF.FilePolarity,Positive*
%FSLAX46Y46*%
G04 Gerber Fmt 4.6, Leading zero omitted, Abs format (unit mm)*
G04 Created by KiCad (PCBNEW 7.0.8) date 2023-10-29 23:59:44*
%MOMM*%
%LPD*%
G01*
G04 APERTURE LIST*
G04 #@! TA.AperFunction,ComponentPad*
%ADD10R,1.905000X2.000000*%
G04 #@! TD*
G04 #@! TA.AperFunction,ComponentPad*
%ADD11O,1.905000X2.000000*%
G04 #@! TD*
G04 #@! TA.AperFunction,ComponentPad*
%ADD12C,2.032000*%
G04 #@! TD*
G04 #@! TA.AperFunction,ComponentPad*
%ADD13R,1.130000X1.130000*%
G04 #@! TD*
G04 #@! TA.AperFunction,ComponentPad*
%ADD14C,1.130000*%
G04 #@! TD*
G04 #@! TA.AperFunction,ComponentPad*
%ADD15R,2.200000X2.200000*%
G04 #@! TD*
G04 #@! TA.AperFunction,ComponentPad*
%ADD16O,2.200000X2.200000*%
G04 #@! TD*
G04 #@! TA.AperFunction,ComponentPad*
%ADD17R,1.080000X1.080000*%
G04 #@! TD*
G04 #@! TA.AperFunction,ComponentPad*
%ADD18C,1.080000*%
G04 #@! TD*
G04 #@! TA.AperFunction,ComponentPad*
%ADD19O,1.800000X1.150000*%
G04 #@! TD*
G04 #@! TA.AperFunction,ComponentPad*
%ADD20O,2.000000X1.450000*%
G04 #@! TD*
G04 #@! TA.AperFunction,ViaPad*
%ADD21C,0.700000*%
G04 #@! TD*
G04 #@! TA.AperFunction,ViaPad*
%ADD22C,0.800000*%
G04 #@! TD*
G04 #@! TA.AperFunction,Conductor*
%ADD23C,0.300000*%
G04 #@! TD*
G04 #@! TA.AperFunction,Conductor*
%ADD24C,0.500000*%
G04 #@! TD*
G04 APERTURE END LIST*
D10*
X60985000Y-43445000D03*
D11*
X63525000Y-43445000D03*
X66065000Y-43445000D03*
D12*
X27025000Y-121000000D03*
X27025000Y-126000000D03*
X27025000Y-131000001D03*
X27025000Y-136000001D03*
X27025000Y-141000001D03*
X27025000Y-146000001D03*
X27025000Y-151000001D03*
D13*
X48335000Y-80280000D03*
D14*
X45795000Y-80280000D03*
X43255000Y-80280000D03*
X40715000Y-80280000D03*
X40715000Y-88220000D03*
X43255000Y-88220000D03*
X45795000Y-88220000D03*
X48335000Y-88220000D03*
D13*
X64805000Y-125940000D03*
D14*
X64805000Y-128480000D03*
X64805000Y-131020000D03*
X64805000Y-133560000D03*
X72745000Y-133560000D03*
X72745000Y-131020000D03*
X72745000Y-128480000D03*
X72745000Y-125940000D03*
D13*
X50805000Y-120940000D03*
D14*
X50805000Y-123480000D03*
X50805000Y-126020000D03*
X50805000Y-128560000D03*
X58745000Y-128560000D03*
X58745000Y-126020000D03*
X58745000Y-123480000D03*
X58745000Y-120940000D03*
D13*
X36805000Y-115940000D03*
D14*
X36805000Y-118480000D03*
X36805000Y-121020000D03*
X36805000Y-123560000D03*
X44745000Y-123560000D03*
X44745000Y-121020000D03*
X44745000Y-118480000D03*
X44745000Y-115940000D03*
D13*
X61555000Y-95190000D03*
D14*
X61555000Y-97730000D03*
X61555000Y-100270000D03*
X61555000Y-102810000D03*
X69495000Y-102810000D03*
X69495000Y-100270000D03*
X69495000Y-97730000D03*
X69495000Y-95190000D03*
D10*
X45485000Y-52195000D03*
D11*
X48025000Y-52195000D03*
X50565000Y-52195000D03*
D15*
X53445000Y-36250000D03*
D16*
X63605000Y-36250000D03*
D13*
X50805000Y-135940000D03*
D14*
X50805000Y-138480000D03*
X50805000Y-141020000D03*
X50805000Y-143560000D03*
X58745000Y-143560000D03*
X58745000Y-141020000D03*
X58745000Y-138480000D03*
X58745000Y-135940000D03*
D17*
X77500000Y-40020000D03*
D18*
X78770000Y-38750000D03*
X77500000Y-37480000D03*
D15*
X76945000Y-89000000D03*
D16*
X87105000Y-89000000D03*
D13*
X36805000Y-130940000D03*
D14*
X36805000Y-133480000D03*
X36805000Y-136020000D03*
X36805000Y-138560000D03*
X44745000Y-138560000D03*
X44745000Y-136020000D03*
X44745000Y-133480000D03*
X44745000Y-130940000D03*
D12*
X47308399Y-26250000D03*
X52308399Y-26250000D03*
X57308400Y-26250000D03*
X62308400Y-26250000D03*
X67308400Y-26250000D03*
X72308400Y-26250000D03*
X77308400Y-26250000D03*
D17*
X77500000Y-60020000D03*
D18*
X78770000Y-58750000D03*
X77500000Y-57480000D03*
D13*
X64805000Y-140940000D03*
D14*
X64805000Y-143480000D03*
X64805000Y-146020000D03*
X64805000Y-148560000D03*
X72745000Y-148560000D03*
X72745000Y-146020000D03*
X72745000Y-143480000D03*
X72745000Y-140940000D03*
D13*
X69495000Y-116060000D03*
D14*
X69495000Y-113520000D03*
X69495000Y-110980000D03*
X69495000Y-108440000D03*
X61555000Y-108440000D03*
X61555000Y-110980000D03*
X61555000Y-113520000D03*
X61555000Y-116060000D03*
D13*
X45835000Y-94280000D03*
D14*
X43295000Y-94280000D03*
X40755000Y-94280000D03*
X38215000Y-94280000D03*
X38215000Y-102220000D03*
X40755000Y-102220000D03*
X43295000Y-102220000D03*
X45835000Y-102220000D03*
D15*
X39945000Y-60000000D03*
D16*
X50105000Y-60000000D03*
D13*
X78055000Y-99690000D03*
D14*
X78055000Y-102230000D03*
X78055000Y-104770000D03*
X78055000Y-107310000D03*
X85995000Y-107310000D03*
X85995000Y-104770000D03*
X85995000Y-102230000D03*
X85995000Y-99690000D03*
D19*
X91695000Y-81625000D03*
D20*
X87895000Y-81475000D03*
X87895000Y-74025000D03*
D19*
X91695000Y-73875000D03*
D15*
X49750000Y-107080000D03*
D16*
X49750000Y-96920000D03*
D12*
X86775000Y-65750001D03*
X86775000Y-60750001D03*
X86775000Y-55750000D03*
X86775000Y-50750000D03*
X86775000Y-45750000D03*
X86775000Y-40750000D03*
X86775000Y-35750000D03*
D17*
X77500000Y-50020000D03*
D18*
X78770000Y-48750000D03*
X77500000Y-47480000D03*
D15*
X85355000Y-95500000D03*
D16*
X75195000Y-95500000D03*
D12*
X27025000Y-65000000D03*
X27025000Y-70000000D03*
X27025000Y-75000001D03*
X27025000Y-80000001D03*
X27025000Y-85000001D03*
X27025000Y-90000001D03*
X27025000Y-95000001D03*
D15*
X54250000Y-94420000D03*
D16*
X54250000Y-104580000D03*
D15*
X55250000Y-59170000D03*
D16*
X55250000Y-69330000D03*
D21*
X49250000Y-91250000D03*
X70500000Y-80750000D03*
X74250000Y-112500000D03*
X72750000Y-114000000D03*
X66500000Y-127000000D03*
X66500000Y-130500000D03*
X67500000Y-127000000D03*
X67500000Y-130500000D03*
X90399500Y-122750000D03*
X87000000Y-128750000D03*
X65000000Y-152749500D03*
X56000000Y-138750000D03*
X41000000Y-147250000D03*
X41000000Y-133250000D03*
X41000000Y-128250000D03*
X41000000Y-124750000D03*
X32250000Y-127000000D03*
X42000000Y-147250000D03*
X42000000Y-139000000D03*
X49250000Y-147000000D03*
X47250000Y-145000000D03*
X30250000Y-142750000D03*
X86405000Y-123845000D03*
X85045196Y-123045000D03*
X82745000Y-122245000D03*
X49750000Y-70500000D03*
X48500000Y-70500000D03*
X47250000Y-70500000D03*
X61500000Y-106750000D03*
X57000000Y-104250000D03*
X52000000Y-99250000D03*
D22*
X51000000Y-78500000D03*
X44500000Y-78000000D03*
X75750000Y-113750000D03*
X43225000Y-105975000D03*
X90000000Y-102250000D03*
X73500000Y-98250000D03*
X57275000Y-113475000D03*
X60250000Y-57500000D03*
X44000000Y-40250000D03*
X61000000Y-77250000D03*
X55850000Y-80600000D03*
X57250000Y-115000000D03*
X80750000Y-104750000D03*
X73750000Y-106250000D03*
X71750000Y-94500000D03*
X70250000Y-85500000D03*
X71250000Y-88250000D03*
X68500000Y-91500000D03*
X90000000Y-100750000D03*
D21*
X62250000Y-72750000D03*
X63250000Y-77250000D03*
X81000000Y-72750000D03*
X76500000Y-85500000D03*
X66750000Y-87500000D03*
X60975000Y-135250000D03*
X48250000Y-48000000D03*
X47250000Y-49750000D03*
X46250000Y-104500000D03*
X30000000Y-151000000D03*
X59750000Y-148500000D03*
X49470000Y-75470000D03*
X69750000Y-76500000D03*
X58250000Y-52500000D03*
X75000000Y-125500000D03*
X61000000Y-120500000D03*
X48250000Y-43000000D03*
X55750000Y-46250000D03*
X81865000Y-116365000D03*
X57250000Y-46250000D03*
X47000000Y-130250000D03*
X38500000Y-80000000D03*
X40750000Y-96250000D03*
X69250000Y-79750000D03*
X47000000Y-115500000D03*
X75750000Y-50000000D03*
X45750000Y-143500000D03*
X48250000Y-44500000D03*
X48250000Y-47000000D03*
X81905000Y-118905000D03*
X32000000Y-138500000D03*
X57250000Y-52500000D03*
X75000000Y-140500000D03*
X75750000Y-40000000D03*
X75750000Y-60000000D03*
X74000000Y-77250000D03*
X56500000Y-71250000D03*
X81945000Y-121445000D03*
X66500000Y-74750000D03*
X48250000Y-45500000D03*
X55250000Y-71250000D03*
X73250000Y-81500000D03*
X45660000Y-71000000D03*
D22*
X63500000Y-88250000D03*
D21*
X58750000Y-46250000D03*
X48250000Y-42000000D03*
X84000000Y-35750000D03*
X47250000Y-54750000D03*
X32000000Y-123500000D03*
X54000000Y-71250000D03*
X48750000Y-49750000D03*
X77308400Y-28500000D03*
D22*
X85500000Y-76500000D03*
X37000000Y-24750000D03*
D21*
X81925000Y-113825000D03*
X58575000Y-89925000D03*
X47250000Y-55750000D03*
D22*
X78200000Y-81800000D03*
X68000000Y-89000000D03*
D21*
X38500000Y-89000000D03*
X34750000Y-122000000D03*
X47250000Y-127000000D03*
X34750000Y-137000000D03*
X42250000Y-78000000D03*
X60250000Y-131000000D03*
X70000000Y-47000000D03*
X62500000Y-138525000D03*
X51250000Y-57500000D03*
X54750000Y-52500000D03*
X70000000Y-38000000D03*
X48500000Y-133500000D03*
X44750000Y-90500000D03*
X48475000Y-118525000D03*
X70000000Y-37000000D03*
X70000000Y-48000000D03*
X86945000Y-112555000D03*
X62475000Y-123525000D03*
X76725000Y-143525000D03*
X40500000Y-70500000D03*
X70000000Y-58012314D03*
X51250000Y-56250000D03*
X55750000Y-52500000D03*
X76475000Y-128525000D03*
X70000000Y-57012314D03*
X44390000Y-65000000D03*
X43120000Y-66000000D03*
X41850000Y-70650000D03*
X43500000Y-70750000D03*
X45660000Y-75410000D03*
X32500000Y-131000000D03*
X73000000Y-71750000D03*
X84500000Y-63000000D03*
X71750000Y-71750000D03*
X84500000Y-57250000D03*
X89500000Y-48500000D03*
X80500000Y-76500000D03*
X58750000Y-63700000D03*
X46930000Y-65070000D03*
X58750000Y-64750000D03*
X48200000Y-65800000D03*
X58750000Y-65750000D03*
X49470000Y-66280000D03*
D22*
X34000000Y-24750000D03*
X68250000Y-64750000D03*
D23*
X69500000Y-81750000D02*
X69500000Y-87500000D01*
X70500000Y-80750000D02*
X69500000Y-81750000D01*
X68000000Y-89000000D02*
X69500000Y-87500000D01*
D24*
X74250000Y-112500000D02*
X72750000Y-114000000D01*
X66500000Y-130500000D02*
X66500000Y-127000000D01*
X67500000Y-130500000D02*
X67500000Y-127000000D01*
X90399500Y-125350500D02*
X87000000Y-128750000D01*
X90399500Y-122750000D02*
X90399500Y-125350500D01*
X64999500Y-152750000D02*
X61500000Y-152750000D01*
X56000000Y-147250000D02*
X56000000Y-138750000D01*
X65000000Y-152749500D02*
X64999500Y-152750000D01*
X61500000Y-152750000D02*
X56000000Y-147250000D01*
X41000000Y-124750000D02*
X41000000Y-128250000D01*
X41000000Y-133250000D02*
X41000000Y-147250000D01*
X42000000Y-139000000D02*
X42000000Y-147250000D01*
X47250000Y-145000000D02*
X49250000Y-147000000D01*
X30250000Y-142250000D02*
X30250000Y-142750000D01*
X66000000Y-95875000D02*
X51850000Y-81725000D01*
X51850000Y-81725000D02*
X51850000Y-75100000D01*
X66000000Y-117479900D02*
X66000000Y-95875000D01*
X72365100Y-123845000D02*
X66000000Y-117479900D01*
X86405000Y-123845000D02*
X72365100Y-123845000D01*
X51850000Y-75100000D02*
X47250000Y-70500000D01*
X52550000Y-74550000D02*
X48500000Y-70500000D01*
X66700000Y-95585051D02*
X52550000Y-81435050D01*
X72555050Y-123045000D02*
X66700000Y-117189950D01*
X66700000Y-117189950D02*
X66700000Y-95585051D01*
X85045196Y-123045000D02*
X72555050Y-123045000D01*
X52550000Y-81435050D02*
X52550000Y-74550000D01*
X53250000Y-81145100D02*
X53250000Y-74000000D01*
X67400000Y-95295102D02*
X53250000Y-81145100D01*
X72745000Y-122245000D02*
X67400000Y-116900000D01*
X82745000Y-122245000D02*
X72745000Y-122245000D01*
X53250000Y-74000000D02*
X49750000Y-70500000D01*
X67400000Y-116900000D02*
X67400000Y-95295102D01*
X59500000Y-106750000D02*
X61500000Y-106750000D01*
X57000000Y-104250000D02*
X59500000Y-106750000D01*
X52000000Y-98500000D02*
X52000000Y-99250000D01*
X51000000Y-92250000D02*
X51000000Y-78500000D01*
X52000000Y-93250000D02*
X51000000Y-92250000D01*
X52000000Y-98500000D02*
X52000000Y-93250000D01*
X44500000Y-78000000D02*
X42250000Y-78000000D01*
X30250000Y-94000000D02*
X30250000Y-117500000D01*
X60250000Y-52250000D02*
X60250000Y-57500000D01*
X57250000Y-49250000D02*
X60250000Y-52250000D01*
X52250000Y-49250000D02*
X57250000Y-49250000D01*
X50250000Y-47250000D02*
X52250000Y-49250000D01*
X50250000Y-42250000D02*
X50250000Y-47250000D01*
X48250000Y-40250000D02*
X50250000Y-42250000D01*
X44000000Y-40250000D02*
X47631371Y-40250000D01*
X47631371Y-40250000D02*
X48250000Y-40250000D01*
D23*
X70250000Y-87250000D02*
X70250000Y-85500000D01*
X71250000Y-88250000D02*
X70250000Y-87250000D01*
D24*
X76500000Y-72750000D02*
X76500000Y-85500000D01*
X76500000Y-72750000D02*
X81000000Y-72750000D01*
X62250000Y-72750000D02*
X76500000Y-72750000D01*
X63250000Y-84000000D02*
X66750000Y-87500000D01*
X63250000Y-77250000D02*
X63250000Y-84000000D01*
X38500000Y-85750000D02*
X30250000Y-94000000D01*
X30250000Y-117500000D02*
X34750000Y-122000000D01*
X30250000Y-117500000D02*
X30250000Y-125000000D01*
X38500000Y-85750000D02*
X38500000Y-89000000D01*
X30250000Y-125000000D02*
X32250000Y-127000000D01*
X30250000Y-142250000D02*
X30250000Y-132500000D01*
X40715000Y-83535000D02*
X38500000Y-85750000D01*
X47250000Y-129250000D02*
X47250000Y-127000000D01*
X47250000Y-145000000D02*
X47500000Y-145000000D01*
X49000000Y-131000000D02*
X47250000Y-129250000D01*
X40715000Y-80280000D02*
X40715000Y-83535000D01*
X30250000Y-125000000D02*
X30250000Y-132500000D01*
X30250000Y-132500000D02*
X34750000Y-137000000D01*
X60250000Y-131000000D02*
X49000000Y-131000000D01*
X43390000Y-64000000D02*
X28025000Y-64000000D01*
X44390000Y-65000000D02*
X43390000Y-64000000D01*
X28025000Y-64000000D02*
X27025000Y-65000000D01*
X31750000Y-65250000D02*
X27025000Y-69975000D01*
X27025000Y-69975000D02*
X27025000Y-70000000D01*
X42750000Y-65250000D02*
X31750000Y-65250000D01*
X43120000Y-65620000D02*
X42750000Y-65250000D01*
X43120000Y-66000000D02*
X43120000Y-65620000D01*
X37499999Y-75000001D02*
X27025000Y-75000001D01*
X41850000Y-70650000D02*
X37499999Y-75000001D01*
X34249999Y-80000001D02*
X27025000Y-80000001D01*
X43500000Y-70750000D02*
X34249999Y-80000001D01*
X45660000Y-75410000D02*
X44070000Y-77000000D01*
X27025000Y-89975000D02*
X27025000Y-90000001D01*
X40000000Y-77000000D02*
X27025000Y-89975000D01*
X44070000Y-77000000D02*
X40000000Y-77000000D01*
X63575000Y-132250000D02*
X64805000Y-131020000D01*
X33750000Y-132250000D02*
X63575000Y-132250000D01*
X32500000Y-131000000D02*
X33750000Y-132250000D01*
D23*
X81000000Y-70500000D02*
X74250000Y-70500000D01*
X84500000Y-67000000D02*
X81000000Y-70500000D01*
X84500000Y-63000000D02*
X84500000Y-67000000D01*
X74250000Y-70500000D02*
X73000000Y-71750000D01*
X83500000Y-58250000D02*
X84500000Y-57250000D01*
X74000000Y-69500000D02*
X80625000Y-69500000D01*
X83500000Y-66625000D02*
X83500000Y-58250000D01*
X71750000Y-71750000D02*
X74000000Y-69500000D01*
X80625000Y-69500000D02*
X83500000Y-66625000D01*
X80500000Y-76500000D02*
X89500000Y-67500000D01*
X89500000Y-67500000D02*
X89500000Y-48500000D01*
D24*
X58750000Y-63700000D02*
X48300000Y-63700000D01*
X48300000Y-63700000D02*
X46930000Y-65070000D01*
X49250000Y-64750000D02*
X58750000Y-64750000D01*
X48520000Y-65480000D02*
X49250000Y-64750000D01*
X48200000Y-65800000D02*
X48520000Y-65480000D01*
X49470000Y-66280000D02*
X50000000Y-65750000D01*
X50000000Y-65750000D02*
X58750000Y-65750000D01*
X34000000Y-24750000D02*
X34000000Y-59500000D01*
X37250000Y-62750000D02*
X66250000Y-62750000D01*
X66250000Y-62750000D02*
X68250000Y-64750000D01*
X34000000Y-59500000D02*
X37250000Y-62750000D01*
M02*
