G04 #@! TF.GenerationSoftware,KiCad,Pcbnew,7.0.8*
G04 #@! TF.CreationDate,2023-10-29T23:59:44-04:00*
G04 #@! TF.ProjectId,SeniorDesign,53656e69-6f72-4446-9573-69676e2e6b69,rev?*
G04 #@! TF.SameCoordinates,Original*
G04 #@! TF.FileFunction,Soldermask,Top*
G04 #@! TF.FilePolarity,Negative*
%FSLAX46Y46*%
G04 Gerber Fmt 4.6, Leading zero omitted, Abs format (unit mm)*
G04 Created by KiCad (PCBNEW 7.0.8) date 2023-10-29 23:59:44*
%MOMM*%
%LPD*%
G01*
G04 APERTURE LIST*
G04 Aperture macros list*
%AMRoundRect*
0 Rectangle with rounded corners*
0 $1 Rounding radius*
0 $2 $3 $4 $5 $6 $7 $8 $9 X,Y pos of 4 corners*
0 Add a 4 corners polygon primitive as box body*
4,1,4,$2,$3,$4,$5,$6,$7,$8,$9,$2,$3,0*
0 Add four circle primitives for the rounded corners*
1,1,$1+$1,$2,$3*
1,1,$1+$1,$4,$5*
1,1,$1+$1,$6,$7*
1,1,$1+$1,$8,$9*
0 Add four rect primitives between the rounded corners*
20,1,$1+$1,$2,$3,$4,$5,0*
20,1,$1+$1,$4,$5,$6,$7,0*
20,1,$1+$1,$6,$7,$8,$9,0*
20,1,$1+$1,$8,$9,$2,$3,0*%
G04 Aperture macros list end*
%ADD10C,2.200000*%
%ADD11RoundRect,0.200000X0.275000X-0.200000X0.275000X0.200000X-0.275000X0.200000X-0.275000X-0.200000X0*%
%ADD12RoundRect,0.225000X0.250000X-0.225000X0.250000X0.225000X-0.250000X0.225000X-0.250000X-0.225000X0*%
%ADD13RoundRect,0.200000X-0.200000X-0.275000X0.200000X-0.275000X0.200000X0.275000X-0.200000X0.275000X0*%
%ADD14RoundRect,0.225000X-0.225000X-0.250000X0.225000X-0.250000X0.225000X0.250000X-0.225000X0.250000X0*%
%ADD15R,1.905000X2.000000*%
%ADD16O,1.905000X2.000000*%
%ADD17RoundRect,0.250000X0.550000X-1.050000X0.550000X1.050000X-0.550000X1.050000X-0.550000X-1.050000X0*%
%ADD18C,2.032000*%
%ADD19RoundRect,0.102000X-0.565000X0.565000X-0.565000X-0.565000X0.565000X-0.565000X0.565000X0.565000X0*%
%ADD20C,1.334000*%
%ADD21R,0.558800X2.184400*%
%ADD22RoundRect,0.102000X-0.565000X-0.565000X0.565000X-0.565000X0.565000X0.565000X-0.565000X0.565000X0*%
%ADD23RoundRect,0.250000X-1.050000X-0.550000X1.050000X-0.550000X1.050000X0.550000X-1.050000X0.550000X0*%
%ADD24RoundRect,0.200000X0.200000X0.275000X-0.200000X0.275000X-0.200000X-0.275000X0.200000X-0.275000X0*%
%ADD25RoundRect,0.225000X0.225000X0.250000X-0.225000X0.250000X-0.225000X-0.250000X0.225000X-0.250000X0*%
%ADD26RoundRect,0.200000X-0.275000X0.200000X-0.275000X-0.200000X0.275000X-0.200000X0.275000X0.200000X0*%
%ADD27R,1.000000X0.800000*%
%ADD28C,0.900000*%
%ADD29R,0.700000X1.500000*%
%ADD30R,2.200000X2.200000*%
%ADD31O,2.200000X2.200000*%
%ADD32RoundRect,0.102000X0.540000X-0.540000X0.540000X0.540000X-0.540000X0.540000X-0.540000X-0.540000X0*%
%ADD33C,1.284000*%
%ADD34R,1.200000X1.400000*%
%ADD35RoundRect,0.225000X-0.250000X0.225000X-0.250000X-0.225000X0.250000X-0.225000X0.250000X0.225000X0*%
%ADD36RoundRect,0.102000X0.565000X0.565000X-0.565000X0.565000X-0.565000X-0.565000X0.565000X-0.565000X0*%
%ADD37R,2.184400X0.558800*%
%ADD38O,0.800000X0.800000*%
%ADD39R,1.300000X0.450000*%
%ADD40O,1.800000X1.150000*%
%ADD41O,2.000000X1.450000*%
%ADD42RoundRect,0.218750X-0.256250X0.218750X-0.256250X-0.218750X0.256250X-0.218750X0.256250X0.218750X0*%
%ADD43RoundRect,0.075000X-0.662500X-0.075000X0.662500X-0.075000X0.662500X0.075000X-0.662500X0.075000X0*%
%ADD44RoundRect,0.075000X-0.075000X-0.662500X0.075000X-0.662500X0.075000X0.662500X-0.075000X0.662500X0*%
G04 APERTURE END LIST*
D10*
X89000000Y-162750000D03*
D11*
X59275000Y-111075000D03*
X59275000Y-109425000D03*
D12*
X61025000Y-138525000D03*
X61025000Y-136975000D03*
D13*
X64450000Y-105750000D03*
X66100000Y-105750000D03*
D14*
X46250000Y-90500000D03*
X47800000Y-90500000D03*
D12*
X64250000Y-81525000D03*
X64250000Y-79975000D03*
D15*
X60985000Y-43445000D03*
D16*
X63525000Y-43445000D03*
X66065000Y-43445000D03*
D17*
X53500000Y-44050000D03*
X53500000Y-40450000D03*
D18*
X27025000Y-121000000D03*
X27025000Y-126000000D03*
X27025000Y-131000001D03*
X27025000Y-136000001D03*
X27025000Y-141000001D03*
X27025000Y-146000001D03*
X27025000Y-151000001D03*
D19*
X48335000Y-80280000D03*
D20*
X45795000Y-80280000D03*
X43255000Y-80280000D03*
X40715000Y-80280000D03*
X40715000Y-88220000D03*
X43255000Y-88220000D03*
X45795000Y-88220000D03*
X48335000Y-88220000D03*
D21*
X40580000Y-73112200D03*
X41850000Y-73112200D03*
X43120000Y-73112200D03*
X44390000Y-73112200D03*
X45660000Y-73112200D03*
X46930000Y-73112200D03*
X48200000Y-73112200D03*
X49470000Y-73112200D03*
X49470000Y-68387800D03*
X48200000Y-68387800D03*
X46930000Y-68387800D03*
X45660000Y-68387800D03*
X44390000Y-68387800D03*
X43120000Y-68387800D03*
X41850000Y-68387800D03*
X40580000Y-68387800D03*
D22*
X64805000Y-125940000D03*
D20*
X64805000Y-128480000D03*
X64805000Y-131020000D03*
X64805000Y-133560000D03*
X72745000Y-133560000D03*
X72745000Y-131020000D03*
X72745000Y-128480000D03*
X72745000Y-125940000D03*
D23*
X61725000Y-49250000D03*
X65325000Y-49250000D03*
D12*
X75025000Y-128525000D03*
X75025000Y-126975000D03*
D22*
X50805000Y-120940000D03*
D20*
X50805000Y-123480000D03*
X50805000Y-126020000D03*
X50805000Y-128560000D03*
X58745000Y-128560000D03*
X58745000Y-126020000D03*
X58745000Y-123480000D03*
X58745000Y-120940000D03*
D14*
X57725000Y-76250000D03*
X59275000Y-76250000D03*
D11*
X72500000Y-69325000D03*
X72500000Y-67675000D03*
D24*
X72825000Y-37500000D03*
X71175000Y-37500000D03*
D12*
X47025000Y-133525000D03*
X47025000Y-131975000D03*
D24*
X72825000Y-47500000D03*
X71175000Y-47500000D03*
D14*
X45500000Y-42500000D03*
X47050000Y-42500000D03*
D25*
X74800000Y-85500000D03*
X73250000Y-85500000D03*
D26*
X43275000Y-90425000D03*
X43275000Y-92075000D03*
D27*
X38400000Y-22255000D03*
X38400000Y-20045000D03*
D28*
X36250000Y-21145000D03*
X33250000Y-21145000D03*
D27*
X31100000Y-22255000D03*
X31100000Y-20045000D03*
D29*
X37000000Y-22905000D03*
X34000000Y-22905000D03*
X32500000Y-22905000D03*
D22*
X36805000Y-115940000D03*
D20*
X36805000Y-118480000D03*
X36805000Y-121020000D03*
X36805000Y-123560000D03*
X44745000Y-123560000D03*
X44745000Y-121020000D03*
X44745000Y-118480000D03*
X44745000Y-115940000D03*
D12*
X71750000Y-96225000D03*
X71750000Y-97775000D03*
D22*
X61555000Y-95190000D03*
D20*
X61555000Y-97730000D03*
X61555000Y-100270000D03*
X61555000Y-102810000D03*
X69495000Y-102810000D03*
X69495000Y-100270000D03*
X69495000Y-97730000D03*
X69495000Y-95190000D03*
D15*
X45485000Y-52195000D03*
D16*
X48025000Y-52195000D03*
X50565000Y-52195000D03*
D30*
X53445000Y-36250000D03*
D31*
X63605000Y-36250000D03*
D22*
X50805000Y-135940000D03*
D20*
X50805000Y-138480000D03*
X50805000Y-141020000D03*
X50805000Y-143560000D03*
X58745000Y-143560000D03*
X58745000Y-141020000D03*
X58745000Y-138480000D03*
X58745000Y-135940000D03*
D32*
X77500000Y-40020000D03*
D33*
X78770000Y-38750000D03*
X77500000Y-37480000D03*
D30*
X76945000Y-89000000D03*
D31*
X87105000Y-89000000D03*
D24*
X43350000Y-76000000D03*
X41700000Y-76000000D03*
D11*
X76500000Y-69325000D03*
X76500000Y-67675000D03*
D22*
X36805000Y-130940000D03*
D20*
X36805000Y-133480000D03*
X36805000Y-136020000D03*
X36805000Y-138560000D03*
X44745000Y-138560000D03*
X44745000Y-136020000D03*
X44745000Y-133480000D03*
X44745000Y-130940000D03*
D13*
X55675000Y-91500000D03*
X57325000Y-91500000D03*
D34*
X57675000Y-78400000D03*
X57675000Y-80600000D03*
X59375000Y-80600000D03*
X59375000Y-78400000D03*
D26*
X55250000Y-53675000D03*
X55250000Y-55325000D03*
D18*
X47308399Y-26250000D03*
X52308399Y-26250000D03*
X57308400Y-26250000D03*
X62308400Y-26250000D03*
X67308400Y-26250000D03*
X72308400Y-26250000D03*
X77308400Y-26250000D03*
D32*
X77500000Y-60020000D03*
D33*
X78770000Y-58750000D03*
X77500000Y-57480000D03*
D11*
X74500000Y-69325000D03*
X74500000Y-67675000D03*
D35*
X59275000Y-113475000D03*
X59275000Y-115025000D03*
D12*
X88275000Y-102275000D03*
X88275000Y-100725000D03*
X65025000Y-76275000D03*
X65025000Y-74725000D03*
D22*
X64805000Y-140940000D03*
D20*
X64805000Y-143480000D03*
X64805000Y-146020000D03*
X64805000Y-148560000D03*
X72745000Y-148560000D03*
X72745000Y-146020000D03*
X72745000Y-143480000D03*
X72745000Y-140940000D03*
D12*
X75025000Y-143525000D03*
X75025000Y-141975000D03*
D14*
X33225000Y-123500000D03*
X34775000Y-123500000D03*
D24*
X72825000Y-57512314D03*
X71175000Y-57512314D03*
D25*
X40050000Y-92000000D03*
X38500000Y-92000000D03*
D35*
X59275000Y-101225000D03*
X59275000Y-102775000D03*
D36*
X69495000Y-116060000D03*
D20*
X69495000Y-113520000D03*
X69495000Y-110980000D03*
X69495000Y-108440000D03*
X61555000Y-108440000D03*
X61555000Y-110980000D03*
X61555000Y-113520000D03*
X61555000Y-116060000D03*
D35*
X78750000Y-74225000D03*
X78750000Y-75775000D03*
D14*
X45500000Y-47500000D03*
X47050000Y-47500000D03*
D13*
X68200000Y-66500000D03*
X69850000Y-66500000D03*
D12*
X47025000Y-118525000D03*
X47025000Y-116975000D03*
D37*
X79912800Y-112555000D03*
X79912800Y-113825000D03*
X79912800Y-115095000D03*
X79912800Y-116365000D03*
X79912800Y-117635000D03*
X79912800Y-118905000D03*
X79912800Y-120175000D03*
X79912800Y-121445000D03*
X84637200Y-121445000D03*
X84637200Y-120175000D03*
X84637200Y-118905000D03*
X84637200Y-117635000D03*
X84637200Y-116365000D03*
X84637200Y-115095000D03*
X84637200Y-113825000D03*
X84637200Y-112555000D03*
D24*
X81600000Y-79750000D03*
X79950000Y-79750000D03*
D25*
X50050000Y-55250000D03*
X48500000Y-55250000D03*
D14*
X46975000Y-128500000D03*
X48525000Y-128500000D03*
D19*
X45835000Y-94280000D03*
D20*
X43295000Y-94280000D03*
X40755000Y-94280000D03*
X38215000Y-94280000D03*
X38215000Y-102220000D03*
X40755000Y-102220000D03*
X43295000Y-102220000D03*
X45835000Y-102220000D03*
D11*
X57750000Y-55325000D03*
X57750000Y-53675000D03*
D30*
X39945000Y-60000000D03*
D31*
X50105000Y-60000000D03*
D14*
X39225000Y-78000000D03*
X40775000Y-78000000D03*
D10*
X24750000Y-162750000D03*
D22*
X78055000Y-99690000D03*
D20*
X78055000Y-102230000D03*
X78055000Y-104770000D03*
X78055000Y-107310000D03*
X85995000Y-107310000D03*
X85995000Y-104770000D03*
X85995000Y-102230000D03*
X85995000Y-99690000D03*
D38*
X88945000Y-80250000D03*
X88945000Y-75250000D03*
D39*
X87845000Y-79050000D03*
X87845000Y-78400000D03*
X87845000Y-77750000D03*
X87845000Y-77100000D03*
X87845000Y-76450000D03*
D40*
X91695000Y-81625000D03*
D41*
X87895000Y-81475000D03*
X87895000Y-74025000D03*
D40*
X91695000Y-73875000D03*
D42*
X66775000Y-84212500D03*
X66775000Y-85787500D03*
D13*
X49675000Y-94250000D03*
X51325000Y-94250000D03*
X70200000Y-91500000D03*
X71850000Y-91500000D03*
D11*
X60000000Y-91575000D03*
X60000000Y-89925000D03*
D10*
X24750000Y-24000000D03*
D30*
X49750000Y-107080000D03*
D31*
X49750000Y-96920000D03*
D18*
X86775000Y-65750001D03*
X86775000Y-60750001D03*
X86775000Y-55750000D03*
X86775000Y-50750000D03*
X86775000Y-45750000D03*
X86775000Y-40750000D03*
X86775000Y-35750000D03*
D25*
X59275000Y-82750000D03*
X57725000Y-82750000D03*
X65050000Y-84000000D03*
X63500000Y-84000000D03*
D26*
X83250000Y-75675000D03*
X83250000Y-77325000D03*
D14*
X68250000Y-69500000D03*
X69800000Y-69500000D03*
D13*
X72675000Y-89000000D03*
X74325000Y-89000000D03*
D14*
X68250000Y-72500000D03*
X69800000Y-72500000D03*
D43*
X67362500Y-76250000D03*
X67362500Y-76750000D03*
X67362500Y-77250000D03*
X67362500Y-77750000D03*
X67362500Y-78250000D03*
X67362500Y-78750000D03*
X67362500Y-79250000D03*
X67362500Y-79750000D03*
X67362500Y-80250000D03*
X67362500Y-80750000D03*
X67362500Y-81250000D03*
X67362500Y-81750000D03*
D44*
X68775000Y-83162500D03*
X69275000Y-83162500D03*
X69775000Y-83162500D03*
X70275000Y-83162500D03*
X70775000Y-83162500D03*
X71275000Y-83162500D03*
X71775000Y-83162500D03*
X72275000Y-83162500D03*
X72775000Y-83162500D03*
X73275000Y-83162500D03*
X73775000Y-83162500D03*
X74275000Y-83162500D03*
D43*
X75687500Y-81750000D03*
X75687500Y-81250000D03*
X75687500Y-80750000D03*
X75687500Y-80250000D03*
X75687500Y-79750000D03*
X75687500Y-79250000D03*
X75687500Y-78750000D03*
X75687500Y-78250000D03*
X75687500Y-77750000D03*
X75687500Y-77250000D03*
X75687500Y-76750000D03*
X75687500Y-76250000D03*
D44*
X74275000Y-74837500D03*
X73775000Y-74837500D03*
X73275000Y-74837500D03*
X72775000Y-74837500D03*
X72275000Y-74837500D03*
X71775000Y-74837500D03*
X71275000Y-74837500D03*
X70775000Y-74837500D03*
X70275000Y-74837500D03*
X69775000Y-74837500D03*
X69275000Y-74837500D03*
X68775000Y-74837500D03*
D32*
X77500000Y-50020000D03*
D33*
X78770000Y-48750000D03*
X77500000Y-47480000D03*
D30*
X85355000Y-95500000D03*
D31*
X75195000Y-95500000D03*
D14*
X47225000Y-143500000D03*
X48775000Y-143500000D03*
D35*
X71750000Y-106975000D03*
X71750000Y-108525000D03*
D12*
X61025000Y-123525000D03*
X61025000Y-121975000D03*
D14*
X60975000Y-133500000D03*
X62525000Y-133500000D03*
D26*
X75000000Y-100425000D03*
X75000000Y-102075000D03*
D13*
X75200000Y-92000000D03*
X76850000Y-92000000D03*
D25*
X66525000Y-89000000D03*
X64975000Y-89000000D03*
D24*
X79850000Y-83250000D03*
X78200000Y-83250000D03*
D18*
X27025000Y-65000000D03*
X27025000Y-70000000D03*
X27025000Y-75000001D03*
X27025000Y-80000001D03*
X27025000Y-85000001D03*
X27025000Y-90000001D03*
X27025000Y-95000001D03*
D14*
X61225000Y-148500000D03*
X62775000Y-148500000D03*
D25*
X65050000Y-86000000D03*
X63500000Y-86000000D03*
D14*
X45500000Y-45000000D03*
X47050000Y-45000000D03*
X33225000Y-138500000D03*
X34775000Y-138500000D03*
D10*
X89000000Y-24000000D03*
D30*
X54250000Y-94420000D03*
D31*
X54250000Y-104580000D03*
D35*
X75775000Y-105725000D03*
X75775000Y-107275000D03*
D30*
X55250000Y-59170000D03*
D31*
X55250000Y-69330000D03*
D11*
X77025000Y-115325000D03*
X77025000Y-113675000D03*
D14*
X43225000Y-104500000D03*
X44775000Y-104500000D03*
M02*
