G04 #@! TF.GenerationSoftware,KiCad,Pcbnew,7.0.8*
G04 #@! TF.CreationDate,2023-10-29T23:59:44-04:00*
G04 #@! TF.ProjectId,SeniorDesign,53656e69-6f72-4446-9573-69676e2e6b69,rev?*
G04 #@! TF.SameCoordinates,Original*
G04 #@! TF.FileFunction,Legend,Top*
G04 #@! TF.FilePolarity,Positive*
%FSLAX46Y46*%
G04 Gerber Fmt 4.6, Leading zero omitted, Abs format (unit mm)*
G04 Created by KiCad (PCBNEW 7.0.8) date 2023-10-29 23:59:44*
%MOMM*%
%LPD*%
G01*
G04 APERTURE LIST*
G04 Aperture macros list*
%AMRoundRect*
0 Rectangle with rounded corners*
0 $1 Rounding radius*
0 $2 $3 $4 $5 $6 $7 $8 $9 X,Y pos of 4 corners*
0 Add a 4 corners polygon primitive as box body*
4,1,4,$2,$3,$4,$5,$6,$7,$8,$9,$2,$3,0*
0 Add four circle primitives for the rounded corners*
1,1,$1+$1,$2,$3*
1,1,$1+$1,$4,$5*
1,1,$1+$1,$6,$7*
1,1,$1+$1,$8,$9*
0 Add four rect primitives between the rounded corners*
20,1,$1+$1,$2,$3,$4,$5,0*
20,1,$1+$1,$4,$5,$6,$7,0*
20,1,$1+$1,$6,$7,$8,$9,0*
20,1,$1+$1,$8,$9,$2,$3,0*%
G04 Aperture macros list end*
%ADD10C,0.150000*%
%ADD11C,0.120000*%
%ADD12C,0.152400*%
%ADD13C,0.508000*%
%ADD14C,0.127000*%
%ADD15C,0.200000*%
%ADD16C,2.200000*%
%ADD17RoundRect,0.200000X0.275000X-0.200000X0.275000X0.200000X-0.275000X0.200000X-0.275000X-0.200000X0*%
%ADD18RoundRect,0.225000X0.250000X-0.225000X0.250000X0.225000X-0.250000X0.225000X-0.250000X-0.225000X0*%
%ADD19RoundRect,0.200000X-0.200000X-0.275000X0.200000X-0.275000X0.200000X0.275000X-0.200000X0.275000X0*%
%ADD20RoundRect,0.225000X-0.225000X-0.250000X0.225000X-0.250000X0.225000X0.250000X-0.225000X0.250000X0*%
%ADD21R,1.905000X2.000000*%
%ADD22O,1.905000X2.000000*%
%ADD23RoundRect,0.250000X0.550000X-1.050000X0.550000X1.050000X-0.550000X1.050000X-0.550000X-1.050000X0*%
%ADD24C,2.032000*%
%ADD25RoundRect,0.102000X-0.565000X0.565000X-0.565000X-0.565000X0.565000X-0.565000X0.565000X0.565000X0*%
%ADD26C,1.334000*%
%ADD27R,0.558800X2.184400*%
%ADD28RoundRect,0.102000X-0.565000X-0.565000X0.565000X-0.565000X0.565000X0.565000X-0.565000X0.565000X0*%
%ADD29RoundRect,0.250000X-1.050000X-0.550000X1.050000X-0.550000X1.050000X0.550000X-1.050000X0.550000X0*%
%ADD30RoundRect,0.200000X0.200000X0.275000X-0.200000X0.275000X-0.200000X-0.275000X0.200000X-0.275000X0*%
%ADD31RoundRect,0.225000X0.225000X0.250000X-0.225000X0.250000X-0.225000X-0.250000X0.225000X-0.250000X0*%
%ADD32RoundRect,0.200000X-0.275000X0.200000X-0.275000X-0.200000X0.275000X-0.200000X0.275000X0.200000X0*%
%ADD33R,1.000000X0.800000*%
%ADD34C,0.900000*%
%ADD35R,0.700000X1.500000*%
%ADD36R,2.200000X2.200000*%
%ADD37O,2.200000X2.200000*%
%ADD38RoundRect,0.102000X0.540000X-0.540000X0.540000X0.540000X-0.540000X0.540000X-0.540000X-0.540000X0*%
%ADD39C,1.284000*%
%ADD40R,1.200000X1.400000*%
%ADD41RoundRect,0.225000X-0.250000X0.225000X-0.250000X-0.225000X0.250000X-0.225000X0.250000X0.225000X0*%
%ADD42RoundRect,0.102000X0.565000X0.565000X-0.565000X0.565000X-0.565000X-0.565000X0.565000X-0.565000X0*%
%ADD43R,2.184400X0.558800*%
%ADD44O,0.800000X0.800000*%
%ADD45R,1.300000X0.450000*%
%ADD46O,1.800000X1.150000*%
%ADD47O,2.000000X1.450000*%
%ADD48RoundRect,0.218750X-0.256250X0.218750X-0.256250X-0.218750X0.256250X-0.218750X0.256250X0.218750X0*%
%ADD49RoundRect,0.075000X-0.662500X-0.075000X0.662500X-0.075000X0.662500X0.075000X-0.662500X0.075000X0*%
%ADD50RoundRect,0.075000X-0.075000X-0.662500X0.075000X-0.662500X0.075000X0.662500X-0.075000X0.662500X0*%
G04 APERTURE END LIST*
D10*
X47238095Y-108704819D02*
X47238095Y-107704819D01*
X47809523Y-108704819D02*
X47380952Y-108133390D01*
X47809523Y-107704819D02*
X47238095Y-108276247D01*
X56013095Y-94704819D02*
X56013095Y-93704819D01*
X56584523Y-94704819D02*
X56155952Y-94133390D01*
X56584523Y-93704819D02*
X56013095Y-94276247D01*
X58299819Y-110416666D02*
X57823628Y-110749999D01*
X58299819Y-110988094D02*
X57299819Y-110988094D01*
X57299819Y-110988094D02*
X57299819Y-110607142D01*
X57299819Y-110607142D02*
X57347438Y-110511904D01*
X57347438Y-110511904D02*
X57395057Y-110464285D01*
X57395057Y-110464285D02*
X57490295Y-110416666D01*
X57490295Y-110416666D02*
X57633152Y-110416666D01*
X57633152Y-110416666D02*
X57728390Y-110464285D01*
X57728390Y-110464285D02*
X57776009Y-110511904D01*
X57776009Y-110511904D02*
X57823628Y-110607142D01*
X57823628Y-110607142D02*
X57823628Y-110988094D01*
X58299819Y-109940475D02*
X58299819Y-109749999D01*
X58299819Y-109749999D02*
X58252200Y-109654761D01*
X58252200Y-109654761D02*
X58204580Y-109607142D01*
X58204580Y-109607142D02*
X58061723Y-109511904D01*
X58061723Y-109511904D02*
X57871247Y-109464285D01*
X57871247Y-109464285D02*
X57490295Y-109464285D01*
X57490295Y-109464285D02*
X57395057Y-109511904D01*
X57395057Y-109511904D02*
X57347438Y-109559523D01*
X57347438Y-109559523D02*
X57299819Y-109654761D01*
X57299819Y-109654761D02*
X57299819Y-109845237D01*
X57299819Y-109845237D02*
X57347438Y-109940475D01*
X57347438Y-109940475D02*
X57395057Y-109988094D01*
X57395057Y-109988094D02*
X57490295Y-110035713D01*
X57490295Y-110035713D02*
X57728390Y-110035713D01*
X57728390Y-110035713D02*
X57823628Y-109988094D01*
X57823628Y-109988094D02*
X57871247Y-109940475D01*
X57871247Y-109940475D02*
X57918866Y-109845237D01*
X57918866Y-109845237D02*
X57918866Y-109654761D01*
X57918866Y-109654761D02*
X57871247Y-109559523D01*
X57871247Y-109559523D02*
X57823628Y-109511904D01*
X57823628Y-109511904D02*
X57728390Y-109464285D01*
X62632142Y-137359580D02*
X62584523Y-137407200D01*
X62584523Y-137407200D02*
X62441666Y-137454819D01*
X62441666Y-137454819D02*
X62346428Y-137454819D01*
X62346428Y-137454819D02*
X62203571Y-137407200D01*
X62203571Y-137407200D02*
X62108333Y-137311961D01*
X62108333Y-137311961D02*
X62060714Y-137216723D01*
X62060714Y-137216723D02*
X62013095Y-137026247D01*
X62013095Y-137026247D02*
X62013095Y-136883390D01*
X62013095Y-136883390D02*
X62060714Y-136692914D01*
X62060714Y-136692914D02*
X62108333Y-136597676D01*
X62108333Y-136597676D02*
X62203571Y-136502438D01*
X62203571Y-136502438D02*
X62346428Y-136454819D01*
X62346428Y-136454819D02*
X62441666Y-136454819D01*
X62441666Y-136454819D02*
X62584523Y-136502438D01*
X62584523Y-136502438D02*
X62632142Y-136550057D01*
X63013095Y-136550057D02*
X63060714Y-136502438D01*
X63060714Y-136502438D02*
X63155952Y-136454819D01*
X63155952Y-136454819D02*
X63394047Y-136454819D01*
X63394047Y-136454819D02*
X63489285Y-136502438D01*
X63489285Y-136502438D02*
X63536904Y-136550057D01*
X63536904Y-136550057D02*
X63584523Y-136645295D01*
X63584523Y-136645295D02*
X63584523Y-136740533D01*
X63584523Y-136740533D02*
X63536904Y-136883390D01*
X63536904Y-136883390D02*
X62965476Y-137454819D01*
X62965476Y-137454819D02*
X63584523Y-137454819D01*
X64155952Y-136883390D02*
X64060714Y-136835771D01*
X64060714Y-136835771D02*
X64013095Y-136788152D01*
X64013095Y-136788152D02*
X63965476Y-136692914D01*
X63965476Y-136692914D02*
X63965476Y-136645295D01*
X63965476Y-136645295D02*
X64013095Y-136550057D01*
X64013095Y-136550057D02*
X64060714Y-136502438D01*
X64060714Y-136502438D02*
X64155952Y-136454819D01*
X64155952Y-136454819D02*
X64346428Y-136454819D01*
X64346428Y-136454819D02*
X64441666Y-136502438D01*
X64441666Y-136502438D02*
X64489285Y-136550057D01*
X64489285Y-136550057D02*
X64536904Y-136645295D01*
X64536904Y-136645295D02*
X64536904Y-136692914D01*
X64536904Y-136692914D02*
X64489285Y-136788152D01*
X64489285Y-136788152D02*
X64441666Y-136835771D01*
X64441666Y-136835771D02*
X64346428Y-136883390D01*
X64346428Y-136883390D02*
X64155952Y-136883390D01*
X64155952Y-136883390D02*
X64060714Y-136931009D01*
X64060714Y-136931009D02*
X64013095Y-136978628D01*
X64013095Y-136978628D02*
X63965476Y-137073866D01*
X63965476Y-137073866D02*
X63965476Y-137264342D01*
X63965476Y-137264342D02*
X64013095Y-137359580D01*
X64013095Y-137359580D02*
X64060714Y-137407200D01*
X64060714Y-137407200D02*
X64155952Y-137454819D01*
X64155952Y-137454819D02*
X64346428Y-137454819D01*
X64346428Y-137454819D02*
X64441666Y-137407200D01*
X64441666Y-137407200D02*
X64489285Y-137359580D01*
X64489285Y-137359580D02*
X64536904Y-137264342D01*
X64536904Y-137264342D02*
X64536904Y-137073866D01*
X64536904Y-137073866D02*
X64489285Y-136978628D01*
X64489285Y-136978628D02*
X64441666Y-136931009D01*
X64441666Y-136931009D02*
X64346428Y-136883390D01*
X67607142Y-106454819D02*
X67273809Y-105978628D01*
X67035714Y-106454819D02*
X67035714Y-105454819D01*
X67035714Y-105454819D02*
X67416666Y-105454819D01*
X67416666Y-105454819D02*
X67511904Y-105502438D01*
X67511904Y-105502438D02*
X67559523Y-105550057D01*
X67559523Y-105550057D02*
X67607142Y-105645295D01*
X67607142Y-105645295D02*
X67607142Y-105788152D01*
X67607142Y-105788152D02*
X67559523Y-105883390D01*
X67559523Y-105883390D02*
X67511904Y-105931009D01*
X67511904Y-105931009D02*
X67416666Y-105978628D01*
X67416666Y-105978628D02*
X67035714Y-105978628D01*
X68559523Y-106454819D02*
X67988095Y-106454819D01*
X68273809Y-106454819D02*
X68273809Y-105454819D01*
X68273809Y-105454819D02*
X68178571Y-105597676D01*
X68178571Y-105597676D02*
X68083333Y-105692914D01*
X68083333Y-105692914D02*
X67988095Y-105740533D01*
X69178571Y-105454819D02*
X69273809Y-105454819D01*
X69273809Y-105454819D02*
X69369047Y-105502438D01*
X69369047Y-105502438D02*
X69416666Y-105550057D01*
X69416666Y-105550057D02*
X69464285Y-105645295D01*
X69464285Y-105645295D02*
X69511904Y-105835771D01*
X69511904Y-105835771D02*
X69511904Y-106073866D01*
X69511904Y-106073866D02*
X69464285Y-106264342D01*
X69464285Y-106264342D02*
X69416666Y-106359580D01*
X69416666Y-106359580D02*
X69369047Y-106407200D01*
X69369047Y-106407200D02*
X69273809Y-106454819D01*
X69273809Y-106454819D02*
X69178571Y-106454819D01*
X69178571Y-106454819D02*
X69083333Y-106407200D01*
X69083333Y-106407200D02*
X69035714Y-106359580D01*
X69035714Y-106359580D02*
X68988095Y-106264342D01*
X68988095Y-106264342D02*
X68940476Y-106073866D01*
X68940476Y-106073866D02*
X68940476Y-105835771D01*
X68940476Y-105835771D02*
X68988095Y-105645295D01*
X68988095Y-105645295D02*
X69035714Y-105550057D01*
X69035714Y-105550057D02*
X69083333Y-105502438D01*
X69083333Y-105502438D02*
X69178571Y-105454819D01*
X49382142Y-90109580D02*
X49334523Y-90157200D01*
X49334523Y-90157200D02*
X49191666Y-90204819D01*
X49191666Y-90204819D02*
X49096428Y-90204819D01*
X49096428Y-90204819D02*
X48953571Y-90157200D01*
X48953571Y-90157200D02*
X48858333Y-90061961D01*
X48858333Y-90061961D02*
X48810714Y-89966723D01*
X48810714Y-89966723D02*
X48763095Y-89776247D01*
X48763095Y-89776247D02*
X48763095Y-89633390D01*
X48763095Y-89633390D02*
X48810714Y-89442914D01*
X48810714Y-89442914D02*
X48858333Y-89347676D01*
X48858333Y-89347676D02*
X48953571Y-89252438D01*
X48953571Y-89252438D02*
X49096428Y-89204819D01*
X49096428Y-89204819D02*
X49191666Y-89204819D01*
X49191666Y-89204819D02*
X49334523Y-89252438D01*
X49334523Y-89252438D02*
X49382142Y-89300057D01*
X50334523Y-90204819D02*
X49763095Y-90204819D01*
X50048809Y-90204819D02*
X50048809Y-89204819D01*
X50048809Y-89204819D02*
X49953571Y-89347676D01*
X49953571Y-89347676D02*
X49858333Y-89442914D01*
X49858333Y-89442914D02*
X49763095Y-89490533D01*
X50905952Y-89633390D02*
X50810714Y-89585771D01*
X50810714Y-89585771D02*
X50763095Y-89538152D01*
X50763095Y-89538152D02*
X50715476Y-89442914D01*
X50715476Y-89442914D02*
X50715476Y-89395295D01*
X50715476Y-89395295D02*
X50763095Y-89300057D01*
X50763095Y-89300057D02*
X50810714Y-89252438D01*
X50810714Y-89252438D02*
X50905952Y-89204819D01*
X50905952Y-89204819D02*
X51096428Y-89204819D01*
X51096428Y-89204819D02*
X51191666Y-89252438D01*
X51191666Y-89252438D02*
X51239285Y-89300057D01*
X51239285Y-89300057D02*
X51286904Y-89395295D01*
X51286904Y-89395295D02*
X51286904Y-89442914D01*
X51286904Y-89442914D02*
X51239285Y-89538152D01*
X51239285Y-89538152D02*
X51191666Y-89585771D01*
X51191666Y-89585771D02*
X51096428Y-89633390D01*
X51096428Y-89633390D02*
X50905952Y-89633390D01*
X50905952Y-89633390D02*
X50810714Y-89681009D01*
X50810714Y-89681009D02*
X50763095Y-89728628D01*
X50763095Y-89728628D02*
X50715476Y-89823866D01*
X50715476Y-89823866D02*
X50715476Y-90014342D01*
X50715476Y-90014342D02*
X50763095Y-90109580D01*
X50763095Y-90109580D02*
X50810714Y-90157200D01*
X50810714Y-90157200D02*
X50905952Y-90204819D01*
X50905952Y-90204819D02*
X51096428Y-90204819D01*
X51096428Y-90204819D02*
X51191666Y-90157200D01*
X51191666Y-90157200D02*
X51239285Y-90109580D01*
X51239285Y-90109580D02*
X51286904Y-90014342D01*
X51286904Y-90014342D02*
X51286904Y-89823866D01*
X51286904Y-89823866D02*
X51239285Y-89728628D01*
X51239285Y-89728628D02*
X51191666Y-89681009D01*
X51191666Y-89681009D02*
X51096428Y-89633390D01*
X66109580Y-82166666D02*
X66157200Y-82214285D01*
X66157200Y-82214285D02*
X66204819Y-82357142D01*
X66204819Y-82357142D02*
X66204819Y-82452380D01*
X66204819Y-82452380D02*
X66157200Y-82595237D01*
X66157200Y-82595237D02*
X66061961Y-82690475D01*
X66061961Y-82690475D02*
X65966723Y-82738094D01*
X65966723Y-82738094D02*
X65776247Y-82785713D01*
X65776247Y-82785713D02*
X65633390Y-82785713D01*
X65633390Y-82785713D02*
X65442914Y-82738094D01*
X65442914Y-82738094D02*
X65347676Y-82690475D01*
X65347676Y-82690475D02*
X65252438Y-82595237D01*
X65252438Y-82595237D02*
X65204819Y-82452380D01*
X65204819Y-82452380D02*
X65204819Y-82357142D01*
X65204819Y-82357142D02*
X65252438Y-82214285D01*
X65252438Y-82214285D02*
X65300057Y-82166666D01*
X65204819Y-81309523D02*
X65204819Y-81499999D01*
X65204819Y-81499999D02*
X65252438Y-81595237D01*
X65252438Y-81595237D02*
X65300057Y-81642856D01*
X65300057Y-81642856D02*
X65442914Y-81738094D01*
X65442914Y-81738094D02*
X65633390Y-81785713D01*
X65633390Y-81785713D02*
X66014342Y-81785713D01*
X66014342Y-81785713D02*
X66109580Y-81738094D01*
X66109580Y-81738094D02*
X66157200Y-81690475D01*
X66157200Y-81690475D02*
X66204819Y-81595237D01*
X66204819Y-81595237D02*
X66204819Y-81404761D01*
X66204819Y-81404761D02*
X66157200Y-81309523D01*
X66157200Y-81309523D02*
X66109580Y-81261904D01*
X66109580Y-81261904D02*
X66014342Y-81214285D01*
X66014342Y-81214285D02*
X65776247Y-81214285D01*
X65776247Y-81214285D02*
X65681009Y-81261904D01*
X65681009Y-81261904D02*
X65633390Y-81309523D01*
X65633390Y-81309523D02*
X65585771Y-81404761D01*
X65585771Y-81404761D02*
X65585771Y-81595237D01*
X65585771Y-81595237D02*
X65633390Y-81690475D01*
X65633390Y-81690475D02*
X65681009Y-81738094D01*
X65681009Y-81738094D02*
X65776247Y-81785713D01*
X58238095Y-38954819D02*
X58238095Y-39764342D01*
X58238095Y-39764342D02*
X58285714Y-39859580D01*
X58285714Y-39859580D02*
X58333333Y-39907200D01*
X58333333Y-39907200D02*
X58428571Y-39954819D01*
X58428571Y-39954819D02*
X58619047Y-39954819D01*
X58619047Y-39954819D02*
X58714285Y-39907200D01*
X58714285Y-39907200D02*
X58761904Y-39859580D01*
X58761904Y-39859580D02*
X58809523Y-39764342D01*
X58809523Y-39764342D02*
X58809523Y-38954819D01*
X59761904Y-38954819D02*
X59285714Y-38954819D01*
X59285714Y-38954819D02*
X59238095Y-39431009D01*
X59238095Y-39431009D02*
X59285714Y-39383390D01*
X59285714Y-39383390D02*
X59380952Y-39335771D01*
X59380952Y-39335771D02*
X59619047Y-39335771D01*
X59619047Y-39335771D02*
X59714285Y-39383390D01*
X59714285Y-39383390D02*
X59761904Y-39431009D01*
X59761904Y-39431009D02*
X59809523Y-39526247D01*
X59809523Y-39526247D02*
X59809523Y-39764342D01*
X59809523Y-39764342D02*
X59761904Y-39859580D01*
X59761904Y-39859580D02*
X59714285Y-39907200D01*
X59714285Y-39907200D02*
X59619047Y-39954819D01*
X59619047Y-39954819D02*
X59380952Y-39954819D01*
X59380952Y-39954819D02*
X59285714Y-39907200D01*
X59285714Y-39907200D02*
X59238095Y-39859580D01*
X50659580Y-40392857D02*
X50707200Y-40440476D01*
X50707200Y-40440476D02*
X50754819Y-40583333D01*
X50754819Y-40583333D02*
X50754819Y-40678571D01*
X50754819Y-40678571D02*
X50707200Y-40821428D01*
X50707200Y-40821428D02*
X50611961Y-40916666D01*
X50611961Y-40916666D02*
X50516723Y-40964285D01*
X50516723Y-40964285D02*
X50326247Y-41011904D01*
X50326247Y-41011904D02*
X50183390Y-41011904D01*
X50183390Y-41011904D02*
X49992914Y-40964285D01*
X49992914Y-40964285D02*
X49897676Y-40916666D01*
X49897676Y-40916666D02*
X49802438Y-40821428D01*
X49802438Y-40821428D02*
X49754819Y-40678571D01*
X49754819Y-40678571D02*
X49754819Y-40583333D01*
X49754819Y-40583333D02*
X49802438Y-40440476D01*
X49802438Y-40440476D02*
X49850057Y-40392857D01*
X49850057Y-40011904D02*
X49802438Y-39964285D01*
X49802438Y-39964285D02*
X49754819Y-39869047D01*
X49754819Y-39869047D02*
X49754819Y-39630952D01*
X49754819Y-39630952D02*
X49802438Y-39535714D01*
X49802438Y-39535714D02*
X49850057Y-39488095D01*
X49850057Y-39488095D02*
X49945295Y-39440476D01*
X49945295Y-39440476D02*
X50040533Y-39440476D01*
X50040533Y-39440476D02*
X50183390Y-39488095D01*
X50183390Y-39488095D02*
X50754819Y-40059523D01*
X50754819Y-40059523D02*
X50754819Y-39440476D01*
X49754819Y-39107142D02*
X49754819Y-38488095D01*
X49754819Y-38488095D02*
X50135771Y-38821428D01*
X50135771Y-38821428D02*
X50135771Y-38678571D01*
X50135771Y-38678571D02*
X50183390Y-38583333D01*
X50183390Y-38583333D02*
X50231009Y-38535714D01*
X50231009Y-38535714D02*
X50326247Y-38488095D01*
X50326247Y-38488095D02*
X50564342Y-38488095D01*
X50564342Y-38488095D02*
X50659580Y-38535714D01*
X50659580Y-38535714D02*
X50707200Y-38583333D01*
X50707200Y-38583333D02*
X50754819Y-38678571D01*
X50754819Y-38678571D02*
X50754819Y-38964285D01*
X50754819Y-38964285D02*
X50707200Y-39059523D01*
X50707200Y-39059523D02*
X50659580Y-39107142D01*
X21390419Y-119011903D02*
X21342800Y-118964284D01*
X21342800Y-118964284D02*
X21295180Y-118821427D01*
X21295180Y-118821427D02*
X21295180Y-118726189D01*
X21295180Y-118726189D02*
X21342800Y-118583332D01*
X21342800Y-118583332D02*
X21438038Y-118488094D01*
X21438038Y-118488094D02*
X21533276Y-118440475D01*
X21533276Y-118440475D02*
X21723752Y-118392856D01*
X21723752Y-118392856D02*
X21866609Y-118392856D01*
X21866609Y-118392856D02*
X22057085Y-118440475D01*
X22057085Y-118440475D02*
X22152323Y-118488094D01*
X22152323Y-118488094D02*
X22247561Y-118583332D01*
X22247561Y-118583332D02*
X22295180Y-118726189D01*
X22295180Y-118726189D02*
X22295180Y-118821427D01*
X22295180Y-118821427D02*
X22247561Y-118964284D01*
X22247561Y-118964284D02*
X22199942Y-119011903D01*
X21961847Y-119869046D02*
X21295180Y-119869046D01*
X21961847Y-119440475D02*
X21438038Y-119440475D01*
X21438038Y-119440475D02*
X21342800Y-119488094D01*
X21342800Y-119488094D02*
X21295180Y-119583332D01*
X21295180Y-119583332D02*
X21295180Y-119726189D01*
X21295180Y-119726189D02*
X21342800Y-119821427D01*
X21342800Y-119821427D02*
X21390419Y-119869046D01*
X21295180Y-120345237D02*
X21961847Y-120345237D01*
X21771371Y-120345237D02*
X21866609Y-120392856D01*
X21866609Y-120392856D02*
X21914228Y-120440475D01*
X21914228Y-120440475D02*
X21961847Y-120535713D01*
X21961847Y-120535713D02*
X21961847Y-120630951D01*
X21295180Y-120964285D02*
X21961847Y-120964285D01*
X21771371Y-120964285D02*
X21866609Y-121011904D01*
X21866609Y-121011904D02*
X21914228Y-121059523D01*
X21914228Y-121059523D02*
X21961847Y-121154761D01*
X21961847Y-121154761D02*
X21961847Y-121249999D01*
X21342800Y-121964285D02*
X21295180Y-121869047D01*
X21295180Y-121869047D02*
X21295180Y-121678571D01*
X21295180Y-121678571D02*
X21342800Y-121583333D01*
X21342800Y-121583333D02*
X21438038Y-121535714D01*
X21438038Y-121535714D02*
X21818990Y-121535714D01*
X21818990Y-121535714D02*
X21914228Y-121583333D01*
X21914228Y-121583333D02*
X21961847Y-121678571D01*
X21961847Y-121678571D02*
X21961847Y-121869047D01*
X21961847Y-121869047D02*
X21914228Y-121964285D01*
X21914228Y-121964285D02*
X21818990Y-122011904D01*
X21818990Y-122011904D02*
X21723752Y-122011904D01*
X21723752Y-122011904D02*
X21628514Y-121535714D01*
X21961847Y-122440476D02*
X21295180Y-122440476D01*
X21866609Y-122440476D02*
X21914228Y-122488095D01*
X21914228Y-122488095D02*
X21961847Y-122583333D01*
X21961847Y-122583333D02*
X21961847Y-122726190D01*
X21961847Y-122726190D02*
X21914228Y-122821428D01*
X21914228Y-122821428D02*
X21818990Y-122869047D01*
X21818990Y-122869047D02*
X21295180Y-122869047D01*
X21961847Y-123202381D02*
X21961847Y-123583333D01*
X22295180Y-123345238D02*
X21438038Y-123345238D01*
X21438038Y-123345238D02*
X21342800Y-123392857D01*
X21342800Y-123392857D02*
X21295180Y-123488095D01*
X21295180Y-123488095D02*
X21295180Y-123583333D01*
X21342800Y-124630953D02*
X21295180Y-124773810D01*
X21295180Y-124773810D02*
X21295180Y-125011905D01*
X21295180Y-125011905D02*
X21342800Y-125107143D01*
X21342800Y-125107143D02*
X21390419Y-125154762D01*
X21390419Y-125154762D02*
X21485657Y-125202381D01*
X21485657Y-125202381D02*
X21580895Y-125202381D01*
X21580895Y-125202381D02*
X21676133Y-125154762D01*
X21676133Y-125154762D02*
X21723752Y-125107143D01*
X21723752Y-125107143D02*
X21771371Y-125011905D01*
X21771371Y-125011905D02*
X21818990Y-124821429D01*
X21818990Y-124821429D02*
X21866609Y-124726191D01*
X21866609Y-124726191D02*
X21914228Y-124678572D01*
X21914228Y-124678572D02*
X22009466Y-124630953D01*
X22009466Y-124630953D02*
X22104704Y-124630953D01*
X22104704Y-124630953D02*
X22199942Y-124678572D01*
X22199942Y-124678572D02*
X22247561Y-124726191D01*
X22247561Y-124726191D02*
X22295180Y-124821429D01*
X22295180Y-124821429D02*
X22295180Y-125059524D01*
X22295180Y-125059524D02*
X22247561Y-125202381D01*
X21342800Y-126011905D02*
X21295180Y-125916667D01*
X21295180Y-125916667D02*
X21295180Y-125726191D01*
X21295180Y-125726191D02*
X21342800Y-125630953D01*
X21342800Y-125630953D02*
X21438038Y-125583334D01*
X21438038Y-125583334D02*
X21818990Y-125583334D01*
X21818990Y-125583334D02*
X21914228Y-125630953D01*
X21914228Y-125630953D02*
X21961847Y-125726191D01*
X21961847Y-125726191D02*
X21961847Y-125916667D01*
X21961847Y-125916667D02*
X21914228Y-126011905D01*
X21914228Y-126011905D02*
X21818990Y-126059524D01*
X21818990Y-126059524D02*
X21723752Y-126059524D01*
X21723752Y-126059524D02*
X21628514Y-125583334D01*
X21961847Y-126488096D02*
X21295180Y-126488096D01*
X21866609Y-126488096D02*
X21914228Y-126535715D01*
X21914228Y-126535715D02*
X21961847Y-126630953D01*
X21961847Y-126630953D02*
X21961847Y-126773810D01*
X21961847Y-126773810D02*
X21914228Y-126869048D01*
X21914228Y-126869048D02*
X21818990Y-126916667D01*
X21818990Y-126916667D02*
X21295180Y-126916667D01*
X21342800Y-127345239D02*
X21295180Y-127440477D01*
X21295180Y-127440477D02*
X21295180Y-127630953D01*
X21295180Y-127630953D02*
X21342800Y-127726191D01*
X21342800Y-127726191D02*
X21438038Y-127773810D01*
X21438038Y-127773810D02*
X21485657Y-127773810D01*
X21485657Y-127773810D02*
X21580895Y-127726191D01*
X21580895Y-127726191D02*
X21628514Y-127630953D01*
X21628514Y-127630953D02*
X21628514Y-127488096D01*
X21628514Y-127488096D02*
X21676133Y-127392858D01*
X21676133Y-127392858D02*
X21771371Y-127345239D01*
X21771371Y-127345239D02*
X21818990Y-127345239D01*
X21818990Y-127345239D02*
X21914228Y-127392858D01*
X21914228Y-127392858D02*
X21961847Y-127488096D01*
X21961847Y-127488096D02*
X21961847Y-127630953D01*
X21961847Y-127630953D02*
X21914228Y-127726191D01*
X21295180Y-128345239D02*
X21342800Y-128250001D01*
X21342800Y-128250001D02*
X21390419Y-128202382D01*
X21390419Y-128202382D02*
X21485657Y-128154763D01*
X21485657Y-128154763D02*
X21771371Y-128154763D01*
X21771371Y-128154763D02*
X21866609Y-128202382D01*
X21866609Y-128202382D02*
X21914228Y-128250001D01*
X21914228Y-128250001D02*
X21961847Y-128345239D01*
X21961847Y-128345239D02*
X21961847Y-128488096D01*
X21961847Y-128488096D02*
X21914228Y-128583334D01*
X21914228Y-128583334D02*
X21866609Y-128630953D01*
X21866609Y-128630953D02*
X21771371Y-128678572D01*
X21771371Y-128678572D02*
X21485657Y-128678572D01*
X21485657Y-128678572D02*
X21390419Y-128630953D01*
X21390419Y-128630953D02*
X21342800Y-128583334D01*
X21342800Y-128583334D02*
X21295180Y-128488096D01*
X21295180Y-128488096D02*
X21295180Y-128345239D01*
X21295180Y-129107144D02*
X21961847Y-129107144D01*
X21771371Y-129107144D02*
X21866609Y-129154763D01*
X21866609Y-129154763D02*
X21914228Y-129202382D01*
X21914228Y-129202382D02*
X21961847Y-129297620D01*
X21961847Y-129297620D02*
X21961847Y-129392858D01*
X21342800Y-129678573D02*
X21295180Y-129773811D01*
X21295180Y-129773811D02*
X21295180Y-129964287D01*
X21295180Y-129964287D02*
X21342800Y-130059525D01*
X21342800Y-130059525D02*
X21438038Y-130107144D01*
X21438038Y-130107144D02*
X21485657Y-130107144D01*
X21485657Y-130107144D02*
X21580895Y-130059525D01*
X21580895Y-130059525D02*
X21628514Y-129964287D01*
X21628514Y-129964287D02*
X21628514Y-129821430D01*
X21628514Y-129821430D02*
X21676133Y-129726192D01*
X21676133Y-129726192D02*
X21771371Y-129678573D01*
X21771371Y-129678573D02*
X21818990Y-129678573D01*
X21818990Y-129678573D02*
X21914228Y-129726192D01*
X21914228Y-129726192D02*
X21961847Y-129821430D01*
X21961847Y-129821430D02*
X21961847Y-129964287D01*
X21961847Y-129964287D02*
X21914228Y-130059525D01*
X37738095Y-82204819D02*
X37738095Y-83014342D01*
X37738095Y-83014342D02*
X37785714Y-83109580D01*
X37785714Y-83109580D02*
X37833333Y-83157200D01*
X37833333Y-83157200D02*
X37928571Y-83204819D01*
X37928571Y-83204819D02*
X38119047Y-83204819D01*
X38119047Y-83204819D02*
X38214285Y-83157200D01*
X38214285Y-83157200D02*
X38261904Y-83109580D01*
X38261904Y-83109580D02*
X38309523Y-83014342D01*
X38309523Y-83014342D02*
X38309523Y-82204819D01*
X39214285Y-82538152D02*
X39214285Y-83204819D01*
X38976190Y-82157200D02*
X38738095Y-82871485D01*
X38738095Y-82871485D02*
X39357142Y-82871485D01*
X39738095Y-65704819D02*
X39738095Y-66514342D01*
X39738095Y-66514342D02*
X39785714Y-66609580D01*
X39785714Y-66609580D02*
X39833333Y-66657200D01*
X39833333Y-66657200D02*
X39928571Y-66704819D01*
X39928571Y-66704819D02*
X40119047Y-66704819D01*
X40119047Y-66704819D02*
X40214285Y-66657200D01*
X40214285Y-66657200D02*
X40261904Y-66609580D01*
X40261904Y-66609580D02*
X40309523Y-66514342D01*
X40309523Y-66514342D02*
X40309523Y-65704819D01*
X40738095Y-65800057D02*
X40785714Y-65752438D01*
X40785714Y-65752438D02*
X40880952Y-65704819D01*
X40880952Y-65704819D02*
X41119047Y-65704819D01*
X41119047Y-65704819D02*
X41214285Y-65752438D01*
X41214285Y-65752438D02*
X41261904Y-65800057D01*
X41261904Y-65800057D02*
X41309523Y-65895295D01*
X41309523Y-65895295D02*
X41309523Y-65990533D01*
X41309523Y-65990533D02*
X41261904Y-66133390D01*
X41261904Y-66133390D02*
X40690476Y-66704819D01*
X40690476Y-66704819D02*
X41309523Y-66704819D01*
X63988095Y-123454819D02*
X63988095Y-124264342D01*
X63988095Y-124264342D02*
X64035714Y-124359580D01*
X64035714Y-124359580D02*
X64083333Y-124407200D01*
X64083333Y-124407200D02*
X64178571Y-124454819D01*
X64178571Y-124454819D02*
X64369047Y-124454819D01*
X64369047Y-124454819D02*
X64464285Y-124407200D01*
X64464285Y-124407200D02*
X64511904Y-124359580D01*
X64511904Y-124359580D02*
X64559523Y-124264342D01*
X64559523Y-124264342D02*
X64559523Y-123454819D01*
X65083333Y-124454819D02*
X65273809Y-124454819D01*
X65273809Y-124454819D02*
X65369047Y-124407200D01*
X65369047Y-124407200D02*
X65416666Y-124359580D01*
X65416666Y-124359580D02*
X65511904Y-124216723D01*
X65511904Y-124216723D02*
X65559523Y-124026247D01*
X65559523Y-124026247D02*
X65559523Y-123645295D01*
X65559523Y-123645295D02*
X65511904Y-123550057D01*
X65511904Y-123550057D02*
X65464285Y-123502438D01*
X65464285Y-123502438D02*
X65369047Y-123454819D01*
X65369047Y-123454819D02*
X65178571Y-123454819D01*
X65178571Y-123454819D02*
X65083333Y-123502438D01*
X65083333Y-123502438D02*
X65035714Y-123550057D01*
X65035714Y-123550057D02*
X64988095Y-123645295D01*
X64988095Y-123645295D02*
X64988095Y-123883390D01*
X64988095Y-123883390D02*
X65035714Y-123978628D01*
X65035714Y-123978628D02*
X65083333Y-124026247D01*
X65083333Y-124026247D02*
X65178571Y-124073866D01*
X65178571Y-124073866D02*
X65369047Y-124073866D01*
X65369047Y-124073866D02*
X65464285Y-124026247D01*
X65464285Y-124026247D02*
X65511904Y-123978628D01*
X65511904Y-123978628D02*
X65559523Y-123883390D01*
X62882142Y-46409580D02*
X62834523Y-46457200D01*
X62834523Y-46457200D02*
X62691666Y-46504819D01*
X62691666Y-46504819D02*
X62596428Y-46504819D01*
X62596428Y-46504819D02*
X62453571Y-46457200D01*
X62453571Y-46457200D02*
X62358333Y-46361961D01*
X62358333Y-46361961D02*
X62310714Y-46266723D01*
X62310714Y-46266723D02*
X62263095Y-46076247D01*
X62263095Y-46076247D02*
X62263095Y-45933390D01*
X62263095Y-45933390D02*
X62310714Y-45742914D01*
X62310714Y-45742914D02*
X62358333Y-45647676D01*
X62358333Y-45647676D02*
X62453571Y-45552438D01*
X62453571Y-45552438D02*
X62596428Y-45504819D01*
X62596428Y-45504819D02*
X62691666Y-45504819D01*
X62691666Y-45504819D02*
X62834523Y-45552438D01*
X62834523Y-45552438D02*
X62882142Y-45600057D01*
X63263095Y-45600057D02*
X63310714Y-45552438D01*
X63310714Y-45552438D02*
X63405952Y-45504819D01*
X63405952Y-45504819D02*
X63644047Y-45504819D01*
X63644047Y-45504819D02*
X63739285Y-45552438D01*
X63739285Y-45552438D02*
X63786904Y-45600057D01*
X63786904Y-45600057D02*
X63834523Y-45695295D01*
X63834523Y-45695295D02*
X63834523Y-45790533D01*
X63834523Y-45790533D02*
X63786904Y-45933390D01*
X63786904Y-45933390D02*
X63215476Y-46504819D01*
X63215476Y-46504819D02*
X63834523Y-46504819D01*
X64691666Y-45838152D02*
X64691666Y-46504819D01*
X64453571Y-45457200D02*
X64215476Y-46171485D01*
X64215476Y-46171485D02*
X64834523Y-46171485D01*
X76607142Y-127109580D02*
X76559523Y-127157200D01*
X76559523Y-127157200D02*
X76416666Y-127204819D01*
X76416666Y-127204819D02*
X76321428Y-127204819D01*
X76321428Y-127204819D02*
X76178571Y-127157200D01*
X76178571Y-127157200D02*
X76083333Y-127061961D01*
X76083333Y-127061961D02*
X76035714Y-126966723D01*
X76035714Y-126966723D02*
X75988095Y-126776247D01*
X75988095Y-126776247D02*
X75988095Y-126633390D01*
X75988095Y-126633390D02*
X76035714Y-126442914D01*
X76035714Y-126442914D02*
X76083333Y-126347676D01*
X76083333Y-126347676D02*
X76178571Y-126252438D01*
X76178571Y-126252438D02*
X76321428Y-126204819D01*
X76321428Y-126204819D02*
X76416666Y-126204819D01*
X76416666Y-126204819D02*
X76559523Y-126252438D01*
X76559523Y-126252438D02*
X76607142Y-126300057D01*
X76988095Y-126300057D02*
X77035714Y-126252438D01*
X77035714Y-126252438D02*
X77130952Y-126204819D01*
X77130952Y-126204819D02*
X77369047Y-126204819D01*
X77369047Y-126204819D02*
X77464285Y-126252438D01*
X77464285Y-126252438D02*
X77511904Y-126300057D01*
X77511904Y-126300057D02*
X77559523Y-126395295D01*
X77559523Y-126395295D02*
X77559523Y-126490533D01*
X77559523Y-126490533D02*
X77511904Y-126633390D01*
X77511904Y-126633390D02*
X76940476Y-127204819D01*
X76940476Y-127204819D02*
X77559523Y-127204819D01*
X77940476Y-126300057D02*
X77988095Y-126252438D01*
X77988095Y-126252438D02*
X78083333Y-126204819D01*
X78083333Y-126204819D02*
X78321428Y-126204819D01*
X78321428Y-126204819D02*
X78416666Y-126252438D01*
X78416666Y-126252438D02*
X78464285Y-126300057D01*
X78464285Y-126300057D02*
X78511904Y-126395295D01*
X78511904Y-126395295D02*
X78511904Y-126490533D01*
X78511904Y-126490533D02*
X78464285Y-126633390D01*
X78464285Y-126633390D02*
X77892857Y-127204819D01*
X77892857Y-127204819D02*
X78511904Y-127204819D01*
X57988095Y-118454819D02*
X57988095Y-119264342D01*
X57988095Y-119264342D02*
X58035714Y-119359580D01*
X58035714Y-119359580D02*
X58083333Y-119407200D01*
X58083333Y-119407200D02*
X58178571Y-119454819D01*
X58178571Y-119454819D02*
X58369047Y-119454819D01*
X58369047Y-119454819D02*
X58464285Y-119407200D01*
X58464285Y-119407200D02*
X58511904Y-119359580D01*
X58511904Y-119359580D02*
X58559523Y-119264342D01*
X58559523Y-119264342D02*
X58559523Y-118454819D01*
X59178571Y-118883390D02*
X59083333Y-118835771D01*
X59083333Y-118835771D02*
X59035714Y-118788152D01*
X59035714Y-118788152D02*
X58988095Y-118692914D01*
X58988095Y-118692914D02*
X58988095Y-118645295D01*
X58988095Y-118645295D02*
X59035714Y-118550057D01*
X59035714Y-118550057D02*
X59083333Y-118502438D01*
X59083333Y-118502438D02*
X59178571Y-118454819D01*
X59178571Y-118454819D02*
X59369047Y-118454819D01*
X59369047Y-118454819D02*
X59464285Y-118502438D01*
X59464285Y-118502438D02*
X59511904Y-118550057D01*
X59511904Y-118550057D02*
X59559523Y-118645295D01*
X59559523Y-118645295D02*
X59559523Y-118692914D01*
X59559523Y-118692914D02*
X59511904Y-118788152D01*
X59511904Y-118788152D02*
X59464285Y-118835771D01*
X59464285Y-118835771D02*
X59369047Y-118883390D01*
X59369047Y-118883390D02*
X59178571Y-118883390D01*
X59178571Y-118883390D02*
X59083333Y-118931009D01*
X59083333Y-118931009D02*
X59035714Y-118978628D01*
X59035714Y-118978628D02*
X58988095Y-119073866D01*
X58988095Y-119073866D02*
X58988095Y-119264342D01*
X58988095Y-119264342D02*
X59035714Y-119359580D01*
X59035714Y-119359580D02*
X59083333Y-119407200D01*
X59083333Y-119407200D02*
X59178571Y-119454819D01*
X59178571Y-119454819D02*
X59369047Y-119454819D01*
X59369047Y-119454819D02*
X59464285Y-119407200D01*
X59464285Y-119407200D02*
X59511904Y-119359580D01*
X59511904Y-119359580D02*
X59559523Y-119264342D01*
X59559523Y-119264342D02*
X59559523Y-119073866D01*
X59559523Y-119073866D02*
X59511904Y-118978628D01*
X59511904Y-118978628D02*
X59464285Y-118931009D01*
X59464285Y-118931009D02*
X59369047Y-118883390D01*
X54857142Y-76609580D02*
X54809523Y-76657200D01*
X54809523Y-76657200D02*
X54666666Y-76704819D01*
X54666666Y-76704819D02*
X54571428Y-76704819D01*
X54571428Y-76704819D02*
X54428571Y-76657200D01*
X54428571Y-76657200D02*
X54333333Y-76561961D01*
X54333333Y-76561961D02*
X54285714Y-76466723D01*
X54285714Y-76466723D02*
X54238095Y-76276247D01*
X54238095Y-76276247D02*
X54238095Y-76133390D01*
X54238095Y-76133390D02*
X54285714Y-75942914D01*
X54285714Y-75942914D02*
X54333333Y-75847676D01*
X54333333Y-75847676D02*
X54428571Y-75752438D01*
X54428571Y-75752438D02*
X54571428Y-75704819D01*
X54571428Y-75704819D02*
X54666666Y-75704819D01*
X54666666Y-75704819D02*
X54809523Y-75752438D01*
X54809523Y-75752438D02*
X54857142Y-75800057D01*
X55809523Y-76704819D02*
X55238095Y-76704819D01*
X55523809Y-76704819D02*
X55523809Y-75704819D01*
X55523809Y-75704819D02*
X55428571Y-75847676D01*
X55428571Y-75847676D02*
X55333333Y-75942914D01*
X55333333Y-75942914D02*
X55238095Y-75990533D01*
X56761904Y-76704819D02*
X56190476Y-76704819D01*
X56476190Y-76704819D02*
X56476190Y-75704819D01*
X56476190Y-75704819D02*
X56380952Y-75847676D01*
X56380952Y-75847676D02*
X56285714Y-75942914D01*
X56285714Y-75942914D02*
X56190476Y-75990533D01*
X73954819Y-66142857D02*
X73478628Y-66476190D01*
X73954819Y-66714285D02*
X72954819Y-66714285D01*
X72954819Y-66714285D02*
X72954819Y-66333333D01*
X72954819Y-66333333D02*
X73002438Y-66238095D01*
X73002438Y-66238095D02*
X73050057Y-66190476D01*
X73050057Y-66190476D02*
X73145295Y-66142857D01*
X73145295Y-66142857D02*
X73288152Y-66142857D01*
X73288152Y-66142857D02*
X73383390Y-66190476D01*
X73383390Y-66190476D02*
X73431009Y-66238095D01*
X73431009Y-66238095D02*
X73478628Y-66333333D01*
X73478628Y-66333333D02*
X73478628Y-66714285D01*
X73050057Y-65761904D02*
X73002438Y-65714285D01*
X73002438Y-65714285D02*
X72954819Y-65619047D01*
X72954819Y-65619047D02*
X72954819Y-65380952D01*
X72954819Y-65380952D02*
X73002438Y-65285714D01*
X73002438Y-65285714D02*
X73050057Y-65238095D01*
X73050057Y-65238095D02*
X73145295Y-65190476D01*
X73145295Y-65190476D02*
X73240533Y-65190476D01*
X73240533Y-65190476D02*
X73383390Y-65238095D01*
X73383390Y-65238095D02*
X73954819Y-65809523D01*
X73954819Y-65809523D02*
X73954819Y-65190476D01*
X73954819Y-64238095D02*
X73954819Y-64809523D01*
X73954819Y-64523809D02*
X72954819Y-64523809D01*
X72954819Y-64523809D02*
X73097676Y-64619047D01*
X73097676Y-64619047D02*
X73192914Y-64714285D01*
X73192914Y-64714285D02*
X73240533Y-64809523D01*
X72107142Y-36454819D02*
X71773809Y-35978628D01*
X71535714Y-36454819D02*
X71535714Y-35454819D01*
X71535714Y-35454819D02*
X71916666Y-35454819D01*
X71916666Y-35454819D02*
X72011904Y-35502438D01*
X72011904Y-35502438D02*
X72059523Y-35550057D01*
X72059523Y-35550057D02*
X72107142Y-35645295D01*
X72107142Y-35645295D02*
X72107142Y-35788152D01*
X72107142Y-35788152D02*
X72059523Y-35883390D01*
X72059523Y-35883390D02*
X72011904Y-35931009D01*
X72011904Y-35931009D02*
X71916666Y-35978628D01*
X71916666Y-35978628D02*
X71535714Y-35978628D01*
X72488095Y-35550057D02*
X72535714Y-35502438D01*
X72535714Y-35502438D02*
X72630952Y-35454819D01*
X72630952Y-35454819D02*
X72869047Y-35454819D01*
X72869047Y-35454819D02*
X72964285Y-35502438D01*
X72964285Y-35502438D02*
X73011904Y-35550057D01*
X73011904Y-35550057D02*
X73059523Y-35645295D01*
X73059523Y-35645295D02*
X73059523Y-35740533D01*
X73059523Y-35740533D02*
X73011904Y-35883390D01*
X73011904Y-35883390D02*
X72440476Y-36454819D01*
X72440476Y-36454819D02*
X73059523Y-36454819D01*
X73440476Y-35550057D02*
X73488095Y-35502438D01*
X73488095Y-35502438D02*
X73583333Y-35454819D01*
X73583333Y-35454819D02*
X73821428Y-35454819D01*
X73821428Y-35454819D02*
X73916666Y-35502438D01*
X73916666Y-35502438D02*
X73964285Y-35550057D01*
X73964285Y-35550057D02*
X74011904Y-35645295D01*
X74011904Y-35645295D02*
X74011904Y-35740533D01*
X74011904Y-35740533D02*
X73964285Y-35883390D01*
X73964285Y-35883390D02*
X73392857Y-36454819D01*
X73392857Y-36454819D02*
X74011904Y-36454819D01*
X46857142Y-135359580D02*
X46809523Y-135407200D01*
X46809523Y-135407200D02*
X46666666Y-135454819D01*
X46666666Y-135454819D02*
X46571428Y-135454819D01*
X46571428Y-135454819D02*
X46428571Y-135407200D01*
X46428571Y-135407200D02*
X46333333Y-135311961D01*
X46333333Y-135311961D02*
X46285714Y-135216723D01*
X46285714Y-135216723D02*
X46238095Y-135026247D01*
X46238095Y-135026247D02*
X46238095Y-134883390D01*
X46238095Y-134883390D02*
X46285714Y-134692914D01*
X46285714Y-134692914D02*
X46333333Y-134597676D01*
X46333333Y-134597676D02*
X46428571Y-134502438D01*
X46428571Y-134502438D02*
X46571428Y-134454819D01*
X46571428Y-134454819D02*
X46666666Y-134454819D01*
X46666666Y-134454819D02*
X46809523Y-134502438D01*
X46809523Y-134502438D02*
X46857142Y-134550057D01*
X47238095Y-134550057D02*
X47285714Y-134502438D01*
X47285714Y-134502438D02*
X47380952Y-134454819D01*
X47380952Y-134454819D02*
X47619047Y-134454819D01*
X47619047Y-134454819D02*
X47714285Y-134502438D01*
X47714285Y-134502438D02*
X47761904Y-134550057D01*
X47761904Y-134550057D02*
X47809523Y-134645295D01*
X47809523Y-134645295D02*
X47809523Y-134740533D01*
X47809523Y-134740533D02*
X47761904Y-134883390D01*
X47761904Y-134883390D02*
X47190476Y-135454819D01*
X47190476Y-135454819D02*
X47809523Y-135454819D01*
X48666666Y-134454819D02*
X48476190Y-134454819D01*
X48476190Y-134454819D02*
X48380952Y-134502438D01*
X48380952Y-134502438D02*
X48333333Y-134550057D01*
X48333333Y-134550057D02*
X48238095Y-134692914D01*
X48238095Y-134692914D02*
X48190476Y-134883390D01*
X48190476Y-134883390D02*
X48190476Y-135264342D01*
X48190476Y-135264342D02*
X48238095Y-135359580D01*
X48238095Y-135359580D02*
X48285714Y-135407200D01*
X48285714Y-135407200D02*
X48380952Y-135454819D01*
X48380952Y-135454819D02*
X48571428Y-135454819D01*
X48571428Y-135454819D02*
X48666666Y-135407200D01*
X48666666Y-135407200D02*
X48714285Y-135359580D01*
X48714285Y-135359580D02*
X48761904Y-135264342D01*
X48761904Y-135264342D02*
X48761904Y-135026247D01*
X48761904Y-135026247D02*
X48714285Y-134931009D01*
X48714285Y-134931009D02*
X48666666Y-134883390D01*
X48666666Y-134883390D02*
X48571428Y-134835771D01*
X48571428Y-134835771D02*
X48380952Y-134835771D01*
X48380952Y-134835771D02*
X48285714Y-134883390D01*
X48285714Y-134883390D02*
X48238095Y-134931009D01*
X48238095Y-134931009D02*
X48190476Y-135026247D01*
X72107142Y-46454819D02*
X71773809Y-45978628D01*
X71535714Y-46454819D02*
X71535714Y-45454819D01*
X71535714Y-45454819D02*
X71916666Y-45454819D01*
X71916666Y-45454819D02*
X72011904Y-45502438D01*
X72011904Y-45502438D02*
X72059523Y-45550057D01*
X72059523Y-45550057D02*
X72107142Y-45645295D01*
X72107142Y-45645295D02*
X72107142Y-45788152D01*
X72107142Y-45788152D02*
X72059523Y-45883390D01*
X72059523Y-45883390D02*
X72011904Y-45931009D01*
X72011904Y-45931009D02*
X71916666Y-45978628D01*
X71916666Y-45978628D02*
X71535714Y-45978628D01*
X72488095Y-45550057D02*
X72535714Y-45502438D01*
X72535714Y-45502438D02*
X72630952Y-45454819D01*
X72630952Y-45454819D02*
X72869047Y-45454819D01*
X72869047Y-45454819D02*
X72964285Y-45502438D01*
X72964285Y-45502438D02*
X73011904Y-45550057D01*
X73011904Y-45550057D02*
X73059523Y-45645295D01*
X73059523Y-45645295D02*
X73059523Y-45740533D01*
X73059523Y-45740533D02*
X73011904Y-45883390D01*
X73011904Y-45883390D02*
X72440476Y-46454819D01*
X72440476Y-46454819D02*
X73059523Y-46454819D01*
X73392857Y-45454819D02*
X74011904Y-45454819D01*
X74011904Y-45454819D02*
X73678571Y-45835771D01*
X73678571Y-45835771D02*
X73821428Y-45835771D01*
X73821428Y-45835771D02*
X73916666Y-45883390D01*
X73916666Y-45883390D02*
X73964285Y-45931009D01*
X73964285Y-45931009D02*
X74011904Y-46026247D01*
X74011904Y-46026247D02*
X74011904Y-46264342D01*
X74011904Y-46264342D02*
X73964285Y-46359580D01*
X73964285Y-46359580D02*
X73916666Y-46407200D01*
X73916666Y-46407200D02*
X73821428Y-46454819D01*
X73821428Y-46454819D02*
X73535714Y-46454819D01*
X73535714Y-46454819D02*
X73440476Y-46407200D01*
X73440476Y-46407200D02*
X73392857Y-46359580D01*
X42632142Y-42859580D02*
X42584523Y-42907200D01*
X42584523Y-42907200D02*
X42441666Y-42954819D01*
X42441666Y-42954819D02*
X42346428Y-42954819D01*
X42346428Y-42954819D02*
X42203571Y-42907200D01*
X42203571Y-42907200D02*
X42108333Y-42811961D01*
X42108333Y-42811961D02*
X42060714Y-42716723D01*
X42060714Y-42716723D02*
X42013095Y-42526247D01*
X42013095Y-42526247D02*
X42013095Y-42383390D01*
X42013095Y-42383390D02*
X42060714Y-42192914D01*
X42060714Y-42192914D02*
X42108333Y-42097676D01*
X42108333Y-42097676D02*
X42203571Y-42002438D01*
X42203571Y-42002438D02*
X42346428Y-41954819D01*
X42346428Y-41954819D02*
X42441666Y-41954819D01*
X42441666Y-41954819D02*
X42584523Y-42002438D01*
X42584523Y-42002438D02*
X42632142Y-42050057D01*
X43584523Y-42954819D02*
X43013095Y-42954819D01*
X43298809Y-42954819D02*
X43298809Y-41954819D01*
X43298809Y-41954819D02*
X43203571Y-42097676D01*
X43203571Y-42097676D02*
X43108333Y-42192914D01*
X43108333Y-42192914D02*
X43013095Y-42240533D01*
X44441666Y-42288152D02*
X44441666Y-42954819D01*
X44203571Y-41907200D02*
X43965476Y-42621485D01*
X43965476Y-42621485D02*
X44584523Y-42621485D01*
X75583333Y-84359580D02*
X75535714Y-84407200D01*
X75535714Y-84407200D02*
X75392857Y-84454819D01*
X75392857Y-84454819D02*
X75297619Y-84454819D01*
X75297619Y-84454819D02*
X75154762Y-84407200D01*
X75154762Y-84407200D02*
X75059524Y-84311961D01*
X75059524Y-84311961D02*
X75011905Y-84216723D01*
X75011905Y-84216723D02*
X74964286Y-84026247D01*
X74964286Y-84026247D02*
X74964286Y-83883390D01*
X74964286Y-83883390D02*
X75011905Y-83692914D01*
X75011905Y-83692914D02*
X75059524Y-83597676D01*
X75059524Y-83597676D02*
X75154762Y-83502438D01*
X75154762Y-83502438D02*
X75297619Y-83454819D01*
X75297619Y-83454819D02*
X75392857Y-83454819D01*
X75392857Y-83454819D02*
X75535714Y-83502438D01*
X75535714Y-83502438D02*
X75583333Y-83550057D01*
X75916667Y-83454819D02*
X76535714Y-83454819D01*
X76535714Y-83454819D02*
X76202381Y-83835771D01*
X76202381Y-83835771D02*
X76345238Y-83835771D01*
X76345238Y-83835771D02*
X76440476Y-83883390D01*
X76440476Y-83883390D02*
X76488095Y-83931009D01*
X76488095Y-83931009D02*
X76535714Y-84026247D01*
X76535714Y-84026247D02*
X76535714Y-84264342D01*
X76535714Y-84264342D02*
X76488095Y-84359580D01*
X76488095Y-84359580D02*
X76440476Y-84407200D01*
X76440476Y-84407200D02*
X76345238Y-84454819D01*
X76345238Y-84454819D02*
X76059524Y-84454819D01*
X76059524Y-84454819D02*
X75964286Y-84407200D01*
X75964286Y-84407200D02*
X75916667Y-84359580D01*
X42454819Y-91892857D02*
X41978628Y-92226190D01*
X42454819Y-92464285D02*
X41454819Y-92464285D01*
X41454819Y-92464285D02*
X41454819Y-92083333D01*
X41454819Y-92083333D02*
X41502438Y-91988095D01*
X41502438Y-91988095D02*
X41550057Y-91940476D01*
X41550057Y-91940476D02*
X41645295Y-91892857D01*
X41645295Y-91892857D02*
X41788152Y-91892857D01*
X41788152Y-91892857D02*
X41883390Y-91940476D01*
X41883390Y-91940476D02*
X41931009Y-91988095D01*
X41931009Y-91988095D02*
X41978628Y-92083333D01*
X41978628Y-92083333D02*
X41978628Y-92464285D01*
X42454819Y-90940476D02*
X42454819Y-91511904D01*
X42454819Y-91226190D02*
X41454819Y-91226190D01*
X41454819Y-91226190D02*
X41597676Y-91321428D01*
X41597676Y-91321428D02*
X41692914Y-91416666D01*
X41692914Y-91416666D02*
X41740533Y-91511904D01*
X41454819Y-90035714D02*
X41454819Y-90511904D01*
X41454819Y-90511904D02*
X41931009Y-90559523D01*
X41931009Y-90559523D02*
X41883390Y-90511904D01*
X41883390Y-90511904D02*
X41835771Y-90416666D01*
X41835771Y-90416666D02*
X41835771Y-90178571D01*
X41835771Y-90178571D02*
X41883390Y-90083333D01*
X41883390Y-90083333D02*
X41931009Y-90035714D01*
X41931009Y-90035714D02*
X42026247Y-89988095D01*
X42026247Y-89988095D02*
X42264342Y-89988095D01*
X42264342Y-89988095D02*
X42359580Y-90035714D01*
X42359580Y-90035714D02*
X42407200Y-90083333D01*
X42407200Y-90083333D02*
X42454819Y-90178571D01*
X42454819Y-90178571D02*
X42454819Y-90416666D01*
X42454819Y-90416666D02*
X42407200Y-90511904D01*
X42407200Y-90511904D02*
X42359580Y-90559523D01*
X39416667Y-23657200D02*
X39559524Y-23704819D01*
X39559524Y-23704819D02*
X39797619Y-23704819D01*
X39797619Y-23704819D02*
X39892857Y-23657200D01*
X39892857Y-23657200D02*
X39940476Y-23609580D01*
X39940476Y-23609580D02*
X39988095Y-23514342D01*
X39988095Y-23514342D02*
X39988095Y-23419104D01*
X39988095Y-23419104D02*
X39940476Y-23323866D01*
X39940476Y-23323866D02*
X39892857Y-23276247D01*
X39892857Y-23276247D02*
X39797619Y-23228628D01*
X39797619Y-23228628D02*
X39607143Y-23181009D01*
X39607143Y-23181009D02*
X39511905Y-23133390D01*
X39511905Y-23133390D02*
X39464286Y-23085771D01*
X39464286Y-23085771D02*
X39416667Y-22990533D01*
X39416667Y-22990533D02*
X39416667Y-22895295D01*
X39416667Y-22895295D02*
X39464286Y-22800057D01*
X39464286Y-22800057D02*
X39511905Y-22752438D01*
X39511905Y-22752438D02*
X39607143Y-22704819D01*
X39607143Y-22704819D02*
X39845238Y-22704819D01*
X39845238Y-22704819D02*
X39988095Y-22752438D01*
X40321429Y-22704819D02*
X40559524Y-23704819D01*
X40559524Y-23704819D02*
X40750000Y-22990533D01*
X40750000Y-22990533D02*
X40940476Y-23704819D01*
X40940476Y-23704819D02*
X41178572Y-22704819D01*
X42083333Y-23704819D02*
X41511905Y-23704819D01*
X41797619Y-23704819D02*
X41797619Y-22704819D01*
X41797619Y-22704819D02*
X41702381Y-22847676D01*
X41702381Y-22847676D02*
X41607143Y-22942914D01*
X41607143Y-22942914D02*
X41511905Y-22990533D01*
X35738095Y-113454819D02*
X35738095Y-114264342D01*
X35738095Y-114264342D02*
X35785714Y-114359580D01*
X35785714Y-114359580D02*
X35833333Y-114407200D01*
X35833333Y-114407200D02*
X35928571Y-114454819D01*
X35928571Y-114454819D02*
X36119047Y-114454819D01*
X36119047Y-114454819D02*
X36214285Y-114407200D01*
X36214285Y-114407200D02*
X36261904Y-114359580D01*
X36261904Y-114359580D02*
X36309523Y-114264342D01*
X36309523Y-114264342D02*
X36309523Y-113454819D01*
X36690476Y-113454819D02*
X37357142Y-113454819D01*
X37357142Y-113454819D02*
X36928571Y-114454819D01*
X71607142Y-99609580D02*
X71559523Y-99657200D01*
X71559523Y-99657200D02*
X71416666Y-99704819D01*
X71416666Y-99704819D02*
X71321428Y-99704819D01*
X71321428Y-99704819D02*
X71178571Y-99657200D01*
X71178571Y-99657200D02*
X71083333Y-99561961D01*
X71083333Y-99561961D02*
X71035714Y-99466723D01*
X71035714Y-99466723D02*
X70988095Y-99276247D01*
X70988095Y-99276247D02*
X70988095Y-99133390D01*
X70988095Y-99133390D02*
X71035714Y-98942914D01*
X71035714Y-98942914D02*
X71083333Y-98847676D01*
X71083333Y-98847676D02*
X71178571Y-98752438D01*
X71178571Y-98752438D02*
X71321428Y-98704819D01*
X71321428Y-98704819D02*
X71416666Y-98704819D01*
X71416666Y-98704819D02*
X71559523Y-98752438D01*
X71559523Y-98752438D02*
X71607142Y-98800057D01*
X71940476Y-98704819D02*
X72559523Y-98704819D01*
X72559523Y-98704819D02*
X72226190Y-99085771D01*
X72226190Y-99085771D02*
X72369047Y-99085771D01*
X72369047Y-99085771D02*
X72464285Y-99133390D01*
X72464285Y-99133390D02*
X72511904Y-99181009D01*
X72511904Y-99181009D02*
X72559523Y-99276247D01*
X72559523Y-99276247D02*
X72559523Y-99514342D01*
X72559523Y-99514342D02*
X72511904Y-99609580D01*
X72511904Y-99609580D02*
X72464285Y-99657200D01*
X72464285Y-99657200D02*
X72369047Y-99704819D01*
X72369047Y-99704819D02*
X72083333Y-99704819D01*
X72083333Y-99704819D02*
X71988095Y-99657200D01*
X71988095Y-99657200D02*
X71940476Y-99609580D01*
X73416666Y-99038152D02*
X73416666Y-99704819D01*
X73178571Y-98657200D02*
X72940476Y-99371485D01*
X72940476Y-99371485D02*
X73559523Y-99371485D01*
X67786905Y-92704819D02*
X67786905Y-93514342D01*
X67786905Y-93514342D02*
X67834524Y-93609580D01*
X67834524Y-93609580D02*
X67882143Y-93657200D01*
X67882143Y-93657200D02*
X67977381Y-93704819D01*
X67977381Y-93704819D02*
X68167857Y-93704819D01*
X68167857Y-93704819D02*
X68263095Y-93657200D01*
X68263095Y-93657200D02*
X68310714Y-93609580D01*
X68310714Y-93609580D02*
X68358333Y-93514342D01*
X68358333Y-93514342D02*
X68358333Y-92704819D01*
X69358333Y-93704819D02*
X68786905Y-93704819D01*
X69072619Y-93704819D02*
X69072619Y-92704819D01*
X69072619Y-92704819D02*
X68977381Y-92847676D01*
X68977381Y-92847676D02*
X68882143Y-92942914D01*
X68882143Y-92942914D02*
X68786905Y-92990533D01*
X70215476Y-92704819D02*
X70025000Y-92704819D01*
X70025000Y-92704819D02*
X69929762Y-92752438D01*
X69929762Y-92752438D02*
X69882143Y-92800057D01*
X69882143Y-92800057D02*
X69786905Y-92942914D01*
X69786905Y-92942914D02*
X69739286Y-93133390D01*
X69739286Y-93133390D02*
X69739286Y-93514342D01*
X69739286Y-93514342D02*
X69786905Y-93609580D01*
X69786905Y-93609580D02*
X69834524Y-93657200D01*
X69834524Y-93657200D02*
X69929762Y-93704819D01*
X69929762Y-93704819D02*
X70120238Y-93704819D01*
X70120238Y-93704819D02*
X70215476Y-93657200D01*
X70215476Y-93657200D02*
X70263095Y-93609580D01*
X70263095Y-93609580D02*
X70310714Y-93514342D01*
X70310714Y-93514342D02*
X70310714Y-93276247D01*
X70310714Y-93276247D02*
X70263095Y-93181009D01*
X70263095Y-93181009D02*
X70215476Y-93133390D01*
X70215476Y-93133390D02*
X70120238Y-93085771D01*
X70120238Y-93085771D02*
X69929762Y-93085771D01*
X69929762Y-93085771D02*
X69834524Y-93133390D01*
X69834524Y-93133390D02*
X69786905Y-93181009D01*
X69786905Y-93181009D02*
X69739286Y-93276247D01*
X41013095Y-48954819D02*
X41013095Y-49764342D01*
X41013095Y-49764342D02*
X41060714Y-49859580D01*
X41060714Y-49859580D02*
X41108333Y-49907200D01*
X41108333Y-49907200D02*
X41203571Y-49954819D01*
X41203571Y-49954819D02*
X41394047Y-49954819D01*
X41394047Y-49954819D02*
X41489285Y-49907200D01*
X41489285Y-49907200D02*
X41536904Y-49859580D01*
X41536904Y-49859580D02*
X41584523Y-49764342D01*
X41584523Y-49764342D02*
X41584523Y-48954819D01*
X41965476Y-48954819D02*
X42584523Y-48954819D01*
X42584523Y-48954819D02*
X42251190Y-49335771D01*
X42251190Y-49335771D02*
X42394047Y-49335771D01*
X42394047Y-49335771D02*
X42489285Y-49383390D01*
X42489285Y-49383390D02*
X42536904Y-49431009D01*
X42536904Y-49431009D02*
X42584523Y-49526247D01*
X42584523Y-49526247D02*
X42584523Y-49764342D01*
X42584523Y-49764342D02*
X42536904Y-49859580D01*
X42536904Y-49859580D02*
X42489285Y-49907200D01*
X42489285Y-49907200D02*
X42394047Y-49954819D01*
X42394047Y-49954819D02*
X42108333Y-49954819D01*
X42108333Y-49954819D02*
X42013095Y-49907200D01*
X42013095Y-49907200D02*
X41965476Y-49859580D01*
X57786905Y-34234819D02*
X57786905Y-33234819D01*
X57786905Y-33234819D02*
X58025000Y-33234819D01*
X58025000Y-33234819D02*
X58167857Y-33282438D01*
X58167857Y-33282438D02*
X58263095Y-33377676D01*
X58263095Y-33377676D02*
X58310714Y-33472914D01*
X58310714Y-33472914D02*
X58358333Y-33663390D01*
X58358333Y-33663390D02*
X58358333Y-33806247D01*
X58358333Y-33806247D02*
X58310714Y-33996723D01*
X58310714Y-33996723D02*
X58263095Y-34091961D01*
X58263095Y-34091961D02*
X58167857Y-34187200D01*
X58167857Y-34187200D02*
X58025000Y-34234819D01*
X58025000Y-34234819D02*
X57786905Y-34234819D01*
X59310714Y-34234819D02*
X58739286Y-34234819D01*
X59025000Y-34234819D02*
X59025000Y-33234819D01*
X59025000Y-33234819D02*
X58929762Y-33377676D01*
X58929762Y-33377676D02*
X58834524Y-33472914D01*
X58834524Y-33472914D02*
X58739286Y-33520533D01*
X51238095Y-35704819D02*
X51238095Y-34704819D01*
X51809523Y-35704819D02*
X51380952Y-35133390D01*
X51809523Y-34704819D02*
X51238095Y-35276247D01*
X50011905Y-133454819D02*
X50011905Y-134264342D01*
X50011905Y-134264342D02*
X50059524Y-134359580D01*
X50059524Y-134359580D02*
X50107143Y-134407200D01*
X50107143Y-134407200D02*
X50202381Y-134454819D01*
X50202381Y-134454819D02*
X50392857Y-134454819D01*
X50392857Y-134454819D02*
X50488095Y-134407200D01*
X50488095Y-134407200D02*
X50535714Y-134359580D01*
X50535714Y-134359580D02*
X50583333Y-134264342D01*
X50583333Y-134264342D02*
X50583333Y-133454819D01*
X51583333Y-134454819D02*
X51011905Y-134454819D01*
X51297619Y-134454819D02*
X51297619Y-133454819D01*
X51297619Y-133454819D02*
X51202381Y-133597676D01*
X51202381Y-133597676D02*
X51107143Y-133692914D01*
X51107143Y-133692914D02*
X51011905Y-133740533D01*
X52535714Y-134454819D02*
X51964286Y-134454819D01*
X52250000Y-134454819D02*
X52250000Y-133454819D01*
X52250000Y-133454819D02*
X52154762Y-133597676D01*
X52154762Y-133597676D02*
X52059524Y-133692914D01*
X52059524Y-133692914D02*
X51964286Y-133740533D01*
X73654761Y-43050057D02*
X73559523Y-43002438D01*
X73559523Y-43002438D02*
X73464285Y-42907200D01*
X73464285Y-42907200D02*
X73321428Y-42764342D01*
X73321428Y-42764342D02*
X73226190Y-42716723D01*
X73226190Y-42716723D02*
X73130952Y-42716723D01*
X73178571Y-42954819D02*
X73083333Y-42907200D01*
X73083333Y-42907200D02*
X72988095Y-42811961D01*
X72988095Y-42811961D02*
X72940476Y-42621485D01*
X72940476Y-42621485D02*
X72940476Y-42288152D01*
X72940476Y-42288152D02*
X72988095Y-42097676D01*
X72988095Y-42097676D02*
X73083333Y-42002438D01*
X73083333Y-42002438D02*
X73178571Y-41954819D01*
X73178571Y-41954819D02*
X73369047Y-41954819D01*
X73369047Y-41954819D02*
X73464285Y-42002438D01*
X73464285Y-42002438D02*
X73559523Y-42097676D01*
X73559523Y-42097676D02*
X73607142Y-42288152D01*
X73607142Y-42288152D02*
X73607142Y-42621485D01*
X73607142Y-42621485D02*
X73559523Y-42811961D01*
X73559523Y-42811961D02*
X73464285Y-42907200D01*
X73464285Y-42907200D02*
X73369047Y-42954819D01*
X73369047Y-42954819D02*
X73178571Y-42954819D01*
X74559523Y-42954819D02*
X73988095Y-42954819D01*
X74273809Y-42954819D02*
X74273809Y-41954819D01*
X74273809Y-41954819D02*
X74178571Y-42097676D01*
X74178571Y-42097676D02*
X74083333Y-42192914D01*
X74083333Y-42192914D02*
X73988095Y-42240533D01*
X81286905Y-86984819D02*
X81286905Y-85984819D01*
X81286905Y-85984819D02*
X81525000Y-85984819D01*
X81525000Y-85984819D02*
X81667857Y-86032438D01*
X81667857Y-86032438D02*
X81763095Y-86127676D01*
X81763095Y-86127676D02*
X81810714Y-86222914D01*
X81810714Y-86222914D02*
X81858333Y-86413390D01*
X81858333Y-86413390D02*
X81858333Y-86556247D01*
X81858333Y-86556247D02*
X81810714Y-86746723D01*
X81810714Y-86746723D02*
X81763095Y-86841961D01*
X81763095Y-86841961D02*
X81667857Y-86937200D01*
X81667857Y-86937200D02*
X81525000Y-86984819D01*
X81525000Y-86984819D02*
X81286905Y-86984819D01*
X82763095Y-85984819D02*
X82286905Y-85984819D01*
X82286905Y-85984819D02*
X82239286Y-86461009D01*
X82239286Y-86461009D02*
X82286905Y-86413390D01*
X82286905Y-86413390D02*
X82382143Y-86365771D01*
X82382143Y-86365771D02*
X82620238Y-86365771D01*
X82620238Y-86365771D02*
X82715476Y-86413390D01*
X82715476Y-86413390D02*
X82763095Y-86461009D01*
X82763095Y-86461009D02*
X82810714Y-86556247D01*
X82810714Y-86556247D02*
X82810714Y-86794342D01*
X82810714Y-86794342D02*
X82763095Y-86889580D01*
X82763095Y-86889580D02*
X82715476Y-86937200D01*
X82715476Y-86937200D02*
X82620238Y-86984819D01*
X82620238Y-86984819D02*
X82382143Y-86984819D01*
X82382143Y-86984819D02*
X82286905Y-86937200D01*
X82286905Y-86937200D02*
X82239286Y-86889580D01*
X78488095Y-88454819D02*
X78488095Y-87454819D01*
X79059523Y-88454819D02*
X78630952Y-87883390D01*
X79059523Y-87454819D02*
X78488095Y-88026247D01*
X45833333Y-77454819D02*
X45500000Y-76978628D01*
X45261905Y-77454819D02*
X45261905Y-76454819D01*
X45261905Y-76454819D02*
X45642857Y-76454819D01*
X45642857Y-76454819D02*
X45738095Y-76502438D01*
X45738095Y-76502438D02*
X45785714Y-76550057D01*
X45785714Y-76550057D02*
X45833333Y-76645295D01*
X45833333Y-76645295D02*
X45833333Y-76788152D01*
X45833333Y-76788152D02*
X45785714Y-76883390D01*
X45785714Y-76883390D02*
X45738095Y-76931009D01*
X45738095Y-76931009D02*
X45642857Y-76978628D01*
X45642857Y-76978628D02*
X45261905Y-76978628D01*
X46166667Y-76454819D02*
X46785714Y-76454819D01*
X46785714Y-76454819D02*
X46452381Y-76835771D01*
X46452381Y-76835771D02*
X46595238Y-76835771D01*
X46595238Y-76835771D02*
X46690476Y-76883390D01*
X46690476Y-76883390D02*
X46738095Y-76931009D01*
X46738095Y-76931009D02*
X46785714Y-77026247D01*
X46785714Y-77026247D02*
X46785714Y-77264342D01*
X46785714Y-77264342D02*
X46738095Y-77359580D01*
X46738095Y-77359580D02*
X46690476Y-77407200D01*
X46690476Y-77407200D02*
X46595238Y-77454819D01*
X46595238Y-77454819D02*
X46309524Y-77454819D01*
X46309524Y-77454819D02*
X46214286Y-77407200D01*
X46214286Y-77407200D02*
X46166667Y-77359580D01*
X78107142Y-69704819D02*
X77773809Y-69228628D01*
X77535714Y-69704819D02*
X77535714Y-68704819D01*
X77535714Y-68704819D02*
X77916666Y-68704819D01*
X77916666Y-68704819D02*
X78011904Y-68752438D01*
X78011904Y-68752438D02*
X78059523Y-68800057D01*
X78059523Y-68800057D02*
X78107142Y-68895295D01*
X78107142Y-68895295D02*
X78107142Y-69038152D01*
X78107142Y-69038152D02*
X78059523Y-69133390D01*
X78059523Y-69133390D02*
X78011904Y-69181009D01*
X78011904Y-69181009D02*
X77916666Y-69228628D01*
X77916666Y-69228628D02*
X77535714Y-69228628D01*
X79059523Y-69704819D02*
X78488095Y-69704819D01*
X78773809Y-69704819D02*
X78773809Y-68704819D01*
X78773809Y-68704819D02*
X78678571Y-68847676D01*
X78678571Y-68847676D02*
X78583333Y-68942914D01*
X78583333Y-68942914D02*
X78488095Y-68990533D01*
X79535714Y-69704819D02*
X79726190Y-69704819D01*
X79726190Y-69704819D02*
X79821428Y-69657200D01*
X79821428Y-69657200D02*
X79869047Y-69609580D01*
X79869047Y-69609580D02*
X79964285Y-69466723D01*
X79964285Y-69466723D02*
X80011904Y-69276247D01*
X80011904Y-69276247D02*
X80011904Y-68895295D01*
X80011904Y-68895295D02*
X79964285Y-68800057D01*
X79964285Y-68800057D02*
X79916666Y-68752438D01*
X79916666Y-68752438D02*
X79821428Y-68704819D01*
X79821428Y-68704819D02*
X79630952Y-68704819D01*
X79630952Y-68704819D02*
X79535714Y-68752438D01*
X79535714Y-68752438D02*
X79488095Y-68800057D01*
X79488095Y-68800057D02*
X79440476Y-68895295D01*
X79440476Y-68895295D02*
X79440476Y-69133390D01*
X79440476Y-69133390D02*
X79488095Y-69228628D01*
X79488095Y-69228628D02*
X79535714Y-69276247D01*
X79535714Y-69276247D02*
X79630952Y-69323866D01*
X79630952Y-69323866D02*
X79821428Y-69323866D01*
X79821428Y-69323866D02*
X79916666Y-69276247D01*
X79916666Y-69276247D02*
X79964285Y-69228628D01*
X79964285Y-69228628D02*
X80011904Y-69133390D01*
X42761905Y-128454819D02*
X42761905Y-129264342D01*
X42761905Y-129264342D02*
X42809524Y-129359580D01*
X42809524Y-129359580D02*
X42857143Y-129407200D01*
X42857143Y-129407200D02*
X42952381Y-129454819D01*
X42952381Y-129454819D02*
X43142857Y-129454819D01*
X43142857Y-129454819D02*
X43238095Y-129407200D01*
X43238095Y-129407200D02*
X43285714Y-129359580D01*
X43285714Y-129359580D02*
X43333333Y-129264342D01*
X43333333Y-129264342D02*
X43333333Y-128454819D01*
X44333333Y-129454819D02*
X43761905Y-129454819D01*
X44047619Y-129454819D02*
X44047619Y-128454819D01*
X44047619Y-128454819D02*
X43952381Y-128597676D01*
X43952381Y-128597676D02*
X43857143Y-128692914D01*
X43857143Y-128692914D02*
X43761905Y-128740533D01*
X44952381Y-128454819D02*
X45047619Y-128454819D01*
X45047619Y-128454819D02*
X45142857Y-128502438D01*
X45142857Y-128502438D02*
X45190476Y-128550057D01*
X45190476Y-128550057D02*
X45238095Y-128645295D01*
X45238095Y-128645295D02*
X45285714Y-128835771D01*
X45285714Y-128835771D02*
X45285714Y-129073866D01*
X45285714Y-129073866D02*
X45238095Y-129264342D01*
X45238095Y-129264342D02*
X45190476Y-129359580D01*
X45190476Y-129359580D02*
X45142857Y-129407200D01*
X45142857Y-129407200D02*
X45047619Y-129454819D01*
X45047619Y-129454819D02*
X44952381Y-129454819D01*
X44952381Y-129454819D02*
X44857143Y-129407200D01*
X44857143Y-129407200D02*
X44809524Y-129359580D01*
X44809524Y-129359580D02*
X44761905Y-129264342D01*
X44761905Y-129264342D02*
X44714286Y-129073866D01*
X44714286Y-129073866D02*
X44714286Y-128835771D01*
X44714286Y-128835771D02*
X44761905Y-128645295D01*
X44761905Y-128645295D02*
X44809524Y-128550057D01*
X44809524Y-128550057D02*
X44857143Y-128502438D01*
X44857143Y-128502438D02*
X44952381Y-128454819D01*
X55607142Y-90454819D02*
X55273809Y-89978628D01*
X55035714Y-90454819D02*
X55035714Y-89454819D01*
X55035714Y-89454819D02*
X55416666Y-89454819D01*
X55416666Y-89454819D02*
X55511904Y-89502438D01*
X55511904Y-89502438D02*
X55559523Y-89550057D01*
X55559523Y-89550057D02*
X55607142Y-89645295D01*
X55607142Y-89645295D02*
X55607142Y-89788152D01*
X55607142Y-89788152D02*
X55559523Y-89883390D01*
X55559523Y-89883390D02*
X55511904Y-89931009D01*
X55511904Y-89931009D02*
X55416666Y-89978628D01*
X55416666Y-89978628D02*
X55035714Y-89978628D01*
X56559523Y-90454819D02*
X55988095Y-90454819D01*
X56273809Y-90454819D02*
X56273809Y-89454819D01*
X56273809Y-89454819D02*
X56178571Y-89597676D01*
X56178571Y-89597676D02*
X56083333Y-89692914D01*
X56083333Y-89692914D02*
X55988095Y-89740533D01*
X56892857Y-89454819D02*
X57559523Y-89454819D01*
X57559523Y-89454819D02*
X57130952Y-90454819D01*
X55048809Y-79478628D02*
X55048809Y-79954819D01*
X54715476Y-78954819D02*
X55048809Y-79478628D01*
X55048809Y-79478628D02*
X55382142Y-78954819D01*
X56239285Y-79954819D02*
X55667857Y-79954819D01*
X55953571Y-79954819D02*
X55953571Y-78954819D01*
X55953571Y-78954819D02*
X55858333Y-79097676D01*
X55858333Y-79097676D02*
X55763095Y-79192914D01*
X55763095Y-79192914D02*
X55667857Y-79240533D01*
X54083333Y-57454819D02*
X53750000Y-56978628D01*
X53511905Y-57454819D02*
X53511905Y-56454819D01*
X53511905Y-56454819D02*
X53892857Y-56454819D01*
X53892857Y-56454819D02*
X53988095Y-56502438D01*
X53988095Y-56502438D02*
X54035714Y-56550057D01*
X54035714Y-56550057D02*
X54083333Y-56645295D01*
X54083333Y-56645295D02*
X54083333Y-56788152D01*
X54083333Y-56788152D02*
X54035714Y-56883390D01*
X54035714Y-56883390D02*
X53988095Y-56931009D01*
X53988095Y-56931009D02*
X53892857Y-56978628D01*
X53892857Y-56978628D02*
X53511905Y-56978628D01*
X54940476Y-56454819D02*
X54750000Y-56454819D01*
X54750000Y-56454819D02*
X54654762Y-56502438D01*
X54654762Y-56502438D02*
X54607143Y-56550057D01*
X54607143Y-56550057D02*
X54511905Y-56692914D01*
X54511905Y-56692914D02*
X54464286Y-56883390D01*
X54464286Y-56883390D02*
X54464286Y-57264342D01*
X54464286Y-57264342D02*
X54511905Y-57359580D01*
X54511905Y-57359580D02*
X54559524Y-57407200D01*
X54559524Y-57407200D02*
X54654762Y-57454819D01*
X54654762Y-57454819D02*
X54845238Y-57454819D01*
X54845238Y-57454819D02*
X54940476Y-57407200D01*
X54940476Y-57407200D02*
X54988095Y-57359580D01*
X54988095Y-57359580D02*
X55035714Y-57264342D01*
X55035714Y-57264342D02*
X55035714Y-57026247D01*
X55035714Y-57026247D02*
X54988095Y-56931009D01*
X54988095Y-56931009D02*
X54940476Y-56883390D01*
X54940476Y-56883390D02*
X54845238Y-56835771D01*
X54845238Y-56835771D02*
X54654762Y-56835771D01*
X54654762Y-56835771D02*
X54559524Y-56883390D01*
X54559524Y-56883390D02*
X54511905Y-56931009D01*
X54511905Y-56931009D02*
X54464286Y-57026247D01*
X44773809Y-21454819D02*
X44773809Y-20454819D01*
X44773809Y-20454819D02*
X45154761Y-20454819D01*
X45154761Y-20454819D02*
X45249999Y-20502438D01*
X45249999Y-20502438D02*
X45297618Y-20550057D01*
X45297618Y-20550057D02*
X45345237Y-20645295D01*
X45345237Y-20645295D02*
X45345237Y-20788152D01*
X45345237Y-20788152D02*
X45297618Y-20883390D01*
X45297618Y-20883390D02*
X45249999Y-20931009D01*
X45249999Y-20931009D02*
X45154761Y-20978628D01*
X45154761Y-20978628D02*
X44773809Y-20978628D01*
X45916666Y-21454819D02*
X45821428Y-21407200D01*
X45821428Y-21407200D02*
X45773809Y-21359580D01*
X45773809Y-21359580D02*
X45726190Y-21264342D01*
X45726190Y-21264342D02*
X45726190Y-20978628D01*
X45726190Y-20978628D02*
X45773809Y-20883390D01*
X45773809Y-20883390D02*
X45821428Y-20835771D01*
X45821428Y-20835771D02*
X45916666Y-20788152D01*
X45916666Y-20788152D02*
X46059523Y-20788152D01*
X46059523Y-20788152D02*
X46154761Y-20835771D01*
X46154761Y-20835771D02*
X46202380Y-20883390D01*
X46202380Y-20883390D02*
X46249999Y-20978628D01*
X46249999Y-20978628D02*
X46249999Y-21264342D01*
X46249999Y-21264342D02*
X46202380Y-21359580D01*
X46202380Y-21359580D02*
X46154761Y-21407200D01*
X46154761Y-21407200D02*
X46059523Y-21454819D01*
X46059523Y-21454819D02*
X45916666Y-21454819D01*
X46583333Y-20788152D02*
X46773809Y-21454819D01*
X46773809Y-21454819D02*
X46964285Y-20978628D01*
X46964285Y-20978628D02*
X47154761Y-21454819D01*
X47154761Y-21454819D02*
X47345237Y-20788152D01*
X48107142Y-21407200D02*
X48011904Y-21454819D01*
X48011904Y-21454819D02*
X47821428Y-21454819D01*
X47821428Y-21454819D02*
X47726190Y-21407200D01*
X47726190Y-21407200D02*
X47678571Y-21311961D01*
X47678571Y-21311961D02*
X47678571Y-20931009D01*
X47678571Y-20931009D02*
X47726190Y-20835771D01*
X47726190Y-20835771D02*
X47821428Y-20788152D01*
X47821428Y-20788152D02*
X48011904Y-20788152D01*
X48011904Y-20788152D02*
X48107142Y-20835771D01*
X48107142Y-20835771D02*
X48154761Y-20931009D01*
X48154761Y-20931009D02*
X48154761Y-21026247D01*
X48154761Y-21026247D02*
X47678571Y-21121485D01*
X48583333Y-21454819D02*
X48583333Y-20788152D01*
X48583333Y-20978628D02*
X48630952Y-20883390D01*
X48630952Y-20883390D02*
X48678571Y-20835771D01*
X48678571Y-20835771D02*
X48773809Y-20788152D01*
X48773809Y-20788152D02*
X48869047Y-20788152D01*
X72654761Y-62300057D02*
X72559523Y-62252438D01*
X72559523Y-62252438D02*
X72464285Y-62157200D01*
X72464285Y-62157200D02*
X72321428Y-62014342D01*
X72321428Y-62014342D02*
X72226190Y-61966723D01*
X72226190Y-61966723D02*
X72130952Y-61966723D01*
X72178571Y-62204819D02*
X72083333Y-62157200D01*
X72083333Y-62157200D02*
X71988095Y-62061961D01*
X71988095Y-62061961D02*
X71940476Y-61871485D01*
X71940476Y-61871485D02*
X71940476Y-61538152D01*
X71940476Y-61538152D02*
X71988095Y-61347676D01*
X71988095Y-61347676D02*
X72083333Y-61252438D01*
X72083333Y-61252438D02*
X72178571Y-61204819D01*
X72178571Y-61204819D02*
X72369047Y-61204819D01*
X72369047Y-61204819D02*
X72464285Y-61252438D01*
X72464285Y-61252438D02*
X72559523Y-61347676D01*
X72559523Y-61347676D02*
X72607142Y-61538152D01*
X72607142Y-61538152D02*
X72607142Y-61871485D01*
X72607142Y-61871485D02*
X72559523Y-62061961D01*
X72559523Y-62061961D02*
X72464285Y-62157200D01*
X72464285Y-62157200D02*
X72369047Y-62204819D01*
X72369047Y-62204819D02*
X72178571Y-62204819D01*
X72940476Y-61204819D02*
X73559523Y-61204819D01*
X73559523Y-61204819D02*
X73226190Y-61585771D01*
X73226190Y-61585771D02*
X73369047Y-61585771D01*
X73369047Y-61585771D02*
X73464285Y-61633390D01*
X73464285Y-61633390D02*
X73511904Y-61681009D01*
X73511904Y-61681009D02*
X73559523Y-61776247D01*
X73559523Y-61776247D02*
X73559523Y-62014342D01*
X73559523Y-62014342D02*
X73511904Y-62109580D01*
X73511904Y-62109580D02*
X73464285Y-62157200D01*
X73464285Y-62157200D02*
X73369047Y-62204819D01*
X73369047Y-62204819D02*
X73083333Y-62204819D01*
X73083333Y-62204819D02*
X72988095Y-62157200D01*
X72988095Y-62157200D02*
X72940476Y-62109580D01*
X75607142Y-66704819D02*
X75273809Y-66228628D01*
X75035714Y-66704819D02*
X75035714Y-65704819D01*
X75035714Y-65704819D02*
X75416666Y-65704819D01*
X75416666Y-65704819D02*
X75511904Y-65752438D01*
X75511904Y-65752438D02*
X75559523Y-65800057D01*
X75559523Y-65800057D02*
X75607142Y-65895295D01*
X75607142Y-65895295D02*
X75607142Y-66038152D01*
X75607142Y-66038152D02*
X75559523Y-66133390D01*
X75559523Y-66133390D02*
X75511904Y-66181009D01*
X75511904Y-66181009D02*
X75416666Y-66228628D01*
X75416666Y-66228628D02*
X75035714Y-66228628D01*
X75988095Y-65800057D02*
X76035714Y-65752438D01*
X76035714Y-65752438D02*
X76130952Y-65704819D01*
X76130952Y-65704819D02*
X76369047Y-65704819D01*
X76369047Y-65704819D02*
X76464285Y-65752438D01*
X76464285Y-65752438D02*
X76511904Y-65800057D01*
X76511904Y-65800057D02*
X76559523Y-65895295D01*
X76559523Y-65895295D02*
X76559523Y-65990533D01*
X76559523Y-65990533D02*
X76511904Y-66133390D01*
X76511904Y-66133390D02*
X75940476Y-66704819D01*
X75940476Y-66704819D02*
X76559523Y-66704819D01*
X77178571Y-65704819D02*
X77273809Y-65704819D01*
X77273809Y-65704819D02*
X77369047Y-65752438D01*
X77369047Y-65752438D02*
X77416666Y-65800057D01*
X77416666Y-65800057D02*
X77464285Y-65895295D01*
X77464285Y-65895295D02*
X77511904Y-66085771D01*
X77511904Y-66085771D02*
X77511904Y-66323866D01*
X77511904Y-66323866D02*
X77464285Y-66514342D01*
X77464285Y-66514342D02*
X77416666Y-66609580D01*
X77416666Y-66609580D02*
X77369047Y-66657200D01*
X77369047Y-66657200D02*
X77273809Y-66704819D01*
X77273809Y-66704819D02*
X77178571Y-66704819D01*
X77178571Y-66704819D02*
X77083333Y-66657200D01*
X77083333Y-66657200D02*
X77035714Y-66609580D01*
X77035714Y-66609580D02*
X76988095Y-66514342D01*
X76988095Y-66514342D02*
X76940476Y-66323866D01*
X76940476Y-66323866D02*
X76940476Y-66085771D01*
X76940476Y-66085771D02*
X76988095Y-65895295D01*
X76988095Y-65895295D02*
X77035714Y-65800057D01*
X77035714Y-65800057D02*
X77083333Y-65752438D01*
X77083333Y-65752438D02*
X77178571Y-65704819D01*
X57857142Y-116859580D02*
X57809523Y-116907200D01*
X57809523Y-116907200D02*
X57666666Y-116954819D01*
X57666666Y-116954819D02*
X57571428Y-116954819D01*
X57571428Y-116954819D02*
X57428571Y-116907200D01*
X57428571Y-116907200D02*
X57333333Y-116811961D01*
X57333333Y-116811961D02*
X57285714Y-116716723D01*
X57285714Y-116716723D02*
X57238095Y-116526247D01*
X57238095Y-116526247D02*
X57238095Y-116383390D01*
X57238095Y-116383390D02*
X57285714Y-116192914D01*
X57285714Y-116192914D02*
X57333333Y-116097676D01*
X57333333Y-116097676D02*
X57428571Y-116002438D01*
X57428571Y-116002438D02*
X57571428Y-115954819D01*
X57571428Y-115954819D02*
X57666666Y-115954819D01*
X57666666Y-115954819D02*
X57809523Y-116002438D01*
X57809523Y-116002438D02*
X57857142Y-116050057D01*
X58190476Y-115954819D02*
X58809523Y-115954819D01*
X58809523Y-115954819D02*
X58476190Y-116335771D01*
X58476190Y-116335771D02*
X58619047Y-116335771D01*
X58619047Y-116335771D02*
X58714285Y-116383390D01*
X58714285Y-116383390D02*
X58761904Y-116431009D01*
X58761904Y-116431009D02*
X58809523Y-116526247D01*
X58809523Y-116526247D02*
X58809523Y-116764342D01*
X58809523Y-116764342D02*
X58761904Y-116859580D01*
X58761904Y-116859580D02*
X58714285Y-116907200D01*
X58714285Y-116907200D02*
X58619047Y-116954819D01*
X58619047Y-116954819D02*
X58333333Y-116954819D01*
X58333333Y-116954819D02*
X58238095Y-116907200D01*
X58238095Y-116907200D02*
X58190476Y-116859580D01*
X59190476Y-116050057D02*
X59238095Y-116002438D01*
X59238095Y-116002438D02*
X59333333Y-115954819D01*
X59333333Y-115954819D02*
X59571428Y-115954819D01*
X59571428Y-115954819D02*
X59666666Y-116002438D01*
X59666666Y-116002438D02*
X59714285Y-116050057D01*
X59714285Y-116050057D02*
X59761904Y-116145295D01*
X59761904Y-116145295D02*
X59761904Y-116240533D01*
X59761904Y-116240533D02*
X59714285Y-116383390D01*
X59714285Y-116383390D02*
X59142857Y-116954819D01*
X59142857Y-116954819D02*
X59761904Y-116954819D01*
X88132142Y-99609580D02*
X88084523Y-99657200D01*
X88084523Y-99657200D02*
X87941666Y-99704819D01*
X87941666Y-99704819D02*
X87846428Y-99704819D01*
X87846428Y-99704819D02*
X87703571Y-99657200D01*
X87703571Y-99657200D02*
X87608333Y-99561961D01*
X87608333Y-99561961D02*
X87560714Y-99466723D01*
X87560714Y-99466723D02*
X87513095Y-99276247D01*
X87513095Y-99276247D02*
X87513095Y-99133390D01*
X87513095Y-99133390D02*
X87560714Y-98942914D01*
X87560714Y-98942914D02*
X87608333Y-98847676D01*
X87608333Y-98847676D02*
X87703571Y-98752438D01*
X87703571Y-98752438D02*
X87846428Y-98704819D01*
X87846428Y-98704819D02*
X87941666Y-98704819D01*
X87941666Y-98704819D02*
X88084523Y-98752438D01*
X88084523Y-98752438D02*
X88132142Y-98800057D01*
X88465476Y-98704819D02*
X89084523Y-98704819D01*
X89084523Y-98704819D02*
X88751190Y-99085771D01*
X88751190Y-99085771D02*
X88894047Y-99085771D01*
X88894047Y-99085771D02*
X88989285Y-99133390D01*
X88989285Y-99133390D02*
X89036904Y-99181009D01*
X89036904Y-99181009D02*
X89084523Y-99276247D01*
X89084523Y-99276247D02*
X89084523Y-99514342D01*
X89084523Y-99514342D02*
X89036904Y-99609580D01*
X89036904Y-99609580D02*
X88989285Y-99657200D01*
X88989285Y-99657200D02*
X88894047Y-99704819D01*
X88894047Y-99704819D02*
X88608333Y-99704819D01*
X88608333Y-99704819D02*
X88513095Y-99657200D01*
X88513095Y-99657200D02*
X88465476Y-99609580D01*
X89941666Y-98704819D02*
X89751190Y-98704819D01*
X89751190Y-98704819D02*
X89655952Y-98752438D01*
X89655952Y-98752438D02*
X89608333Y-98800057D01*
X89608333Y-98800057D02*
X89513095Y-98942914D01*
X89513095Y-98942914D02*
X89465476Y-99133390D01*
X89465476Y-99133390D02*
X89465476Y-99514342D01*
X89465476Y-99514342D02*
X89513095Y-99609580D01*
X89513095Y-99609580D02*
X89560714Y-99657200D01*
X89560714Y-99657200D02*
X89655952Y-99704819D01*
X89655952Y-99704819D02*
X89846428Y-99704819D01*
X89846428Y-99704819D02*
X89941666Y-99657200D01*
X89941666Y-99657200D02*
X89989285Y-99609580D01*
X89989285Y-99609580D02*
X90036904Y-99514342D01*
X90036904Y-99514342D02*
X90036904Y-99276247D01*
X90036904Y-99276247D02*
X89989285Y-99181009D01*
X89989285Y-99181009D02*
X89941666Y-99133390D01*
X89941666Y-99133390D02*
X89846428Y-99085771D01*
X89846428Y-99085771D02*
X89655952Y-99085771D01*
X89655952Y-99085771D02*
X89560714Y-99133390D01*
X89560714Y-99133390D02*
X89513095Y-99181009D01*
X89513095Y-99181009D02*
X89465476Y-99276247D01*
X63083333Y-75109580D02*
X63035714Y-75157200D01*
X63035714Y-75157200D02*
X62892857Y-75204819D01*
X62892857Y-75204819D02*
X62797619Y-75204819D01*
X62797619Y-75204819D02*
X62654762Y-75157200D01*
X62654762Y-75157200D02*
X62559524Y-75061961D01*
X62559524Y-75061961D02*
X62511905Y-74966723D01*
X62511905Y-74966723D02*
X62464286Y-74776247D01*
X62464286Y-74776247D02*
X62464286Y-74633390D01*
X62464286Y-74633390D02*
X62511905Y-74442914D01*
X62511905Y-74442914D02*
X62559524Y-74347676D01*
X62559524Y-74347676D02*
X62654762Y-74252438D01*
X62654762Y-74252438D02*
X62797619Y-74204819D01*
X62797619Y-74204819D02*
X62892857Y-74204819D01*
X62892857Y-74204819D02*
X63035714Y-74252438D01*
X63035714Y-74252438D02*
X63083333Y-74300057D01*
X64035714Y-75204819D02*
X63464286Y-75204819D01*
X63750000Y-75204819D02*
X63750000Y-74204819D01*
X63750000Y-74204819D02*
X63654762Y-74347676D01*
X63654762Y-74347676D02*
X63559524Y-74442914D01*
X63559524Y-74442914D02*
X63464286Y-74490533D01*
X71011905Y-138454819D02*
X71011905Y-139264342D01*
X71011905Y-139264342D02*
X71059524Y-139359580D01*
X71059524Y-139359580D02*
X71107143Y-139407200D01*
X71107143Y-139407200D02*
X71202381Y-139454819D01*
X71202381Y-139454819D02*
X71392857Y-139454819D01*
X71392857Y-139454819D02*
X71488095Y-139407200D01*
X71488095Y-139407200D02*
X71535714Y-139359580D01*
X71535714Y-139359580D02*
X71583333Y-139264342D01*
X71583333Y-139264342D02*
X71583333Y-138454819D01*
X72583333Y-139454819D02*
X72011905Y-139454819D01*
X72297619Y-139454819D02*
X72297619Y-138454819D01*
X72297619Y-138454819D02*
X72202381Y-138597676D01*
X72202381Y-138597676D02*
X72107143Y-138692914D01*
X72107143Y-138692914D02*
X72011905Y-138740533D01*
X72964286Y-138550057D02*
X73011905Y-138502438D01*
X73011905Y-138502438D02*
X73107143Y-138454819D01*
X73107143Y-138454819D02*
X73345238Y-138454819D01*
X73345238Y-138454819D02*
X73440476Y-138502438D01*
X73440476Y-138502438D02*
X73488095Y-138550057D01*
X73488095Y-138550057D02*
X73535714Y-138645295D01*
X73535714Y-138645295D02*
X73535714Y-138740533D01*
X73535714Y-138740533D02*
X73488095Y-138883390D01*
X73488095Y-138883390D02*
X72916667Y-139454819D01*
X72916667Y-139454819D02*
X73535714Y-139454819D01*
X76607142Y-142109580D02*
X76559523Y-142157200D01*
X76559523Y-142157200D02*
X76416666Y-142204819D01*
X76416666Y-142204819D02*
X76321428Y-142204819D01*
X76321428Y-142204819D02*
X76178571Y-142157200D01*
X76178571Y-142157200D02*
X76083333Y-142061961D01*
X76083333Y-142061961D02*
X76035714Y-141966723D01*
X76035714Y-141966723D02*
X75988095Y-141776247D01*
X75988095Y-141776247D02*
X75988095Y-141633390D01*
X75988095Y-141633390D02*
X76035714Y-141442914D01*
X76035714Y-141442914D02*
X76083333Y-141347676D01*
X76083333Y-141347676D02*
X76178571Y-141252438D01*
X76178571Y-141252438D02*
X76321428Y-141204819D01*
X76321428Y-141204819D02*
X76416666Y-141204819D01*
X76416666Y-141204819D02*
X76559523Y-141252438D01*
X76559523Y-141252438D02*
X76607142Y-141300057D01*
X76940476Y-141204819D02*
X77559523Y-141204819D01*
X77559523Y-141204819D02*
X77226190Y-141585771D01*
X77226190Y-141585771D02*
X77369047Y-141585771D01*
X77369047Y-141585771D02*
X77464285Y-141633390D01*
X77464285Y-141633390D02*
X77511904Y-141681009D01*
X77511904Y-141681009D02*
X77559523Y-141776247D01*
X77559523Y-141776247D02*
X77559523Y-142014342D01*
X77559523Y-142014342D02*
X77511904Y-142109580D01*
X77511904Y-142109580D02*
X77464285Y-142157200D01*
X77464285Y-142157200D02*
X77369047Y-142204819D01*
X77369047Y-142204819D02*
X77083333Y-142204819D01*
X77083333Y-142204819D02*
X76988095Y-142157200D01*
X76988095Y-142157200D02*
X76940476Y-142109580D01*
X78178571Y-141204819D02*
X78273809Y-141204819D01*
X78273809Y-141204819D02*
X78369047Y-141252438D01*
X78369047Y-141252438D02*
X78416666Y-141300057D01*
X78416666Y-141300057D02*
X78464285Y-141395295D01*
X78464285Y-141395295D02*
X78511904Y-141585771D01*
X78511904Y-141585771D02*
X78511904Y-141823866D01*
X78511904Y-141823866D02*
X78464285Y-142014342D01*
X78464285Y-142014342D02*
X78416666Y-142109580D01*
X78416666Y-142109580D02*
X78369047Y-142157200D01*
X78369047Y-142157200D02*
X78273809Y-142204819D01*
X78273809Y-142204819D02*
X78178571Y-142204819D01*
X78178571Y-142204819D02*
X78083333Y-142157200D01*
X78083333Y-142157200D02*
X78035714Y-142109580D01*
X78035714Y-142109580D02*
X77988095Y-142014342D01*
X77988095Y-142014342D02*
X77940476Y-141823866D01*
X77940476Y-141823866D02*
X77940476Y-141585771D01*
X77940476Y-141585771D02*
X77988095Y-141395295D01*
X77988095Y-141395295D02*
X78035714Y-141300057D01*
X78035714Y-141300057D02*
X78083333Y-141252438D01*
X78083333Y-141252438D02*
X78178571Y-141204819D01*
X33357142Y-125359580D02*
X33309523Y-125407200D01*
X33309523Y-125407200D02*
X33166666Y-125454819D01*
X33166666Y-125454819D02*
X33071428Y-125454819D01*
X33071428Y-125454819D02*
X32928571Y-125407200D01*
X32928571Y-125407200D02*
X32833333Y-125311961D01*
X32833333Y-125311961D02*
X32785714Y-125216723D01*
X32785714Y-125216723D02*
X32738095Y-125026247D01*
X32738095Y-125026247D02*
X32738095Y-124883390D01*
X32738095Y-124883390D02*
X32785714Y-124692914D01*
X32785714Y-124692914D02*
X32833333Y-124597676D01*
X32833333Y-124597676D02*
X32928571Y-124502438D01*
X32928571Y-124502438D02*
X33071428Y-124454819D01*
X33071428Y-124454819D02*
X33166666Y-124454819D01*
X33166666Y-124454819D02*
X33309523Y-124502438D01*
X33309523Y-124502438D02*
X33357142Y-124550057D01*
X34309523Y-125454819D02*
X33738095Y-125454819D01*
X34023809Y-125454819D02*
X34023809Y-124454819D01*
X34023809Y-124454819D02*
X33928571Y-124597676D01*
X33928571Y-124597676D02*
X33833333Y-124692914D01*
X33833333Y-124692914D02*
X33738095Y-124740533D01*
X34785714Y-125454819D02*
X34976190Y-125454819D01*
X34976190Y-125454819D02*
X35071428Y-125407200D01*
X35071428Y-125407200D02*
X35119047Y-125359580D01*
X35119047Y-125359580D02*
X35214285Y-125216723D01*
X35214285Y-125216723D02*
X35261904Y-125026247D01*
X35261904Y-125026247D02*
X35261904Y-124645295D01*
X35261904Y-124645295D02*
X35214285Y-124550057D01*
X35214285Y-124550057D02*
X35166666Y-124502438D01*
X35166666Y-124502438D02*
X35071428Y-124454819D01*
X35071428Y-124454819D02*
X34880952Y-124454819D01*
X34880952Y-124454819D02*
X34785714Y-124502438D01*
X34785714Y-124502438D02*
X34738095Y-124550057D01*
X34738095Y-124550057D02*
X34690476Y-124645295D01*
X34690476Y-124645295D02*
X34690476Y-124883390D01*
X34690476Y-124883390D02*
X34738095Y-124978628D01*
X34738095Y-124978628D02*
X34785714Y-125026247D01*
X34785714Y-125026247D02*
X34880952Y-125073866D01*
X34880952Y-125073866D02*
X35071428Y-125073866D01*
X35071428Y-125073866D02*
X35166666Y-125026247D01*
X35166666Y-125026247D02*
X35214285Y-124978628D01*
X35214285Y-124978628D02*
X35261904Y-124883390D01*
X72107142Y-56454819D02*
X71773809Y-55978628D01*
X71535714Y-56454819D02*
X71535714Y-55454819D01*
X71535714Y-55454819D02*
X71916666Y-55454819D01*
X71916666Y-55454819D02*
X72011904Y-55502438D01*
X72011904Y-55502438D02*
X72059523Y-55550057D01*
X72059523Y-55550057D02*
X72107142Y-55645295D01*
X72107142Y-55645295D02*
X72107142Y-55788152D01*
X72107142Y-55788152D02*
X72059523Y-55883390D01*
X72059523Y-55883390D02*
X72011904Y-55931009D01*
X72011904Y-55931009D02*
X71916666Y-55978628D01*
X71916666Y-55978628D02*
X71535714Y-55978628D01*
X72488095Y-55550057D02*
X72535714Y-55502438D01*
X72535714Y-55502438D02*
X72630952Y-55454819D01*
X72630952Y-55454819D02*
X72869047Y-55454819D01*
X72869047Y-55454819D02*
X72964285Y-55502438D01*
X72964285Y-55502438D02*
X73011904Y-55550057D01*
X73011904Y-55550057D02*
X73059523Y-55645295D01*
X73059523Y-55645295D02*
X73059523Y-55740533D01*
X73059523Y-55740533D02*
X73011904Y-55883390D01*
X73011904Y-55883390D02*
X72440476Y-56454819D01*
X72440476Y-56454819D02*
X73059523Y-56454819D01*
X73916666Y-55788152D02*
X73916666Y-56454819D01*
X73678571Y-55407200D02*
X73440476Y-56121485D01*
X73440476Y-56121485D02*
X74059523Y-56121485D01*
X38382142Y-90859580D02*
X38334523Y-90907200D01*
X38334523Y-90907200D02*
X38191666Y-90954819D01*
X38191666Y-90954819D02*
X38096428Y-90954819D01*
X38096428Y-90954819D02*
X37953571Y-90907200D01*
X37953571Y-90907200D02*
X37858333Y-90811961D01*
X37858333Y-90811961D02*
X37810714Y-90716723D01*
X37810714Y-90716723D02*
X37763095Y-90526247D01*
X37763095Y-90526247D02*
X37763095Y-90383390D01*
X37763095Y-90383390D02*
X37810714Y-90192914D01*
X37810714Y-90192914D02*
X37858333Y-90097676D01*
X37858333Y-90097676D02*
X37953571Y-90002438D01*
X37953571Y-90002438D02*
X38096428Y-89954819D01*
X38096428Y-89954819D02*
X38191666Y-89954819D01*
X38191666Y-89954819D02*
X38334523Y-90002438D01*
X38334523Y-90002438D02*
X38382142Y-90050057D01*
X38715476Y-89954819D02*
X39334523Y-89954819D01*
X39334523Y-89954819D02*
X39001190Y-90335771D01*
X39001190Y-90335771D02*
X39144047Y-90335771D01*
X39144047Y-90335771D02*
X39239285Y-90383390D01*
X39239285Y-90383390D02*
X39286904Y-90431009D01*
X39286904Y-90431009D02*
X39334523Y-90526247D01*
X39334523Y-90526247D02*
X39334523Y-90764342D01*
X39334523Y-90764342D02*
X39286904Y-90859580D01*
X39286904Y-90859580D02*
X39239285Y-90907200D01*
X39239285Y-90907200D02*
X39144047Y-90954819D01*
X39144047Y-90954819D02*
X38858333Y-90954819D01*
X38858333Y-90954819D02*
X38763095Y-90907200D01*
X38763095Y-90907200D02*
X38715476Y-90859580D01*
X39810714Y-90954819D02*
X40001190Y-90954819D01*
X40001190Y-90954819D02*
X40096428Y-90907200D01*
X40096428Y-90907200D02*
X40144047Y-90859580D01*
X40144047Y-90859580D02*
X40239285Y-90716723D01*
X40239285Y-90716723D02*
X40286904Y-90526247D01*
X40286904Y-90526247D02*
X40286904Y-90145295D01*
X40286904Y-90145295D02*
X40239285Y-90050057D01*
X40239285Y-90050057D02*
X40191666Y-90002438D01*
X40191666Y-90002438D02*
X40096428Y-89954819D01*
X40096428Y-89954819D02*
X39905952Y-89954819D01*
X39905952Y-89954819D02*
X39810714Y-90002438D01*
X39810714Y-90002438D02*
X39763095Y-90050057D01*
X39763095Y-90050057D02*
X39715476Y-90145295D01*
X39715476Y-90145295D02*
X39715476Y-90383390D01*
X39715476Y-90383390D02*
X39763095Y-90478628D01*
X39763095Y-90478628D02*
X39810714Y-90526247D01*
X39810714Y-90526247D02*
X39905952Y-90573866D01*
X39905952Y-90573866D02*
X40096428Y-90573866D01*
X40096428Y-90573866D02*
X40191666Y-90526247D01*
X40191666Y-90526247D02*
X40239285Y-90478628D01*
X40239285Y-90478628D02*
X40286904Y-90383390D01*
X58132142Y-104609580D02*
X58084523Y-104657200D01*
X58084523Y-104657200D02*
X57941666Y-104704819D01*
X57941666Y-104704819D02*
X57846428Y-104704819D01*
X57846428Y-104704819D02*
X57703571Y-104657200D01*
X57703571Y-104657200D02*
X57608333Y-104561961D01*
X57608333Y-104561961D02*
X57560714Y-104466723D01*
X57560714Y-104466723D02*
X57513095Y-104276247D01*
X57513095Y-104276247D02*
X57513095Y-104133390D01*
X57513095Y-104133390D02*
X57560714Y-103942914D01*
X57560714Y-103942914D02*
X57608333Y-103847676D01*
X57608333Y-103847676D02*
X57703571Y-103752438D01*
X57703571Y-103752438D02*
X57846428Y-103704819D01*
X57846428Y-103704819D02*
X57941666Y-103704819D01*
X57941666Y-103704819D02*
X58084523Y-103752438D01*
X58084523Y-103752438D02*
X58132142Y-103800057D01*
X58465476Y-103704819D02*
X59084523Y-103704819D01*
X59084523Y-103704819D02*
X58751190Y-104085771D01*
X58751190Y-104085771D02*
X58894047Y-104085771D01*
X58894047Y-104085771D02*
X58989285Y-104133390D01*
X58989285Y-104133390D02*
X59036904Y-104181009D01*
X59036904Y-104181009D02*
X59084523Y-104276247D01*
X59084523Y-104276247D02*
X59084523Y-104514342D01*
X59084523Y-104514342D02*
X59036904Y-104609580D01*
X59036904Y-104609580D02*
X58989285Y-104657200D01*
X58989285Y-104657200D02*
X58894047Y-104704819D01*
X58894047Y-104704819D02*
X58608333Y-104704819D01*
X58608333Y-104704819D02*
X58513095Y-104657200D01*
X58513095Y-104657200D02*
X58465476Y-104609580D01*
X59989285Y-103704819D02*
X59513095Y-103704819D01*
X59513095Y-103704819D02*
X59465476Y-104181009D01*
X59465476Y-104181009D02*
X59513095Y-104133390D01*
X59513095Y-104133390D02*
X59608333Y-104085771D01*
X59608333Y-104085771D02*
X59846428Y-104085771D01*
X59846428Y-104085771D02*
X59941666Y-104133390D01*
X59941666Y-104133390D02*
X59989285Y-104181009D01*
X59989285Y-104181009D02*
X60036904Y-104276247D01*
X60036904Y-104276247D02*
X60036904Y-104514342D01*
X60036904Y-104514342D02*
X59989285Y-104609580D01*
X59989285Y-104609580D02*
X59941666Y-104657200D01*
X59941666Y-104657200D02*
X59846428Y-104704819D01*
X59846428Y-104704819D02*
X59608333Y-104704819D01*
X59608333Y-104704819D02*
X59513095Y-104657200D01*
X59513095Y-104657200D02*
X59465476Y-104609580D01*
X60761905Y-117454819D02*
X60761905Y-118264342D01*
X60761905Y-118264342D02*
X60809524Y-118359580D01*
X60809524Y-118359580D02*
X60857143Y-118407200D01*
X60857143Y-118407200D02*
X60952381Y-118454819D01*
X60952381Y-118454819D02*
X61142857Y-118454819D01*
X61142857Y-118454819D02*
X61238095Y-118407200D01*
X61238095Y-118407200D02*
X61285714Y-118359580D01*
X61285714Y-118359580D02*
X61333333Y-118264342D01*
X61333333Y-118264342D02*
X61333333Y-117454819D01*
X62333333Y-118454819D02*
X61761905Y-118454819D01*
X62047619Y-118454819D02*
X62047619Y-117454819D01*
X62047619Y-117454819D02*
X61952381Y-117597676D01*
X61952381Y-117597676D02*
X61857143Y-117692914D01*
X61857143Y-117692914D02*
X61761905Y-117740533D01*
X63190476Y-117788152D02*
X63190476Y-118454819D01*
X62952381Y-117407200D02*
X62714286Y-118121485D01*
X62714286Y-118121485D02*
X63333333Y-118121485D01*
X78583333Y-72859580D02*
X78535714Y-72907200D01*
X78535714Y-72907200D02*
X78392857Y-72954819D01*
X78392857Y-72954819D02*
X78297619Y-72954819D01*
X78297619Y-72954819D02*
X78154762Y-72907200D01*
X78154762Y-72907200D02*
X78059524Y-72811961D01*
X78059524Y-72811961D02*
X78011905Y-72716723D01*
X78011905Y-72716723D02*
X77964286Y-72526247D01*
X77964286Y-72526247D02*
X77964286Y-72383390D01*
X77964286Y-72383390D02*
X78011905Y-72192914D01*
X78011905Y-72192914D02*
X78059524Y-72097676D01*
X78059524Y-72097676D02*
X78154762Y-72002438D01*
X78154762Y-72002438D02*
X78297619Y-71954819D01*
X78297619Y-71954819D02*
X78392857Y-71954819D01*
X78392857Y-71954819D02*
X78535714Y-72002438D01*
X78535714Y-72002438D02*
X78583333Y-72050057D01*
X79440476Y-72288152D02*
X79440476Y-72954819D01*
X79202381Y-71907200D02*
X78964286Y-72621485D01*
X78964286Y-72621485D02*
X79583333Y-72621485D01*
X42632142Y-47859580D02*
X42584523Y-47907200D01*
X42584523Y-47907200D02*
X42441666Y-47954819D01*
X42441666Y-47954819D02*
X42346428Y-47954819D01*
X42346428Y-47954819D02*
X42203571Y-47907200D01*
X42203571Y-47907200D02*
X42108333Y-47811961D01*
X42108333Y-47811961D02*
X42060714Y-47716723D01*
X42060714Y-47716723D02*
X42013095Y-47526247D01*
X42013095Y-47526247D02*
X42013095Y-47383390D01*
X42013095Y-47383390D02*
X42060714Y-47192914D01*
X42060714Y-47192914D02*
X42108333Y-47097676D01*
X42108333Y-47097676D02*
X42203571Y-47002438D01*
X42203571Y-47002438D02*
X42346428Y-46954819D01*
X42346428Y-46954819D02*
X42441666Y-46954819D01*
X42441666Y-46954819D02*
X42584523Y-47002438D01*
X42584523Y-47002438D02*
X42632142Y-47050057D01*
X43584523Y-47954819D02*
X43013095Y-47954819D01*
X43298809Y-47954819D02*
X43298809Y-46954819D01*
X43298809Y-46954819D02*
X43203571Y-47097676D01*
X43203571Y-47097676D02*
X43108333Y-47192914D01*
X43108333Y-47192914D02*
X43013095Y-47240533D01*
X44441666Y-46954819D02*
X44251190Y-46954819D01*
X44251190Y-46954819D02*
X44155952Y-47002438D01*
X44155952Y-47002438D02*
X44108333Y-47050057D01*
X44108333Y-47050057D02*
X44013095Y-47192914D01*
X44013095Y-47192914D02*
X43965476Y-47383390D01*
X43965476Y-47383390D02*
X43965476Y-47764342D01*
X43965476Y-47764342D02*
X44013095Y-47859580D01*
X44013095Y-47859580D02*
X44060714Y-47907200D01*
X44060714Y-47907200D02*
X44155952Y-47954819D01*
X44155952Y-47954819D02*
X44346428Y-47954819D01*
X44346428Y-47954819D02*
X44441666Y-47907200D01*
X44441666Y-47907200D02*
X44489285Y-47859580D01*
X44489285Y-47859580D02*
X44536904Y-47764342D01*
X44536904Y-47764342D02*
X44536904Y-47526247D01*
X44536904Y-47526247D02*
X44489285Y-47431009D01*
X44489285Y-47431009D02*
X44441666Y-47383390D01*
X44441666Y-47383390D02*
X44346428Y-47335771D01*
X44346428Y-47335771D02*
X44155952Y-47335771D01*
X44155952Y-47335771D02*
X44060714Y-47383390D01*
X44060714Y-47383390D02*
X44013095Y-47431009D01*
X44013095Y-47431009D02*
X43965476Y-47526247D01*
X66333333Y-66954819D02*
X66000000Y-66478628D01*
X65761905Y-66954819D02*
X65761905Y-65954819D01*
X65761905Y-65954819D02*
X66142857Y-65954819D01*
X66142857Y-65954819D02*
X66238095Y-66002438D01*
X66238095Y-66002438D02*
X66285714Y-66050057D01*
X66285714Y-66050057D02*
X66333333Y-66145295D01*
X66333333Y-66145295D02*
X66333333Y-66288152D01*
X66333333Y-66288152D02*
X66285714Y-66383390D01*
X66285714Y-66383390D02*
X66238095Y-66431009D01*
X66238095Y-66431009D02*
X66142857Y-66478628D01*
X66142857Y-66478628D02*
X65761905Y-66478628D01*
X67285714Y-66954819D02*
X66714286Y-66954819D01*
X67000000Y-66954819D02*
X67000000Y-65954819D01*
X67000000Y-65954819D02*
X66904762Y-66097676D01*
X66904762Y-66097676D02*
X66809524Y-66192914D01*
X66809524Y-66192914D02*
X66714286Y-66240533D01*
X48632142Y-117359580D02*
X48584523Y-117407200D01*
X48584523Y-117407200D02*
X48441666Y-117454819D01*
X48441666Y-117454819D02*
X48346428Y-117454819D01*
X48346428Y-117454819D02*
X48203571Y-117407200D01*
X48203571Y-117407200D02*
X48108333Y-117311961D01*
X48108333Y-117311961D02*
X48060714Y-117216723D01*
X48060714Y-117216723D02*
X48013095Y-117026247D01*
X48013095Y-117026247D02*
X48013095Y-116883390D01*
X48013095Y-116883390D02*
X48060714Y-116692914D01*
X48060714Y-116692914D02*
X48108333Y-116597676D01*
X48108333Y-116597676D02*
X48203571Y-116502438D01*
X48203571Y-116502438D02*
X48346428Y-116454819D01*
X48346428Y-116454819D02*
X48441666Y-116454819D01*
X48441666Y-116454819D02*
X48584523Y-116502438D01*
X48584523Y-116502438D02*
X48632142Y-116550057D01*
X49584523Y-117454819D02*
X49013095Y-117454819D01*
X49298809Y-117454819D02*
X49298809Y-116454819D01*
X49298809Y-116454819D02*
X49203571Y-116597676D01*
X49203571Y-116597676D02*
X49108333Y-116692914D01*
X49108333Y-116692914D02*
X49013095Y-116740533D01*
X49917857Y-116454819D02*
X50536904Y-116454819D01*
X50536904Y-116454819D02*
X50203571Y-116835771D01*
X50203571Y-116835771D02*
X50346428Y-116835771D01*
X50346428Y-116835771D02*
X50441666Y-116883390D01*
X50441666Y-116883390D02*
X50489285Y-116931009D01*
X50489285Y-116931009D02*
X50536904Y-117026247D01*
X50536904Y-117026247D02*
X50536904Y-117264342D01*
X50536904Y-117264342D02*
X50489285Y-117359580D01*
X50489285Y-117359580D02*
X50441666Y-117407200D01*
X50441666Y-117407200D02*
X50346428Y-117454819D01*
X50346428Y-117454819D02*
X50060714Y-117454819D01*
X50060714Y-117454819D02*
X49965476Y-117407200D01*
X49965476Y-117407200D02*
X49917857Y-117359580D01*
X83536905Y-122704819D02*
X83536905Y-123514342D01*
X83536905Y-123514342D02*
X83584524Y-123609580D01*
X83584524Y-123609580D02*
X83632143Y-123657200D01*
X83632143Y-123657200D02*
X83727381Y-123704819D01*
X83727381Y-123704819D02*
X83917857Y-123704819D01*
X83917857Y-123704819D02*
X84013095Y-123657200D01*
X84013095Y-123657200D02*
X84060714Y-123609580D01*
X84060714Y-123609580D02*
X84108333Y-123514342D01*
X84108333Y-123514342D02*
X84108333Y-122704819D01*
X85108333Y-123704819D02*
X84536905Y-123704819D01*
X84822619Y-123704819D02*
X84822619Y-122704819D01*
X84822619Y-122704819D02*
X84727381Y-122847676D01*
X84727381Y-122847676D02*
X84632143Y-122942914D01*
X84632143Y-122942914D02*
X84536905Y-122990533D01*
X85441667Y-122704819D02*
X86060714Y-122704819D01*
X86060714Y-122704819D02*
X85727381Y-123085771D01*
X85727381Y-123085771D02*
X85870238Y-123085771D01*
X85870238Y-123085771D02*
X85965476Y-123133390D01*
X85965476Y-123133390D02*
X86013095Y-123181009D01*
X86013095Y-123181009D02*
X86060714Y-123276247D01*
X86060714Y-123276247D02*
X86060714Y-123514342D01*
X86060714Y-123514342D02*
X86013095Y-123609580D01*
X86013095Y-123609580D02*
X85965476Y-123657200D01*
X85965476Y-123657200D02*
X85870238Y-123704819D01*
X85870238Y-123704819D02*
X85584524Y-123704819D01*
X85584524Y-123704819D02*
X85489286Y-123657200D01*
X85489286Y-123657200D02*
X85441667Y-123609580D01*
X80608333Y-81634819D02*
X80275000Y-81158628D01*
X80036905Y-81634819D02*
X80036905Y-80634819D01*
X80036905Y-80634819D02*
X80417857Y-80634819D01*
X80417857Y-80634819D02*
X80513095Y-80682438D01*
X80513095Y-80682438D02*
X80560714Y-80730057D01*
X80560714Y-80730057D02*
X80608333Y-80825295D01*
X80608333Y-80825295D02*
X80608333Y-80968152D01*
X80608333Y-80968152D02*
X80560714Y-81063390D01*
X80560714Y-81063390D02*
X80513095Y-81111009D01*
X80513095Y-81111009D02*
X80417857Y-81158628D01*
X80417857Y-81158628D02*
X80036905Y-81158628D01*
X81513095Y-80634819D02*
X81036905Y-80634819D01*
X81036905Y-80634819D02*
X80989286Y-81111009D01*
X80989286Y-81111009D02*
X81036905Y-81063390D01*
X81036905Y-81063390D02*
X81132143Y-81015771D01*
X81132143Y-81015771D02*
X81370238Y-81015771D01*
X81370238Y-81015771D02*
X81465476Y-81063390D01*
X81465476Y-81063390D02*
X81513095Y-81111009D01*
X81513095Y-81111009D02*
X81560714Y-81206247D01*
X81560714Y-81206247D02*
X81560714Y-81444342D01*
X81560714Y-81444342D02*
X81513095Y-81539580D01*
X81513095Y-81539580D02*
X81465476Y-81587200D01*
X81465476Y-81587200D02*
X81370238Y-81634819D01*
X81370238Y-81634819D02*
X81132143Y-81634819D01*
X81132143Y-81634819D02*
X81036905Y-81587200D01*
X81036905Y-81587200D02*
X80989286Y-81539580D01*
X48632142Y-57039580D02*
X48584523Y-57087200D01*
X48584523Y-57087200D02*
X48441666Y-57134819D01*
X48441666Y-57134819D02*
X48346428Y-57134819D01*
X48346428Y-57134819D02*
X48203571Y-57087200D01*
X48203571Y-57087200D02*
X48108333Y-56991961D01*
X48108333Y-56991961D02*
X48060714Y-56896723D01*
X48060714Y-56896723D02*
X48013095Y-56706247D01*
X48013095Y-56706247D02*
X48013095Y-56563390D01*
X48013095Y-56563390D02*
X48060714Y-56372914D01*
X48060714Y-56372914D02*
X48108333Y-56277676D01*
X48108333Y-56277676D02*
X48203571Y-56182438D01*
X48203571Y-56182438D02*
X48346428Y-56134819D01*
X48346428Y-56134819D02*
X48441666Y-56134819D01*
X48441666Y-56134819D02*
X48584523Y-56182438D01*
X48584523Y-56182438D02*
X48632142Y-56230057D01*
X49584523Y-57134819D02*
X49013095Y-57134819D01*
X49298809Y-57134819D02*
X49298809Y-56134819D01*
X49298809Y-56134819D02*
X49203571Y-56277676D01*
X49203571Y-56277676D02*
X49108333Y-56372914D01*
X49108333Y-56372914D02*
X49013095Y-56420533D01*
X49917857Y-56134819D02*
X50584523Y-56134819D01*
X50584523Y-56134819D02*
X50155952Y-57134819D01*
X48107142Y-130359580D02*
X48059523Y-130407200D01*
X48059523Y-130407200D02*
X47916666Y-130454819D01*
X47916666Y-130454819D02*
X47821428Y-130454819D01*
X47821428Y-130454819D02*
X47678571Y-130407200D01*
X47678571Y-130407200D02*
X47583333Y-130311961D01*
X47583333Y-130311961D02*
X47535714Y-130216723D01*
X47535714Y-130216723D02*
X47488095Y-130026247D01*
X47488095Y-130026247D02*
X47488095Y-129883390D01*
X47488095Y-129883390D02*
X47535714Y-129692914D01*
X47535714Y-129692914D02*
X47583333Y-129597676D01*
X47583333Y-129597676D02*
X47678571Y-129502438D01*
X47678571Y-129502438D02*
X47821428Y-129454819D01*
X47821428Y-129454819D02*
X47916666Y-129454819D01*
X47916666Y-129454819D02*
X48059523Y-129502438D01*
X48059523Y-129502438D02*
X48107142Y-129550057D01*
X48488095Y-129550057D02*
X48535714Y-129502438D01*
X48535714Y-129502438D02*
X48630952Y-129454819D01*
X48630952Y-129454819D02*
X48869047Y-129454819D01*
X48869047Y-129454819D02*
X48964285Y-129502438D01*
X48964285Y-129502438D02*
X49011904Y-129550057D01*
X49011904Y-129550057D02*
X49059523Y-129645295D01*
X49059523Y-129645295D02*
X49059523Y-129740533D01*
X49059523Y-129740533D02*
X49011904Y-129883390D01*
X49011904Y-129883390D02*
X48440476Y-130454819D01*
X48440476Y-130454819D02*
X49059523Y-130454819D01*
X50011904Y-130454819D02*
X49440476Y-130454819D01*
X49726190Y-130454819D02*
X49726190Y-129454819D01*
X49726190Y-129454819D02*
X49630952Y-129597676D01*
X49630952Y-129597676D02*
X49535714Y-129692914D01*
X49535714Y-129692914D02*
X49440476Y-129740533D01*
X35013095Y-93704819D02*
X35013095Y-94514342D01*
X35013095Y-94514342D02*
X35060714Y-94609580D01*
X35060714Y-94609580D02*
X35108333Y-94657200D01*
X35108333Y-94657200D02*
X35203571Y-94704819D01*
X35203571Y-94704819D02*
X35394047Y-94704819D01*
X35394047Y-94704819D02*
X35489285Y-94657200D01*
X35489285Y-94657200D02*
X35536904Y-94609580D01*
X35536904Y-94609580D02*
X35584523Y-94514342D01*
X35584523Y-94514342D02*
X35584523Y-93704819D01*
X36489285Y-93704819D02*
X36298809Y-93704819D01*
X36298809Y-93704819D02*
X36203571Y-93752438D01*
X36203571Y-93752438D02*
X36155952Y-93800057D01*
X36155952Y-93800057D02*
X36060714Y-93942914D01*
X36060714Y-93942914D02*
X36013095Y-94133390D01*
X36013095Y-94133390D02*
X36013095Y-94514342D01*
X36013095Y-94514342D02*
X36060714Y-94609580D01*
X36060714Y-94609580D02*
X36108333Y-94657200D01*
X36108333Y-94657200D02*
X36203571Y-94704819D01*
X36203571Y-94704819D02*
X36394047Y-94704819D01*
X36394047Y-94704819D02*
X36489285Y-94657200D01*
X36489285Y-94657200D02*
X36536904Y-94609580D01*
X36536904Y-94609580D02*
X36584523Y-94514342D01*
X36584523Y-94514342D02*
X36584523Y-94276247D01*
X36584523Y-94276247D02*
X36536904Y-94181009D01*
X36536904Y-94181009D02*
X36489285Y-94133390D01*
X36489285Y-94133390D02*
X36394047Y-94085771D01*
X36394047Y-94085771D02*
X36203571Y-94085771D01*
X36203571Y-94085771D02*
X36108333Y-94133390D01*
X36108333Y-94133390D02*
X36060714Y-94181009D01*
X36060714Y-94181009D02*
X36013095Y-94276247D01*
X59333333Y-54954819D02*
X59000000Y-54478628D01*
X58761905Y-54954819D02*
X58761905Y-53954819D01*
X58761905Y-53954819D02*
X59142857Y-53954819D01*
X59142857Y-53954819D02*
X59238095Y-54002438D01*
X59238095Y-54002438D02*
X59285714Y-54050057D01*
X59285714Y-54050057D02*
X59333333Y-54145295D01*
X59333333Y-54145295D02*
X59333333Y-54288152D01*
X59333333Y-54288152D02*
X59285714Y-54383390D01*
X59285714Y-54383390D02*
X59238095Y-54431009D01*
X59238095Y-54431009D02*
X59142857Y-54478628D01*
X59142857Y-54478628D02*
X58761905Y-54478628D01*
X59666667Y-53954819D02*
X60333333Y-53954819D01*
X60333333Y-53954819D02*
X59904762Y-54954819D01*
X44286905Y-57984819D02*
X44286905Y-56984819D01*
X44286905Y-56984819D02*
X44525000Y-56984819D01*
X44525000Y-56984819D02*
X44667857Y-57032438D01*
X44667857Y-57032438D02*
X44763095Y-57127676D01*
X44763095Y-57127676D02*
X44810714Y-57222914D01*
X44810714Y-57222914D02*
X44858333Y-57413390D01*
X44858333Y-57413390D02*
X44858333Y-57556247D01*
X44858333Y-57556247D02*
X44810714Y-57746723D01*
X44810714Y-57746723D02*
X44763095Y-57841961D01*
X44763095Y-57841961D02*
X44667857Y-57937200D01*
X44667857Y-57937200D02*
X44525000Y-57984819D01*
X44525000Y-57984819D02*
X44286905Y-57984819D01*
X45191667Y-56984819D02*
X45810714Y-56984819D01*
X45810714Y-56984819D02*
X45477381Y-57365771D01*
X45477381Y-57365771D02*
X45620238Y-57365771D01*
X45620238Y-57365771D02*
X45715476Y-57413390D01*
X45715476Y-57413390D02*
X45763095Y-57461009D01*
X45763095Y-57461009D02*
X45810714Y-57556247D01*
X45810714Y-57556247D02*
X45810714Y-57794342D01*
X45810714Y-57794342D02*
X45763095Y-57889580D01*
X45763095Y-57889580D02*
X45715476Y-57937200D01*
X45715476Y-57937200D02*
X45620238Y-57984819D01*
X45620238Y-57984819D02*
X45334524Y-57984819D01*
X45334524Y-57984819D02*
X45239286Y-57937200D01*
X45239286Y-57937200D02*
X45191667Y-57889580D01*
X37738095Y-59454819D02*
X37738095Y-58454819D01*
X38309523Y-59454819D02*
X37880952Y-58883390D01*
X38309523Y-58454819D02*
X37738095Y-59026247D01*
X36357142Y-78359580D02*
X36309523Y-78407200D01*
X36309523Y-78407200D02*
X36166666Y-78454819D01*
X36166666Y-78454819D02*
X36071428Y-78454819D01*
X36071428Y-78454819D02*
X35928571Y-78407200D01*
X35928571Y-78407200D02*
X35833333Y-78311961D01*
X35833333Y-78311961D02*
X35785714Y-78216723D01*
X35785714Y-78216723D02*
X35738095Y-78026247D01*
X35738095Y-78026247D02*
X35738095Y-77883390D01*
X35738095Y-77883390D02*
X35785714Y-77692914D01*
X35785714Y-77692914D02*
X35833333Y-77597676D01*
X35833333Y-77597676D02*
X35928571Y-77502438D01*
X35928571Y-77502438D02*
X36071428Y-77454819D01*
X36071428Y-77454819D02*
X36166666Y-77454819D01*
X36166666Y-77454819D02*
X36309523Y-77502438D01*
X36309523Y-77502438D02*
X36357142Y-77550057D01*
X37309523Y-78454819D02*
X36738095Y-78454819D01*
X37023809Y-78454819D02*
X37023809Y-77454819D01*
X37023809Y-77454819D02*
X36928571Y-77597676D01*
X36928571Y-77597676D02*
X36833333Y-77692914D01*
X36833333Y-77692914D02*
X36738095Y-77740533D01*
X37690476Y-77550057D02*
X37738095Y-77502438D01*
X37738095Y-77502438D02*
X37833333Y-77454819D01*
X37833333Y-77454819D02*
X38071428Y-77454819D01*
X38071428Y-77454819D02*
X38166666Y-77502438D01*
X38166666Y-77502438D02*
X38214285Y-77550057D01*
X38214285Y-77550057D02*
X38261904Y-77645295D01*
X38261904Y-77645295D02*
X38261904Y-77740533D01*
X38261904Y-77740533D02*
X38214285Y-77883390D01*
X38214285Y-77883390D02*
X37642857Y-78454819D01*
X37642857Y-78454819D02*
X38261904Y-78454819D01*
X84286905Y-108954819D02*
X84286905Y-109764342D01*
X84286905Y-109764342D02*
X84334524Y-109859580D01*
X84334524Y-109859580D02*
X84382143Y-109907200D01*
X84382143Y-109907200D02*
X84477381Y-109954819D01*
X84477381Y-109954819D02*
X84667857Y-109954819D01*
X84667857Y-109954819D02*
X84763095Y-109907200D01*
X84763095Y-109907200D02*
X84810714Y-109859580D01*
X84810714Y-109859580D02*
X84858333Y-109764342D01*
X84858333Y-109764342D02*
X84858333Y-108954819D01*
X85858333Y-109954819D02*
X85286905Y-109954819D01*
X85572619Y-109954819D02*
X85572619Y-108954819D01*
X85572619Y-108954819D02*
X85477381Y-109097676D01*
X85477381Y-109097676D02*
X85382143Y-109192914D01*
X85382143Y-109192914D02*
X85286905Y-109240533D01*
X86763095Y-108954819D02*
X86286905Y-108954819D01*
X86286905Y-108954819D02*
X86239286Y-109431009D01*
X86239286Y-109431009D02*
X86286905Y-109383390D01*
X86286905Y-109383390D02*
X86382143Y-109335771D01*
X86382143Y-109335771D02*
X86620238Y-109335771D01*
X86620238Y-109335771D02*
X86715476Y-109383390D01*
X86715476Y-109383390D02*
X86763095Y-109431009D01*
X86763095Y-109431009D02*
X86810714Y-109526247D01*
X86810714Y-109526247D02*
X86810714Y-109764342D01*
X86810714Y-109764342D02*
X86763095Y-109859580D01*
X86763095Y-109859580D02*
X86715476Y-109907200D01*
X86715476Y-109907200D02*
X86620238Y-109954819D01*
X86620238Y-109954819D02*
X86382143Y-109954819D01*
X86382143Y-109954819D02*
X86286905Y-109907200D01*
X86286905Y-109907200D02*
X86239286Y-109859580D01*
X85699819Y-78083333D02*
X86414104Y-78083333D01*
X86414104Y-78083333D02*
X86556961Y-78130952D01*
X86556961Y-78130952D02*
X86652200Y-78226190D01*
X86652200Y-78226190D02*
X86699819Y-78369047D01*
X86699819Y-78369047D02*
X86699819Y-78464285D01*
X86699819Y-77083333D02*
X86699819Y-77654761D01*
X86699819Y-77369047D02*
X85699819Y-77369047D01*
X85699819Y-77369047D02*
X85842676Y-77464285D01*
X85842676Y-77464285D02*
X85937914Y-77559523D01*
X85937914Y-77559523D02*
X85985533Y-77654761D01*
X68181009Y-86583333D02*
X68181009Y-86916666D01*
X68704819Y-86916666D02*
X67704819Y-86916666D01*
X67704819Y-86916666D02*
X67704819Y-86440476D01*
X68181009Y-85726190D02*
X68228628Y-85583333D01*
X68228628Y-85583333D02*
X68276247Y-85535714D01*
X68276247Y-85535714D02*
X68371485Y-85488095D01*
X68371485Y-85488095D02*
X68514342Y-85488095D01*
X68514342Y-85488095D02*
X68609580Y-85535714D01*
X68609580Y-85535714D02*
X68657200Y-85583333D01*
X68657200Y-85583333D02*
X68704819Y-85678571D01*
X68704819Y-85678571D02*
X68704819Y-86059523D01*
X68704819Y-86059523D02*
X67704819Y-86059523D01*
X67704819Y-86059523D02*
X67704819Y-85726190D01*
X67704819Y-85726190D02*
X67752438Y-85630952D01*
X67752438Y-85630952D02*
X67800057Y-85583333D01*
X67800057Y-85583333D02*
X67895295Y-85535714D01*
X67895295Y-85535714D02*
X67990533Y-85535714D01*
X67990533Y-85535714D02*
X68085771Y-85583333D01*
X68085771Y-85583333D02*
X68133390Y-85630952D01*
X68133390Y-85630952D02*
X68181009Y-85726190D01*
X68181009Y-85726190D02*
X68181009Y-86059523D01*
X68704819Y-84535714D02*
X68704819Y-85107142D01*
X68704819Y-84821428D02*
X67704819Y-84821428D01*
X67704819Y-84821428D02*
X67847676Y-84916666D01*
X67847676Y-84916666D02*
X67942914Y-85011904D01*
X67942914Y-85011904D02*
X67990533Y-85107142D01*
X48454819Y-94642857D02*
X47978628Y-94976190D01*
X48454819Y-95214285D02*
X47454819Y-95214285D01*
X47454819Y-95214285D02*
X47454819Y-94833333D01*
X47454819Y-94833333D02*
X47502438Y-94738095D01*
X47502438Y-94738095D02*
X47550057Y-94690476D01*
X47550057Y-94690476D02*
X47645295Y-94642857D01*
X47645295Y-94642857D02*
X47788152Y-94642857D01*
X47788152Y-94642857D02*
X47883390Y-94690476D01*
X47883390Y-94690476D02*
X47931009Y-94738095D01*
X47931009Y-94738095D02*
X47978628Y-94833333D01*
X47978628Y-94833333D02*
X47978628Y-95214285D01*
X48454819Y-93690476D02*
X48454819Y-94261904D01*
X48454819Y-93976190D02*
X47454819Y-93976190D01*
X47454819Y-93976190D02*
X47597676Y-94071428D01*
X47597676Y-94071428D02*
X47692914Y-94166666D01*
X47692914Y-94166666D02*
X47740533Y-94261904D01*
X47454819Y-92833333D02*
X47454819Y-93023809D01*
X47454819Y-93023809D02*
X47502438Y-93119047D01*
X47502438Y-93119047D02*
X47550057Y-93166666D01*
X47550057Y-93166666D02*
X47692914Y-93261904D01*
X47692914Y-93261904D02*
X47883390Y-93309523D01*
X47883390Y-93309523D02*
X48264342Y-93309523D01*
X48264342Y-93309523D02*
X48359580Y-93261904D01*
X48359580Y-93261904D02*
X48407200Y-93214285D01*
X48407200Y-93214285D02*
X48454819Y-93119047D01*
X48454819Y-93119047D02*
X48454819Y-92928571D01*
X48454819Y-92928571D02*
X48407200Y-92833333D01*
X48407200Y-92833333D02*
X48359580Y-92785714D01*
X48359580Y-92785714D02*
X48264342Y-92738095D01*
X48264342Y-92738095D02*
X48026247Y-92738095D01*
X48026247Y-92738095D02*
X47931009Y-92785714D01*
X47931009Y-92785714D02*
X47883390Y-92833333D01*
X47883390Y-92833333D02*
X47835771Y-92928571D01*
X47835771Y-92928571D02*
X47835771Y-93119047D01*
X47835771Y-93119047D02*
X47883390Y-93214285D01*
X47883390Y-93214285D02*
X47931009Y-93261904D01*
X47931009Y-93261904D02*
X48026247Y-93309523D01*
X69357142Y-90524819D02*
X69023809Y-90048628D01*
X68785714Y-90524819D02*
X68785714Y-89524819D01*
X68785714Y-89524819D02*
X69166666Y-89524819D01*
X69166666Y-89524819D02*
X69261904Y-89572438D01*
X69261904Y-89572438D02*
X69309523Y-89620057D01*
X69309523Y-89620057D02*
X69357142Y-89715295D01*
X69357142Y-89715295D02*
X69357142Y-89858152D01*
X69357142Y-89858152D02*
X69309523Y-89953390D01*
X69309523Y-89953390D02*
X69261904Y-90001009D01*
X69261904Y-90001009D02*
X69166666Y-90048628D01*
X69166666Y-90048628D02*
X68785714Y-90048628D01*
X70309523Y-90524819D02*
X69738095Y-90524819D01*
X70023809Y-90524819D02*
X70023809Y-89524819D01*
X70023809Y-89524819D02*
X69928571Y-89667676D01*
X69928571Y-89667676D02*
X69833333Y-89762914D01*
X69833333Y-89762914D02*
X69738095Y-89810533D01*
X71166666Y-89858152D02*
X71166666Y-90524819D01*
X70928571Y-89477200D02*
X70690476Y-90191485D01*
X70690476Y-90191485D02*
X71309523Y-90191485D01*
X60204819Y-94392857D02*
X59728628Y-94726190D01*
X60204819Y-94964285D02*
X59204819Y-94964285D01*
X59204819Y-94964285D02*
X59204819Y-94583333D01*
X59204819Y-94583333D02*
X59252438Y-94488095D01*
X59252438Y-94488095D02*
X59300057Y-94440476D01*
X59300057Y-94440476D02*
X59395295Y-94392857D01*
X59395295Y-94392857D02*
X59538152Y-94392857D01*
X59538152Y-94392857D02*
X59633390Y-94440476D01*
X59633390Y-94440476D02*
X59681009Y-94488095D01*
X59681009Y-94488095D02*
X59728628Y-94583333D01*
X59728628Y-94583333D02*
X59728628Y-94964285D01*
X60204819Y-93440476D02*
X60204819Y-94011904D01*
X60204819Y-93726190D02*
X59204819Y-93726190D01*
X59204819Y-93726190D02*
X59347676Y-93821428D01*
X59347676Y-93821428D02*
X59442914Y-93916666D01*
X59442914Y-93916666D02*
X59490533Y-94011904D01*
X59633390Y-92869047D02*
X59585771Y-92964285D01*
X59585771Y-92964285D02*
X59538152Y-93011904D01*
X59538152Y-93011904D02*
X59442914Y-93059523D01*
X59442914Y-93059523D02*
X59395295Y-93059523D01*
X59395295Y-93059523D02*
X59300057Y-93011904D01*
X59300057Y-93011904D02*
X59252438Y-92964285D01*
X59252438Y-92964285D02*
X59204819Y-92869047D01*
X59204819Y-92869047D02*
X59204819Y-92678571D01*
X59204819Y-92678571D02*
X59252438Y-92583333D01*
X59252438Y-92583333D02*
X59300057Y-92535714D01*
X59300057Y-92535714D02*
X59395295Y-92488095D01*
X59395295Y-92488095D02*
X59442914Y-92488095D01*
X59442914Y-92488095D02*
X59538152Y-92535714D01*
X59538152Y-92535714D02*
X59585771Y-92583333D01*
X59585771Y-92583333D02*
X59633390Y-92678571D01*
X59633390Y-92678571D02*
X59633390Y-92869047D01*
X59633390Y-92869047D02*
X59681009Y-92964285D01*
X59681009Y-92964285D02*
X59728628Y-93011904D01*
X59728628Y-93011904D02*
X59823866Y-93059523D01*
X59823866Y-93059523D02*
X60014342Y-93059523D01*
X60014342Y-93059523D02*
X60109580Y-93011904D01*
X60109580Y-93011904D02*
X60157200Y-92964285D01*
X60157200Y-92964285D02*
X60204819Y-92869047D01*
X60204819Y-92869047D02*
X60204819Y-92678571D01*
X60204819Y-92678571D02*
X60157200Y-92583333D01*
X60157200Y-92583333D02*
X60109580Y-92535714D01*
X60109580Y-92535714D02*
X60014342Y-92488095D01*
X60014342Y-92488095D02*
X59823866Y-92488095D01*
X59823866Y-92488095D02*
X59728628Y-92535714D01*
X59728628Y-92535714D02*
X59681009Y-92583333D01*
X59681009Y-92583333D02*
X59633390Y-92678571D01*
X48511905Y-109704819D02*
X48511905Y-108704819D01*
X48511905Y-108704819D02*
X48750000Y-108704819D01*
X48750000Y-108704819D02*
X48892857Y-108752438D01*
X48892857Y-108752438D02*
X48988095Y-108847676D01*
X48988095Y-108847676D02*
X49035714Y-108942914D01*
X49035714Y-108942914D02*
X49083333Y-109133390D01*
X49083333Y-109133390D02*
X49083333Y-109276247D01*
X49083333Y-109276247D02*
X49035714Y-109466723D01*
X49035714Y-109466723D02*
X48988095Y-109561961D01*
X48988095Y-109561961D02*
X48892857Y-109657200D01*
X48892857Y-109657200D02*
X48750000Y-109704819D01*
X48750000Y-109704819D02*
X48511905Y-109704819D01*
X49940476Y-108704819D02*
X49750000Y-108704819D01*
X49750000Y-108704819D02*
X49654762Y-108752438D01*
X49654762Y-108752438D02*
X49607143Y-108800057D01*
X49607143Y-108800057D02*
X49511905Y-108942914D01*
X49511905Y-108942914D02*
X49464286Y-109133390D01*
X49464286Y-109133390D02*
X49464286Y-109514342D01*
X49464286Y-109514342D02*
X49511905Y-109609580D01*
X49511905Y-109609580D02*
X49559524Y-109657200D01*
X49559524Y-109657200D02*
X49654762Y-109704819D01*
X49654762Y-109704819D02*
X49845238Y-109704819D01*
X49845238Y-109704819D02*
X49940476Y-109657200D01*
X49940476Y-109657200D02*
X49988095Y-109609580D01*
X49988095Y-109609580D02*
X50035714Y-109514342D01*
X50035714Y-109514342D02*
X50035714Y-109276247D01*
X50035714Y-109276247D02*
X49988095Y-109181009D01*
X49988095Y-109181009D02*
X49940476Y-109133390D01*
X49940476Y-109133390D02*
X49845238Y-109085771D01*
X49845238Y-109085771D02*
X49654762Y-109085771D01*
X49654762Y-109085771D02*
X49559524Y-109133390D01*
X49559524Y-109133390D02*
X49511905Y-109181009D01*
X49511905Y-109181009D02*
X49464286Y-109276247D01*
X92359580Y-67678571D02*
X92407200Y-67726190D01*
X92407200Y-67726190D02*
X92454819Y-67869047D01*
X92454819Y-67869047D02*
X92454819Y-67964285D01*
X92454819Y-67964285D02*
X92407200Y-68107142D01*
X92407200Y-68107142D02*
X92311961Y-68202380D01*
X92311961Y-68202380D02*
X92216723Y-68249999D01*
X92216723Y-68249999D02*
X92026247Y-68297618D01*
X92026247Y-68297618D02*
X91883390Y-68297618D01*
X91883390Y-68297618D02*
X91692914Y-68249999D01*
X91692914Y-68249999D02*
X91597676Y-68202380D01*
X91597676Y-68202380D02*
X91502438Y-68107142D01*
X91502438Y-68107142D02*
X91454819Y-67964285D01*
X91454819Y-67964285D02*
X91454819Y-67869047D01*
X91454819Y-67869047D02*
X91502438Y-67726190D01*
X91502438Y-67726190D02*
X91550057Y-67678571D01*
X92454819Y-67107142D02*
X92407200Y-67202380D01*
X92407200Y-67202380D02*
X92359580Y-67249999D01*
X92359580Y-67249999D02*
X92264342Y-67297618D01*
X92264342Y-67297618D02*
X91978628Y-67297618D01*
X91978628Y-67297618D02*
X91883390Y-67249999D01*
X91883390Y-67249999D02*
X91835771Y-67202380D01*
X91835771Y-67202380D02*
X91788152Y-67107142D01*
X91788152Y-67107142D02*
X91788152Y-66964285D01*
X91788152Y-66964285D02*
X91835771Y-66869047D01*
X91835771Y-66869047D02*
X91883390Y-66821428D01*
X91883390Y-66821428D02*
X91978628Y-66773809D01*
X91978628Y-66773809D02*
X92264342Y-66773809D01*
X92264342Y-66773809D02*
X92359580Y-66821428D01*
X92359580Y-66821428D02*
X92407200Y-66869047D01*
X92407200Y-66869047D02*
X92454819Y-66964285D01*
X92454819Y-66964285D02*
X92454819Y-67107142D01*
X92454819Y-66345237D02*
X91788152Y-66345237D01*
X91883390Y-66345237D02*
X91835771Y-66297618D01*
X91835771Y-66297618D02*
X91788152Y-66202380D01*
X91788152Y-66202380D02*
X91788152Y-66059523D01*
X91788152Y-66059523D02*
X91835771Y-65964285D01*
X91835771Y-65964285D02*
X91931009Y-65916666D01*
X91931009Y-65916666D02*
X92454819Y-65916666D01*
X91931009Y-65916666D02*
X91835771Y-65869047D01*
X91835771Y-65869047D02*
X91788152Y-65773809D01*
X91788152Y-65773809D02*
X91788152Y-65630952D01*
X91788152Y-65630952D02*
X91835771Y-65535713D01*
X91835771Y-65535713D02*
X91931009Y-65488094D01*
X91931009Y-65488094D02*
X92454819Y-65488094D01*
X92454819Y-65011904D02*
X91788152Y-65011904D01*
X91883390Y-65011904D02*
X91835771Y-64964285D01*
X91835771Y-64964285D02*
X91788152Y-64869047D01*
X91788152Y-64869047D02*
X91788152Y-64726190D01*
X91788152Y-64726190D02*
X91835771Y-64630952D01*
X91835771Y-64630952D02*
X91931009Y-64583333D01*
X91931009Y-64583333D02*
X92454819Y-64583333D01*
X91931009Y-64583333D02*
X91835771Y-64535714D01*
X91835771Y-64535714D02*
X91788152Y-64440476D01*
X91788152Y-64440476D02*
X91788152Y-64297619D01*
X91788152Y-64297619D02*
X91835771Y-64202380D01*
X91835771Y-64202380D02*
X91931009Y-64154761D01*
X91931009Y-64154761D02*
X92454819Y-64154761D01*
X91788152Y-63250000D02*
X92454819Y-63250000D01*
X91788152Y-63678571D02*
X92311961Y-63678571D01*
X92311961Y-63678571D02*
X92407200Y-63630952D01*
X92407200Y-63630952D02*
X92454819Y-63535714D01*
X92454819Y-63535714D02*
X92454819Y-63392857D01*
X92454819Y-63392857D02*
X92407200Y-63297619D01*
X92407200Y-63297619D02*
X92359580Y-63250000D01*
X91788152Y-62773809D02*
X92454819Y-62773809D01*
X91883390Y-62773809D02*
X91835771Y-62726190D01*
X91835771Y-62726190D02*
X91788152Y-62630952D01*
X91788152Y-62630952D02*
X91788152Y-62488095D01*
X91788152Y-62488095D02*
X91835771Y-62392857D01*
X91835771Y-62392857D02*
X91931009Y-62345238D01*
X91931009Y-62345238D02*
X92454819Y-62345238D01*
X92454819Y-61869047D02*
X91788152Y-61869047D01*
X91454819Y-61869047D02*
X91502438Y-61916666D01*
X91502438Y-61916666D02*
X91550057Y-61869047D01*
X91550057Y-61869047D02*
X91502438Y-61821428D01*
X91502438Y-61821428D02*
X91454819Y-61869047D01*
X91454819Y-61869047D02*
X91550057Y-61869047D01*
X92407200Y-60964286D02*
X92454819Y-61059524D01*
X92454819Y-61059524D02*
X92454819Y-61250000D01*
X92454819Y-61250000D02*
X92407200Y-61345238D01*
X92407200Y-61345238D02*
X92359580Y-61392857D01*
X92359580Y-61392857D02*
X92264342Y-61440476D01*
X92264342Y-61440476D02*
X91978628Y-61440476D01*
X91978628Y-61440476D02*
X91883390Y-61392857D01*
X91883390Y-61392857D02*
X91835771Y-61345238D01*
X91835771Y-61345238D02*
X91788152Y-61250000D01*
X91788152Y-61250000D02*
X91788152Y-61059524D01*
X91788152Y-61059524D02*
X91835771Y-60964286D01*
X92454819Y-60107143D02*
X91931009Y-60107143D01*
X91931009Y-60107143D02*
X91835771Y-60154762D01*
X91835771Y-60154762D02*
X91788152Y-60250000D01*
X91788152Y-60250000D02*
X91788152Y-60440476D01*
X91788152Y-60440476D02*
X91835771Y-60535714D01*
X92407200Y-60107143D02*
X92454819Y-60202381D01*
X92454819Y-60202381D02*
X92454819Y-60440476D01*
X92454819Y-60440476D02*
X92407200Y-60535714D01*
X92407200Y-60535714D02*
X92311961Y-60583333D01*
X92311961Y-60583333D02*
X92216723Y-60583333D01*
X92216723Y-60583333D02*
X92121485Y-60535714D01*
X92121485Y-60535714D02*
X92073866Y-60440476D01*
X92073866Y-60440476D02*
X92073866Y-60202381D01*
X92073866Y-60202381D02*
X92026247Y-60107143D01*
X91788152Y-59773809D02*
X91788152Y-59392857D01*
X91454819Y-59630952D02*
X92311961Y-59630952D01*
X92311961Y-59630952D02*
X92407200Y-59583333D01*
X92407200Y-59583333D02*
X92454819Y-59488095D01*
X92454819Y-59488095D02*
X92454819Y-59392857D01*
X92454819Y-59059523D02*
X91788152Y-59059523D01*
X91454819Y-59059523D02*
X91502438Y-59107142D01*
X91502438Y-59107142D02*
X91550057Y-59059523D01*
X91550057Y-59059523D02*
X91502438Y-59011904D01*
X91502438Y-59011904D02*
X91454819Y-59059523D01*
X91454819Y-59059523D02*
X91550057Y-59059523D01*
X92454819Y-58440476D02*
X92407200Y-58535714D01*
X92407200Y-58535714D02*
X92359580Y-58583333D01*
X92359580Y-58583333D02*
X92264342Y-58630952D01*
X92264342Y-58630952D02*
X91978628Y-58630952D01*
X91978628Y-58630952D02*
X91883390Y-58583333D01*
X91883390Y-58583333D02*
X91835771Y-58535714D01*
X91835771Y-58535714D02*
X91788152Y-58440476D01*
X91788152Y-58440476D02*
X91788152Y-58297619D01*
X91788152Y-58297619D02*
X91835771Y-58202381D01*
X91835771Y-58202381D02*
X91883390Y-58154762D01*
X91883390Y-58154762D02*
X91978628Y-58107143D01*
X91978628Y-58107143D02*
X92264342Y-58107143D01*
X92264342Y-58107143D02*
X92359580Y-58154762D01*
X92359580Y-58154762D02*
X92407200Y-58202381D01*
X92407200Y-58202381D02*
X92454819Y-58297619D01*
X92454819Y-58297619D02*
X92454819Y-58440476D01*
X91788152Y-57678571D02*
X92454819Y-57678571D01*
X91883390Y-57678571D02*
X91835771Y-57630952D01*
X91835771Y-57630952D02*
X91788152Y-57535714D01*
X91788152Y-57535714D02*
X91788152Y-57392857D01*
X91788152Y-57392857D02*
X91835771Y-57297619D01*
X91835771Y-57297619D02*
X91931009Y-57250000D01*
X91931009Y-57250000D02*
X92454819Y-57250000D01*
X54857142Y-83109580D02*
X54809523Y-83157200D01*
X54809523Y-83157200D02*
X54666666Y-83204819D01*
X54666666Y-83204819D02*
X54571428Y-83204819D01*
X54571428Y-83204819D02*
X54428571Y-83157200D01*
X54428571Y-83157200D02*
X54333333Y-83061961D01*
X54333333Y-83061961D02*
X54285714Y-82966723D01*
X54285714Y-82966723D02*
X54238095Y-82776247D01*
X54238095Y-82776247D02*
X54238095Y-82633390D01*
X54238095Y-82633390D02*
X54285714Y-82442914D01*
X54285714Y-82442914D02*
X54333333Y-82347676D01*
X54333333Y-82347676D02*
X54428571Y-82252438D01*
X54428571Y-82252438D02*
X54571428Y-82204819D01*
X54571428Y-82204819D02*
X54666666Y-82204819D01*
X54666666Y-82204819D02*
X54809523Y-82252438D01*
X54809523Y-82252438D02*
X54857142Y-82300057D01*
X55809523Y-83204819D02*
X55238095Y-83204819D01*
X55523809Y-83204819D02*
X55523809Y-82204819D01*
X55523809Y-82204819D02*
X55428571Y-82347676D01*
X55428571Y-82347676D02*
X55333333Y-82442914D01*
X55333333Y-82442914D02*
X55238095Y-82490533D01*
X56428571Y-82204819D02*
X56523809Y-82204819D01*
X56523809Y-82204819D02*
X56619047Y-82252438D01*
X56619047Y-82252438D02*
X56666666Y-82300057D01*
X56666666Y-82300057D02*
X56714285Y-82395295D01*
X56714285Y-82395295D02*
X56761904Y-82585771D01*
X56761904Y-82585771D02*
X56761904Y-82823866D01*
X56761904Y-82823866D02*
X56714285Y-83014342D01*
X56714285Y-83014342D02*
X56666666Y-83109580D01*
X56666666Y-83109580D02*
X56619047Y-83157200D01*
X56619047Y-83157200D02*
X56523809Y-83204819D01*
X56523809Y-83204819D02*
X56428571Y-83204819D01*
X56428571Y-83204819D02*
X56333333Y-83157200D01*
X56333333Y-83157200D02*
X56285714Y-83109580D01*
X56285714Y-83109580D02*
X56238095Y-83014342D01*
X56238095Y-83014342D02*
X56190476Y-82823866D01*
X56190476Y-82823866D02*
X56190476Y-82585771D01*
X56190476Y-82585771D02*
X56238095Y-82395295D01*
X56238095Y-82395295D02*
X56285714Y-82300057D01*
X56285714Y-82300057D02*
X56333333Y-82252438D01*
X56333333Y-82252438D02*
X56428571Y-82204819D01*
X61583333Y-84609580D02*
X61535714Y-84657200D01*
X61535714Y-84657200D02*
X61392857Y-84704819D01*
X61392857Y-84704819D02*
X61297619Y-84704819D01*
X61297619Y-84704819D02*
X61154762Y-84657200D01*
X61154762Y-84657200D02*
X61059524Y-84561961D01*
X61059524Y-84561961D02*
X61011905Y-84466723D01*
X61011905Y-84466723D02*
X60964286Y-84276247D01*
X60964286Y-84276247D02*
X60964286Y-84133390D01*
X60964286Y-84133390D02*
X61011905Y-83942914D01*
X61011905Y-83942914D02*
X61059524Y-83847676D01*
X61059524Y-83847676D02*
X61154762Y-83752438D01*
X61154762Y-83752438D02*
X61297619Y-83704819D01*
X61297619Y-83704819D02*
X61392857Y-83704819D01*
X61392857Y-83704819D02*
X61535714Y-83752438D01*
X61535714Y-83752438D02*
X61583333Y-83800057D01*
X61916667Y-83704819D02*
X62583333Y-83704819D01*
X62583333Y-83704819D02*
X62154762Y-84704819D01*
X83083333Y-74704819D02*
X82750000Y-74228628D01*
X82511905Y-74704819D02*
X82511905Y-73704819D01*
X82511905Y-73704819D02*
X82892857Y-73704819D01*
X82892857Y-73704819D02*
X82988095Y-73752438D01*
X82988095Y-73752438D02*
X83035714Y-73800057D01*
X83035714Y-73800057D02*
X83083333Y-73895295D01*
X83083333Y-73895295D02*
X83083333Y-74038152D01*
X83083333Y-74038152D02*
X83035714Y-74133390D01*
X83035714Y-74133390D02*
X82988095Y-74181009D01*
X82988095Y-74181009D02*
X82892857Y-74228628D01*
X82892857Y-74228628D02*
X82511905Y-74228628D01*
X83464286Y-73800057D02*
X83511905Y-73752438D01*
X83511905Y-73752438D02*
X83607143Y-73704819D01*
X83607143Y-73704819D02*
X83845238Y-73704819D01*
X83845238Y-73704819D02*
X83940476Y-73752438D01*
X83940476Y-73752438D02*
X83988095Y-73800057D01*
X83988095Y-73800057D02*
X84035714Y-73895295D01*
X84035714Y-73895295D02*
X84035714Y-73990533D01*
X84035714Y-73990533D02*
X83988095Y-74133390D01*
X83988095Y-74133390D02*
X83416667Y-74704819D01*
X83416667Y-74704819D02*
X84035714Y-74704819D01*
X66333333Y-69859580D02*
X66285714Y-69907200D01*
X66285714Y-69907200D02*
X66142857Y-69954819D01*
X66142857Y-69954819D02*
X66047619Y-69954819D01*
X66047619Y-69954819D02*
X65904762Y-69907200D01*
X65904762Y-69907200D02*
X65809524Y-69811961D01*
X65809524Y-69811961D02*
X65761905Y-69716723D01*
X65761905Y-69716723D02*
X65714286Y-69526247D01*
X65714286Y-69526247D02*
X65714286Y-69383390D01*
X65714286Y-69383390D02*
X65761905Y-69192914D01*
X65761905Y-69192914D02*
X65809524Y-69097676D01*
X65809524Y-69097676D02*
X65904762Y-69002438D01*
X65904762Y-69002438D02*
X66047619Y-68954819D01*
X66047619Y-68954819D02*
X66142857Y-68954819D01*
X66142857Y-68954819D02*
X66285714Y-69002438D01*
X66285714Y-69002438D02*
X66333333Y-69050057D01*
X67238095Y-68954819D02*
X66761905Y-68954819D01*
X66761905Y-68954819D02*
X66714286Y-69431009D01*
X66714286Y-69431009D02*
X66761905Y-69383390D01*
X66761905Y-69383390D02*
X66857143Y-69335771D01*
X66857143Y-69335771D02*
X67095238Y-69335771D01*
X67095238Y-69335771D02*
X67190476Y-69383390D01*
X67190476Y-69383390D02*
X67238095Y-69431009D01*
X67238095Y-69431009D02*
X67285714Y-69526247D01*
X67285714Y-69526247D02*
X67285714Y-69764342D01*
X67285714Y-69764342D02*
X67238095Y-69859580D01*
X67238095Y-69859580D02*
X67190476Y-69907200D01*
X67190476Y-69907200D02*
X67095238Y-69954819D01*
X67095238Y-69954819D02*
X66857143Y-69954819D01*
X66857143Y-69954819D02*
X66761905Y-69907200D01*
X66761905Y-69907200D02*
X66714286Y-69859580D01*
X72857142Y-88024819D02*
X72523809Y-87548628D01*
X72285714Y-88024819D02*
X72285714Y-87024819D01*
X72285714Y-87024819D02*
X72666666Y-87024819D01*
X72666666Y-87024819D02*
X72761904Y-87072438D01*
X72761904Y-87072438D02*
X72809523Y-87120057D01*
X72809523Y-87120057D02*
X72857142Y-87215295D01*
X72857142Y-87215295D02*
X72857142Y-87358152D01*
X72857142Y-87358152D02*
X72809523Y-87453390D01*
X72809523Y-87453390D02*
X72761904Y-87501009D01*
X72761904Y-87501009D02*
X72666666Y-87548628D01*
X72666666Y-87548628D02*
X72285714Y-87548628D01*
X73809523Y-88024819D02*
X73238095Y-88024819D01*
X73523809Y-88024819D02*
X73523809Y-87024819D01*
X73523809Y-87024819D02*
X73428571Y-87167676D01*
X73428571Y-87167676D02*
X73333333Y-87262914D01*
X73333333Y-87262914D02*
X73238095Y-87310533D01*
X74142857Y-87024819D02*
X74761904Y-87024819D01*
X74761904Y-87024819D02*
X74428571Y-87405771D01*
X74428571Y-87405771D02*
X74571428Y-87405771D01*
X74571428Y-87405771D02*
X74666666Y-87453390D01*
X74666666Y-87453390D02*
X74714285Y-87501009D01*
X74714285Y-87501009D02*
X74761904Y-87596247D01*
X74761904Y-87596247D02*
X74761904Y-87834342D01*
X74761904Y-87834342D02*
X74714285Y-87929580D01*
X74714285Y-87929580D02*
X74666666Y-87977200D01*
X74666666Y-87977200D02*
X74571428Y-88024819D01*
X74571428Y-88024819D02*
X74285714Y-88024819D01*
X74285714Y-88024819D02*
X74190476Y-87977200D01*
X74190476Y-87977200D02*
X74142857Y-87929580D01*
X66333333Y-72859580D02*
X66285714Y-72907200D01*
X66285714Y-72907200D02*
X66142857Y-72954819D01*
X66142857Y-72954819D02*
X66047619Y-72954819D01*
X66047619Y-72954819D02*
X65904762Y-72907200D01*
X65904762Y-72907200D02*
X65809524Y-72811961D01*
X65809524Y-72811961D02*
X65761905Y-72716723D01*
X65761905Y-72716723D02*
X65714286Y-72526247D01*
X65714286Y-72526247D02*
X65714286Y-72383390D01*
X65714286Y-72383390D02*
X65761905Y-72192914D01*
X65761905Y-72192914D02*
X65809524Y-72097676D01*
X65809524Y-72097676D02*
X65904762Y-72002438D01*
X65904762Y-72002438D02*
X66047619Y-71954819D01*
X66047619Y-71954819D02*
X66142857Y-71954819D01*
X66142857Y-71954819D02*
X66285714Y-72002438D01*
X66285714Y-72002438D02*
X66333333Y-72050057D01*
X66714286Y-72050057D02*
X66761905Y-72002438D01*
X66761905Y-72002438D02*
X66857143Y-71954819D01*
X66857143Y-71954819D02*
X67095238Y-71954819D01*
X67095238Y-71954819D02*
X67190476Y-72002438D01*
X67190476Y-72002438D02*
X67238095Y-72050057D01*
X67238095Y-72050057D02*
X67285714Y-72145295D01*
X67285714Y-72145295D02*
X67285714Y-72240533D01*
X67285714Y-72240533D02*
X67238095Y-72383390D01*
X67238095Y-72383390D02*
X66666667Y-72954819D01*
X66666667Y-72954819D02*
X67285714Y-72954819D01*
X74988095Y-73954819D02*
X74988095Y-74764342D01*
X74988095Y-74764342D02*
X75035714Y-74859580D01*
X75035714Y-74859580D02*
X75083333Y-74907200D01*
X75083333Y-74907200D02*
X75178571Y-74954819D01*
X75178571Y-74954819D02*
X75369047Y-74954819D01*
X75369047Y-74954819D02*
X75464285Y-74907200D01*
X75464285Y-74907200D02*
X75511904Y-74859580D01*
X75511904Y-74859580D02*
X75559523Y-74764342D01*
X75559523Y-74764342D02*
X75559523Y-73954819D01*
X76559523Y-74954819D02*
X75988095Y-74954819D01*
X76273809Y-74954819D02*
X76273809Y-73954819D01*
X76273809Y-73954819D02*
X76178571Y-74097676D01*
X76178571Y-74097676D02*
X76083333Y-74192914D01*
X76083333Y-74192914D02*
X75988095Y-74240533D01*
X73404761Y-53050057D02*
X73309523Y-53002438D01*
X73309523Y-53002438D02*
X73214285Y-52907200D01*
X73214285Y-52907200D02*
X73071428Y-52764342D01*
X73071428Y-52764342D02*
X72976190Y-52716723D01*
X72976190Y-52716723D02*
X72880952Y-52716723D01*
X72928571Y-52954819D02*
X72833333Y-52907200D01*
X72833333Y-52907200D02*
X72738095Y-52811961D01*
X72738095Y-52811961D02*
X72690476Y-52621485D01*
X72690476Y-52621485D02*
X72690476Y-52288152D01*
X72690476Y-52288152D02*
X72738095Y-52097676D01*
X72738095Y-52097676D02*
X72833333Y-52002438D01*
X72833333Y-52002438D02*
X72928571Y-51954819D01*
X72928571Y-51954819D02*
X73119047Y-51954819D01*
X73119047Y-51954819D02*
X73214285Y-52002438D01*
X73214285Y-52002438D02*
X73309523Y-52097676D01*
X73309523Y-52097676D02*
X73357142Y-52288152D01*
X73357142Y-52288152D02*
X73357142Y-52621485D01*
X73357142Y-52621485D02*
X73309523Y-52811961D01*
X73309523Y-52811961D02*
X73214285Y-52907200D01*
X73214285Y-52907200D02*
X73119047Y-52954819D01*
X73119047Y-52954819D02*
X72928571Y-52954819D01*
X73738095Y-52050057D02*
X73785714Y-52002438D01*
X73785714Y-52002438D02*
X73880952Y-51954819D01*
X73880952Y-51954819D02*
X74119047Y-51954819D01*
X74119047Y-51954819D02*
X74214285Y-52002438D01*
X74214285Y-52002438D02*
X74261904Y-52050057D01*
X74261904Y-52050057D02*
X74309523Y-52145295D01*
X74309523Y-52145295D02*
X74309523Y-52240533D01*
X74309523Y-52240533D02*
X74261904Y-52383390D01*
X74261904Y-52383390D02*
X73690476Y-52954819D01*
X73690476Y-52954819D02*
X74309523Y-52954819D01*
X79786905Y-93704819D02*
X79786905Y-92704819D01*
X79786905Y-92704819D02*
X80025000Y-92704819D01*
X80025000Y-92704819D02*
X80167857Y-92752438D01*
X80167857Y-92752438D02*
X80263095Y-92847676D01*
X80263095Y-92847676D02*
X80310714Y-92942914D01*
X80310714Y-92942914D02*
X80358333Y-93133390D01*
X80358333Y-93133390D02*
X80358333Y-93276247D01*
X80358333Y-93276247D02*
X80310714Y-93466723D01*
X80310714Y-93466723D02*
X80263095Y-93561961D01*
X80263095Y-93561961D02*
X80167857Y-93657200D01*
X80167857Y-93657200D02*
X80025000Y-93704819D01*
X80025000Y-93704819D02*
X79786905Y-93704819D01*
X81215476Y-93038152D02*
X81215476Y-93704819D01*
X80977381Y-92657200D02*
X80739286Y-93371485D01*
X80739286Y-93371485D02*
X81358333Y-93371485D01*
X86988095Y-95954819D02*
X86988095Y-94954819D01*
X87559523Y-95954819D02*
X87130952Y-95383390D01*
X87559523Y-94954819D02*
X86988095Y-95526247D01*
X47607142Y-142359580D02*
X47559523Y-142407200D01*
X47559523Y-142407200D02*
X47416666Y-142454819D01*
X47416666Y-142454819D02*
X47321428Y-142454819D01*
X47321428Y-142454819D02*
X47178571Y-142407200D01*
X47178571Y-142407200D02*
X47083333Y-142311961D01*
X47083333Y-142311961D02*
X47035714Y-142216723D01*
X47035714Y-142216723D02*
X46988095Y-142026247D01*
X46988095Y-142026247D02*
X46988095Y-141883390D01*
X46988095Y-141883390D02*
X47035714Y-141692914D01*
X47035714Y-141692914D02*
X47083333Y-141597676D01*
X47083333Y-141597676D02*
X47178571Y-141502438D01*
X47178571Y-141502438D02*
X47321428Y-141454819D01*
X47321428Y-141454819D02*
X47416666Y-141454819D01*
X47416666Y-141454819D02*
X47559523Y-141502438D01*
X47559523Y-141502438D02*
X47607142Y-141550057D01*
X47988095Y-141550057D02*
X48035714Y-141502438D01*
X48035714Y-141502438D02*
X48130952Y-141454819D01*
X48130952Y-141454819D02*
X48369047Y-141454819D01*
X48369047Y-141454819D02*
X48464285Y-141502438D01*
X48464285Y-141502438D02*
X48511904Y-141550057D01*
X48511904Y-141550057D02*
X48559523Y-141645295D01*
X48559523Y-141645295D02*
X48559523Y-141740533D01*
X48559523Y-141740533D02*
X48511904Y-141883390D01*
X48511904Y-141883390D02*
X47940476Y-142454819D01*
X47940476Y-142454819D02*
X48559523Y-142454819D01*
X49035714Y-142454819D02*
X49226190Y-142454819D01*
X49226190Y-142454819D02*
X49321428Y-142407200D01*
X49321428Y-142407200D02*
X49369047Y-142359580D01*
X49369047Y-142359580D02*
X49464285Y-142216723D01*
X49464285Y-142216723D02*
X49511904Y-142026247D01*
X49511904Y-142026247D02*
X49511904Y-141645295D01*
X49511904Y-141645295D02*
X49464285Y-141550057D01*
X49464285Y-141550057D02*
X49416666Y-141502438D01*
X49416666Y-141502438D02*
X49321428Y-141454819D01*
X49321428Y-141454819D02*
X49130952Y-141454819D01*
X49130952Y-141454819D02*
X49035714Y-141502438D01*
X49035714Y-141502438D02*
X48988095Y-141550057D01*
X48988095Y-141550057D02*
X48940476Y-141645295D01*
X48940476Y-141645295D02*
X48940476Y-141883390D01*
X48940476Y-141883390D02*
X48988095Y-141978628D01*
X48988095Y-141978628D02*
X49035714Y-142026247D01*
X49035714Y-142026247D02*
X49130952Y-142073866D01*
X49130952Y-142073866D02*
X49321428Y-142073866D01*
X49321428Y-142073866D02*
X49416666Y-142026247D01*
X49416666Y-142026247D02*
X49464285Y-141978628D01*
X49464285Y-141978628D02*
X49511904Y-141883390D01*
X71357142Y-105859580D02*
X71309523Y-105907200D01*
X71309523Y-105907200D02*
X71166666Y-105954819D01*
X71166666Y-105954819D02*
X71071428Y-105954819D01*
X71071428Y-105954819D02*
X70928571Y-105907200D01*
X70928571Y-105907200D02*
X70833333Y-105811961D01*
X70833333Y-105811961D02*
X70785714Y-105716723D01*
X70785714Y-105716723D02*
X70738095Y-105526247D01*
X70738095Y-105526247D02*
X70738095Y-105383390D01*
X70738095Y-105383390D02*
X70785714Y-105192914D01*
X70785714Y-105192914D02*
X70833333Y-105097676D01*
X70833333Y-105097676D02*
X70928571Y-105002438D01*
X70928571Y-105002438D02*
X71071428Y-104954819D01*
X71071428Y-104954819D02*
X71166666Y-104954819D01*
X71166666Y-104954819D02*
X71309523Y-105002438D01*
X71309523Y-105002438D02*
X71357142Y-105050057D01*
X71690476Y-104954819D02*
X72309523Y-104954819D01*
X72309523Y-104954819D02*
X71976190Y-105335771D01*
X71976190Y-105335771D02*
X72119047Y-105335771D01*
X72119047Y-105335771D02*
X72214285Y-105383390D01*
X72214285Y-105383390D02*
X72261904Y-105431009D01*
X72261904Y-105431009D02*
X72309523Y-105526247D01*
X72309523Y-105526247D02*
X72309523Y-105764342D01*
X72309523Y-105764342D02*
X72261904Y-105859580D01*
X72261904Y-105859580D02*
X72214285Y-105907200D01*
X72214285Y-105907200D02*
X72119047Y-105954819D01*
X72119047Y-105954819D02*
X71833333Y-105954819D01*
X71833333Y-105954819D02*
X71738095Y-105907200D01*
X71738095Y-105907200D02*
X71690476Y-105859580D01*
X72642857Y-104954819D02*
X73261904Y-104954819D01*
X73261904Y-104954819D02*
X72928571Y-105335771D01*
X72928571Y-105335771D02*
X73071428Y-105335771D01*
X73071428Y-105335771D02*
X73166666Y-105383390D01*
X73166666Y-105383390D02*
X73214285Y-105431009D01*
X73214285Y-105431009D02*
X73261904Y-105526247D01*
X73261904Y-105526247D02*
X73261904Y-105764342D01*
X73261904Y-105764342D02*
X73214285Y-105859580D01*
X73214285Y-105859580D02*
X73166666Y-105907200D01*
X73166666Y-105907200D02*
X73071428Y-105954819D01*
X73071428Y-105954819D02*
X72785714Y-105954819D01*
X72785714Y-105954819D02*
X72690476Y-105907200D01*
X72690476Y-105907200D02*
X72642857Y-105859580D01*
X62632142Y-122359580D02*
X62584523Y-122407200D01*
X62584523Y-122407200D02*
X62441666Y-122454819D01*
X62441666Y-122454819D02*
X62346428Y-122454819D01*
X62346428Y-122454819D02*
X62203571Y-122407200D01*
X62203571Y-122407200D02*
X62108333Y-122311961D01*
X62108333Y-122311961D02*
X62060714Y-122216723D01*
X62060714Y-122216723D02*
X62013095Y-122026247D01*
X62013095Y-122026247D02*
X62013095Y-121883390D01*
X62013095Y-121883390D02*
X62060714Y-121692914D01*
X62060714Y-121692914D02*
X62108333Y-121597676D01*
X62108333Y-121597676D02*
X62203571Y-121502438D01*
X62203571Y-121502438D02*
X62346428Y-121454819D01*
X62346428Y-121454819D02*
X62441666Y-121454819D01*
X62441666Y-121454819D02*
X62584523Y-121502438D01*
X62584523Y-121502438D02*
X62632142Y-121550057D01*
X63013095Y-121550057D02*
X63060714Y-121502438D01*
X63060714Y-121502438D02*
X63155952Y-121454819D01*
X63155952Y-121454819D02*
X63394047Y-121454819D01*
X63394047Y-121454819D02*
X63489285Y-121502438D01*
X63489285Y-121502438D02*
X63536904Y-121550057D01*
X63536904Y-121550057D02*
X63584523Y-121645295D01*
X63584523Y-121645295D02*
X63584523Y-121740533D01*
X63584523Y-121740533D02*
X63536904Y-121883390D01*
X63536904Y-121883390D02*
X62965476Y-122454819D01*
X62965476Y-122454819D02*
X63584523Y-122454819D01*
X64203571Y-121454819D02*
X64298809Y-121454819D01*
X64298809Y-121454819D02*
X64394047Y-121502438D01*
X64394047Y-121502438D02*
X64441666Y-121550057D01*
X64441666Y-121550057D02*
X64489285Y-121645295D01*
X64489285Y-121645295D02*
X64536904Y-121835771D01*
X64536904Y-121835771D02*
X64536904Y-122073866D01*
X64536904Y-122073866D02*
X64489285Y-122264342D01*
X64489285Y-122264342D02*
X64441666Y-122359580D01*
X64441666Y-122359580D02*
X64394047Y-122407200D01*
X64394047Y-122407200D02*
X64298809Y-122454819D01*
X64298809Y-122454819D02*
X64203571Y-122454819D01*
X64203571Y-122454819D02*
X64108333Y-122407200D01*
X64108333Y-122407200D02*
X64060714Y-122359580D01*
X64060714Y-122359580D02*
X64013095Y-122264342D01*
X64013095Y-122264342D02*
X63965476Y-122073866D01*
X63965476Y-122073866D02*
X63965476Y-121835771D01*
X63965476Y-121835771D02*
X64013095Y-121645295D01*
X64013095Y-121645295D02*
X64060714Y-121550057D01*
X64060714Y-121550057D02*
X64108333Y-121502438D01*
X64108333Y-121502438D02*
X64203571Y-121454819D01*
X58107142Y-133859580D02*
X58059523Y-133907200D01*
X58059523Y-133907200D02*
X57916666Y-133954819D01*
X57916666Y-133954819D02*
X57821428Y-133954819D01*
X57821428Y-133954819D02*
X57678571Y-133907200D01*
X57678571Y-133907200D02*
X57583333Y-133811961D01*
X57583333Y-133811961D02*
X57535714Y-133716723D01*
X57535714Y-133716723D02*
X57488095Y-133526247D01*
X57488095Y-133526247D02*
X57488095Y-133383390D01*
X57488095Y-133383390D02*
X57535714Y-133192914D01*
X57535714Y-133192914D02*
X57583333Y-133097676D01*
X57583333Y-133097676D02*
X57678571Y-133002438D01*
X57678571Y-133002438D02*
X57821428Y-132954819D01*
X57821428Y-132954819D02*
X57916666Y-132954819D01*
X57916666Y-132954819D02*
X58059523Y-133002438D01*
X58059523Y-133002438D02*
X58107142Y-133050057D01*
X58488095Y-133050057D02*
X58535714Y-133002438D01*
X58535714Y-133002438D02*
X58630952Y-132954819D01*
X58630952Y-132954819D02*
X58869047Y-132954819D01*
X58869047Y-132954819D02*
X58964285Y-133002438D01*
X58964285Y-133002438D02*
X59011904Y-133050057D01*
X59011904Y-133050057D02*
X59059523Y-133145295D01*
X59059523Y-133145295D02*
X59059523Y-133240533D01*
X59059523Y-133240533D02*
X59011904Y-133383390D01*
X59011904Y-133383390D02*
X58440476Y-133954819D01*
X58440476Y-133954819D02*
X59059523Y-133954819D01*
X59964285Y-132954819D02*
X59488095Y-132954819D01*
X59488095Y-132954819D02*
X59440476Y-133431009D01*
X59440476Y-133431009D02*
X59488095Y-133383390D01*
X59488095Y-133383390D02*
X59583333Y-133335771D01*
X59583333Y-133335771D02*
X59821428Y-133335771D01*
X59821428Y-133335771D02*
X59916666Y-133383390D01*
X59916666Y-133383390D02*
X59964285Y-133431009D01*
X59964285Y-133431009D02*
X60011904Y-133526247D01*
X60011904Y-133526247D02*
X60011904Y-133764342D01*
X60011904Y-133764342D02*
X59964285Y-133859580D01*
X59964285Y-133859580D02*
X59916666Y-133907200D01*
X59916666Y-133907200D02*
X59821428Y-133954819D01*
X59821428Y-133954819D02*
X59583333Y-133954819D01*
X59583333Y-133954819D02*
X59488095Y-133907200D01*
X59488095Y-133907200D02*
X59440476Y-133859580D01*
X73857142Y-103954819D02*
X73523809Y-103478628D01*
X73285714Y-103954819D02*
X73285714Y-102954819D01*
X73285714Y-102954819D02*
X73666666Y-102954819D01*
X73666666Y-102954819D02*
X73761904Y-103002438D01*
X73761904Y-103002438D02*
X73809523Y-103050057D01*
X73809523Y-103050057D02*
X73857142Y-103145295D01*
X73857142Y-103145295D02*
X73857142Y-103288152D01*
X73857142Y-103288152D02*
X73809523Y-103383390D01*
X73809523Y-103383390D02*
X73761904Y-103431009D01*
X73761904Y-103431009D02*
X73666666Y-103478628D01*
X73666666Y-103478628D02*
X73285714Y-103478628D01*
X74809523Y-103954819D02*
X74238095Y-103954819D01*
X74523809Y-103954819D02*
X74523809Y-102954819D01*
X74523809Y-102954819D02*
X74428571Y-103097676D01*
X74428571Y-103097676D02*
X74333333Y-103192914D01*
X74333333Y-103192914D02*
X74238095Y-103240533D01*
X75761904Y-103954819D02*
X75190476Y-103954819D01*
X75476190Y-103954819D02*
X75476190Y-102954819D01*
X75476190Y-102954819D02*
X75380952Y-103097676D01*
X75380952Y-103097676D02*
X75285714Y-103192914D01*
X75285714Y-103192914D02*
X75190476Y-103240533D01*
X78382142Y-92204819D02*
X78048809Y-91728628D01*
X77810714Y-92204819D02*
X77810714Y-91204819D01*
X77810714Y-91204819D02*
X78191666Y-91204819D01*
X78191666Y-91204819D02*
X78286904Y-91252438D01*
X78286904Y-91252438D02*
X78334523Y-91300057D01*
X78334523Y-91300057D02*
X78382142Y-91395295D01*
X78382142Y-91395295D02*
X78382142Y-91538152D01*
X78382142Y-91538152D02*
X78334523Y-91633390D01*
X78334523Y-91633390D02*
X78286904Y-91681009D01*
X78286904Y-91681009D02*
X78191666Y-91728628D01*
X78191666Y-91728628D02*
X77810714Y-91728628D01*
X79334523Y-92204819D02*
X78763095Y-92204819D01*
X79048809Y-92204819D02*
X79048809Y-91204819D01*
X79048809Y-91204819D02*
X78953571Y-91347676D01*
X78953571Y-91347676D02*
X78858333Y-91442914D01*
X78858333Y-91442914D02*
X78763095Y-91490533D01*
X79715476Y-91300057D02*
X79763095Y-91252438D01*
X79763095Y-91252438D02*
X79858333Y-91204819D01*
X79858333Y-91204819D02*
X80096428Y-91204819D01*
X80096428Y-91204819D02*
X80191666Y-91252438D01*
X80191666Y-91252438D02*
X80239285Y-91300057D01*
X80239285Y-91300057D02*
X80286904Y-91395295D01*
X80286904Y-91395295D02*
X80286904Y-91490533D01*
X80286904Y-91490533D02*
X80239285Y-91633390D01*
X80239285Y-91633390D02*
X79667857Y-92204819D01*
X79667857Y-92204819D02*
X80286904Y-92204819D01*
X64833333Y-90859580D02*
X64785714Y-90907200D01*
X64785714Y-90907200D02*
X64642857Y-90954819D01*
X64642857Y-90954819D02*
X64547619Y-90954819D01*
X64547619Y-90954819D02*
X64404762Y-90907200D01*
X64404762Y-90907200D02*
X64309524Y-90811961D01*
X64309524Y-90811961D02*
X64261905Y-90716723D01*
X64261905Y-90716723D02*
X64214286Y-90526247D01*
X64214286Y-90526247D02*
X64214286Y-90383390D01*
X64214286Y-90383390D02*
X64261905Y-90192914D01*
X64261905Y-90192914D02*
X64309524Y-90097676D01*
X64309524Y-90097676D02*
X64404762Y-90002438D01*
X64404762Y-90002438D02*
X64547619Y-89954819D01*
X64547619Y-89954819D02*
X64642857Y-89954819D01*
X64642857Y-89954819D02*
X64785714Y-90002438D01*
X64785714Y-90002438D02*
X64833333Y-90050057D01*
X65309524Y-90954819D02*
X65500000Y-90954819D01*
X65500000Y-90954819D02*
X65595238Y-90907200D01*
X65595238Y-90907200D02*
X65642857Y-90859580D01*
X65642857Y-90859580D02*
X65738095Y-90716723D01*
X65738095Y-90716723D02*
X65785714Y-90526247D01*
X65785714Y-90526247D02*
X65785714Y-90145295D01*
X65785714Y-90145295D02*
X65738095Y-90050057D01*
X65738095Y-90050057D02*
X65690476Y-90002438D01*
X65690476Y-90002438D02*
X65595238Y-89954819D01*
X65595238Y-89954819D02*
X65404762Y-89954819D01*
X65404762Y-89954819D02*
X65309524Y-90002438D01*
X65309524Y-90002438D02*
X65261905Y-90050057D01*
X65261905Y-90050057D02*
X65214286Y-90145295D01*
X65214286Y-90145295D02*
X65214286Y-90383390D01*
X65214286Y-90383390D02*
X65261905Y-90478628D01*
X65261905Y-90478628D02*
X65309524Y-90526247D01*
X65309524Y-90526247D02*
X65404762Y-90573866D01*
X65404762Y-90573866D02*
X65595238Y-90573866D01*
X65595238Y-90573866D02*
X65690476Y-90526247D01*
X65690476Y-90526247D02*
X65738095Y-90478628D01*
X65738095Y-90478628D02*
X65785714Y-90383390D01*
X78858333Y-85134819D02*
X78525000Y-84658628D01*
X78286905Y-85134819D02*
X78286905Y-84134819D01*
X78286905Y-84134819D02*
X78667857Y-84134819D01*
X78667857Y-84134819D02*
X78763095Y-84182438D01*
X78763095Y-84182438D02*
X78810714Y-84230057D01*
X78810714Y-84230057D02*
X78858333Y-84325295D01*
X78858333Y-84325295D02*
X78858333Y-84468152D01*
X78858333Y-84468152D02*
X78810714Y-84563390D01*
X78810714Y-84563390D02*
X78763095Y-84611009D01*
X78763095Y-84611009D02*
X78667857Y-84658628D01*
X78667857Y-84658628D02*
X78286905Y-84658628D01*
X79715476Y-84468152D02*
X79715476Y-85134819D01*
X79477381Y-84087200D02*
X79239286Y-84801485D01*
X79239286Y-84801485D02*
X79858333Y-84801485D01*
X22295180Y-62523808D02*
X21295180Y-62857141D01*
X21295180Y-62857141D02*
X22295180Y-63190474D01*
X21295180Y-63666665D02*
X21342800Y-63571427D01*
X21342800Y-63571427D02*
X21390419Y-63523808D01*
X21390419Y-63523808D02*
X21485657Y-63476189D01*
X21485657Y-63476189D02*
X21771371Y-63476189D01*
X21771371Y-63476189D02*
X21866609Y-63523808D01*
X21866609Y-63523808D02*
X21914228Y-63571427D01*
X21914228Y-63571427D02*
X21961847Y-63666665D01*
X21961847Y-63666665D02*
X21961847Y-63809522D01*
X21961847Y-63809522D02*
X21914228Y-63904760D01*
X21914228Y-63904760D02*
X21866609Y-63952379D01*
X21866609Y-63952379D02*
X21771371Y-63999998D01*
X21771371Y-63999998D02*
X21485657Y-63999998D01*
X21485657Y-63999998D02*
X21390419Y-63952379D01*
X21390419Y-63952379D02*
X21342800Y-63904760D01*
X21342800Y-63904760D02*
X21295180Y-63809522D01*
X21295180Y-63809522D02*
X21295180Y-63666665D01*
X21295180Y-64571427D02*
X21342800Y-64476189D01*
X21342800Y-64476189D02*
X21438038Y-64428570D01*
X21438038Y-64428570D02*
X22295180Y-64428570D01*
X21961847Y-64809523D02*
X21961847Y-65190475D01*
X22295180Y-64952380D02*
X21438038Y-64952380D01*
X21438038Y-64952380D02*
X21342800Y-64999999D01*
X21342800Y-64999999D02*
X21295180Y-65095237D01*
X21295180Y-65095237D02*
X21295180Y-65190475D01*
X21295180Y-65952380D02*
X21818990Y-65952380D01*
X21818990Y-65952380D02*
X21914228Y-65904761D01*
X21914228Y-65904761D02*
X21961847Y-65809523D01*
X21961847Y-65809523D02*
X21961847Y-65619047D01*
X21961847Y-65619047D02*
X21914228Y-65523809D01*
X21342800Y-65952380D02*
X21295180Y-65857142D01*
X21295180Y-65857142D02*
X21295180Y-65619047D01*
X21295180Y-65619047D02*
X21342800Y-65523809D01*
X21342800Y-65523809D02*
X21438038Y-65476190D01*
X21438038Y-65476190D02*
X21533276Y-65476190D01*
X21533276Y-65476190D02*
X21628514Y-65523809D01*
X21628514Y-65523809D02*
X21676133Y-65619047D01*
X21676133Y-65619047D02*
X21676133Y-65857142D01*
X21676133Y-65857142D02*
X21723752Y-65952380D01*
X21961847Y-66857142D02*
X21152323Y-66857142D01*
X21152323Y-66857142D02*
X21057085Y-66809523D01*
X21057085Y-66809523D02*
X21009466Y-66761904D01*
X21009466Y-66761904D02*
X20961847Y-66666666D01*
X20961847Y-66666666D02*
X20961847Y-66523809D01*
X20961847Y-66523809D02*
X21009466Y-66428571D01*
X21342800Y-66857142D02*
X21295180Y-66761904D01*
X21295180Y-66761904D02*
X21295180Y-66571428D01*
X21295180Y-66571428D02*
X21342800Y-66476190D01*
X21342800Y-66476190D02*
X21390419Y-66428571D01*
X21390419Y-66428571D02*
X21485657Y-66380952D01*
X21485657Y-66380952D02*
X21771371Y-66380952D01*
X21771371Y-66380952D02*
X21866609Y-66428571D01*
X21866609Y-66428571D02*
X21914228Y-66476190D01*
X21914228Y-66476190D02*
X21961847Y-66571428D01*
X21961847Y-66571428D02*
X21961847Y-66761904D01*
X21961847Y-66761904D02*
X21914228Y-66857142D01*
X21342800Y-67714285D02*
X21295180Y-67619047D01*
X21295180Y-67619047D02*
X21295180Y-67428571D01*
X21295180Y-67428571D02*
X21342800Y-67333333D01*
X21342800Y-67333333D02*
X21438038Y-67285714D01*
X21438038Y-67285714D02*
X21818990Y-67285714D01*
X21818990Y-67285714D02*
X21914228Y-67333333D01*
X21914228Y-67333333D02*
X21961847Y-67428571D01*
X21961847Y-67428571D02*
X21961847Y-67619047D01*
X21961847Y-67619047D02*
X21914228Y-67714285D01*
X21914228Y-67714285D02*
X21818990Y-67761904D01*
X21818990Y-67761904D02*
X21723752Y-67761904D01*
X21723752Y-67761904D02*
X21628514Y-67285714D01*
X21342800Y-68904762D02*
X21295180Y-69047619D01*
X21295180Y-69047619D02*
X21295180Y-69285714D01*
X21295180Y-69285714D02*
X21342800Y-69380952D01*
X21342800Y-69380952D02*
X21390419Y-69428571D01*
X21390419Y-69428571D02*
X21485657Y-69476190D01*
X21485657Y-69476190D02*
X21580895Y-69476190D01*
X21580895Y-69476190D02*
X21676133Y-69428571D01*
X21676133Y-69428571D02*
X21723752Y-69380952D01*
X21723752Y-69380952D02*
X21771371Y-69285714D01*
X21771371Y-69285714D02*
X21818990Y-69095238D01*
X21818990Y-69095238D02*
X21866609Y-69000000D01*
X21866609Y-69000000D02*
X21914228Y-68952381D01*
X21914228Y-68952381D02*
X22009466Y-68904762D01*
X22009466Y-68904762D02*
X22104704Y-68904762D01*
X22104704Y-68904762D02*
X22199942Y-68952381D01*
X22199942Y-68952381D02*
X22247561Y-69000000D01*
X22247561Y-69000000D02*
X22295180Y-69095238D01*
X22295180Y-69095238D02*
X22295180Y-69333333D01*
X22295180Y-69333333D02*
X22247561Y-69476190D01*
X21342800Y-70285714D02*
X21295180Y-70190476D01*
X21295180Y-70190476D02*
X21295180Y-70000000D01*
X21295180Y-70000000D02*
X21342800Y-69904762D01*
X21342800Y-69904762D02*
X21438038Y-69857143D01*
X21438038Y-69857143D02*
X21818990Y-69857143D01*
X21818990Y-69857143D02*
X21914228Y-69904762D01*
X21914228Y-69904762D02*
X21961847Y-70000000D01*
X21961847Y-70000000D02*
X21961847Y-70190476D01*
X21961847Y-70190476D02*
X21914228Y-70285714D01*
X21914228Y-70285714D02*
X21818990Y-70333333D01*
X21818990Y-70333333D02*
X21723752Y-70333333D01*
X21723752Y-70333333D02*
X21628514Y-69857143D01*
X21961847Y-70761905D02*
X21295180Y-70761905D01*
X21866609Y-70761905D02*
X21914228Y-70809524D01*
X21914228Y-70809524D02*
X21961847Y-70904762D01*
X21961847Y-70904762D02*
X21961847Y-71047619D01*
X21961847Y-71047619D02*
X21914228Y-71142857D01*
X21914228Y-71142857D02*
X21818990Y-71190476D01*
X21818990Y-71190476D02*
X21295180Y-71190476D01*
X21342800Y-71619048D02*
X21295180Y-71714286D01*
X21295180Y-71714286D02*
X21295180Y-71904762D01*
X21295180Y-71904762D02*
X21342800Y-72000000D01*
X21342800Y-72000000D02*
X21438038Y-72047619D01*
X21438038Y-72047619D02*
X21485657Y-72047619D01*
X21485657Y-72047619D02*
X21580895Y-72000000D01*
X21580895Y-72000000D02*
X21628514Y-71904762D01*
X21628514Y-71904762D02*
X21628514Y-71761905D01*
X21628514Y-71761905D02*
X21676133Y-71666667D01*
X21676133Y-71666667D02*
X21771371Y-71619048D01*
X21771371Y-71619048D02*
X21818990Y-71619048D01*
X21818990Y-71619048D02*
X21914228Y-71666667D01*
X21914228Y-71666667D02*
X21961847Y-71761905D01*
X21961847Y-71761905D02*
X21961847Y-71904762D01*
X21961847Y-71904762D02*
X21914228Y-72000000D01*
X21295180Y-72619048D02*
X21342800Y-72523810D01*
X21342800Y-72523810D02*
X21390419Y-72476191D01*
X21390419Y-72476191D02*
X21485657Y-72428572D01*
X21485657Y-72428572D02*
X21771371Y-72428572D01*
X21771371Y-72428572D02*
X21866609Y-72476191D01*
X21866609Y-72476191D02*
X21914228Y-72523810D01*
X21914228Y-72523810D02*
X21961847Y-72619048D01*
X21961847Y-72619048D02*
X21961847Y-72761905D01*
X21961847Y-72761905D02*
X21914228Y-72857143D01*
X21914228Y-72857143D02*
X21866609Y-72904762D01*
X21866609Y-72904762D02*
X21771371Y-72952381D01*
X21771371Y-72952381D02*
X21485657Y-72952381D01*
X21485657Y-72952381D02*
X21390419Y-72904762D01*
X21390419Y-72904762D02*
X21342800Y-72857143D01*
X21342800Y-72857143D02*
X21295180Y-72761905D01*
X21295180Y-72761905D02*
X21295180Y-72619048D01*
X21295180Y-73380953D02*
X21961847Y-73380953D01*
X21771371Y-73380953D02*
X21866609Y-73428572D01*
X21866609Y-73428572D02*
X21914228Y-73476191D01*
X21914228Y-73476191D02*
X21961847Y-73571429D01*
X21961847Y-73571429D02*
X21961847Y-73666667D01*
X21342800Y-73952382D02*
X21295180Y-74047620D01*
X21295180Y-74047620D02*
X21295180Y-74238096D01*
X21295180Y-74238096D02*
X21342800Y-74333334D01*
X21342800Y-74333334D02*
X21438038Y-74380953D01*
X21438038Y-74380953D02*
X21485657Y-74380953D01*
X21485657Y-74380953D02*
X21580895Y-74333334D01*
X21580895Y-74333334D02*
X21628514Y-74238096D01*
X21628514Y-74238096D02*
X21628514Y-74095239D01*
X21628514Y-74095239D02*
X21676133Y-74000001D01*
X21676133Y-74000001D02*
X21771371Y-73952382D01*
X21771371Y-73952382D02*
X21818990Y-73952382D01*
X21818990Y-73952382D02*
X21914228Y-74000001D01*
X21914228Y-74000001D02*
X21961847Y-74095239D01*
X21961847Y-74095239D02*
X21961847Y-74238096D01*
X21961847Y-74238096D02*
X21914228Y-74333334D01*
X61607142Y-147359580D02*
X61559523Y-147407200D01*
X61559523Y-147407200D02*
X61416666Y-147454819D01*
X61416666Y-147454819D02*
X61321428Y-147454819D01*
X61321428Y-147454819D02*
X61178571Y-147407200D01*
X61178571Y-147407200D02*
X61083333Y-147311961D01*
X61083333Y-147311961D02*
X61035714Y-147216723D01*
X61035714Y-147216723D02*
X60988095Y-147026247D01*
X60988095Y-147026247D02*
X60988095Y-146883390D01*
X60988095Y-146883390D02*
X61035714Y-146692914D01*
X61035714Y-146692914D02*
X61083333Y-146597676D01*
X61083333Y-146597676D02*
X61178571Y-146502438D01*
X61178571Y-146502438D02*
X61321428Y-146454819D01*
X61321428Y-146454819D02*
X61416666Y-146454819D01*
X61416666Y-146454819D02*
X61559523Y-146502438D01*
X61559523Y-146502438D02*
X61607142Y-146550057D01*
X61940476Y-146454819D02*
X62559523Y-146454819D01*
X62559523Y-146454819D02*
X62226190Y-146835771D01*
X62226190Y-146835771D02*
X62369047Y-146835771D01*
X62369047Y-146835771D02*
X62464285Y-146883390D01*
X62464285Y-146883390D02*
X62511904Y-146931009D01*
X62511904Y-146931009D02*
X62559523Y-147026247D01*
X62559523Y-147026247D02*
X62559523Y-147264342D01*
X62559523Y-147264342D02*
X62511904Y-147359580D01*
X62511904Y-147359580D02*
X62464285Y-147407200D01*
X62464285Y-147407200D02*
X62369047Y-147454819D01*
X62369047Y-147454819D02*
X62083333Y-147454819D01*
X62083333Y-147454819D02*
X61988095Y-147407200D01*
X61988095Y-147407200D02*
X61940476Y-147359580D01*
X63511904Y-147454819D02*
X62940476Y-147454819D01*
X63226190Y-147454819D02*
X63226190Y-146454819D01*
X63226190Y-146454819D02*
X63130952Y-146597676D01*
X63130952Y-146597676D02*
X63035714Y-146692914D01*
X63035714Y-146692914D02*
X62940476Y-146740533D01*
X61583333Y-86359580D02*
X61535714Y-86407200D01*
X61535714Y-86407200D02*
X61392857Y-86454819D01*
X61392857Y-86454819D02*
X61297619Y-86454819D01*
X61297619Y-86454819D02*
X61154762Y-86407200D01*
X61154762Y-86407200D02*
X61059524Y-86311961D01*
X61059524Y-86311961D02*
X61011905Y-86216723D01*
X61011905Y-86216723D02*
X60964286Y-86026247D01*
X60964286Y-86026247D02*
X60964286Y-85883390D01*
X60964286Y-85883390D02*
X61011905Y-85692914D01*
X61011905Y-85692914D02*
X61059524Y-85597676D01*
X61059524Y-85597676D02*
X61154762Y-85502438D01*
X61154762Y-85502438D02*
X61297619Y-85454819D01*
X61297619Y-85454819D02*
X61392857Y-85454819D01*
X61392857Y-85454819D02*
X61535714Y-85502438D01*
X61535714Y-85502438D02*
X61583333Y-85550057D01*
X62154762Y-85883390D02*
X62059524Y-85835771D01*
X62059524Y-85835771D02*
X62011905Y-85788152D01*
X62011905Y-85788152D02*
X61964286Y-85692914D01*
X61964286Y-85692914D02*
X61964286Y-85645295D01*
X61964286Y-85645295D02*
X62011905Y-85550057D01*
X62011905Y-85550057D02*
X62059524Y-85502438D01*
X62059524Y-85502438D02*
X62154762Y-85454819D01*
X62154762Y-85454819D02*
X62345238Y-85454819D01*
X62345238Y-85454819D02*
X62440476Y-85502438D01*
X62440476Y-85502438D02*
X62488095Y-85550057D01*
X62488095Y-85550057D02*
X62535714Y-85645295D01*
X62535714Y-85645295D02*
X62535714Y-85692914D01*
X62535714Y-85692914D02*
X62488095Y-85788152D01*
X62488095Y-85788152D02*
X62440476Y-85835771D01*
X62440476Y-85835771D02*
X62345238Y-85883390D01*
X62345238Y-85883390D02*
X62154762Y-85883390D01*
X62154762Y-85883390D02*
X62059524Y-85931009D01*
X62059524Y-85931009D02*
X62011905Y-85978628D01*
X62011905Y-85978628D02*
X61964286Y-86073866D01*
X61964286Y-86073866D02*
X61964286Y-86264342D01*
X61964286Y-86264342D02*
X62011905Y-86359580D01*
X62011905Y-86359580D02*
X62059524Y-86407200D01*
X62059524Y-86407200D02*
X62154762Y-86454819D01*
X62154762Y-86454819D02*
X62345238Y-86454819D01*
X62345238Y-86454819D02*
X62440476Y-86407200D01*
X62440476Y-86407200D02*
X62488095Y-86359580D01*
X62488095Y-86359580D02*
X62535714Y-86264342D01*
X62535714Y-86264342D02*
X62535714Y-86073866D01*
X62535714Y-86073866D02*
X62488095Y-85978628D01*
X62488095Y-85978628D02*
X62440476Y-85931009D01*
X62440476Y-85931009D02*
X62345238Y-85883390D01*
X42632142Y-45359580D02*
X42584523Y-45407200D01*
X42584523Y-45407200D02*
X42441666Y-45454819D01*
X42441666Y-45454819D02*
X42346428Y-45454819D01*
X42346428Y-45454819D02*
X42203571Y-45407200D01*
X42203571Y-45407200D02*
X42108333Y-45311961D01*
X42108333Y-45311961D02*
X42060714Y-45216723D01*
X42060714Y-45216723D02*
X42013095Y-45026247D01*
X42013095Y-45026247D02*
X42013095Y-44883390D01*
X42013095Y-44883390D02*
X42060714Y-44692914D01*
X42060714Y-44692914D02*
X42108333Y-44597676D01*
X42108333Y-44597676D02*
X42203571Y-44502438D01*
X42203571Y-44502438D02*
X42346428Y-44454819D01*
X42346428Y-44454819D02*
X42441666Y-44454819D01*
X42441666Y-44454819D02*
X42584523Y-44502438D01*
X42584523Y-44502438D02*
X42632142Y-44550057D01*
X43584523Y-45454819D02*
X43013095Y-45454819D01*
X43298809Y-45454819D02*
X43298809Y-44454819D01*
X43298809Y-44454819D02*
X43203571Y-44597676D01*
X43203571Y-44597676D02*
X43108333Y-44692914D01*
X43108333Y-44692914D02*
X43013095Y-44740533D01*
X44489285Y-44454819D02*
X44013095Y-44454819D01*
X44013095Y-44454819D02*
X43965476Y-44931009D01*
X43965476Y-44931009D02*
X44013095Y-44883390D01*
X44013095Y-44883390D02*
X44108333Y-44835771D01*
X44108333Y-44835771D02*
X44346428Y-44835771D01*
X44346428Y-44835771D02*
X44441666Y-44883390D01*
X44441666Y-44883390D02*
X44489285Y-44931009D01*
X44489285Y-44931009D02*
X44536904Y-45026247D01*
X44536904Y-45026247D02*
X44536904Y-45264342D01*
X44536904Y-45264342D02*
X44489285Y-45359580D01*
X44489285Y-45359580D02*
X44441666Y-45407200D01*
X44441666Y-45407200D02*
X44346428Y-45454819D01*
X44346428Y-45454819D02*
X44108333Y-45454819D01*
X44108333Y-45454819D02*
X44013095Y-45407200D01*
X44013095Y-45407200D02*
X43965476Y-45359580D01*
X33357142Y-140359580D02*
X33309523Y-140407200D01*
X33309523Y-140407200D02*
X33166666Y-140454819D01*
X33166666Y-140454819D02*
X33071428Y-140454819D01*
X33071428Y-140454819D02*
X32928571Y-140407200D01*
X32928571Y-140407200D02*
X32833333Y-140311961D01*
X32833333Y-140311961D02*
X32785714Y-140216723D01*
X32785714Y-140216723D02*
X32738095Y-140026247D01*
X32738095Y-140026247D02*
X32738095Y-139883390D01*
X32738095Y-139883390D02*
X32785714Y-139692914D01*
X32785714Y-139692914D02*
X32833333Y-139597676D01*
X32833333Y-139597676D02*
X32928571Y-139502438D01*
X32928571Y-139502438D02*
X33071428Y-139454819D01*
X33071428Y-139454819D02*
X33166666Y-139454819D01*
X33166666Y-139454819D02*
X33309523Y-139502438D01*
X33309523Y-139502438D02*
X33357142Y-139550057D01*
X33738095Y-139550057D02*
X33785714Y-139502438D01*
X33785714Y-139502438D02*
X33880952Y-139454819D01*
X33880952Y-139454819D02*
X34119047Y-139454819D01*
X34119047Y-139454819D02*
X34214285Y-139502438D01*
X34214285Y-139502438D02*
X34261904Y-139550057D01*
X34261904Y-139550057D02*
X34309523Y-139645295D01*
X34309523Y-139645295D02*
X34309523Y-139740533D01*
X34309523Y-139740533D02*
X34261904Y-139883390D01*
X34261904Y-139883390D02*
X33690476Y-140454819D01*
X33690476Y-140454819D02*
X34309523Y-140454819D01*
X34642857Y-139454819D02*
X35309523Y-139454819D01*
X35309523Y-139454819D02*
X34880952Y-140454819D01*
X53511905Y-107454819D02*
X53511905Y-106454819D01*
X53511905Y-106454819D02*
X53750000Y-106454819D01*
X53750000Y-106454819D02*
X53892857Y-106502438D01*
X53892857Y-106502438D02*
X53988095Y-106597676D01*
X53988095Y-106597676D02*
X54035714Y-106692914D01*
X54035714Y-106692914D02*
X54083333Y-106883390D01*
X54083333Y-106883390D02*
X54083333Y-107026247D01*
X54083333Y-107026247D02*
X54035714Y-107216723D01*
X54035714Y-107216723D02*
X53988095Y-107311961D01*
X53988095Y-107311961D02*
X53892857Y-107407200D01*
X53892857Y-107407200D02*
X53750000Y-107454819D01*
X53750000Y-107454819D02*
X53511905Y-107454819D01*
X54416667Y-106454819D02*
X55083333Y-106454819D01*
X55083333Y-106454819D02*
X54654762Y-107454819D01*
X76359580Y-110142857D02*
X76407200Y-110190476D01*
X76407200Y-110190476D02*
X76454819Y-110333333D01*
X76454819Y-110333333D02*
X76454819Y-110428571D01*
X76454819Y-110428571D02*
X76407200Y-110571428D01*
X76407200Y-110571428D02*
X76311961Y-110666666D01*
X76311961Y-110666666D02*
X76216723Y-110714285D01*
X76216723Y-110714285D02*
X76026247Y-110761904D01*
X76026247Y-110761904D02*
X75883390Y-110761904D01*
X75883390Y-110761904D02*
X75692914Y-110714285D01*
X75692914Y-110714285D02*
X75597676Y-110666666D01*
X75597676Y-110666666D02*
X75502438Y-110571428D01*
X75502438Y-110571428D02*
X75454819Y-110428571D01*
X75454819Y-110428571D02*
X75454819Y-110333333D01*
X75454819Y-110333333D02*
X75502438Y-110190476D01*
X75502438Y-110190476D02*
X75550057Y-110142857D01*
X75454819Y-109809523D02*
X75454819Y-109190476D01*
X75454819Y-109190476D02*
X75835771Y-109523809D01*
X75835771Y-109523809D02*
X75835771Y-109380952D01*
X75835771Y-109380952D02*
X75883390Y-109285714D01*
X75883390Y-109285714D02*
X75931009Y-109238095D01*
X75931009Y-109238095D02*
X76026247Y-109190476D01*
X76026247Y-109190476D02*
X76264342Y-109190476D01*
X76264342Y-109190476D02*
X76359580Y-109238095D01*
X76359580Y-109238095D02*
X76407200Y-109285714D01*
X76407200Y-109285714D02*
X76454819Y-109380952D01*
X76454819Y-109380952D02*
X76454819Y-109666666D01*
X76454819Y-109666666D02*
X76407200Y-109761904D01*
X76407200Y-109761904D02*
X76359580Y-109809523D01*
X75454819Y-108857142D02*
X75454819Y-108190476D01*
X75454819Y-108190476D02*
X76454819Y-108619047D01*
X51761905Y-70454819D02*
X51761905Y-69454819D01*
X51761905Y-69454819D02*
X52000000Y-69454819D01*
X52000000Y-69454819D02*
X52142857Y-69502438D01*
X52142857Y-69502438D02*
X52238095Y-69597676D01*
X52238095Y-69597676D02*
X52285714Y-69692914D01*
X52285714Y-69692914D02*
X52333333Y-69883390D01*
X52333333Y-69883390D02*
X52333333Y-70026247D01*
X52333333Y-70026247D02*
X52285714Y-70216723D01*
X52285714Y-70216723D02*
X52238095Y-70311961D01*
X52238095Y-70311961D02*
X52142857Y-70407200D01*
X52142857Y-70407200D02*
X52000000Y-70454819D01*
X52000000Y-70454819D02*
X51761905Y-70454819D01*
X52714286Y-69550057D02*
X52761905Y-69502438D01*
X52761905Y-69502438D02*
X52857143Y-69454819D01*
X52857143Y-69454819D02*
X53095238Y-69454819D01*
X53095238Y-69454819D02*
X53190476Y-69502438D01*
X53190476Y-69502438D02*
X53238095Y-69550057D01*
X53238095Y-69550057D02*
X53285714Y-69645295D01*
X53285714Y-69645295D02*
X53285714Y-69740533D01*
X53285714Y-69740533D02*
X53238095Y-69883390D01*
X53238095Y-69883390D02*
X52666667Y-70454819D01*
X52666667Y-70454819D02*
X53285714Y-70454819D01*
X57088095Y-58954819D02*
X57088095Y-57954819D01*
X57659523Y-58954819D02*
X57230952Y-58383390D01*
X57659523Y-57954819D02*
X57088095Y-58526247D01*
X76049819Y-114666666D02*
X75573628Y-114999999D01*
X76049819Y-115238094D02*
X75049819Y-115238094D01*
X75049819Y-115238094D02*
X75049819Y-114857142D01*
X75049819Y-114857142D02*
X75097438Y-114761904D01*
X75097438Y-114761904D02*
X75145057Y-114714285D01*
X75145057Y-114714285D02*
X75240295Y-114666666D01*
X75240295Y-114666666D02*
X75383152Y-114666666D01*
X75383152Y-114666666D02*
X75478390Y-114714285D01*
X75478390Y-114714285D02*
X75526009Y-114761904D01*
X75526009Y-114761904D02*
X75573628Y-114857142D01*
X75573628Y-114857142D02*
X75573628Y-115238094D01*
X75478390Y-114095237D02*
X75430771Y-114190475D01*
X75430771Y-114190475D02*
X75383152Y-114238094D01*
X75383152Y-114238094D02*
X75287914Y-114285713D01*
X75287914Y-114285713D02*
X75240295Y-114285713D01*
X75240295Y-114285713D02*
X75145057Y-114238094D01*
X75145057Y-114238094D02*
X75097438Y-114190475D01*
X75097438Y-114190475D02*
X75049819Y-114095237D01*
X75049819Y-114095237D02*
X75049819Y-113904761D01*
X75049819Y-113904761D02*
X75097438Y-113809523D01*
X75097438Y-113809523D02*
X75145057Y-113761904D01*
X75145057Y-113761904D02*
X75240295Y-113714285D01*
X75240295Y-113714285D02*
X75287914Y-113714285D01*
X75287914Y-113714285D02*
X75383152Y-113761904D01*
X75383152Y-113761904D02*
X75430771Y-113809523D01*
X75430771Y-113809523D02*
X75478390Y-113904761D01*
X75478390Y-113904761D02*
X75478390Y-114095237D01*
X75478390Y-114095237D02*
X75526009Y-114190475D01*
X75526009Y-114190475D02*
X75573628Y-114238094D01*
X75573628Y-114238094D02*
X75668866Y-114285713D01*
X75668866Y-114285713D02*
X75859342Y-114285713D01*
X75859342Y-114285713D02*
X75954580Y-114238094D01*
X75954580Y-114238094D02*
X76002200Y-114190475D01*
X76002200Y-114190475D02*
X76049819Y-114095237D01*
X76049819Y-114095237D02*
X76049819Y-113904761D01*
X76049819Y-113904761D02*
X76002200Y-113809523D01*
X76002200Y-113809523D02*
X75954580Y-113761904D01*
X75954580Y-113761904D02*
X75859342Y-113714285D01*
X75859342Y-113714285D02*
X75668866Y-113714285D01*
X75668866Y-113714285D02*
X75573628Y-113761904D01*
X75573628Y-113761904D02*
X75526009Y-113809523D01*
X75526009Y-113809523D02*
X75478390Y-113904761D01*
X44607142Y-106359580D02*
X44559523Y-106407200D01*
X44559523Y-106407200D02*
X44416666Y-106454819D01*
X44416666Y-106454819D02*
X44321428Y-106454819D01*
X44321428Y-106454819D02*
X44178571Y-106407200D01*
X44178571Y-106407200D02*
X44083333Y-106311961D01*
X44083333Y-106311961D02*
X44035714Y-106216723D01*
X44035714Y-106216723D02*
X43988095Y-106026247D01*
X43988095Y-106026247D02*
X43988095Y-105883390D01*
X43988095Y-105883390D02*
X44035714Y-105692914D01*
X44035714Y-105692914D02*
X44083333Y-105597676D01*
X44083333Y-105597676D02*
X44178571Y-105502438D01*
X44178571Y-105502438D02*
X44321428Y-105454819D01*
X44321428Y-105454819D02*
X44416666Y-105454819D01*
X44416666Y-105454819D02*
X44559523Y-105502438D01*
X44559523Y-105502438D02*
X44607142Y-105550057D01*
X44940476Y-105454819D02*
X45559523Y-105454819D01*
X45559523Y-105454819D02*
X45226190Y-105835771D01*
X45226190Y-105835771D02*
X45369047Y-105835771D01*
X45369047Y-105835771D02*
X45464285Y-105883390D01*
X45464285Y-105883390D02*
X45511904Y-105931009D01*
X45511904Y-105931009D02*
X45559523Y-106026247D01*
X45559523Y-106026247D02*
X45559523Y-106264342D01*
X45559523Y-106264342D02*
X45511904Y-106359580D01*
X45511904Y-106359580D02*
X45464285Y-106407200D01*
X45464285Y-106407200D02*
X45369047Y-106454819D01*
X45369047Y-106454819D02*
X45083333Y-106454819D01*
X45083333Y-106454819D02*
X44988095Y-106407200D01*
X44988095Y-106407200D02*
X44940476Y-106359580D01*
X46130952Y-105883390D02*
X46035714Y-105835771D01*
X46035714Y-105835771D02*
X45988095Y-105788152D01*
X45988095Y-105788152D02*
X45940476Y-105692914D01*
X45940476Y-105692914D02*
X45940476Y-105645295D01*
X45940476Y-105645295D02*
X45988095Y-105550057D01*
X45988095Y-105550057D02*
X46035714Y-105502438D01*
X46035714Y-105502438D02*
X46130952Y-105454819D01*
X46130952Y-105454819D02*
X46321428Y-105454819D01*
X46321428Y-105454819D02*
X46416666Y-105502438D01*
X46416666Y-105502438D02*
X46464285Y-105550057D01*
X46464285Y-105550057D02*
X46511904Y-105645295D01*
X46511904Y-105645295D02*
X46511904Y-105692914D01*
X46511904Y-105692914D02*
X46464285Y-105788152D01*
X46464285Y-105788152D02*
X46416666Y-105835771D01*
X46416666Y-105835771D02*
X46321428Y-105883390D01*
X46321428Y-105883390D02*
X46130952Y-105883390D01*
X46130952Y-105883390D02*
X46035714Y-105931009D01*
X46035714Y-105931009D02*
X45988095Y-105978628D01*
X45988095Y-105978628D02*
X45940476Y-106073866D01*
X45940476Y-106073866D02*
X45940476Y-106264342D01*
X45940476Y-106264342D02*
X45988095Y-106359580D01*
X45988095Y-106359580D02*
X46035714Y-106407200D01*
X46035714Y-106407200D02*
X46130952Y-106454819D01*
X46130952Y-106454819D02*
X46321428Y-106454819D01*
X46321428Y-106454819D02*
X46416666Y-106407200D01*
X46416666Y-106407200D02*
X46464285Y-106359580D01*
X46464285Y-106359580D02*
X46511904Y-106264342D01*
X46511904Y-106264342D02*
X46511904Y-106073866D01*
X46511904Y-106073866D02*
X46464285Y-105978628D01*
X46464285Y-105978628D02*
X46416666Y-105931009D01*
X46416666Y-105931009D02*
X46321428Y-105883390D01*
D11*
X58752500Y-110487258D02*
X58752500Y-110012742D01*
X59797500Y-110487258D02*
X59797500Y-110012742D01*
X60515000Y-137890580D02*
X60515000Y-137609420D01*
X61535000Y-137890580D02*
X61535000Y-137609420D01*
X65037742Y-105227500D02*
X65512258Y-105227500D01*
X65037742Y-106272500D02*
X65512258Y-106272500D01*
X46884420Y-89990000D02*
X47165580Y-89990000D01*
X46884420Y-91010000D02*
X47165580Y-91010000D01*
X63740000Y-80890580D02*
X63740000Y-80609420D01*
X64760000Y-80890580D02*
X64760000Y-80609420D01*
X58405000Y-40175000D02*
X58405000Y-44816000D01*
X58405000Y-40175000D02*
X68645000Y-40175000D01*
X58405000Y-41685000D02*
X68645000Y-41685000D01*
X58405000Y-44816000D02*
X68645000Y-44816000D01*
X61675000Y-40175000D02*
X61675000Y-41685000D01*
X65376000Y-40175000D02*
X65376000Y-41685000D01*
X68645000Y-40175000D02*
X68645000Y-44816000D01*
X51940000Y-45250000D02*
X51940000Y-44750000D01*
X51690000Y-45000000D02*
X52190000Y-45000000D01*
X52304437Y-44510000D02*
X52440000Y-44510000D01*
X52304437Y-44510000D02*
X51240000Y-43445563D01*
X54695563Y-44510000D02*
X54560000Y-44510000D01*
X54695563Y-44510000D02*
X55760000Y-43445563D01*
X51240000Y-43445563D02*
X51240000Y-39990000D01*
X55760000Y-43445563D02*
X55760000Y-39990000D01*
X51240000Y-39990000D02*
X52440000Y-39990000D01*
X55760000Y-39990000D02*
X54560000Y-39990000D01*
D12*
X31241400Y-118385101D02*
X22808600Y-118385101D01*
X22808600Y-118385101D02*
X22808600Y-153614901D01*
X31241400Y-153614901D02*
X31241400Y-118385101D01*
X22808600Y-153614901D02*
X31241400Y-153614901D01*
D13*
X27406000Y-117750101D02*
G75*
G03*
X27406000Y-117750101I-381000J0D01*
G01*
D14*
X49320000Y-81075000D02*
X49320000Y-87425000D01*
X39730000Y-81075000D02*
X39730000Y-87425000D01*
D15*
X48435000Y-79215000D02*
G75*
G03*
X48435000Y-79215000I-100000J0D01*
G01*
D12*
X50028800Y-71839303D02*
X50028800Y-69660697D01*
X40021200Y-69660697D02*
X40021200Y-71839303D01*
X40021200Y-71054800D02*
G75*
G03*
X40021200Y-70445200I0J304800D01*
G01*
G36*
X48390500Y-67041600D02*
G01*
X48009500Y-67041600D01*
X48009500Y-66787600D01*
X48390500Y-66787600D01*
X48390500Y-67041600D01*
G37*
D14*
X65600000Y-124955000D02*
X71950000Y-124955000D01*
X65600000Y-134545000D02*
X71950000Y-134545000D01*
D15*
X63840000Y-125940000D02*
G75*
G03*
X63840000Y-125940000I-100000J0D01*
G01*
D11*
X60525000Y-47690000D02*
X61025000Y-47690000D01*
X60775000Y-47440000D02*
X60775000Y-47940000D01*
X61265000Y-48054437D02*
X61265000Y-48190000D01*
X61265000Y-48054437D02*
X62329437Y-46990000D01*
X61265000Y-50445563D02*
X61265000Y-50310000D01*
X61265000Y-50445563D02*
X62329437Y-51510000D01*
X62329437Y-46990000D02*
X65785000Y-46990000D01*
X62329437Y-51510000D02*
X65785000Y-51510000D01*
X65785000Y-46990000D02*
X65785000Y-48190000D01*
X65785000Y-51510000D02*
X65785000Y-50310000D01*
X74515000Y-127890580D02*
X74515000Y-127609420D01*
X75535000Y-127890580D02*
X75535000Y-127609420D01*
D14*
X51600000Y-119955000D02*
X57950000Y-119955000D01*
X51600000Y-129545000D02*
X57950000Y-129545000D01*
D15*
X49840000Y-120940000D02*
G75*
G03*
X49840000Y-120940000I-100000J0D01*
G01*
D11*
X58359420Y-75740000D02*
X58640580Y-75740000D01*
X58359420Y-76760000D02*
X58640580Y-76760000D01*
X71977500Y-68737258D02*
X71977500Y-68262742D01*
X73022500Y-68737258D02*
X73022500Y-68262742D01*
X72237258Y-38022500D02*
X71762742Y-38022500D01*
X72237258Y-36977500D02*
X71762742Y-36977500D01*
X46515000Y-132890580D02*
X46515000Y-132609420D01*
X47535000Y-132890580D02*
X47535000Y-132609420D01*
X72237258Y-48022500D02*
X71762742Y-48022500D01*
X72237258Y-46977500D02*
X71762742Y-46977500D01*
X46134420Y-41990000D02*
X46415580Y-41990000D01*
X46134420Y-43010000D02*
X46415580Y-43010000D01*
X74165580Y-86010000D02*
X73884420Y-86010000D01*
X74165580Y-84990000D02*
X73884420Y-84990000D01*
X43797500Y-91012742D02*
X43797500Y-91487258D01*
X42752500Y-91012742D02*
X42752500Y-91487258D01*
X38200000Y-21545000D02*
X38200000Y-20755000D01*
X37600000Y-19745000D02*
X31900000Y-19745000D01*
X36350000Y-22595000D02*
X34650000Y-22595000D01*
X33350000Y-22595000D02*
X33150000Y-22595000D01*
X31300000Y-20755000D02*
X31300000Y-21545000D01*
D14*
X37600000Y-114955000D02*
X43950000Y-114955000D01*
X37600000Y-124545000D02*
X43950000Y-124545000D01*
D15*
X35840000Y-115940000D02*
G75*
G03*
X35840000Y-115940000I-100000J0D01*
G01*
D11*
X72260000Y-97140580D02*
X72260000Y-96859420D01*
X71240000Y-97140580D02*
X71240000Y-96859420D01*
D14*
X62350000Y-94205000D02*
X68700000Y-94205000D01*
X62350000Y-103795000D02*
X68700000Y-103795000D01*
D15*
X60590000Y-95190000D02*
G75*
G03*
X60590000Y-95190000I-100000J0D01*
G01*
D11*
X42905000Y-48925000D02*
X42905000Y-53566000D01*
X42905000Y-48925000D02*
X53145000Y-48925000D01*
X42905000Y-50435000D02*
X53145000Y-50435000D01*
X42905000Y-53566000D02*
X53145000Y-53566000D01*
X46175000Y-48925000D02*
X46175000Y-50435000D01*
X49876000Y-48925000D02*
X49876000Y-50435000D01*
X53145000Y-48925000D02*
X53145000Y-53566000D01*
X54785000Y-36250000D02*
X55805000Y-36250000D01*
X55805000Y-34780000D02*
X55805000Y-37720000D01*
X55805000Y-37720000D02*
X61245000Y-37720000D01*
X56585000Y-34780000D02*
X56585000Y-37720000D01*
X56705000Y-34780000D02*
X56705000Y-37720000D01*
X56825000Y-34780000D02*
X56825000Y-37720000D01*
X61245000Y-34780000D02*
X55805000Y-34780000D01*
X61245000Y-37720000D02*
X61245000Y-34780000D01*
X62265000Y-36250000D02*
X61245000Y-36250000D01*
D14*
X51600000Y-134955000D02*
X57950000Y-134955000D01*
X51600000Y-144545000D02*
X57950000Y-144545000D01*
D15*
X49840000Y-135940000D02*
G75*
G03*
X49840000Y-135940000I-100000J0D01*
G01*
D14*
X74986240Y-42091080D02*
X74158920Y-41263760D01*
X74158920Y-41263760D02*
X75062960Y-40359730D01*
X75890270Y-41187040D02*
X74986240Y-42091080D01*
D15*
X77600000Y-42250000D02*
G75*
G03*
X77600000Y-42250000I-100000J0D01*
G01*
D14*
X80420000Y-38750000D02*
G75*
G03*
X80420000Y-38750000I-2920000J0D01*
G01*
D11*
X78285000Y-89000000D02*
X79305000Y-89000000D01*
X79305000Y-87530000D02*
X79305000Y-90470000D01*
X79305000Y-90470000D02*
X84745000Y-90470000D01*
X80085000Y-87530000D02*
X80085000Y-90470000D01*
X80205000Y-87530000D02*
X80205000Y-90470000D01*
X80325000Y-87530000D02*
X80325000Y-90470000D01*
X84745000Y-87530000D02*
X79305000Y-87530000D01*
X84745000Y-90470000D02*
X84745000Y-87530000D01*
X85765000Y-89000000D02*
X84745000Y-89000000D01*
X42762258Y-76522500D02*
X42287742Y-76522500D01*
X42762258Y-75477500D02*
X42287742Y-75477500D01*
X75977500Y-68737258D02*
X75977500Y-68262742D01*
X77022500Y-68737258D02*
X77022500Y-68262742D01*
D14*
X37600000Y-129955000D02*
X43950000Y-129955000D01*
X37600000Y-139545000D02*
X43950000Y-139545000D01*
D15*
X35840000Y-130940000D02*
G75*
G03*
X35840000Y-130940000I-100000J0D01*
G01*
D11*
X56262742Y-90977500D02*
X56737258Y-90977500D01*
X56262742Y-92022500D02*
X56737258Y-92022500D01*
X60175000Y-77500000D02*
X56875000Y-77500000D01*
X56875000Y-77500000D02*
X56875000Y-81500000D01*
X55772500Y-54262742D02*
X55772500Y-54737258D01*
X54727500Y-54262742D02*
X54727500Y-54737258D01*
D12*
X44693500Y-22033600D02*
X44693500Y-30466400D01*
X44693500Y-30466400D02*
X79923300Y-30466400D01*
X79923300Y-22033600D02*
X44693500Y-22033600D01*
X79923300Y-30466400D02*
X79923300Y-22033600D01*
D13*
X44439500Y-26250000D02*
G75*
G03*
X44439500Y-26250000I-381000J0D01*
G01*
D14*
X74986240Y-62091080D02*
X74158920Y-61263760D01*
X74158920Y-61263760D02*
X75062960Y-60359730D01*
X75890270Y-61187040D02*
X74986240Y-62091080D01*
D15*
X77600000Y-62250000D02*
G75*
G03*
X77600000Y-62250000I-100000J0D01*
G01*
D14*
X80420000Y-58750000D02*
G75*
G03*
X80420000Y-58750000I-2920000J0D01*
G01*
D11*
X73977500Y-68737258D02*
X73977500Y-68262742D01*
X75022500Y-68737258D02*
X75022500Y-68262742D01*
X59785000Y-114109420D02*
X59785000Y-114390580D01*
X58765000Y-114109420D02*
X58765000Y-114390580D01*
X87765000Y-101640580D02*
X87765000Y-101359420D01*
X88785000Y-101640580D02*
X88785000Y-101359420D01*
X64515000Y-75640580D02*
X64515000Y-75359420D01*
X65535000Y-75640580D02*
X65535000Y-75359420D01*
D14*
X65600000Y-139955000D02*
X71950000Y-139955000D01*
X65600000Y-149545000D02*
X71950000Y-149545000D01*
D15*
X63840000Y-140940000D02*
G75*
G03*
X63840000Y-140940000I-100000J0D01*
G01*
D11*
X74515000Y-142890580D02*
X74515000Y-142609420D01*
X75535000Y-142890580D02*
X75535000Y-142609420D01*
X33859420Y-122990000D02*
X34140580Y-122990000D01*
X33859420Y-124010000D02*
X34140580Y-124010000D01*
X72237258Y-58034814D02*
X71762742Y-58034814D01*
X72237258Y-56989814D02*
X71762742Y-56989814D01*
X39415580Y-92510000D02*
X39134420Y-92510000D01*
X39415580Y-91490000D02*
X39134420Y-91490000D01*
X59785000Y-101859420D02*
X59785000Y-102140580D01*
X58765000Y-101859420D02*
X58765000Y-102140580D01*
D14*
X68700000Y-117045000D02*
X62350000Y-117045000D01*
X68700000Y-107455000D02*
X62350000Y-107455000D01*
D15*
X70660000Y-116060000D02*
G75*
G03*
X70660000Y-116060000I-100000J0D01*
G01*
D11*
X79260000Y-74859420D02*
X79260000Y-75140580D01*
X78240000Y-74859420D02*
X78240000Y-75140580D01*
X46134420Y-46990000D02*
X46415580Y-46990000D01*
X46134420Y-48010000D02*
X46415580Y-48010000D01*
X68787742Y-65977500D02*
X69262258Y-65977500D01*
X68787742Y-67022500D02*
X69262258Y-67022500D01*
X46515000Y-117890580D02*
X46515000Y-117609420D01*
X47535000Y-117890580D02*
X47535000Y-117609420D01*
D12*
X81185697Y-122003800D02*
X83364303Y-122003800D01*
X83364303Y-111996200D02*
X81185697Y-111996200D01*
X81970200Y-111996200D02*
G75*
G03*
X82579800Y-111996200I304800J0D01*
G01*
G36*
X86237400Y-120365500D02*
G01*
X85983400Y-120365500D01*
X85983400Y-119984500D01*
X86237400Y-119984500D01*
X86237400Y-120365500D01*
G37*
D11*
X81012258Y-80272500D02*
X80537742Y-80272500D01*
X81012258Y-79227500D02*
X80537742Y-79227500D01*
X49415580Y-55760000D02*
X49134420Y-55760000D01*
X49415580Y-54740000D02*
X49134420Y-54740000D01*
X47609420Y-127990000D02*
X47890580Y-127990000D01*
X47609420Y-129010000D02*
X47890580Y-129010000D01*
D14*
X46820000Y-95075000D02*
X46820000Y-101425000D01*
X37230000Y-95075000D02*
X37230000Y-101425000D01*
D15*
X45935000Y-93215000D02*
G75*
G03*
X45935000Y-93215000I-100000J0D01*
G01*
D11*
X57227500Y-54737258D02*
X57227500Y-54262742D01*
X58272500Y-54737258D02*
X58272500Y-54262742D01*
X41285000Y-60000000D02*
X42305000Y-60000000D01*
X42305000Y-58530000D02*
X42305000Y-61470000D01*
X42305000Y-61470000D02*
X47745000Y-61470000D01*
X43085000Y-58530000D02*
X43085000Y-61470000D01*
X43205000Y-58530000D02*
X43205000Y-61470000D01*
X43325000Y-58530000D02*
X43325000Y-61470000D01*
X47745000Y-58530000D02*
X42305000Y-58530000D01*
X47745000Y-61470000D02*
X47745000Y-58530000D01*
X48765000Y-60000000D02*
X47745000Y-60000000D01*
X39859420Y-77490000D02*
X40140580Y-77490000D01*
X39859420Y-78510000D02*
X40140580Y-78510000D01*
D14*
X78850000Y-98705000D02*
X85200000Y-98705000D01*
X78850000Y-108295000D02*
X85200000Y-108295000D01*
D15*
X77090000Y-99690000D02*
G75*
G03*
X77090000Y-99690000I-100000J0D01*
G01*
D10*
X89095000Y-81900000D02*
X90495000Y-81900000D01*
X92895000Y-81900000D02*
X93045000Y-81900000D01*
X93045000Y-81900000D02*
X93045000Y-81600000D01*
X93045000Y-81600000D02*
X93495000Y-81600000D01*
X86920000Y-79550000D02*
X87345000Y-79550000D01*
X87345000Y-79550000D02*
X87345000Y-80550000D01*
X86920000Y-78825000D02*
X86920000Y-79550000D01*
X87345000Y-75950000D02*
X87345000Y-74950000D01*
X93045000Y-73900000D02*
X93045000Y-73600000D01*
X93495000Y-73900000D02*
X93045000Y-73900000D01*
X90495000Y-73600000D02*
X89095000Y-73600000D01*
X93045000Y-73600000D02*
X92895000Y-73600000D01*
D11*
X67285000Y-84837221D02*
X67285000Y-85162779D01*
X66265000Y-84837221D02*
X66265000Y-85162779D01*
X50262742Y-93727500D02*
X50737258Y-93727500D01*
X50262742Y-94772500D02*
X50737258Y-94772500D01*
X70787742Y-90977500D02*
X71262258Y-90977500D01*
X70787742Y-92022500D02*
X71262258Y-92022500D01*
X59477500Y-90987258D02*
X59477500Y-90512742D01*
X60522500Y-90987258D02*
X60522500Y-90512742D01*
X49750000Y-105740000D02*
X49750000Y-104720000D01*
X48280000Y-104720000D02*
X51220000Y-104720000D01*
X51220000Y-104720000D02*
X51220000Y-99280000D01*
X48280000Y-103940000D02*
X51220000Y-103940000D01*
X48280000Y-103820000D02*
X51220000Y-103820000D01*
X48280000Y-103700000D02*
X51220000Y-103700000D01*
X48280000Y-99280000D02*
X48280000Y-104720000D01*
X51220000Y-99280000D02*
X48280000Y-99280000D01*
X49750000Y-98260000D02*
X49750000Y-99280000D01*
D12*
X82558600Y-68364900D02*
X90991400Y-68364900D01*
X90991400Y-68364900D02*
X90991400Y-33135100D01*
X82558600Y-33135100D02*
X82558600Y-68364900D01*
X90991400Y-33135100D02*
X82558600Y-33135100D01*
D13*
X87156000Y-68999900D02*
G75*
G03*
X87156000Y-68999900I-381000J0D01*
G01*
D11*
X58640580Y-83260000D02*
X58359420Y-83260000D01*
X58640580Y-82240000D02*
X58359420Y-82240000D01*
X64415580Y-84510000D02*
X64134420Y-84510000D01*
X64415580Y-83490000D02*
X64134420Y-83490000D01*
X83772500Y-76262742D02*
X83772500Y-76737258D01*
X82727500Y-76262742D02*
X82727500Y-76737258D01*
X68884420Y-68990000D02*
X69165580Y-68990000D01*
X68884420Y-70010000D02*
X69165580Y-70010000D01*
X73262742Y-88477500D02*
X73737258Y-88477500D01*
X73262742Y-89522500D02*
X73737258Y-89522500D01*
X68884420Y-71990000D02*
X69165580Y-71990000D01*
X68884420Y-73010000D02*
X69165580Y-73010000D01*
X67915000Y-75390000D02*
X67915000Y-75840000D01*
X67915000Y-75840000D02*
X66625000Y-75840000D01*
X67915000Y-82610000D02*
X67915000Y-82160000D01*
X68365000Y-75390000D02*
X67915000Y-75390000D01*
X68365000Y-82610000D02*
X67915000Y-82610000D01*
X74685000Y-75390000D02*
X75135000Y-75390000D01*
X74685000Y-82610000D02*
X75135000Y-82610000D01*
X75135000Y-75390000D02*
X75135000Y-75840000D01*
X75135000Y-82610000D02*
X75135000Y-82160000D01*
D14*
X74986240Y-52091080D02*
X74158920Y-51263760D01*
X74158920Y-51263760D02*
X75062960Y-50359730D01*
X75890270Y-51187040D02*
X74986240Y-52091080D01*
D15*
X77600000Y-52250000D02*
G75*
G03*
X77600000Y-52250000I-100000J0D01*
G01*
D14*
X80420000Y-48750000D02*
G75*
G03*
X80420000Y-48750000I-2920000J0D01*
G01*
D11*
X84015000Y-95500000D02*
X82995000Y-95500000D01*
X82995000Y-96970000D02*
X82995000Y-94030000D01*
X82995000Y-94030000D02*
X77555000Y-94030000D01*
X82215000Y-96970000D02*
X82215000Y-94030000D01*
X82095000Y-96970000D02*
X82095000Y-94030000D01*
X81975000Y-96970000D02*
X81975000Y-94030000D01*
X77555000Y-96970000D02*
X82995000Y-96970000D01*
X77555000Y-94030000D02*
X77555000Y-96970000D01*
X76535000Y-95500000D02*
X77555000Y-95500000D01*
X47859420Y-142990000D02*
X48140580Y-142990000D01*
X47859420Y-144010000D02*
X48140580Y-144010000D01*
X72260000Y-107609420D02*
X72260000Y-107890580D01*
X71240000Y-107609420D02*
X71240000Y-107890580D01*
X60515000Y-122890580D02*
X60515000Y-122609420D01*
X61535000Y-122890580D02*
X61535000Y-122609420D01*
X61609420Y-132990000D02*
X61890580Y-132990000D01*
X61609420Y-134010000D02*
X61890580Y-134010000D01*
X75522500Y-101012742D02*
X75522500Y-101487258D01*
X74477500Y-101012742D02*
X74477500Y-101487258D01*
X75787742Y-91477500D02*
X76262258Y-91477500D01*
X75787742Y-92522500D02*
X76262258Y-92522500D01*
X65890580Y-89510000D02*
X65609420Y-89510000D01*
X65890580Y-88490000D02*
X65609420Y-88490000D01*
X79262258Y-83772500D02*
X78787742Y-83772500D01*
X79262258Y-82727500D02*
X78787742Y-82727500D01*
D12*
X31241400Y-62385101D02*
X22808600Y-62385101D01*
X22808600Y-62385101D02*
X22808600Y-97614901D01*
X31241400Y-97614901D02*
X31241400Y-62385101D01*
X22808600Y-97614901D02*
X31241400Y-97614901D01*
D13*
X27406000Y-61750101D02*
G75*
G03*
X27406000Y-61750101I-381000J0D01*
G01*
D11*
X61859420Y-147990000D02*
X62140580Y-147990000D01*
X61859420Y-149010000D02*
X62140580Y-149010000D01*
X64415580Y-86510000D02*
X64134420Y-86510000D01*
X64415580Y-85490000D02*
X64134420Y-85490000D01*
X46134420Y-44490000D02*
X46415580Y-44490000D01*
X46134420Y-45510000D02*
X46415580Y-45510000D01*
X33859420Y-137990000D02*
X34140580Y-137990000D01*
X33859420Y-139010000D02*
X34140580Y-139010000D01*
X54250000Y-95760000D02*
X54250000Y-96780000D01*
X55720000Y-96780000D02*
X52780000Y-96780000D01*
X52780000Y-96780000D02*
X52780000Y-102220000D01*
X55720000Y-97560000D02*
X52780000Y-97560000D01*
X55720000Y-97680000D02*
X52780000Y-97680000D01*
X55720000Y-97800000D02*
X52780000Y-97800000D01*
X55720000Y-102220000D02*
X55720000Y-96780000D01*
X52780000Y-102220000D02*
X55720000Y-102220000D01*
X54250000Y-103240000D02*
X54250000Y-102220000D01*
X76285000Y-106359420D02*
X76285000Y-106640580D01*
X75265000Y-106359420D02*
X75265000Y-106640580D01*
X55250000Y-60510000D02*
X55250000Y-61530000D01*
X56720000Y-61530000D02*
X53780000Y-61530000D01*
X53780000Y-61530000D02*
X53780000Y-66970000D01*
X56720000Y-62310000D02*
X53780000Y-62310000D01*
X56720000Y-62430000D02*
X53780000Y-62430000D01*
X56720000Y-62550000D02*
X53780000Y-62550000D01*
X56720000Y-66970000D02*
X56720000Y-61530000D01*
X53780000Y-66970000D02*
X56720000Y-66970000D01*
X55250000Y-67990000D02*
X55250000Y-66970000D01*
X76502500Y-114737258D02*
X76502500Y-114262742D01*
X77547500Y-114737258D02*
X77547500Y-114262742D01*
X43859420Y-103990000D02*
X44140580Y-103990000D01*
X43859420Y-105010000D02*
X44140580Y-105010000D01*
%LPC*%
D16*
X89000000Y-162750000D03*
D17*
X59275000Y-111075000D03*
X59275000Y-109425000D03*
D18*
X61025000Y-138525000D03*
X61025000Y-136975000D03*
D19*
X64450000Y-105750000D03*
X66100000Y-105750000D03*
D20*
X46250000Y-90500000D03*
X47800000Y-90500000D03*
D18*
X64250000Y-81525000D03*
X64250000Y-79975000D03*
D21*
X60985000Y-43445000D03*
D22*
X63525000Y-43445000D03*
X66065000Y-43445000D03*
D23*
X53500000Y-44050000D03*
X53500000Y-40450000D03*
D24*
X27025000Y-121000000D03*
X27025000Y-126000000D03*
X27025000Y-131000001D03*
X27025000Y-136000001D03*
X27025000Y-141000001D03*
X27025000Y-146000001D03*
X27025000Y-151000001D03*
D25*
X48335000Y-80280000D03*
D26*
X45795000Y-80280000D03*
X43255000Y-80280000D03*
X40715000Y-80280000D03*
X40715000Y-88220000D03*
X43255000Y-88220000D03*
X45795000Y-88220000D03*
X48335000Y-88220000D03*
D27*
X40580000Y-73112200D03*
X41850000Y-73112200D03*
X43120000Y-73112200D03*
X44390000Y-73112200D03*
X45660000Y-73112200D03*
X46930000Y-73112200D03*
X48200000Y-73112200D03*
X49470000Y-73112200D03*
X49470000Y-68387800D03*
X48200000Y-68387800D03*
X46930000Y-68387800D03*
X45660000Y-68387800D03*
X44390000Y-68387800D03*
X43120000Y-68387800D03*
X41850000Y-68387800D03*
X40580000Y-68387800D03*
D28*
X64805000Y-125940000D03*
D26*
X64805000Y-128480000D03*
X64805000Y-131020000D03*
X64805000Y-133560000D03*
X72745000Y-133560000D03*
X72745000Y-131020000D03*
X72745000Y-128480000D03*
X72745000Y-125940000D03*
D29*
X61725000Y-49250000D03*
X65325000Y-49250000D03*
D18*
X75025000Y-128525000D03*
X75025000Y-126975000D03*
D28*
X50805000Y-120940000D03*
D26*
X50805000Y-123480000D03*
X50805000Y-126020000D03*
X50805000Y-128560000D03*
X58745000Y-128560000D03*
X58745000Y-126020000D03*
X58745000Y-123480000D03*
X58745000Y-120940000D03*
D20*
X57725000Y-76250000D03*
X59275000Y-76250000D03*
D17*
X72500000Y-69325000D03*
X72500000Y-67675000D03*
D30*
X72825000Y-37500000D03*
X71175000Y-37500000D03*
D18*
X47025000Y-133525000D03*
X47025000Y-131975000D03*
D30*
X72825000Y-47500000D03*
X71175000Y-47500000D03*
D20*
X45500000Y-42500000D03*
X47050000Y-42500000D03*
D31*
X74800000Y-85500000D03*
X73250000Y-85500000D03*
D32*
X43275000Y-90425000D03*
X43275000Y-92075000D03*
D33*
X38400000Y-22255000D03*
X38400000Y-20045000D03*
D34*
X36250000Y-21145000D03*
X33250000Y-21145000D03*
D33*
X31100000Y-22255000D03*
X31100000Y-20045000D03*
D35*
X37000000Y-22905000D03*
X34000000Y-22905000D03*
X32500000Y-22905000D03*
D28*
X36805000Y-115940000D03*
D26*
X36805000Y-118480000D03*
X36805000Y-121020000D03*
X36805000Y-123560000D03*
X44745000Y-123560000D03*
X44745000Y-121020000D03*
X44745000Y-118480000D03*
X44745000Y-115940000D03*
D18*
X71750000Y-96225000D03*
X71750000Y-97775000D03*
D28*
X61555000Y-95190000D03*
D26*
X61555000Y-97730000D03*
X61555000Y-100270000D03*
X61555000Y-102810000D03*
X69495000Y-102810000D03*
X69495000Y-100270000D03*
X69495000Y-97730000D03*
X69495000Y-95190000D03*
D21*
X45485000Y-52195000D03*
D22*
X48025000Y-52195000D03*
X50565000Y-52195000D03*
D36*
X53445000Y-36250000D03*
D37*
X63605000Y-36250000D03*
D28*
X50805000Y-135940000D03*
D26*
X50805000Y-138480000D03*
X50805000Y-141020000D03*
X50805000Y-143560000D03*
X58745000Y-143560000D03*
X58745000Y-141020000D03*
X58745000Y-138480000D03*
X58745000Y-135940000D03*
D38*
X77500000Y-40020000D03*
D39*
X78770000Y-38750000D03*
X77500000Y-37480000D03*
D36*
X76945000Y-89000000D03*
D37*
X87105000Y-89000000D03*
D30*
X43350000Y-76000000D03*
X41700000Y-76000000D03*
D17*
X76500000Y-69325000D03*
X76500000Y-67675000D03*
D28*
X36805000Y-130940000D03*
D26*
X36805000Y-133480000D03*
X36805000Y-136020000D03*
X36805000Y-138560000D03*
X44745000Y-138560000D03*
X44745000Y-136020000D03*
X44745000Y-133480000D03*
X44745000Y-130940000D03*
D19*
X55675000Y-91500000D03*
X57325000Y-91500000D03*
D40*
X57675000Y-78400000D03*
X57675000Y-80600000D03*
X59375000Y-80600000D03*
X59375000Y-78400000D03*
D32*
X55250000Y-53675000D03*
X55250000Y-55325000D03*
D24*
X47308399Y-26250000D03*
X52308399Y-26250000D03*
X57308400Y-26250000D03*
X62308400Y-26250000D03*
X67308400Y-26250000D03*
X72308400Y-26250000D03*
X77308400Y-26250000D03*
D38*
X77500000Y-60020000D03*
D39*
X78770000Y-58750000D03*
X77500000Y-57480000D03*
D17*
X74500000Y-69325000D03*
X74500000Y-67675000D03*
D41*
X59275000Y-113475000D03*
X59275000Y-115025000D03*
D18*
X88275000Y-102275000D03*
X88275000Y-100725000D03*
X65025000Y-76275000D03*
X65025000Y-74725000D03*
D28*
X64805000Y-140940000D03*
D26*
X64805000Y-143480000D03*
X64805000Y-146020000D03*
X64805000Y-148560000D03*
X72745000Y-148560000D03*
X72745000Y-146020000D03*
X72745000Y-143480000D03*
X72745000Y-140940000D03*
D18*
X75025000Y-143525000D03*
X75025000Y-141975000D03*
D20*
X33225000Y-123500000D03*
X34775000Y-123500000D03*
D30*
X72825000Y-57512314D03*
X71175000Y-57512314D03*
D31*
X40050000Y-92000000D03*
X38500000Y-92000000D03*
D41*
X59275000Y-101225000D03*
X59275000Y-102775000D03*
D42*
X69495000Y-116060000D03*
D26*
X69495000Y-113520000D03*
X69495000Y-110980000D03*
X69495000Y-108440000D03*
X61555000Y-108440000D03*
X61555000Y-110980000D03*
X61555000Y-113520000D03*
X61555000Y-116060000D03*
D41*
X78750000Y-74225000D03*
X78750000Y-75775000D03*
D20*
X45500000Y-47500000D03*
X47050000Y-47500000D03*
D19*
X68200000Y-66500000D03*
X69850000Y-66500000D03*
D18*
X47025000Y-118525000D03*
X47025000Y-116975000D03*
D43*
X79912800Y-112555000D03*
X79912800Y-113825000D03*
X79912800Y-115095000D03*
X79912800Y-116365000D03*
X79912800Y-117635000D03*
X79912800Y-118905000D03*
X79912800Y-120175000D03*
X79912800Y-121445000D03*
X84637200Y-121445000D03*
X84637200Y-120175000D03*
X84637200Y-118905000D03*
X84637200Y-117635000D03*
X84637200Y-116365000D03*
X84637200Y-115095000D03*
X84637200Y-113825000D03*
X84637200Y-112555000D03*
D30*
X81600000Y-79750000D03*
X79950000Y-79750000D03*
D31*
X50050000Y-55250000D03*
X48500000Y-55250000D03*
D20*
X46975000Y-128500000D03*
X48525000Y-128500000D03*
D25*
X45835000Y-94280000D03*
D26*
X43295000Y-94280000D03*
X40755000Y-94280000D03*
X38215000Y-94280000D03*
X38215000Y-102220000D03*
X40755000Y-102220000D03*
X43295000Y-102220000D03*
X45835000Y-102220000D03*
D17*
X57750000Y-55325000D03*
X57750000Y-53675000D03*
D36*
X39945000Y-60000000D03*
D37*
X50105000Y-60000000D03*
D20*
X39225000Y-78000000D03*
X40775000Y-78000000D03*
D16*
X24750000Y-162750000D03*
D28*
X78055000Y-99690000D03*
D26*
X78055000Y-102230000D03*
X78055000Y-104770000D03*
X78055000Y-107310000D03*
X85995000Y-107310000D03*
X85995000Y-104770000D03*
X85995000Y-102230000D03*
X85995000Y-99690000D03*
D44*
X88945000Y-80250000D03*
X88945000Y-75250000D03*
D45*
X87845000Y-79050000D03*
X87845000Y-78400000D03*
X87845000Y-77750000D03*
X87845000Y-77100000D03*
X87845000Y-76450000D03*
D46*
X91695000Y-81625000D03*
D47*
X87895000Y-81475000D03*
X87895000Y-74025000D03*
D46*
X91695000Y-73875000D03*
D48*
X66775000Y-84212500D03*
X66775000Y-85787500D03*
D19*
X49675000Y-94250000D03*
X51325000Y-94250000D03*
X70200000Y-91500000D03*
X71850000Y-91500000D03*
D17*
X60000000Y-91575000D03*
X60000000Y-89925000D03*
D16*
X24750000Y-24000000D03*
D36*
X49750000Y-107080000D03*
D37*
X49750000Y-96920000D03*
D24*
X86775000Y-65750001D03*
X86775000Y-60750001D03*
X86775000Y-55750000D03*
X86775000Y-50750000D03*
X86775000Y-45750000D03*
X86775000Y-40750000D03*
X86775000Y-35750000D03*
D31*
X59275000Y-82750000D03*
X57725000Y-82750000D03*
X65050000Y-84000000D03*
X63500000Y-84000000D03*
D32*
X83250000Y-75675000D03*
X83250000Y-77325000D03*
D20*
X68250000Y-69500000D03*
X69800000Y-69500000D03*
D19*
X72675000Y-89000000D03*
X74325000Y-89000000D03*
D20*
X68250000Y-72500000D03*
X69800000Y-72500000D03*
D49*
X67362500Y-76250000D03*
X67362500Y-76750000D03*
X67362500Y-77250000D03*
X67362500Y-77750000D03*
X67362500Y-78250000D03*
X67362500Y-78750000D03*
X67362500Y-79250000D03*
X67362500Y-79750000D03*
X67362500Y-80250000D03*
X67362500Y-80750000D03*
X67362500Y-81250000D03*
X67362500Y-81750000D03*
D50*
X68775000Y-83162500D03*
X69275000Y-83162500D03*
X69775000Y-83162500D03*
X70275000Y-83162500D03*
X70775000Y-83162500D03*
X71275000Y-83162500D03*
X71775000Y-83162500D03*
X72275000Y-83162500D03*
X72775000Y-83162500D03*
X73275000Y-83162500D03*
X73775000Y-83162500D03*
X74275000Y-83162500D03*
D49*
X75687500Y-81750000D03*
X75687500Y-81250000D03*
X75687500Y-80750000D03*
X75687500Y-80250000D03*
X75687500Y-79750000D03*
X75687500Y-79250000D03*
X75687500Y-78750000D03*
X75687500Y-78250000D03*
X75687500Y-77750000D03*
X75687500Y-77250000D03*
X75687500Y-76750000D03*
X75687500Y-76250000D03*
D50*
X74275000Y-74837500D03*
X73775000Y-74837500D03*
X73275000Y-74837500D03*
X72775000Y-74837500D03*
X72275000Y-74837500D03*
X71775000Y-74837500D03*
X71275000Y-74837500D03*
X70775000Y-74837500D03*
X70275000Y-74837500D03*
X69775000Y-74837500D03*
X69275000Y-74837500D03*
X68775000Y-74837500D03*
D38*
X77500000Y-50020000D03*
D39*
X78770000Y-48750000D03*
X77500000Y-47480000D03*
D36*
X85355000Y-95500000D03*
D37*
X75195000Y-95500000D03*
D20*
X47225000Y-143500000D03*
X48775000Y-143500000D03*
D41*
X71750000Y-106975000D03*
X71750000Y-108525000D03*
D18*
X61025000Y-123525000D03*
X61025000Y-121975000D03*
D20*
X60975000Y-133500000D03*
X62525000Y-133500000D03*
D32*
X75000000Y-100425000D03*
X75000000Y-102075000D03*
D19*
X75200000Y-92000000D03*
X76850000Y-92000000D03*
D31*
X66525000Y-89000000D03*
X64975000Y-89000000D03*
D30*
X79850000Y-83250000D03*
X78200000Y-83250000D03*
D24*
X27025000Y-65000000D03*
X27025000Y-70000000D03*
X27025000Y-75000001D03*
X27025000Y-80000001D03*
X27025000Y-85000001D03*
X27025000Y-90000001D03*
X27025000Y-95000001D03*
D20*
X61225000Y-148500000D03*
X62775000Y-148500000D03*
D31*
X65050000Y-86000000D03*
X63500000Y-86000000D03*
D20*
X45500000Y-45000000D03*
X47050000Y-45000000D03*
X33225000Y-138500000D03*
X34775000Y-138500000D03*
D16*
X89000000Y-24000000D03*
D36*
X54250000Y-94420000D03*
D37*
X54250000Y-104580000D03*
D41*
X75775000Y-105725000D03*
X75775000Y-107275000D03*
D36*
X55250000Y-59170000D03*
D37*
X55250000Y-69330000D03*
D17*
X77025000Y-115325000D03*
X77025000Y-113675000D03*
D20*
X43225000Y-104500000D03*
X44775000Y-104500000D03*
%LPD*%
M02*
